/* XPM */
static char *result[] = {
/* columns rows colors chars-per-pixel */
"64 64 252 2 ",
"   c #170A25",
".  c #190F23",
"X  c #1B0D2C",
"o  c #1A1130",
"O  c #1E1131",
"+  c #1D143D",
"@  c #20112F",
"#  c #221334",
"$  c #241539",
"%  c #27193B",
"&  c #2B1C3C",
"*  c #102F31",
"=  c #0A4C36",
"-  c #0E5435",
";  c #0B663B",
":  c #191446",
">  c #1A144A",
",  c #181756",
"<  c #12165D",
"1  c #1A1A5C",
"2  c #241945",
"3  c #2B1D42",
"4  c #231B4B",
"5  c #271D48",
"6  c #221D56",
"7  c #132E51",
"8  c #2C214A",
"9  c #342444",
"0  c #34254C",
"q  c #382848",
"w  c #3D2C4B",
"e  c #292257",
"r  c #362A56",
"t  c #393257",
"y  c #111763",
"u  c #131964",
"i  c #1C1C63",
"p  c #141B6C",
"a  c #1B1D6B",
"s  c #161E74",
"d  c #191F75",
"f  c #171F7A",
"g  c #181F7B",
"h  c #201F61",
"j  c #162568",
"k  c #113A64",
"l  c #152577",
"z  c #1A2274",
"x  c #19217D",
"c  c #163379",
"v  c #282565",
"b  c #393164",
"n  c #232878",
"m  c #242B7D",
"M  c #2A357B",
"N  c #35357A",
"B  c #43304E",
"V  c #443454",
"C  c #4A3958",
"Z  c #533E5C",
"A  c #493A67",
"S  c #115550",
"D  c #0A6746",
"F  c #136C4D",
"G  c #0B7649",
"H  c #0A7854",
"J  c #157859",
"K  c #2B7357",
"L  c #15506F",
"P  c #2A5B6B",
"I  c #146E6F",
"U  c #1A7969",
"Y  c #286C6F",
"T  c #4B435A",
"R  c #584867",
"E  c #4B4471",
"W  c #574B74",
"Q  c #5D5778",
"!  c #695473",
"~  c #685675",
"^  c #557075",
"/  c #0B8559",
"(  c #108A51",
")  c #15855A",
"_  c #0B9458",
"`  c #21805A",
"'  c #0A8865",
"]  c #168A67",
"[  c #0A9667",
"{  c #189868",
"}  c #0E8676",
"|  c #178976",
" . c #0B9976",
".. c #179876",
"X. c #289375",
"o. c #269B77",
"O. c #0FAA6C",
"+. c #0AA579",
"@. c #18A779",
"#. c #19B278",
"$. c #27A879",
"%. c #26B47A",
"&. c #1B2384",
"*. c #192C85",
"=. c #153588",
"-. c #163895",
";. c #242A83",
":. c #222986",
">. c #242C8A",
",. c #282F8C",
"<. c #2B3285",
"1. c #2B338D",
"2. c #22398A",
"3. c #343A8A",
"4. c #333A8C",
"5. c #2F3690",
"6. c #303790",
"7. c #343B92",
"8. c #383F94",
"9. c #175D8D",
"0. c #3B438A",
"q. c #26568B",
"w. c #2A4795",
"e. c #2E4E93",
"r. c #3C4495",
"t. c #3B4698",
"y. c #2F708E",
"u. c #2856A8",
"i. c #3657A6",
"p. c #3366B0",
"a. c #444B9A",
"s. c #464C98",
"d. c #4B539C",
"f. c #525591",
"g. c #645A87",
"h. c #526E9E",
"j. c #686786",
"k. c #756785",
"l. c #7A728C",
"z. c #6E7093",
"x. c #797797",
"c. c #4D57A1",
"v. c #545AA3",
"b. c #516AAF",
"n. c #666BA9",
"m. c #7673A9",
"M. c #6C73B0",
"N. c #787CB3",
"B. c #677DC1",
"V. c #827891",
"C. c #887DB4",
"Z. c #1F9586",
"A. c #2F908F",
"S. c #18A883",
"D. c #14AA8B",
"F. c #0CB883",
"G. c #18B887",
"H. c #28AA87",
"J. c #34A78A",
"K. c #28B689",
"L. c #31B88A",
"P. c #2EA69B",
"I. c #36A699",
"U. c #29BB95",
"Y. c #36BC98",
"T. c #799989",
"R. c #7B839A",
"E. c #40B596",
"W. c #489FA7",
"Q. c #7C85A7",
"!. c #798CB0",
"~. c #7E82B8",
"^. c #15C390",
"/. c #28C28A",
"(. c #27C695",
"). c #2DCB9B",
"_. c #34CC95",
"`. c #37C798",
"'. c #36CBA3",
"]. c #2DD4A7",
"[. c #3AD7A9",
"{. c #3DE4B5",
"}. c #46D2AD",
"|. c #48D3A9",
" X c #4BE6B8",
".X c #53E9BD",
"XX c #7392CB",
"oX c #7EA8D9",
"OX c #55EFC7",
"+X c #89869C",
"@X c #828AAA",
"#X c #8594AA",
"$X c #9498AC",
"%X c #8689B8",
"&X c #8998B7",
"*X c #9496B7",
"=X c #97A8B7",
"-X c #93ACBD",
";X c #AAAFBD",
":X c #8F8DC3",
">X c #8797C3",
",X c #979AC7",
"<X c #A49BDD",
"1X c #88ABCB",
"2X c #96A7C7",
"3X c #99B5CB",
"4X c #9AA7D3",
"5X c #9DB9D6",
"6X c #A4A7CD",
"7X c #A7B8C4",
"8X c #B8B5C9",
"9X c #A3A8D8",
"0X c #A6B8D9",
"qX c #B8BAD7",
"wX c #A9A9E6",
"eX c #A7B6E4",
"rX c #ACBCEC",
"tX c #B1BAE2",
"yX c #9EC1D5",
"uX c #A6CAD7",
"iX c #ADCAD2",
"pX c #B6CAD8",
"aX c #AAC7E9",
"sX c #B4C5EA",
"dX c #ACD5EA",
"fX c #B7D9E9",
"gX c #AEC7F1",
"hX c #B0C9F3",
"jX c #AFD6F1",
"kX c #B2D5F5",
"lX c #B4DCF6",
"zX c #AEE0E4",
"xX c #B6E2E8",
"cX c #B5E3F6",
"vX c #B7E9F5",
"bX c #B9ECF6",
"nX c #BBF5F7",
"mX c #C5C7DA",
"MX c #D7D2D9",
"NX c #C9CCE2",
"BX c #CCD4E7",
"VX c #D4D6E6",
"CX c #C8E8EB",
"ZX c #D3E8F0",
"AX c #C7F6F7",
"SX c #D5F5F7",
"DX c #D4F9F9",
"FX c #DCFAFA",
"GX c #E2E3EE",
"HX c #E8EDF3",
"JX c #F2F3F8",
"KX c #FDFDFE",
/* pixels */
"&.&.&.&.&.&.&.&.&.&.&.&.&.&.&.&.&.&.&.&.&.&.&.&.&.&.&.&.:.&.&.&.&.&.&.&.&.&.&.&.&.&.&.&.&.&.&.&.&.&.&.&.&.&.&.&.&.&.&.&.&.&.&.&.",
"&.&.&.&.&.&.&.&.&.&.&.&.&.&.&.&.&.&.&.&.&.&.&.&.&.&.>.a.tXsXsXtXsXtXeXN.7.&.&.&.&.&.&.&.&.&.&.&.&.&.>.7.5.7.:.&.&.&.&.&.&.&.&.&.",
"&.&.&.&.&.&.&.&.&.&.&.&.&.&.&.,.:.&.,.,.7.:.&.&.~ g.:XhX$X+XDXDXFXFXSX=XsXgX7.&.&.&.&.&.&.&.&.8.t.a.t.5.7.7.6.&.&.&.&.&.&.&.&.&.",
"&.&.&.&.&.5.5.&.,.&.&.&.&.&.&.>.,.5.>.g &.<.A :XwX*XsXk.$XiXFXHXFXFXZXDXfX$XhXeX>.:.7.&.&.&.8.7.,.,.8.7.;.x ,.&.&.&.&.&.&.>.&.&.",
"&.&.&.&.&.&.5.c.a.&.&.&.&.&.&.&.g g f f s ! 9X%XlX+X~ CXFXFXFXFX;XFXFXSXpX+XiX=XaX7.>.&.&.&.5.&.g &.s f f f f &.&.&.&.&.&.&.&.&.",
"&.&.&.&.&.&.&.&.&.&.&.d.KX&.f f s f s s W wX,XfXxX! xXSXFXpXFXFX+XCXFXSXDXCX~ iXfX@X7.&.&.g g f f f s s f f &.&.&.>.>.,.5.,.&.&.",
"&.&.&.&.&.&.&.&.&.&.&.NXKX,X&.&.g &.&.W ,XtX! cX! x.iXSX;XDXDXCX;XpXDX=XDXDX7XV.0X@X9X;.&.g &.&.&.&.&.&.&.&.&.&.,.,.:.>.,.>.7.7.",
"&.&.&.&.&.&.&.&.&.&.%X6X6XN.&.&.&.&.N l.%X0Xl.V.V.AXDX#XDXiXFX=X;X$XFXpXAXSXFX! =XkX! 9X;.&.&.&.&.&.&.&.&.&.&.&.:.&.f &.&.&.1.&.",
"&.&.&.&.&.&.&.>.7.a.JXKX6X:X5.&.&.&.! sXkX! cX! xXAXAXiX7XSXSXSXiX8XZXV.iXAXfXk.+XxX&X*Xk.:.&.&.&.&.&.&.&.&.g &.&.d g g g g &.&.",
"&.&.&.&.&.&.&.*.8.KXsXp.M.KXVX>.&.N C.9XuX~ T &X-XbXR.=XAXDXDXDX;XpXCXV.AXAX=X-Xl.vXlX~ 0X8X:.&.&.&.&.:.&.:.&.&.&.g g &.&.&.&.&.",
"&.&.&.&.&.&.&.a.BX7.FXB.N.KXr.7.1.R 4XeX2X&XZ dX3XuX^ AXiXAXAXAXzX7XCXl.nXnX3XdX~ vXR.@X9X! VXd.M.&.,.,.>.7.&.>.>.:.&.&.&.&.&.&.",
"&.&.&.&.&.&.1.M.JX7.u.p.v.qX,Xa.mXR 9XaXl.#XR cXyX~ nXnXiXnXAXnXzXiXiX+XnXbXvXcX! cXbX2X! m.JXqXKXKXc.5.>.1.&.;.&.d &.&.&.&.&.&.",
"&.&.&.&.>.a.N.8Xl l -.u.b.>X0XqXMXQ rXaXx.R 3X3XxXk.nXnXuXnXzXnXzX7XuX=XnXbXvXuX! fXvX3XR 9Xf.HX>.&.&.&.&.&.d f s f &.f &.&.&.&.",
"&.&.&.qXVX*Xn.n s y l =.u.u.-.b.mX:X,X5Xz.T cX3X&X3X!.cXvXnXzXnXiX#XR.uX!.bXjXcXT jX&XlXj.eXA x ;.&.&.&.&.:.&.&.f &.&.&.&.&.&.&.",
"&.&.a.8.&Xt.l y y y s s &.=.*.*.E <X~ aXz.T cXdXQ cXuXvX&X3XdXnX-X+X~ bXR.nXzXlXZ dXaXjX&X@XV f &.&.&.&.&.c.>.7.&.&.&.&.&.&.&.&.",
"&.&.s.8.s p y y y y p p y p s s v <XR jXk.C cXcX~ 3XvXvXdX~ dXvXT.R.Q vX!.-XcXcXC dXaX3X5XW V &.&.&.&.7.a.8.c.5.&.&.&.&.&.&.&.&.",
"&.&.&.d s p y y < y y y y u s p n :XR 4Xz.R kX0Xz.cXcXcXcXQ dXvXQ.R x.cX1XR.lXcXV dXlX&XsXR A &.&.,.,.a.a.&.5.:.:.6.&.&.&.&.&.&.",
"&.&.&.g s p y y y y y u u p d f n g.Z 5X5XC lXj.yXcXcXcXcX#X-XbX#XC uXlX!.dX5XyXV gXlXR hXC n &.&.>.7.;.f f d >.a.8.c.1.&.&.&.&.",
"&.&.&.&.g s u u p p p p d g &.&.&.B Z rXgXB lXR dX!.cXvX!.yX~ bXR.Z cXlXV lX&X&XR kXhX~ hXB ;.:.:.&.,.;.p s &.&.:.g &.&.&.&.&.&.",
"&.&.&.&.g p p f g g g ;.1.,.5.5.,.9 Z rXaXB &Xt lXyXdX3XvXyXR vX~ j.yXdXw jX!.R j.kX@X:XrXw ,.1.:.&.g d &.f f &.&.&.&.&.&.&.&.:.",
"&.&.&.&.&.f f &.&.&.&.5.4.5.4.&.&.q V tXQ.j.R C &XkX5XQ.lXuXQ aXW x.1XuXQ lX2Xw gXeXQ 0XwXV >.:.&.&.&.&.&.&.&.&.,.5.,.&.&.&.&.&.",
"&.&.&.7.5.:.v.&.&.&.&.>.,.>.>.d d h 9 9XrX&Xq j.gX5XaXg.jXdXQ.j.T -X&X>X!.kXQ.w 5XgXW rXN.n g :.:.7.n.&.&.&.&.&.&.,.,.&.&.,.&.&.",
"&.&.&.7.8.&.>.v.&.&.&.&.&.&.&.&.&.g & g.4XrX% R rXeXaXt gX&X3XQ.9 #XjXz.5XhXZ C gXg.%XwXr g &.&.:.%XVXa.&.&.&.&.&.>.,.>.>.,.&.&.",
"&.&.&.:.:.&.&.&.&.&.&.&.&.a.a.,.>.,.N & <XeX%Xw rXgXz.A 5X!.5XV 9 !.hXV hX2XV 9XrXB <XW &.&.&.&.v.GXB.t.N.N.&.&.&.&.&.&.&.,.,.,.",
"&.&.&.&.&.&.&.&.&.&.&.&.&.BXGXv.5.>.8.6 r m.rXq W rXeXz.1X&XrXC & aXgXC gXV W eX,XE z.v ,.&.&.&.0XGXw.b.NXNX&.&.&.&.&.&.&.&.,.,.",
"&.&.&.&.&.&.&.&.&.&.:.&.&.GXKXc.,.&.n a : % wX9X& @XrXz.E 4XgXq X gX0Xg.x.& rX,X3 C.r :.&.&.7.4XoXi.t.M.n.4XVXt.&.&.&.&.&.&.&.&.",
"&.&.&.&.&.&.&.&.&.&.&.6XZX0Xb.VX:X&.f p p : O wXg.& %XwXO wXrXg.X rXj.>X  :XN.%X& % &.&.;.a.c.1Xu.w.s.h.2.w.u.XX7.:XNX1.,.&.&.&.",
"&.&.&.&.&.&.&.&.&.&.qX:Xb.b.p.4X,X,Xg f x g < X C.W % %Xg.z.wXA X <X3 X 2 m.<XX 2 &.1.N.,XNX7.*.c v M c =.w.i.BX,XNX1.1.,.5.&.&.",
"&.&.&.&.>.&.&.&.a.BXu.1Xi.w.u.!.i.GX&.GXd.&.g s : O % @ Q $ wX% A A X 0 m.0 # 6 &.1.v.mX!.m.y y y y < u s l z p M.7.&.&.&.,.&.&.",
"&.&.&.&.&.&.&.&.JXBX>X*.l l 2.e.e.s.3.KXqXVXs.f f s X X X X g.X X X X X   , ,.6.7.7.a.n.s p y y < < < < y p p p &.&.&.&.&.&.&.&.",
"&.&.&.&.&.sX&.,XBX3.u u u u p l M N <.s.VXa.:.r.8.&.;.$ # X X X X O $ ,.>.5.,.:.*.:.g s s s y y y y < y p s f &.&.&.&.&.&.&.&.&.",
"&.&.&.&.&.BX&.n.m p u u y u u u p u L z x z 8.a.a.7.v.v X # X X # $ 8.&.&.5.&.&.&.&.x g g l l u u u y u y f &.7.7.&.&.,.,.,.,.&.",
"&.&.&.f f 4.s f p y p p u y y < j j | Y d d x &.y.*.8.W.X 3 @ $ O P q.=.&.&.&.&.&.&.&.;.:.&.&.d s s y s f &.&.&.5.>.>.5.5.1.,.&.",
"&.&.x f f &.&.&.f p p p u u j j j y. Xj c &.&.P.U.Z.L D.3 # @ # 3 E.P.e.q.L &.q.1.y.t.y.a.d.r.&.3.3.f &.&.&.&.&.&.&.&.&.&.&.&.&.",
"&.&.&.&.&.&.&.&.&.&.f S c S I S k  X{.L U | c D.'.} `.(.$ X # # 0 $...U.`.c U U.A.|.A.L ,.W.d.1.7.7.&.&.>.5.&.7.>.,.>.,.&.&.&.&.",
"&.&.&.&.&.&.&.&.>.>.*.l +.S.K.O.H [  XH.I Z.' OXO.}.I.#.2 X # X 3 H.).G.F.A.I.D.).|.#.c 9._ ;.,.&.&.&.&.,.5.&.1.7.1.>.,.*.&.&.&.",
"&.&.&.1.a.a.5.r.t.r.S.../. X{.G Y.G  XD.).P {.}.' .X|.{ * # X # w Y _ ).`.F.{ %.O.#._ F.|.( ).P.L &.&.&.&.&.&.>.:.&.&.&.1.:.&.&.",
"&.&.&.1.r.c.t.a.7.t.&.c Z.A.[._.[.y.[ U.U.U D.D.K./ Y F J X # $ % K [ { %.G.J (.'.' (.(.@.Y.).S.x &.&.&.&.&.&.&.&.&.&.&.&.&.&.&.",
"&.&.&.g >.<.&.g &.&.&.&.L.$.K.[. X XS.+.L.@.L.o...[ ) F D @ # $ @ S F { F o.@.J.Y.G._.F.#.[.#.M &.&.7.r.t.r.1.7.&.&.f f &.g &.&.",
"&.&.g g &.f f g f &.x &._._ _ ].`.H.S.).U.S.) ] H [ G * F # @ X X 7 ; ] J F o.[ $.F.+./.(.#.) y.r.s.1.r.r.8.1.7.g &.&.f s &.&.&.",
"&.&.&.g &.&.&.&.&.&.&.&.z c { _ _ S P.J.' J ) X./ U - = k % X X X 6 = = ' / H / [ $.'.$.^.{.I U.E.*.q.g g f g r.&.&.&.g g s g &.",
"&.&.&.&.&.&.&.&.&.&.&.&.&.&.x q.'.F.U.| $.o.X.` ) - = . N + #   @ # - = ) o.X.X.@.@.F _.(.]..X).S.S M :.&.&.&.&.&.&.&.&.&.g &.&.",
"&.&.&.&.&.&.&.&.&.&.&.5.&.&.&.[ H S H.@.H X./ ] F * F * 9 2 X X X : r G { ] ] $.$.] H.I.G.[.O.).}.I.I.&.&.&.&.&.&.&.&.&.s &.&.&.",
"&.&.&.&.&.&.&.&.&.&.&.&.*.GX&.y.I p.k U.).] I X.F J J = m X # X X + D ( K U { #.U `./.L `.[. X(.K.D. .&.>.>.1.:.:.>.&.&.&.&.&.&.",
"&.&.&.&.&.f &.&.&.&.&.&.GX{ W.| U._.O.}.U.J [ E.J.F ; = : #     X 9 - { - { K.L.X.`.#./. XT.I o.Y J.*.&.g &.&.r.1.6.1.&.&.&.&.&.",
"&.&.&.f f f g f g &.&.%Xc p.E.].G.].#.; ` X...L.+. .; = V . .   - 7 ( %.%.( O.[.O.^.^._.( ; z w.N.a.:.d f &.&.>.&.8.7.&.&.&.&.&.",
"&.&.&.&.&.&.&.&.&.&.0.u U ..; ].(.|.X.(.L.[ / `./.`.$.S D F ( ; K.G L.G.` /.@.O.(.^.K.)... .k p s &.1.a.&.&.&.f f f s.&.&.&.&.&.",
"&.&.&.&.&.&.&.&.,.&.f u y p 9.k k H  .F.S.]..XG./.H.| [ H.#.{ o.+.).).K.L.].%.I j U K.9.; u p &.&.&.:.s 1.:.&.g &.x &.&.&.&.&.&.",
"&.&.&.&.&.5.8.8.d.&.&.;.&.n a d q.Y.Y...Z.G.`.) P U G.(.L.o.(.K._./ K. .X.+.N 0.<.s.e.Y S d :.&.:.&.&.&.,.&.&.&.&.&.&.&.&.&.&.&.",
"&.&.&.&.&.,.7.s.<.&.&.&.&.g N n j _.7 7 m F 0.j 7 D | #.U.}.F. X/ o.j L L L z a z z n d f d x x &.N.t.5.&.&.>.g &.&.&.&.&.&.&.&.",
"&.&.&.s g f g g d &.&.&.&.qX6Xg z s a u > : 6 0 j 8 A.Y o.U.K.[ S w h t 1 j e s 8 x f d g m z x t.p.b.b.v.,.&.g &.&.&.,.&.>.>.&.",
"&.&.&.&.g f f &.&.&.&.&.NX=.c.c.:Xx x p s s p , r T T r * - L.$ o $ 8 1 , r r b r u i v 6 p ,.N.n < < s ,.&.&.&.&.&.5.6.,.1.1.&.",
"&.&.&.&.&.&.&.&.&.&.&.;.u y y p s 4.a.<.N r 0 e : , > 2 $ X * # X X , e V > < e r b <.m n ;.x x x p p &.>.1.:.&.>.1.:.>.&.&.&.;.",
"&.&.&.&.&.&.&.5.a.&.g &.&.p y l s s p p s p s v C B 9 9 # X X @ X X 5 $ r V 5 : 8 w e u u u n v 0.<.&.:.>.:.&.,.>.;.:.g &.&.x &.",
"&.&.&.&.&.&.&.b.N.:.7.r.7.d s M M n 3.f p & & 3 , 2 3 & $ X X X X $ & 4 1 > q 8 h 3.&.&.s.n.d.s d &.&.&.&.&.&.,.:.f f f g &.&.&.",
"&.&.&.&.>.&.&.,.<.&.g &.x &.f 0.3.a a 6 < > > 6 6 < V q 3 @ X # X X 3 w V r 8 1 1 i r p s x x &.x m m &.&.g g &.&.x &.&.&.&.&.&.",
"&.&.1.5.1.:.&.&.g &.&.g f ;.1.m d N u j e e i a e Z 3 $ 2 q $ # & + + 0 2 0 6 v p u , 4 p s d d d s z &.>.&.&.a.&.&.&.&.&.&.&.&.",
"&.&.>.&.:.&.g g g &.&.g g &.&.x p p 6 1 i p 4 9 > $ > 4 5 B : O $ B 3 , > > 4 d f <.s.0.p f 0.r.s.&.&.1.:.&.&.KX&.qX,Xn.1.&.&.&.",
"&.&.&.g x x f f g &.&.7.a.7.M.pX:.g n s p y , u 2 4 6 : > 3 2 O # 9 5 V 6 > i x z 1.:.v.v.d x &.>.>.&.&.&.&.&.*XHX8XmXm.,.&.&.&.",
"&.&.&.x &.x &.&.&.&.&.s f &.*X-.qXd d s p f v 8 2 1 , > > 3 B 2 > V , 6 6 % 1 m z m z x f &.&.&.&.x &.x &.1.>.s f.f.8XmX&.>.1.*.",
"&.&.&.&.&.&.,.5.:.&.&.1.~.f.< u x ,X6X&.g 8.d < i a 1 2 > 2 : : : & 2 i v y u s a s s d <.&.s ;.1.BX,.*.:.f &.s s g &.7.8.r.7.>.",
"&.&.&.&.&.1.5.5.1.&.1.x f d u j d g g >.g n n d g d 1 , 2 , 4 > : , i i u , a z g s.v.d.,.>.&.:.%X-.uX~.d.4.&.g &.&.&.&.&.&.&.&.",
"&.&.&.&.&.,.,.&.>.&.&.&.&.&.1.1.,.5.;.&.<.d.8.,.&.s 1 1 , i i 6 , i i a d m <.<.1.,.&.:.1.>.d.%Xp p s s 3.M.,.&.&.&.&.&.&.&.&.&.",
"&.&.&.&.&.&.&.&.&.&.&.>.:.&.&.&.g &.&.&.&.&.&.&.&.&.s &.g &.g g a g n :.d &.&.&.&.&.g &.&.&.&.&.g s &.&.&.&.&.&.&.&.&.&.&.&.&.&."
};
