/* XPM */
static char *result[] = {
/* columns rows colors chars-per-pixel */
"64 64 242 2 ",
"   c #1B0D2B",
".  c #1A152C",
"X  c #1B0E31",
"o  c #1F1132",
"O  c #221335",
"+  c #26163A",
"@  c #2A1B3B",
"#  c #0F3635",
"$  c #22233D",
"%  c #0A4A36",
"&  c #095D38",
"*  c #086539",
"=  c #08763E",
"-  c #171847",
";  c #141757",
":  c #11165D",
">  c #251944",
",  c #211C54",
"<  c #0E3355",
"1  c #392949",
"2  c #282457",
"3  c #362B58",
"4  c #111763",
"5  c #131964",
"6  c #141B6B",
"7  c #191E6C",
"8  c #161D74",
"9  c #191E74",
"0  c #171F7A",
"q  c #181F7A",
"w  c #18226A",
"e  c #173867",
"r  c #142274",
"t  c #1A2375",
"y  c #19217D",
"u  c #142A78",
"i  c #16337A",
"p  c #222268",
"a  c #24297A",
"s  c #2B357B",
"d  c #343475",
"f  c #42304E",
"g  c #443353",
"h  c #4B3959",
"j  c #513E5C",
"k  c #493D62",
"l  c #114F4D",
"z  c #086C49",
"x  c #0A7746",
"c  c #146C55",
"v  c #097858",
"b  c #154E6D",
"n  c #2A5669",
"m  c #0F6867",
"M  c #0A7365",
"N  c #2B716E",
"B  c #52415E",
"V  c #574867",
"C  c #55486B",
"Z  c #5A5778",
"A  c #644E6E",
"S  c #685775",
"D  c #725C7A",
"F  c #79617E",
"G  c #0A8657",
"H  c #15865B",
"J  c #0D9357",
"K  c #18985F",
"L  c #0B8968",
"P  c #168B67",
"I  c #0A9969",
"U  c #169969",
"Y  c #148B78",
"T  c #199875",
"R  c #25906D",
"E  c #28877A",
"W  c #0CA36A",
"Q  c #14AB6C",
"!  c #0BA879",
"~  c #17A775",
"^  c #18B479",
"/  c #29A76E",
"(  c #26A57A",
")  c #1B2384",
"_  c #162C85",
"`  c #0F3B8E",
"'  c #143389",
"]  c #143A95",
"[  c #222885",
"{  c #222A86",
"}  c #242C8A",
"|  c #282F8B",
" . c #2B3285",
".. c #233987",
"X. c #2B328D",
"o. c #373D87",
"O. c #30378F",
"+. c #333A8D",
"@. c #2F3690",
"#. c #323892",
"$. c #343B92",
"%. c #383F94",
"&. c #143FA0",
"*. c #11429D",
"=. c #24418D",
"-. c #3B428B",
";. c #294796",
":. c #354697",
">. c #3C4396",
",. c #3F4698",
"<. c #2E5399",
"1. c #1D7289",
"2. c #2A728A",
"3. c #1445A2",
"4. c #214FA1",
"5. c #2A58AA",
"6. c #3557A7",
"7. c #3364B0",
"8. c #4D528E",
"9. c #434996",
"0. c #444B9B",
"q. c #484F9D",
"w. c #4A549C",
"e. c #6F5A84",
"r. c #5F6398",
"t. c #696687",
"y. c #786B87",
"u. c #6E768F",
"i. c #696795",
"p. c #767797",
"a. c #4E55A0",
"s. c #4659A5",
"d. c #545AA3",
"f. c #575DA4",
"g. c #5668AA",
"h. c #4B6BB3",
"j. c #666BA9",
"k. c #6C6AAA",
"l. c #6B72AD",
"z. c #7B7BA7",
"x. c #6D76B2",
"c. c #757AB5",
"v. c #797EB4",
"b. c #847798",
"n. c #8379B2",
"m. c #258984",
"M. c #30998B",
"N. c #2E9B98",
"B. c #1BA786",
"V. c #0DB785",
"C. c #19B78A",
"Z. c #28A685",
"A. c #28B887",
"S. c #31B392",
"D. c #37BB97",
"F. c #7C859B",
"G. c #5591B7",
"H. c #7C89A8",
"J. c #7387B6",
"K. c #7C83BA",
"L. c #40B7A0",
"P. c #1EC58F",
"I. c #2DCB95",
"U. c #2AC999",
"Y. c #38C79B",
"T. c #36C9A8",
"R. c #29D6A7",
"E. c #38D5A5",
"W. c #39E1AF",
"Q. c #41C9A8",
"!. c #4BD9B2",
"~. c #4CDAB1",
"^. c #46E3B7",
"/. c #56E7BC",
"(. c #6E92CA",
"). c #7EA8D9",
"_. c #8A869B",
"`. c #8587AA",
"'. c #908EA3",
"]. c #8894AA",
"[. c #9799A9",
"{. c #8588B8",
"}. c #8597B5",
"|. c #9599BA",
" X c #8CA5BA",
".X c #97A5B9",
"XX c #A2ACB9",
"oX c #8F8AC3",
"OX c #8994C4",
"+X c #959AC5",
"@X c #979BC7",
"#X c #9A9DD5",
"$X c #A59DDF",
"%X c #85A6CF",
"&X c #99A6C9",
"*X c #99B6CB",
"=X c #9AABD6",
"-X c #9DB9D5",
";X c #A5A8CC",
":X c #B4B8CB",
">X c #A7ADD5",
",X c #A7B5D9",
"<X c #B8BAD6",
"1X c #ABA9E8",
"2X c #A8B6E7",
"3X c #ADBDED",
"4X c #91CDCC",
"5X c #AFCAD3",
"6X c #A5C8D9",
"7X c #B5C8D6",
"8X c #A8CAE6",
"9X c #ADC2ED",
"0X c #B6CAE6",
"qX c #ADD5E8",
"wX c #AEC4F0",
"eX c #B0C8F2",
"rX c #B2D7F1",
"tX c #B2D4F4",
"yX c #B4DCF5",
"uX c #B3E1E9",
"iX c #B5E3F6",
"pX c #B7E9F7",
"aX c #BAEBF7",
"sX c #BBF4F6",
"dX c #C5C6DA",
"fX c #CFD0DB",
"gX c #CACCE2",
"hX c #CCD4E6",
"jX c #D3D4E5",
"kX c #D9DAEA",
"lX c #C3DDF2",
"zX c #C8EAF3",
"xX c #D8E7F0",
"cX c #C8F7F8",
"vX c #D7F5F8",
"bX c #D4F9F9",
"nX c #DBFAFA",
"mX c #E1E2EE",
"MX c #E9EAF2",
"NX c #EBF6FD",
"BX c #F2F4FA",
"VX c #FDFDFE",
/* pixels */
") ) ) ) ) ) ) ) ) ) ) ) ) ) ) ) ) ) ) ) ) ) ) ) ) ) ) ) ) ) ) ) ) ) ) ) ) ) ) ) ) ) ) ) ) ) ) ) ) ) ) ) ) ) ) ) ) ) ) ) ) ) ) ) ",
") ) ) ) ) ) ) ) ) ) ) ) ) ) ) ) ) ) ) ) ) ) ) ) ) ) ) ) ) ) ) ) ) ) ) ) ) ) ) ) ) ) ) ) ) ) ) ) ) ) } #.O.$.{ ) ) ) ) ) ) ) ) ) ",
") ) ) ) ) ) ) ) ) ) ) ) ) ) ) } [ ) | X.#.[ ) ) ) ) ) ) ) ) ) ) ) ) ) ) ) ) ) ) ) ) ) ) ) ) ) %.,.0.,.#.$.%.#.) ) ) ) ) ) ) ) ) ",
") ) ) ) ) #.#.) X.) ) ) ) ) ) } | @.} q ) | ) q ) ) ) ) ) ) ) } | } } X.} ) @.| } [ $.) ) ) %.%.| } %.#.) y | ) ) ) ) ) ) ) ) ) ",
") ) ) ) ) ) @.q.q.) ) ) ) ) ) ) q q 8 q 6 q ) ) ) ) ) ) ) ) @.#.O.{ { X.#.#.#.%.9.@.[ ) ) ) $.q ) q 8 0 0 0 8 ) ) ) ) ) ) ) ) ) ",
") ) ) ) ) ) ) ) ) ) ) q.VX) ) 0 8 0 6 0 ) ) { | ) ) ) ) ) ) | ,.q.%.[ t ) ) ) MXVXVX} ) ) q ) q 0 0 8 8 ) 8 ) ) ) | ) | #.| ) ) ",
") ) ) ) ) ) ) ) ) ) ) gXVX#X0 ) q ) ) ) ) [ 9.%.) ) ) -.i.0X0XzXzXzX;X>X%Xq ) {.>X#.kX[ q ) ) ) ) ) ) ) ) ) ) ) | @.) | @.} %.#.",
") ) ) ) ) ) ) ) ) ) {.;X;Xc.) ) ) ) ) ) ) %.9.O.[ e.1Xn.8XD XXnXXXnXvXcXy.tX#X,.@.h.MXMX) ) ) ) ) ) ) ) ) ) ) ) { ) ) ) q ) @.) ",
") ) ) ) ) ) ) ) #.0.BXBX$XoXO.) ) ) ) ) a.d.} ) b.+XyX'.'.bXnXnXkXvXnXxX5X_.*X8Xq.6.X.x.#.) ) ) ) ) ) ) ) ) ) y q 0 y y r q ) ) ",
") ) ) ) ) ) ) [ %.VXlX6.k.VXkX| ) ) ) ) ) ) q b.9X].5XA bXnX[.nXnX:XbXXXbXXX'.yXz.s.6.(.j.VX[ ) ) ) ) ) ) } ) ) ) q y ) ) ) ) ) ",
") ) ) ) ) ) ) 0.hX#.nXG.v.VX>.$.X.[ X.X.) ) A {.y.aXA zXbX5XnXnXvX[.bX5XF bXD *Xp.2X6.(.g.l.kXq.x.) X.X.{ %.) } } ) ) ) ) ) ) ) ",
") ) ) ) ) ) @.l.BX#.5.7.d.<X@X9.gX#.$.O.| A 1XqXy.S qXcX5XcX7XbXXXF bX'.]..Xb.[.yXS p.x.g.BXVX<XVXVXa.@.{ X.) { y y ) ) ) ) ) ) ",
") ) ) ) } 0.v.<Xq r ` 5.h.OX,X<XVXg.O.y y D -X].,XA 4XaXF sXcXbXcXb.cX_.cX5XuX_.pX`.wX8.w.j.a.MX} ) ) ) ) q y 8 8 ) ) q ) ) ) ) ",
") ) ) <XjX|.r.a 8 5 r ' 4.5.] h.BXgX0.) ) #XtXF A 8X*X].uXsXcXcXcXy.sX'.sXsXuXD pXqXp.C 8 t  .a [ ) ) ) ) } ) ) 0 q ) ) ) ) ) ) ",
") ) 0.%.|.9.t 5 4 5 8 8 u ' _ _ :.w.[ y C 1X>XV B iXrXS sXsXsXuXcXy.sX.X6XsX*XS iXqXS &X6 7 6 8 y ) ) ) ) a.} %.) ) ) ) ) ) ) ) ",
") ) 9.>.8 6 5 5 : 4 6 8 6 6 8 8 t y y y V 2X8XV B iX*X6XqXsXsX XsXD 5X5XH.sXuXV iXyXz.2X7 7 8 q ) ) ) $.,.>.a.O.) ) ) ) ) ) ) ) ",
") ) ) 8 6 6 4 : : 5 4 4 5 5 8 7 8 ) y y j {.8Xj t.iXS iXpXqX.X6XsXA F.pXiX XyXj yX X-X`.p q u ) ) | X.0.9.) #.[ [ #.) ) ) ) ) ) ",
") ) ) ) 8 8 5 4 5 : 4 5 5 6 8 y ) ) y y f A yXh  XiXS pXpXpXD *XiXj V iXiX*XyXh &X8X=XV a ) ) ) ) | $.{ 0 0 q } 9.%.a.| ) [ ) ) ",
") ) ) ) q 8 5 5 6 5 6 6 8 y ) ) ) ) ) ) f C -XV .XrXH.iXiXiXt.4XpXh p.iXiXyXyXg 8X6X=Xj d [ ) } [ ) | [ 8 8 ) 0 [ ) ) ) ) ) ) ) ",
") ) ) ) q 6 6 q y y 0 [ X.| @.X.| } | X.3 j wXH.u.H.8XH.iX}.6XF.aXB 8XyXt.yXqXC tXi.3Xf @.| | X.[ y y q 0 0 0 ) ) ) ) ) ) ) ) ) ",
") ) ) ) ) q q ) ) ) ) @.$.X.+.) ) q ) O.3 k 3X3XB Z yXiX XiX4Xt.pXj yXqXH.8Xp.u.tXC wX1 | X.} } ) ) ) ) ) ) ) ) } #.} ) ) ) ) ) ",
") ) ) #.@.[ d.) ) ) ) } | } { 0 q 8 q q ) f 2XH.h f ].tXC tXqXB rXf ,X*X8X*Xh eX8Xp.1Xh y y y ) ) %.j.) ) ) ) ) ) } } } ) | ) ) ",
") ) ) %.%.) } d.) ) ) ) ) ) ) y ) q [ [ [ @ #X9XB g eXJ.t.8XtXZ 8Xh p.Z tX&Xf {.p.1Xn.q y 0 ) ) { {.kX0.) ) ) ) ) } } } ) X.) ) ",
") ) ) [ [ ) ) ) ) ) ) ) ) q.0.X.} @.%.+X@X_.1 i.2X1 9X9X+X2X&X}. XC tXC tXZ C wXg 1X3 ) ) ) ) ) f.mX(.%.c.c.) ) ) ) ) ) } X.} | ",
") ) ) ) ) ) ) ) ) ) ) ) ) kXmXf.X.| %.+.i.j.o oX2X1 t.wXK.t.&X2Xp.i.eXB wX1 3X=Xz.3 { | } ) ) ) :XmX=.g.gXgX) ) ) ) ) ) ) ) } | ",
") ) ) ) ) ) ) ) ) ) ) ) ) mXVXa.| ) y 6 6 4 6 X l.1X> ,X3Xo =XwX$ H.wXp.@ H.{.@ h { +.) ) ) #.=X).<.<.J.j.@XjX,.) ) ) ) ) ) ) ) ",
") ) ) ) ) ) ) ) ) ) ) >XMX>Xg.jXoX) 9 6 6 4 4 4 X e.{.@ #Xk >X1Xo OXC i.  n.n.+ p ) ) ) { >.s.%X5...<.j.] :.6.(.%.oXgX@.| ) ) ) ",
") ) ) ) ) ) ) ) ) [ 1XOXh.7.7.&X&X+Xq y 0 0 8 4 : ;   n.+ #XC 1X  1Xo   oXk.  y y ) O.c.@XjX%.' _ s d i _ =.6.lX@XgX@.| | @.) ) ",
") ) ) ) ) } ) ) 0.hX5.%X6.<.<.OXs.mX) kXa.) ) 8 6 5 5 -     o $X  o   1   , q ) ) X.d.dXJ.z.4 4 4 5 : 5 8 8 y w l.#.) ) ) | ) ) ",
") ) ) ) ) ) ) ) BXhXOX' r r ] <.<.-.+.VX<XjX0.) q 8 7 q -           O y [ ) | #.%.$.,.k.8 6 4 4 : : : : 4 6 6 6 ) ) ) ) ) ) ) ) ",
") ) ) ) ) 0X) +XjXd 7 5 5 4 w r  .s d 8.kXS.) ,.>.) | { q O +     + -.' { @.| { { { y 8 8 8 5 4 : 4 : 5 6 8 8 ) ) ) ) ) ) ) ) ) ",
") ) ) ) ) hX) k.a 5 5 5 5 5 4 4 5 6 8 9 M.Y.n q.0.:.N.m.2.$ + O   $ G.) <.@.) ) _ y y 0 ) 8 0 5 5 5 5 5 4 0 ) %.:.) ) | | | | ) ",
") ) ) y 0 %.0 0 6 4 6 5 4 4 4 : b w e r L E.i b <.1.S.m.L.l   o O n B.A.I 2.T...T.2.) _ } { ) 8 8 8 5 6 0 ) ) ) @.{ | #.@.@.} ) ",
") ) y q q q ) ) 8 8 6 6 6 5 4 5 l Y A.m.e /.Z.b N.T.Q !.!.m     O R ^ A.G M V.E.D.J 2.B.q.a.>.) O.O.y ) ) ) ) ) ) ) ) ) ) ) ) ) ",
") ) ) y ) ) ) ) ) ) y 8 8 5 6 5 ! P.^.W c E.B.S.v /.L ^.m c O   O N J P.M.L U W V.E.^.J S.T a.@.:.$.) ) } @.) $.} } } } ) ) ) ) ",
") ) ) ) ) ) ) ) | | ) 0 0 8 8 6 z T.U.U.!.I Y.! x B.D.J R P O O o n I v ~ U Q.A.! E.A./.C.l } X.) ) ) ) | $.) @.$.@.} | ) ) ) ) ",
") ) ) @.q.0.@.>.,.%.,.) ) y ) ) m T.^ R.E.!.V.D.G M.L P * l O + o o & R z Z.I W Q I /.E.x y y y ) ) ) ) ) ) ) ) } ) ) ) @.) ) ) ",
") ) ) | >.a.>.,.%.,.) ) ) ) ) ) u e Y.~ v U.S.T U v v R * l @     + & & * H L I I.A.E.E.M m.y ` ) ) ) ) ) ) ) ) ) ) ) ) ) ) ) ) ",
") ) ) q } X.) q ) ) ) ) ) ) ) { ) ) ) L.V.S.M v R c c z # B @ O   o # & z R T ( W Z.P.W.~.C.M s ) ) @.,.,.,.X.$.) ) 0 q ) 0 ) ) ",
"q ) q q q 0 0 ) q q ) ) ) ) ) ) $.d.8 < N.N M I c H z % < - O O o o 2 = v L Z.( ( R.C.E.I.Y.E Y >.9.X.>.>.+.X.%.y ) q 0 0 ) ) ) ",
") ) ) ) ) ) ) ) ) ) ) ) ) ) ) ) X.4Xr !.Q V./.A.D.H c x % 1       + & H H ~ ! E W Q E./ Y.V.N.w y y 8 q y 8 y ,.) ) ) y 0 0 0 ) ",
") ) ) ) ) ) ) ) ) ) ) ) ) ) ) ) ;X7.B.D.E.U.J l M.~ P U = s @   . > x / K ~ P.W ^ I.K v ;.g.<X .y 8 0 8 0 y y y ) ) ) y ) 0 ) y ",
") ) ) ) ) ) ) ) ) ) ) { @.@.#.X.< U z !.P.m.Y.( A.A.I.A.R x x G A.= D.C.A.^ V.U.E.I H T 6 5 u X.) ) 0 0 y y ) ) ) ) ) ) y ) ) ) ",
") ) ) ) ) ) ) ) ) ) ) @.@.) { $.6 6 b 9 m v V.^ ^.Z.U W I.I.W R G E.E.K I C.c  .M R.l 6 q } { { y y 0 ) ) ) { ) } } ) ) ) ) ) ) ",
") ) ) ) 0 ) ) ) q ) ) ) ) q q a ) 7 5 7 Y A.c m.H l R A.^.J T ^.Y.( l P A.7 8 y { e w y y y ) ,.y y y ) $.$.,.,.X.O.X.) ) ) ) ) ",
") ) ) 0 0 0 0 0 ) q q ) y q ) y ) { j.y l 6 5 ; , p w ; Y.~.I ~.^ # ; p - 5 7 8 y a y y t ) %Xl.) ) ) ) +.9.+.| ) $.-.) ) ) ) ) ",
") ) ) ) ) ) ) ) ) ) ) ) ) ) ) ) ;X<.g.x.%.q 7 p 8 7 3 h j - # P . O 1 ; 2 g 3 3 6 2 2 6 X.9.: : ) ) ) ) y X.t y y y 9.) ) ) ) ) ",
") ) ) ) ) ) ) ) X.} } { } } ) X.VX#Xf.@.O.%.@.O.$.X.@.X.g.{.d.q w 5 : : ; ; 4 5 8 0 q 0 ) y y ) } | ) y y y y y ) y ) ) ) ) ) ) ",
") ) ) ) [ | %.%.q.0.q.$.$.a.) {.(.2XgXMXX.) %.) X.X.$.{ ) ) ) ) 0 8 6 4 : ; 5 8 q q ) ) ) ) X.X.} -.@.) ) ) ) ) ) ) ) ) ) ) ) ) ",
") ) ) ) ) | %.0. .| q q q -.) NX3.x.VXVXX.) ) ) ) ) y ) ) ) q q 0 0 6 6 : 5 y ) ) ) ) ) ) { X.X.y { | ) 0 0 8 0 ) ) ) ) ) ) ) ) ",
") ) ) 8 q 0 0 ) 9 8 8 q y ) ) kX] ) VXhXkXq.) ) ) ) ) ) ) ) ) ) ) 8 8 8 8 y { ) ) ) ) | -.| ) y 0 8 y r 8 0 q ) ) ) ) | ) } } ) ",
") ) ) ) q 0 8 ) ) q q ) ) ) fXz.r ` 3.qXgXl.) ) ) ) ) ) ) ) ) ) ) 0 q ) ) ) ,.) ) ) ) ) ) ) ) y y ) ) y ) ) ) ) ) ) | @.} } } } ",
") ) ) ) ) ) ) ) ) ) ) ) y `.i.u.4 u *.&.h.0XVXx.c.) ) ) ) ) ) ) } X.@.} ) a.a.) $.) @.@.$.) ) ) @.@.) } } ) } ) } | [ { } ) ) [ ",
") ) ) ) ) ) ) @.0.c.k.;Xw.d w 4 : : r ` ] _ mXVXVX) |.OX) ) ) ) | O.a.,.} ) ) y q +.{ X.{ | ) ) {.VX) @.#.} } X.| } [ q ) ) q ) ",
") ) ) ) ) ) ) g.K.{.`.:X8.4 5 ; ; ; 5 7 t y q j.<X) jXq.) ) ) ) ) ) %.) ) y 8 y y y y ) ) q 0.>XkXvXc.} } } ) } [ q 0 q ) ) ) ) ",
") ) ) ) } ) ) }  .s 8.s 4 6 4 : ; : : 5 6 7 7 9 y ) ) ) ) ) } ) ) { } ) | ) y ) y y ) ) ) 0.q.l.%X3.-XOX) ) ) ) ) ) q ) ) ) ) ) ",
") [ | O.@.) ) ) 0 8 8 8 8 6 4 : ; 4 6 6 8 7 8 y 0 ) ) { O.@.X.[ | @.X.| X.@.) ) ) ) ) ) ) dXhX] 4.] 3.mXMXc.d.9.) ) ) ) ) ) ) ) ",
") ) } ) ) q ) 0 q ) q ) ) 8 6 6 5 7  .O.) y y ) ) ) ) ) ) ) ) ) } ) } | ) | ) ) ) ) ) X.oXl.] _ _ _ ` (.dX@X;XVX) <X+Xj.| ) ) ) ",
") ) ) q ) q 0 0 q 0 q q ) q } { y %.9.,.q.0.) ) ) ) ) ) ) ) ) q ) |  .u ) ) ) ) ) >.f.x.dX&X_ 8 5 6 r ` 8 o.w.|.MX<XdXz.| ) ) ) ",
") ) ) ) q ) ) ) ) ) ) ) ) ) | %.+.9.X.} +.+.w.X.| ) | | q ) ) [ { { O.| #.X.} | >.{.fX|.t w 5 5 6 5 6 0 7 8 8 8 8.8.:XdX[ } | { ",
") ) ) ) ) ) X.#.} } ) } ) ) ) | X.q 9 q q 8 -.+.%.) @.| ) ) ) ) ) ) | X.@.) ) >Xc.j.-.-.6 6 6 4 4 5 6 r 8 q 0 8 8 q ) %.%.%.$.{ ",
") ) ) ) ) X.#.#.| X.X.| ) ) ) ) ) q q 0 8 6 8 q O.[ ) ) ) ) ) ) ) ) ) ) ) ) ) ) y ) y r 8 8 8 6 4 5 6 y q ) ) q ) ) ) ) ) ) ) ) ",
") ) ) ) ) } X.) ) } } } ) ) ) ) ) ) ) ) ) ) q ) ) ) ) ) ) ) ) ) ) ) ) ) ) ) ) ) ) ) ) y q ) y 8 8 8 y ) ) ) ) ) ) ) ) ) ) ) ) ) ",
") ) ) ) ) ) ) ) ) ) ) ) ) ) ) ) ) ) ) ) ) ) ) ) ) ) ) ) ) ) ) ) ) ) ) ) ) ) ) ) ) ) ) ) ) ) ) ) ) ) ) ) ) ) ) ) ) ) ) ) ) ) ) ) "
};
