/* XPM */
static char *result[] = {
/* columns rows colors chars-per-pixel */
"64 64 245 2 ",
"   c #1B0D2B",
".  c #1F1032",
"X  c #1A123F",
"o  c #221334",
"O  c #26173A",
"+  c #2B1B3C",
"@  c #301F3D",
"#  c #113829",
"$  c #0E4C38",
"%  c #0D733F",
"&  c #1D1547",
"*  c #131759",
"=  c #11165C",
"-  c #291C48",
";  c #133A4F",
":  c #2A2646",
">  c #392846",
",  c #312D55",
"<  c #111763",
"1  c #121964",
"2  c #141B6B",
"3  c #181E6D",
"4  c #161D74",
"5  c #181E74",
"6  c #171F7A",
"7  c #181F7A",
"8  c #221F63",
"9  c #1A256D",
"0  c #14396D",
"q  c #132274",
"w  c #1A2374",
"e  c #19217D",
"r  c #132C7A",
"t  c #16337B",
"y  c #242A7A",
"u  c #232A7D",
"i  c #2C347A",
"p  c #32387E",
"a  c #43304E",
"s  c #473655",
"d  c #4B3C5A",
"f  c #523E5C",
"g  c #0C564E",
"h  c #294758",
"j  c #087246",
"k  c #0E6A59",
"l  c #0E7253",
"z  c #13526E",
"x  c #157A6A",
"c  c #156B70",
"v  c #276679",
"b  c #54415F",
"n  c #4D4464",
"m  c #574767",
"M  c #584E75",
"N  c #5B5277",
"B  c #654F6E",
"V  c #6A5673",
"C  c #675978",
"Z  c #735B7A",
"A  c #64637F",
"S  c #0A8B58",
"D  c #15865A",
"F  c #0A8965",
"G  c #168D69",
"H  c #109070",
"J  c #1A9972",
"K  c #249276",
"L  c #16A96F",
"P  c #0EA57C",
"I  c #16A679",
"U  c #29B67A",
"Y  c #1B2384",
"T  c #142C85",
"R  c #0F3B8E",
"E  c #153488",
"W  c #123B95",
"Q  c #163895",
"!  c #202783",
"~  c #222A86",
"^  c #292F86",
"/  c #242C8A",
"(  c #282F8B",
")  c #2C3285",
"_  c #2B338D",
"`  c #26398A",
"'  c #393C85",
"]  c #30378E",
"[  c #333A8D",
"{  c #2F3690",
"}  c #303790",
"|  c #343B92",
" . c #383F94",
".. c #143FA0",
"X. c #1F5A82",
"o. c #14429D",
"O. c #23418B",
"+. c #374289",
"@. c #3B428B",
"#. c #2A4799",
"$. c #364697",
"%. c #3C4396",
"&. c #3E4598",
"*. c #27529E",
"=. c #35539B",
"-. c #2C708E",
";. c #1445A2",
":. c #214FA1",
">. c #2A58AA",
",. c #3657A7",
"<. c #3164B2",
"1. c #565689",
"2. c #434996",
"3. c #444B9B",
"4. c #484F9D",
"5. c #4F5490",
"6. c #4B549C",
"7. c #655985",
"8. c #6F5C89",
"9. c #5F6080",
"0. c #5F639A",
"q. c #676586",
"w. c #766783",
"e. c #7B738E",
"r. c #6D6993",
"t. c #6D7593",
"y. c #6E7096",
"u. c #787997",
"i. c #4656A3",
"p. c #4E55A0",
"a. c #545AA3",
"s. c #565CA3",
"d. c #4861AB",
"f. c #5A68AB",
"g. c #4F74B9",
"h. c #666BAA",
"j. c #726FAD",
"k. c #6C71AD",
"l. c #797CA4",
"z. c #6D77B2",
"x. c #757AB5",
"c. c #797DB5",
"v. c #587EC2",
"b. c #84748E",
"n. c #8276A9",
"m. c #827BB2",
"M. c #1B9388",
"N. c #2C918C",
"B. c #16AB85",
"V. c #12AC8A",
"C. c #17B887",
"Z. c #29AE88",
"A. c #27B789",
"S. c #23A594",
"D. c #2BB693",
"F. c #33B795",
"G. c #3B93A4",
"H. c #7E87A7",
"J. c #7B83BB",
"K. c #7488B8",
"L. c #42B4A1",
"P. c #14C894",
"I. c #28C798",
"U. c #3AC899",
"Y. c #35C8A1",
"T. c #38D7AA",
"R. c #34E0B2",
"E. c #42C598",
"W. c #42D7A5",
"Q. c #4ED1B0",
"!. c #48E2B6",
"~. c #51E3B5",
"^. c #6E92CA",
"/. c #7EA8D9",
"(. c #56E7C1",
"). c #8A859B",
"_. c #8588AC",
"`. c #8E95AA",
"'. c #8588B9",
"]. c #8995B9",
"[. c #8B9DBD",
"{. c #949AB9",
"}. c #8BA2B9",
"|. c #99A5BA",
" X c #A3ACB9",
".X c #8A95C3",
"XX c #9699C6",
"oX c #9696CF",
"OX c #A19ADB",
"+X c #8AA6C6",
"@X c #96A7C7",
"#X c #99B7C9",
"$X c #9AB4CB",
"%X c #82ABD6",
"&X c #9CA7D6",
"*X c #9CB8D4",
"=X c #A5A8CD",
"-X c #A7B5C5",
";X c #B5B7CC",
":X c #A4AAD8",
">X c #A7B5DA",
",X c #B7BAD6",
"<X c #A79EE2",
"1X c #A8A9E5",
"2X c #ABB6E9",
"3X c #ADBEED",
"4X c #B1BDEC",
"5X c #9CD0CA",
"6X c #A6C6D9",
"7X c #B4CFD6",
"8X c #BAC9D5",
"9X c #AAC9E7",
"0X c #B6C7EA",
"qX c #ACD6E8",
"wX c #B6D9E9",
"eX c #AEC9F1",
"rX c #B0C8F3",
"tX c #AFD7F1",
"yX c #B2D4F5",
"uX c #B8D6F1",
"iX c #B3DCF6",
"pX c #AFE0E4",
"aX c #B4E6EC",
"sX c #B5E3F7",
"dX c #B7E9F7",
"fX c #B9EBF7",
"gX c #BCF5F7",
"hX c #C5C6DA",
"jX c #CBD4DC",
"kX c #CACCE2",
"lX c #CAD5E6",
"zX c #D3D4E5",
"xX c #D9DAEA",
"cX c #D4E5EF",
"vX c #C6EDF2",
"bX c #CCF3F5",
"nX c #C6F7F8",
"mX c #D4F3F6",
"MX c #D4F9F9",
"NX c #DBFAFA",
"BX c #E1E2EE",
"VX c #E9EAF2",
"CX c #EAF7FC",
"ZX c #F2F4FA",
"AX c #FDFDFE",
/* pixels */
"Y Y Y Y Y Y Y Y Y Y Y Y Y Y Y Y Y Y Y Y Y Y Y Y Y Y Y Y Y Y Y Y Y Y Y Y Y Y Y Y Y Y Y Y Y Y Y Y Y Y Y Y Y Y Y Y Y Y Y Y Y Y Y Y ",
"Y Y Y Y Y Y Y Y Y Y Y Y Y Y Y Y Y Y Y Y Y Y Y Y Y Y Y Y Y Y Y Y Y Y Y Y Y Y Y Y Y Y Y Y Y Y Y Y Y Y / } } | ~ Y Y Y Y Y Y Y Y Y ",
"Y Y Y Y Y Y Y Y Y Y Y Y Y Y Y / / Y ( { | Y Y Y Y Y Y Y Y Y Y Y Y Y Y Y Y Y Y Y Y Y Y Y Y Y Y  .3.3. .} | | | Y Y Y Y Y Y Y Y Y ",
"Y Y Y Y Y } { Y _ Y Y Y Y Y Y / _ _ / 7 7 _ Y e Y Y Y Y Y Y Y / ( / / { / Y { ( ( Y | Y Y Y $. .( /  . .! 7 ( Y Y Y Y Y Y Y Y Y ",
"Y Y Y Y Y Y ( i.p.Y Y Y Y Y Y Y 7 7 4 6 4 7 7 Y Y Y Y Y Y Y _ | _ / ( _ | { }  .&.{ / Y Y Y ] Y 6 6 4 6 4 6 4 Y Y Y Y Y Y Y Y Y ",
"Y Y Y Y Y Y Y / Y Y Y 4.AXY Y 6 4 6 4 4 7 Y / ( Y Y Y Y Y Y Y Y ^ e Y 4 Y Y Y VXAXAX/ Y Y 7 7 6 6 6 6 4 Y 6 Y Y Y / / / { _ / Y ",
"Y Y Y Y Y Y Y Y Y Y Y kXAXoX6 Y Y Y 7 Y Y Y 2.%.Y Y Y Y Y Y Y Y e 6 e e e Y Y '.,X{ xX! Y Y Y Y Y Y Y Y Y Y Y Y ( ( Y / ( / | } ",
"Y Y Y Y Y Y Y Y Y Y '.=X=Xx.Y Y Y Y Y Y Y %.3._ ~ ( { p.&./ } | Y Y e Y Y Y | %.{ d.VXVXY Y Y Y Y Y Y Y Y Y Y Y / Y Y Y Y Y { Y ",
"Y Y Y Y Y Y Y / } 3.ZXZX:X.X{ Y Y Y Y Y p.a.( Y ( &.%.Y !  .[ [ Y Y Y Y Y VXCX^.4.,.{ z.{ Y Y Y Y Y Y Y Y Y e Y 7 7 7 e e 7 e Y ",
"Y Y Y Y Y Y Y Y  .AXlX,.k.AXxX/ Y Y Y Y Y Y Y Y Y Y e e 5 y e w e Y Y 3.ZXZX#.Q ] i.,.^.h.AX~ Y Y Y Y Y Y / Y Y Y 7 7 Y Y Y Y Y ",
"Y Y Y Y Y Y Y 3.lX| NXv.c.AX .| ( ~ _ ( Y ! } ] _ e Y e 7 e e 7 7 ! xXe .XlX6.o.#.,.,.^.f.k.xX6.z.Y _ _ /  .Y _ / ! Y Y Y Y Y Y ",
"Y Y Y Y Y Y { z.ZX| >.<.a.,XXX3.kX[ | ] ( ( ! e ) ^ ~ Y ) 1X4X0X4X0X2X.X0.9 y ` ,.o.g.v.f.ZXAX,XAXAXp._ ~ _ Y Y e e Y Y Y Y Y Y ",
"Y Y Y Y / 3.c.;X6 q R >.g..X:X,XAXf.] Y 7 Y 7 Y _ ' r._.wX).;XmXNXNXmX7X-X0X+.9 4 $.` | i.h.a.VX/ Y Y Y Y 7 e 4 4 7 Y 7 Y Y Y Y ",
"Y Y Y ,XzX{.r.Y 4 2 4 R :.>.Q s.ZXkX3.Y Y Y Y Y 7.:XrX8XZ 7XmXNXjXCX8XMXvX).uXoX1 4 5 4 q w i e ~ Y Y Y Y / Y Y 6 Y Y Y Y Y Y Y ",
"Y Y 3. .{.2.w 1 < 1 2 4 r T E E $.6.~ Y ~ ~ Y w.2XeXwXV MXMXNXNXNX X8XNXMX). X6X9X2 2 2 2 3 3 4 e Y Y Y Y p.( | Y Y Y Y Y Y Y Y ",
"Y Y 3. .4 2 < < = < 2 4 2 2 4 6 5 7 7 ! / ~ Z 2XV vXZ 7XMXMX7XNXMX`.jXvXvXMXV |.9XXX2 2 1 4 4 e Y Y Y | &.%.p.| Y Y Y Y Y Y Y Y ",
"Y Y Y 4 4 2 < < = < < < 1 1 4 3 4 Y e e Y B n.yXb.u.-XbXbXMXjXMXmXb.NX XvXmX-X`.iXV XX3 4 e e Y Y ( ( 3.&.Y | Y Y | Y Y Y Y Y Y ",
"Y Y Y 7 4 2 1 < 1 = < 1 1 3 4 e Y Y e e i '.eXV 6XA gXnX`.wXmXMX|.b.MXZ 7XwXbXZ fX-X].8.e Y Y Y Y (  .~ 6 6 e ^ &.%.p.] Y Y Y Y ",
"Y Y Y Y 7 2 1 1 2 2 2 2 4 e Y Y Y Y Y Y B 0XyXV b 9X#XaXH.nXMXMXMXb.nXw.vXnX6XV fXsXZ &X~ Y Y ( Y Y ( ~ 4 4 Y Y ~ Y Y Y Y Y Y Y ",
"Y Y Y Y Y 3 2 7 7 7 7 ~ _ ( { _ / / _ _ 7.>X9X}.b qXdXC aXpXnXnXnXb.nXZ gXgX`.e.qX6X@X>XM _ ( _ ~ Y 7 5 6 4 Y Y e Y Y Y Y Y Y Y ",
"Y Y Y Y Y 7 7 Y Y Y Y { ] _ ] Y Y 7 u ' XXXX$XC H.#X}.|.gXpXgX7XnX).gXe.dXdXsX}.C sX}.C m _ ( / Y Y Y Y Y Y Y Y / { _ Y Y Y Y Y ",
"Y Y Y | ] ! a.Y Y Y Y / ( / ^ 7 7 5 7 b 1X{.$Xm aX@XA sXdXpXgX}.gXZ gX`.5XgXsX$Xm sXiXM l.6 7 Y !  .h.Y Y Y Y Y Y / _ Y Y { Y Y ",
"Y Y Y  . .Y / a.Y Y Y Y Y Y Y 7 Y 7 ~ m :Xr.@Xb sX+Xu.*XdX5X6X5XgXV #XpXt.6XsX6Xb qXiXq.1X6 Y Y / '.xX&.Y Y Y Y Y / _ / Y { Y Y ",
"Y Y Y Y ~ Y Y Y Y Y Y Y Y 4.3.^ / _  .a m.$X@Xs iX$X#XsXsXqXe.#XfXb q.qX+X}.iX$Xm >X@X[.&XY Y Y a.BXx.$.x.x.Y Y Y Y Y Y Y ( / ( ",
"Y Y Y Y Y Y Y Y Y Y Y Y Y zXBXf.{ /  .d n.H.@Xb iXt.qXsXdXdXN #XfXf m sX}.H.sXA q.iXH.eXy.Y Y Y ;XBXo.f.kXkXY Y Y Y Y Y Y Y ( ( ",
"Y Y Y Y Y Y Y Y Y Y Y Y Y BXAXp./ Y ! , n.l.yXs yXs sX*XsX6X`.}.dXb H.sXt.iXK.b $XyXn rXf Y } &X/.=.=.z.h.oXzX3.Y Y Y Y Y Y Y Y ",
"Y Y Y Y Y Y Y Y Y Y Y :XVX:Xh.zX.XY 5 2 q.&X3X> iXn iXsXqX*XqXu.fXb 9XsXs iX}.b yXyX8.4X> 3.i.%X>.O.5.f.Q =.>.^. .J.kX{ ( Y Y Y ",
"Y Y Y Y Y Y Y Y Y ! :X.Xg.<.<.@XXXXX7 7 > oXy.C M 9.}.iXd iX6Xn wXs iXtXn iXqXs XXu.oX1Xs kX .E t i p t r O.,.lXXXlX} { / { Y Y ",
"Y Y Y Y Y Y Y Y 4.cX>.%X,.#.*.K.i.BXY xX> N 3X].a H.eX9Xs tXiXs yXs }.2XH.yXu.N H.d 3Xr.z.l.< < < = = 1 q q w 3 h.{ Y Y Y ( Y Y ",
"Y Y Y Y Y Y Y Y ZXkX.XT q 9 O.=.&.%.[ AX`.> 1X4XO '.3Xt.m eXH.t.qXd +X].*XyXs q.0X7.1Xs q 2 < < = = = = < 2 2 3 Y / Y Y Y Y Y Y ",
"Y Y Y / Y kXY XXkX' < 1 1 1 q q ) p p 5.kX@ '.1Xl.d eXXXH..XH.[.}.> rXn eXl.s eXr.OXm 3 q 4 < < < = = 1 2 4 4 Y Y Y Y Y Y Y Y Y ",
"Y Y Y Y Y lXY h.u 2 1 1 < 1 < 1 2 1 2 q 5 5   N 2X@ l.3Xt.q.K.9Xm M rXs eX: &X>X+ n.3 e Y 4 q 2 1 2 < 1 < 6 Y  . .Y Y ( ( ( ( Y ",
"Y Y Y 7 5 [ 7 4 2 < 2 < < < < = < 2 2 4 4 6 !   <X:X@ &X2X> 2X4X+ 9.3X9.O n c.1.r.8 ! ! ~ ~ Y 4 4 4 1 2 6 Y Y Y { ~ ( { { { / Y ",
"Y Y Y 4 e Y Y Y 4 4 2 2 2 < < 1 2 4 7 7 7 Y Y Y   m.y.O OX, XX2X  XXN q.  .XOX  - %. .] 3.p.%.Y ] ] 7 Y Y Y Y Y Y Y Y Y Y Y Y Y ",
"Y Y Y Y Y Y Y Y Y Y 6 4 4 2 2 1 2 7 Y Y Y Y Y Y Y < O M . m., 1X  <X    oX7.  8 _ [ | / / p.p.{ |  .Y Y / { Y | / / ~ ( Y Y Y Y ",
"Y Y Y Y Y Y Y Y _ / Y Y 6 2 4 4 7 Y Y Y Y Y Y Y Y Y e X       OX      .   & 7 u ) _ u 6 5 u ^ ( Y Y Y Y ( | Y _ | { / ( Y Y Y Y ",
"Y Y Y _ 4.3.{ %.%. .&.Y Y 6 7 Y Y Y { ~ &.3.| Y ! /  .Y O o         o e Y Y Y Y 7 6 4 6 4 6 e Y Y Y Y Y Y Y Y / / Y Y Y { Y Y Y ",
"Y Y Y ( %.6.&.&.%.%.Y Y Y Y Y Y Y Y 4.{ -.` Y / 3.3.%./ Y   O     O O.Y / _ Y Y Y 4 e 6 6 e e e Y Y Y Y Y Y Y Y Y Y Y Y Y Y Y Y ",
"Y Y Y 7 ( _ 7 7 Y Y Y Y Y Y Y / ] ! Y c -.Z.e e T =.-.x N.o + o   + G.E f.z.x.{ Y Y 7 7 Y Y _ _ Y Y } %.&.%._ | Y 7 6 6 Y 7 Y Y ",
"Y Y 7 7 7 6 Y Y 7 e Y Y Y Y Y ~  .v 0 r K c g z e F.H S.T.: .   o ; A.G.L..X X-.T G N.Y Y Y ! _ &.3._ %.%.| _  .Y Y Y 6 6 Y Y Y ",
"Y 7 Y Y Y Y Y Y Y Y Y Y Y Y Y Y z D.K t (.v G (.H Y.V.!.S.;     @ h I.B.I 5X~.E.Q.T.0 E X.Y Y e e e 4 e e e e %.7 Y Y 7 7 6 6 Y ",
"Y Y Y Y Y Y Y Y Y Y Y Y Y Y Y Y !.R.S x I I.I.0 T.H K !.F h     O h I T.U P G W.P.L B.U.S S.F.6 e 4 6 4 4 e e e Y Y Y Y Y 6 e Y ",
"Y Y Y Y Y Y Y Y Y Y Y / { _ | _ N.T.F.!.k V.Y.x B.I.k E.k G   o . h S P U B.K U.A.P.I.I W.D.z Y Y Y 6 6 e e Y Y Y Y Y Y e Y Y Y ",
"Y Y Y Y Y Y Y Y Y Y Y { { Y / _ x W.W.!.!.J Y.B.Z.F K D D $ . o o > D S j K S J F.U C.W.P.F { _ w e 6 Y Y Y Y / / / Y Y Y Y Y Y ",
"Y Y Y Y Y 6 Y Y Y Y Y Y e e e e j k ~.L.U.I.P P N.l D g # j O o O + j j D % l L S J Q.W.U ~.f.h.e Y e Y | | %.%._ } _ Y Y Y Y Y ",
"Y Y Y 6 6 6 6 6 7 7 7 Y e 7 Y Y Y ; ; R.B.Z.P J G l j j # 7 - .   O $ $ F D K J E.Z.E.I.C.Q.B.-.Y Y Y Y [ 3.[ ( Y | @.Y Y Y Y Y ",
"Y Y Y Y Y Y Y Y Y Y Y Y Y Y Y Y a._ -.c c N.c c z c g z ; V N - X X 9 g g k c c v c N.M.M.M.N.-.Y Y Y Y e ) e 6 e e 2.Y Y Y Y Y ",
"Y Y Y Y Y Y Y Y _ / / / / / Y _ AX@Xs._ | %._ ] | ( ] { s.].p.Y 2 1 1 = * * = < q w 6 6 7 7 Y Y / ( Y 7 Y w e e Y e Y Y Y Y Y Y ",
"Y Y Y Y ! {  . .4.3.3.| | 4.Y J.^.>XzXVX( Y  .Y { _ | Y Y Y Y 7 6 4 2 < * * 2 4 7 7 Y Y Y / _ ( / | _ ~ Y Y Y Y Y Y Y Y Y Y Y Y ",
"Y Y Y Y Y / | 2.) ^ 7 7 7 2.e ZX..x.AXAX( Y Y Y Y Y e Y Y Y 7 Y 6 6 2 1 < < 6 Y Y Y Y Y Y / _ / Y ~ ^ e 4 Y 4 6 Y Y Y Y Y Y Y Y ",
"Y Y Y 4 6 4 6 Y 7 7 5 6 6 Y Y BXQ T AXlXBX3.Y Y Y Y Y Y Y Y Y Y Y 4 4 4 4 e / Y Y Y Y ( | ( Y Y 5 6 e q 4 6 6 Y Y Y Y / Y / / Y ",
"Y Y Y Y Y 6 4 Y Y 7 6 Y Y / hXH.q R ;.yXkXk.Y Y Y Y Y Y Y Y Y Y Y 6 Y Y e Y &.Y Y Y Y Y Y 7 Y 7 e e Y Y 6 Y Y Y Y Y ( { / ( / / ",
"Y Y Y Y Y Y Y Y Y Y Y e 7 _.r.y.1 r W o.g.0XAXz.c.Y Y Y Y Y Y Y / _ } / Y p.p.Y | Y { | ] ! Y Y { { Y / / Y ( Y / _ ! ~ / Y Y ! ",
"Y Y Y Y Y Y Y _ 3.c.h.=X5.i 9 < = = q R W Y BXAXAXY ]..XY Y Y Y ( } p.&./ Y Y 7 7 [ ^ _ ( ^ Y Y '.AX/ { { / / ( / / ! 7 Y Y Y Y ",
"Y Y Y Y Y Y Y f.J._._.;X2.1 < = * * 1 q w q 6 h.,XY zX4.Y Y Y Y Y Y | Y Y e 6 7 6 7 7 Y 7 Y 3.>XxXmXx./ / / Y ( ! 7 4 6 7 Y Y Y ",
"Y Y Y Y ( Y Y ( ^ i 1.p < < < = * * = 1 1 2 3 5 e Y Y Y / Y ~ Y Y / / Y / Y 7 Y Y 7 Y Y Y 3.4.k./.o.*X.XY Y Y Y Y Y Y Y Y Y Y Y ",
"Y Y ( { _ Y Y Y 7 6 4 4 4 2 < = = < 1 2 4 3 4 e 7 e Y / } | ( / ( { ] ( ( _ Y Y Y Y Y Y Y hXkXQ :.W ;.BXVXx.a.2.Y Y Y Y Y Y Y Y ",
"Y Y / ! / Y 6 Y 7 Y Y 6 6 4 4 2 2 3 ) ] Y e e Y Y Y Y Y Y Y Y Y / Y ~ ( Y _ Y Y Y Y Y ] .Xk.W T T T W ^.hXoX=XAXY ,XXXh._ Y Y Y ",
"Y Y Y 7 7 e 6 7 7 6 7 Y Y 7 ~ ~ e @.2.&.4.3.Y Y Y Y Y e Y e 7 e Y ~ ^ Y Y Y Y Y Y %.s.z.hXXXT 5 1 2 q R 5 ' p.{.VX,XhXj.( Y Y Y ",
"Y Y Y Y 7 Y Y Y Y Y Y Y Y Y (  .[ 2._ / [ [ 6._ ( Y ( / Y Y Y ~ ~ ^ [ ( | ( / ( %.'.jX{.5 9 1 1 2 2 2 q 3 3 4 4 1.5.;XhX! ~ ( / ",
"Y Y Y Y Y Y ( { / / Y / Y Y Y ( ) e 6 7 7 4 @.[ %./ ( ( Y Y Y Y Y Y ( ( { Y Y >Xx.h.2.+.2 2 2 < = 1 2 q 4 6 4 4 4 6 Y  . . .| / ",
"Y Y Y Y Y _ { { ( ( ( ( Y Y Y Y Y 7 e 4 4 2 4 e } Y Y Y Y Y Y Y Y Y Y Y Y Y Y Y e Y 4 4 4 4 4 2 < 1 4 q 6 Y Y 6 Y Y Y Y Y ! Y Y ",
"Y Y Y Y Y ( ( Y / / / / Y Y Y Y Y Y Y Y Y Y 7 Y Y Y Y Y Y Y Y Y Y Y Y Y Y Y Y Y Y Y Y 7 6 Y Y 4 4 4 e Y Y Y Y Y Y Y Y Y Y Y Y Y ",
"Y Y Y Y Y Y Y Y Y Y Y Y Y Y Y Y Y Y Y Y Y Y Y Y Y Y Y Y Y Y Y Y Y Y Y Y Y Y Y Y Y Y Y Y Y Y Y Y e Y Y Y Y Y Y Y Y Y Y Y Y Y Y Y "
};
