/* XPM */
static char *result[] = {
/* columns rows colors chars-per-pixel */
"64 64 226 2 ",
"   c #1B0D2B",
".  c #1D0F2F",
"X  c #1A123F",
"o  c #221434",
"O  c #271836",
"+  c #2B1C3C",
"@  c #301F3D",
"#  c #1D1343",
"$  c #111656",
"%  c #11165C",
"&  c #17195F",
"*  c #271B40",
"=  c #392949",
"-  c #362850",
";  c #3E3358",
":  c #111762",
">  c #121964",
",  c #141B6B",
"<  c #1B1F6C",
"1  c #161D74",
"2  c #181E77",
"3  c #171F7A",
"4  c #181F7A",
"5  c #0F236E",
"6  c #1A226D",
"7  c #132274",
"8  c #1A2374",
"9  c #19217D",
"0  c #13287C",
"q  c #15317D",
"w  c #3A2E66",
"e  c #222878",
"r  c #232A7D",
"t  c #2C347A",
"y  c #37387B",
"u  c #412F4E",
"i  c #443452",
"p  c #493553",
"a  c #463958",
"s  c #4E3B59",
"d  c #4F415F",
"f  c #574565",
"g  c #51456C",
"h  c #5C4C6B",
"j  c #5C5476",
"k  c #645573",
"l  c #6C5673",
"z  c #6A5977",
"x  c #74607C",
"c  c #1B2384",
"v  c #132C84",
"b  c #152C88",
"n  c #0F3C8F",
"m  c #133486",
"M  c #13328C",
"N  c #123B95",
"B  c #163895",
"V  c #202783",
"C  c #222A86",
"Z  c #292F86",
"A  c #242C8A",
"S  c #282F8B",
"D  c #2C3385",
"F  c #2B338D",
"G  c #24398A",
"H  c #373D87",
"J  c #30378F",
"K  c #333A8D",
"L  c #2F3690",
"P  c #303790",
"I  c #343B92",
"U  c #383F94",
"Y  c #143FA0",
"T  c #0F439F",
"R  c #11419C",
"E  c #1C439F",
"W  c #24418D",
"Q  c #3B428B",
"!  c #2A4799",
"~  c #3C4395",
"^  c #364798",
"/  c #3E4598",
"(  c #27529E",
")  c #35539B",
"_  c #1445A2",
"`  c #214FA1",
"'  c #2950A7",
"]  c #2C5AAA",
"[  c #3657A7",
"{  c #2B65B4",
"}  c #3B62B0",
"|  c #494D89",
" . c #52578E",
".. c #434996",
"X. c #434A96",
"o. c #444B9B",
"O. c #484F9D",
"+. c #475799",
"@. c #4C529D",
"#. c #565B97",
"$. c #675B88",
"%. c #5F6398",
"&. c #686687",
"*. c #766884",
"=. c #72738E",
"-. c #79798F",
";. c #6B669C",
":. c #736896",
">. c #6C7492",
",. c #757896",
"<. c #4656A3",
"1. c #4E55A0",
"2. c #5056A1",
"3. c #545AA3",
"4. c #585EA5",
"5. c #4861AB",
"6. c #5967AA",
"7. c #4C70B7",
"8. c #547BBD",
"9. c #656AA6",
"0. c #646AAB",
"q. c #6A6FAD",
"w. c #6C71AD",
"e. c #7B7CA9",
"r. c #676FB4",
"t. c #6D76B2",
"y. c #7277B3",
"u. c #767BB6",
"i. c #797DB4",
"p. c #587EC2",
"a. c #84758E",
"s. c #867BAB",
"d. c #7C829C",
"f. c #5C83BF",
"g. c #7A89A9",
"h. c #7F95AD",
"j. c #6E82BE",
"k. c #6892C8",
"l. c #7593CB",
"z. c #7EA8D9",
"x. c #88889E",
"c. c #8485AA",
"v. c #838CAC",
"b. c #8894AA",
"n. c #9798AC",
"m. c #8287BB",
"M. c #8689B9",
"N. c #968DBB",
"B. c #8A97B8",
"V. c #8A9DBB",
"C. c #9499BC",
"Z. c #A498AB",
"A. c #8CA3BA",
"S. c #9AA2B7",
"D. c #A1ACBA",
"F. c #8C8DC1",
"G. c #8C92C1",
"H. c #889BC6",
"J. c #9599C5",
"K. c #9698C5",
"L. c #9A9EC8",
"P. c #A299DB",
"I. c #93A6C6",
"U. c #9DA2CB",
"Y. c #95A9CC",
"T. c #99B6C7",
"R. c #82A6D3",
"E. c #9BA9D5",
"W. c #9AB6D5",
"Q. c #A6A9CD",
"!. c #ADBEC9",
"~. c #B5B7CC",
"^. c #A4AAD8",
"/. c #A6B4D7",
"(. c #B3B5D5",
"). c #BABCD5",
"_. c #BBBDDA",
"`. c #A99DE5",
"'. c #A8AAE5",
"]. c #AAB8E8",
"[. c #B1BAE8",
"{. c #AFBDF0",
"}. c #9EC1D1",
"|. c #A2C4D9",
" X c #B8C6D4",
".X c #ACD2D8",
"XX c #BFDBDF",
"oX c #A9CBE5",
"OX c #ACC1ED",
"+X c #B7C9E9",
"@X c #ABD5E7",
"#X c #B7D4EB",
"$X c #AECAF1",
"%X c #B0C4F2",
"&X c #B0CDF2",
"*X c #B3D5F6",
"=X c #B4DCF6",
"-X c #BFD9F2",
";X c #B4E5EB",
":X c #B5E4F6",
">X c #BBE8F7",
",X c #B9EBF6",
"<X c #BBF4F6",
"1X c #C4C6DA",
"2X c #CBD3DB",
"3X c #C6C9E1",
"4X c #CBCCE2",
"5X c #CDD1E3",
"6X c #CAD8EB",
"7X c #D3D4E5",
"8X c #D5D7E9",
"9X c #DCDDEC",
"0X c #C4E7EA",
"qX c #D8E1EE",
"wX c #C7EDF1",
"eX c #DDE8F4",
"rX c #CBF7F7",
"tX c #D5F5F8",
"yX c #D5F9F9",
"uX c #DBFAFA",
"iX c #E1E2EE",
"pX c #E3E6F1",
"aX c #EBECF3",
"sX c #EAF7FC",
"dX c #F2F4F8",
"fX c #FDFDFE",
/* pixels */
"c c c c c c c c c c c c c c c c c c c c c c c c c c c c c c c c c c c c c c c c c c c c c c c c c c c c c c c c c c c c c c c c ",
"c c c c c c c c c c c c c c c c c c c c c c c c c c c c c c c c c c c c c c c c c c c c c c c c c c A I F I A c c c c c c c c c ",
"c c c c c c c c c c c c c c c A A c S L P c c c c c c c c c c c c c c c c c c c c c c c c c c I o.o.U P U U P c c c c c c c c c ",
"c c c c c P L c F c c c c c c A S F S 4 c D c 9 c c c c c c c S A A A L A c F S S c I c c c ^ U S S U I c 4 F c c c c c c c c c ",
"c c c c c c S <.O.c c c c c c c 4 4 1 4 1 4 4 c c c c c c c F U L A A F I I L I / L A c c c P c 4 4 1 3 3 1 1 c c c c c c c c c ",
"c c c c c c c c c c c O.fXc c 3 1 4 1 1 4 c A S c c c c c c c c C 9 c 1 c c c aXfXfXA c c 4 c 4 3 4 3 1 c 3 c c c A A S L S A c ",
"c c c c c c c A c c c 4XfXL.c 3 4 c c c c c / / c c c c c c c c 9 9 9 9 9 c c F.(.P 9Xc 4 c c 4 c c c c c c c c S S c S S A I I ",
"c c c c c c c c c c m.Q.Q.u.c c c c c c c U o.L C S L 2./ A L P c c 9 c c c P ~ P 5.aXaXc c c c c c c c c c c c A c c c 4 c L c ",
"c c c c c c c C I o.dXfX^.F.P c c c c c 1.3.S c S / ~ c c ~ K K c c c c c iXsXl.O.[ S y.P c c c c c c c c c c 9 4 4 9 9 1 9 9 c ",
"c c c c c c c C I fX3X} q.fX8XA c c c c c c c c c c c 4 8 r 8 9 9 9 c o.fXdX! B F 5.] j.0.fXA c c c c c c A c c c 4 9 c c c c c ",
"c c c c c c c o.5XI uXp.i.fX~ I S C L S c c P K F 9 c 4 4 9 9 4 c c 9X9 N.6X) N ` [ [ k.6.0.8X@.t.c S F C I c S A c c c c c c c ",
"c c c c c c F t.dXI ] { 3.(.K.o.4XP I K S S V 8 D Z A c c c c c c c dXH #.8 r G ) E 8.f.6.fXfX).fXfX2.F A F c C 9 9 c c c c c c ",
"c c c c D o.i.(.9 7 m { 7.G._._.fX6.K 4 3 c c c F C A c c c c G.m.1 t : : > > e 1 ^ G W 2.q.3.aXS c c c c 4 4 1 1 3 c 4 c c c c ",
"c c c _.7XN.%.r 1 > 7 M _ ] B <.sX5Xo.c 4 c c c c c c c c c A _.Q.1 : $ % : > , , 1 1 1 1 9 r r V c c c c S c c 3 c c c c c c c ",
"c c o.U C...8 > : > , 2 0 M M M ^ @.V c c A c S c S c A S F K V 8 , % $ % % > > % , , < > < , 1 9 c c c c 2.S U c c c c c c c c ",
"c c o.H 1 , > > % : , , , , 7 7 7 9 9 c S A L F S F L c F F S c 8 , > : : : % : > , , , > 1 7 9 c c c I / ~ <.P c c c c c c c c ",
"c c c 1 , , : % % : : : > > 1 , 8 c 4 9 c c Z 9 r V F c c r.'.[.[.[.E.e , , % : > , 1 7 1 9 9 c c S F o.o.c P c V U c c c c c c ",
"c c c c 1 1 > : : : : > , , 1 9 c c c 4 9 4 1 1 8 O.$.:.[.S.n.tXuXuXtX X#Xy.> > > > , 9 9 c c c c S I C 3 3 4 S ~ ~ 2.F c c c c ",
"c c c c 4 , > > , > , , 8 9 c c c c 9 c 4 4 c c V s.c.I.*.!.uXuX2XuXuXS.a.>X&X, 1 1 9 S A c c A c c S C 1 1 c 3 V c c c c c c c ",
"c c c c 4 1 , 4 9 4 9 V F S F F S S F F c c c c N.U.>Xx 0XtXuXuXuXuXuXtXtXx T./.Z F A F F F S F V c 4 4 3 1 c c c 9 c c c c c c ",
"c c c c c 4 4 c c c c L P F K c c 9 c F P c c *.I.x -.b.wXXXyXyXtX XrXrXtXD.n.oX^.K c C S S A A c c c c c c c c A L A c c c c c ",
"c c c I P C 3.c c c c A S A Z 4 2 1 9 4 c c l E.b.|.l wXrXrXS.yX Xa.wX0XrXtXx >Xh J.4 4 c 9 9 c C U 0.c c c c c c S S A c L c c ",
"c c c U U c A 3.c c c c c c c 9 9 9 c C c M.c.%Xk f ,X.Xb.rXrXyXXXn.0XS.rX@Xk ,X*X/.g 4 4 4 c c C m.9X/ c c c c c A F A c S c c ",
"c c c c C c c c c c c c c O.o.F S L U K.U.Z.M.*Xd.a oX<Xb.<X;XrXrXx ;X.X<XA.x.@X&.z c.c c c c c 3.pXu.^ u.u.c c c b c c c L A S ",
"c c c c c c c c c c c c c 7XiX4.F S U K 9.h [.=Xl A.v.z <X<X<X.XrXx T.;X<X,XV.x.:Xv.].C Z c c c (.eXW 6.5X1Xc c c c c c c c S S ",
"c c c c c c c c c c c c c eXfX@.S c 9 , , $.K.=Xd :XT.*.A.,X;X}.<Xx -.<X,X:X|.>.W.&XB.y c c I E.z.) ) w.6.U.8X/ c c c c c c c c ",
"c c c c c c c c c c c ^.qX^.6.6XG.9 7 , , :.h *Xs :X=.oX:X;X-.|.<Xh l @X:X:X|.,.=XV.$.w C ..<.R.] W +.6.W ! ' l.I F.3XL S c c c ",
"c c c c c c c c c c '.H.p.} } L.L.J.9 9 4 :.h *Xs :Xa @X:X,Xz |.;Xa -.}.oX:Xb.d.=Xc.s j K.5XU M q e y q m W [ 6XK.5XL S A L c c ",
"c c A c c c c c O.6X[ R.[ ! ( h.<.iXc iX1.g k *Xp *X; =X=X}.}.T.:Xp oX|.g.W.&.h.*X$.j n.i.e.: : % > % > 1 7 9 6 r.L c c c S c c ",
"c c c c c c c c dX5XH.v 7 6 W ) [ Q H fX_.= g OXp *X&.h.:X:X:X=.:Xd :XV.=X>.s *X&X/.&.q.1 , : : % $ $ $ > , , , c c c c c c c c ",
"c c c c c 3Xc K.7Xy > , > > 5 7 t t D X.7Xa g E.,.z Y.oXb.:X@Xd :Xs h.>.=XY.i Y.d {.$.1 1 , > : % % > > > 1 1 c c c c c c c c c ",
"c c c c c 6Xc 9.e , > > > > > > , > , 6 4 < u [.I.= V.&XH.oX*Xj oXd V.a *XY.j W.j '.; 7 c 9 7 , > 5 > > > 4 c U I c A S S S S c ",
"c c c 9 4 U 3 3 , , > , > : : % > , 1 1 2 4 @ ^.P.+ ].{./.A.$XV.I.&.&Xd &Xu ,.G.^.$.c c S C c 1 1 1 , , 9 c c c F A S I P S S c ",
"c c c 4 4 4 c c 3 , , > , : : > , 1 2 4 4 c 4 + $.g.p OXM.; OX].,.,.%X>.E.; %X= `.y ~ F o.1.~ c K F 9 9 c c c c c c c c c c c c ",
"c c c 4 c c c c c c 4 1 1 > , > , 2 c c c c c c * '.- =.].X {.{.* %XI.E.O OXG.;.- K U c S 1.1.F I ~ c c A P c I A A c S c c c c ",
"c c c c c c c c S A c c 3 1 1 , 4 c c c c c c c 8 * '.+ c.e.E.{.o ].a ; $.F.* + Z F r 3 1 r Z S c c c c S I c P I L S S A b c c ",
"c c c F O.O.L ~ / I / c c 4 c c c c P V U o.P c S A   i.. m.; `.  P.. o ;.o * c 4 3 1 3 1 1 4 c c c c c c c c c A c c c S c c c ",
"c c c S ~ @.~ / U / c c c c c c c c O.L ~ F c A o.O...V       K.      . X D c c c 3 c 3 3 c 9 c c c c c c c c c c c c c c c c c ",
"c c c 4 S F c 4 c 4 c c c c c A P c c Z V c 4 4 c U A C 3 # X # X # : c 0.y.u.J c c 3 4 c c F P c c P / / ~ F P c 4 3 3 c 4 c c ",
"4 c 4 4 4 4 4 c 4 c c c c c c c U K 2 4 2 4 4 4 4 c c c c c c c c c c c ..m.3Xo.c c c c c c c S ~ o.F ~ ~ U F U c c c 4 1 c c c ",
"c c c c c c c c c c c c c c c c c c c 4 4 c c c c c c c c c c c c c c U 7XfXK.iX1.c c c c c c 3 9 9 1 4 9 7 9 / 4 c c 4 4 3 4 c ",
"c c c c c c c c c c c c c c c c c c c c c c c c c c c c c o.~ O.1.A U 1X9.9.! H.4X0.c c c c c 3 9 1 3 1 1 9 9 c c c c c c 3 9 c ",
"c c c c c c c c c c c C L F I F I F S F c S c c c c 4 4 4 Q ..o.S @.aX7XW.M M ) -XE.S c c c c c c c 4 4 4 c c c c c c c 9 c c c ",
"c c c c c c c c c c c F L c A K Z C Z Z C F c c c c 4 1 1 4 4 4 c I qXN T 0 7 0 } +X3XfX~ c L S 9 9 4 c c c c c A A c c c c c c ",
"c c c c 3 3 c c 4 c c c V 9 9 9 c 9 9 9 C 9 4 9 4 c 4 3 9 4 c U.(.9.g.n m > , , b ] eX9 _.@.0.9.9 9 9 c I I / / F P F c c c c c ",
"c c c 3 c 3 3 3 c 4 c c 9 9 9 c 9 9 c c 9 c 9 c c c c c c c @.dXiXH , 5 % : : > 1 b 7 9 u.K c c c c c c K X.Q A c I Q c c c c c ",
"c c c c c c c c c c c c c c c c 8XO.A c c c c c c c c C 6.K.9XF e & : % $ $ % : , 1 3 4 c 4 c c c c c c 9 D 9 4 9 9 X.c c c c c ",
"c c c c c c c c S A A C A Z c F fXU.4.F P U F L P L P F 4.M.2.9 > > : % $ $ % > 1 1 9 4 c 4 c c A S c 9 9 9 9 9 c 9 c c c c c c ",
"c c c c V L I U O.o.o.U I @.c m.l./.4XpXF c U c F F U c c c c c 3 1 , : $ $ > 1 9 9 c c c c F F A U F c c c c c c c c c c c c c ",
"c c c c c A I o.D Z 3 4 2 U 9 sXY t.fXfXF c c c c c 9 c c c 9 9 3 1 1 : > : 9 c 9 c c c c A F S 9 C D 9 4 4 3 3 c c c c c c c c ",
"c c c 1 3 1 3 c 2 2 2 1 2 c c eXB b fX6X9XO.c c c c c c c c c c 3 3 1 1 1 c A c c c c S Q S c 9 4 1 9 7 1 3 3 c c c c A c A A c ",
"c c c c c 1 3 c c 2 c c c V 2Xe.7 n _ #X4Xw.c c c c c c c c c c c 3 c c 9 c / c c c c c c c c 9 9 c c c c 4 c c c c S L A S A A ",
"c c c c c c c c c c c 9 4 c.;.>.> q N _ 8.+XfXy.u.c c c c c c c S F L A c 1.1.c I c L P L c c c F P c A A c S c A S C A A c c C ",
"c c c c c c c L o.i.0.Q.#.t < : % % 7 M M b iXfXfXc F.G.c c c c S P 1./ A c c 3 9 K Z F Z S c c m.fXA L L A S S S C V 4 c 4 c c ",
"c c c c c c c 6.i.M.c.~.| : % % % $ > , 1 7 4 q._.c 7XO.c c c c c c I c c 9 3 9 1 9 9 c c 9 o.Q.qXeXj.S A A c A C 4 1 3 4 c c c ",
"c c c c A c c S D t  .t , , % % $ % % > , , , 4 8 c c c A c c c c A A c A c 9 c 9 9 c c c o.@.r.R.R W.G.c c c c c c c c c c c c ",
"c c S L F c c c 4 4 1 1 1 , : % % : > , 7 , 1 4 4 c c A P P S S S L L S F F c c c c c c c 1X5XB ( R _ qXaXu.3.o.c c V c c c c c ",
"c c S C C c 3 c c 4 c 4 4 3 1 , , , F L 9 9 4 c c c c 9 c c c c A c C S c F c c c c c F M.r.N v v 0 N l. XL.Q.fXc ).K.9.F c c c ",
"c c c 4 c 4 4 4 4 4 c 4 c 4 C C 9 H / ~ @.o.c c c c c c c 9 c 9 c Z Z c c c c c c ~ 4.w.1XU.q 1 > , 7 n 1 H @.J.aX).1Xw.S c c c ",
"c c c 4 c 9 c c c 4 c c c c S U Q ..F S Q K 1.F S c S F 9 c c c C C K A I S A S ~ M.2XC.e 6 > , , , , 4 , < 1 ,  .| ~.1Xc A S A ",
"c c c c c c S L A A c A c c c S D 9 1 4 4 1 Q K ~ A F S c c c c c c S S L c c /.e.6.X.Q , , > : : > , , , 3 3 1 1 4 c I U U I C ",
"c c c c c F L L S S S S c c c c c c 9 4 1 1 , 4 F c c c c c c c c c c c c c c c c c 4 1 1 4 1 , : > , 9 c c c 4 c c c c c C c c ",
"c c c c c S S c A A A A c c c c c c c c c 4 c c c c c 9 c c c c c c c c c c c c c c c 9 9 9 c 1 1 1 9 c c c c c c c c c c c c c ",
"c c c c c c c c c c c c c c c c c c c c c c c c c c c c c c c c c c c c c c c c c c c c c c c c c c c c c c c c c c c c c c c c "
};
