/* XPM */
static char *result[] = {
/* columns rows colors chars-per-pixel */
"64 64 229 2 ",
"   c #1C0E2D",
".  c #1D1138",
"X  c #221334",
"o  c #26183C",
"O  c #182431",
"+  c #064634",
"@  c #10663F",
"#  c #191243",
"$  c #181857",
"%  c #241B49",
"&  c #11264F",
"*  c #36284A",
"=  c #372A4B",
"-  c #28235A",
";  c #362950",
":  c #141A65",
">  c #1B1C62",
",  c #151A6A",
"<  c #161D74",
"1  c #181F75",
"2  c #171E7A",
"3  c #1B2379",
"4  c #1B227C",
"5  c #23246B",
"6  c #262B78",
"7  c #323274",
"8  c #493959",
"9  c #543F5D",
"0  c #423766",
"q  c #14534A",
"w  c #25534E",
"e  c #0C704E",
"r  c #124C67",
"t  c #365072",
"y  c #1C7A73",
"u  c #2C726B",
"i  c #54415F",
"p  c #53496E",
"a  c #595578",
"s  c #6E5674",
"d  c #655B79",
"f  c #76617E",
"g  c #138557",
"h  c #0D9157",
"j  c #198E6A",
"k  c #189768",
"l  c #0E9070",
"z  c #24996D",
"x  c #2A9878",
"c  c #10A972",
"v  c #1BA878",
"b  c #25AB7E",
"n  c #1C2484",
"m  c #232A86",
"M  c #232A87",
"N  c #2C338B",
"B  c #353B8D",
"V  c #3B4295",
"C  c #226085",
"Z  c #3E5CA8",
"A  c #474D96",
"S  c #645C82",
"D  c #6F6D8F",
"F  c #74688A",
"G  c #797294",
"H  c #475BA5",
"J  c #4761AB",
"K  c #4C63AC",
"L  c #5164AD",
"P  c #566DB1",
"I  c #7379AB",
"U  c #82758E",
"Y  c #847892",
"T  c #847AB2",
"R  c #299186",
"E  c #2AB68A",
"W  c #31B485",
"Q  c #25BA92",
"!  c #3B89A6",
"~  c #3E93B3",
"^  c #38A5A2",
"/  c #44A78E",
"(  c #4A8CA5",
")  c #4992AE",
"_  c #5493AB",
"`  c #4C96B2",
"'  c #4798B6",
"]  c #4C9CBA",
"[  c #539BB5",
"{  c #5A9DB6",
"}  c #539DB9",
"|  c #7987A6",
" . c #609DB4",
".. c #4DA9B9",
"X. c #56A1BE",
"o. c #5BA2BD",
"O. c #63A4BC",
"+. c #6EBAB7",
"@. c #18C090",
"#. c #21C286",
"$. c #26CA99",
"%. c #34C899",
"&. c #3ECCA0",
"*. c #3AD5A8",
"=. c #37E2B3",
"-. c #44C195",
";. c #41D2A7",
":. c #4AD2AF",
">. c #70CBB9",
",. c #4EA2C1",
"<. c #53A5C3",
"1. c #5CA6C1",
"2. c #5CA9C5",
"3. c #5BABC9",
"4. c #63A7C0",
"5. c #64AAC5",
"6. c #6AACC5",
"7. c #63AEC9",
"8. c #69AFC9",
"9. c #72ADC4",
"0. c #64B1CE",
"q. c #6BB2CC",
"w. c #73B4CC",
"e. c #7BB6CD",
"r. c #64B4D2",
"t. c #6CB5D1",
"y. c #6DB9D5",
"u. c #68BBDA",
"i. c #72B7D1",
"p. c #74B9D3",
"a. c #7ABCD5",
"s. c #74BEDA",
"d. c #79BED9",
"f. c #76C4DA",
"g. c #7CC2DC",
"h. c #55EDC1",
"j. c #7DC6E2",
"k. c #79C7E4",
"l. c #7DCEEC",
"z. c #8A889D",
"x. c #8591AC",
"c. c #869AB3",
"v. c #92A8BB",
"b. c #A2AAB8",
"n. c #9796C5",
"m. c #96A9C7",
"M. c #98B7C4",
"N. c #9EA7D9",
"B. c #82BDD4",
"V. c #9CBBD4",
"C. c #ABB6D1",
"Z. c #A3B8DB",
"A. c #AAA8E5",
"S. c #AAB9E9",
"D. c #84C3DC",
"F. c #8CC4D9",
"G. c #8BC5DC",
"H. c #95C8DC",
"J. c #94DFDA",
"K. c #A7C3CE",
"L. c #A1C5DB",
"P. c #9BE0D6",
"I. c #83C6E1",
"U. c #89C7E0",
"Y. c #84CAE4",
"T. c #8BCBE4",
"R. c #86CDE9",
"E. c #8BCEE9",
"W. c #93CDE4",
"Q. c #9ACEE3",
"!. c #91CFE8",
"~. c #84D1EE",
"^. c #8CD1EC",
"/. c #94D3EC",
"(. c #9BD5EA",
"). c #9BD5EC",
"_. c #8CD5F2",
"`. c #8BD8F5",
"'. c #93D7F1",
"]. c #9AD7F0",
"[. c #95D9F4",
"{. c #9CDBF3",
"}. c #92DDFA",
"|. c #9DDEF8",
" X c #A9C6E8",
".X c #BACDED",
"XX c #A8D4E6",
"oX c #A3D6EB",
"OX c #A3D9EE",
"+X c #ACDAED",
"@X c #B2DCEF",
"#X c #B1C9F5",
"$X c #A3DCF4",
"%X c #AADEF3",
"&X c #A3DFF8",
"*X c #B1D2F4",
"=X c #B3DEF3",
"-X c #BADEF0",
";X c #8DE0FF",
":X c #94E2FF",
">X c #9CE4FF",
",X c #A7E0F7",
"<X c #ADE1F6",
"1X c #A4E5FE",
"2X c #ABE6FD",
"3X c #ADE8FF",
"4X c #B3E2F6",
"5X c #BAE4F5",
"6X c #B8EAF7",
"7X c #B3E5FB",
"8X c #BAE6FA",
"9X c #B4E9FF",
"0X c #BCEBFF",
"qX c #B9F1F7",
"wX c #C0CED5",
"eX c #C4E2E7",
"rX c #C4E4FB",
"tX c #C3EDFF",
"yX c #CBEEFF",
"uX c #D2EEFF",
"iX c #D8EEFF",
"pX c #C7F6F6",
"aX c #CDF0FF",
"sX c #D3F1FF",
"dX c #DBF3FF",
"fX c #D8F9FA",
"gX c #EBEBF3",
"hX c #E3F5FF",
"jX c #EAF7FF",
/* pixels */
"0X0X0X0X1XtXdXsXtX9X0X9X1X0XsXtX9XqXaXfXdXdXtX9X3X>X1X3X>X;X;XtX3X9X9X9X3X3X1X>X9X3X;X1X0X9X>X1X>X1X>X:X3XtXsXhXhXjXhXtX1XtXaXtX",
"1X1X0XtXaXsXsXtX9X9X0X3X>XtXaX0X1X1X3X9XaXsX0X3X9X3X1X1X>X>X1X9XqX3X9XtX0XtX0X3X9X9X1X1X9X9X3X:X>X3X3X0XtXfXdXdXsXdXdX3X3XtXaX9X",
"1X1XtXsXsXaX3X9X3X3X9X1X1X9XtXtX9X1X1X3X3X9X1X1X3X1X>X>X>X>X>X3X9X3X9X0X3X0XtXqX9X9X3X3X3X9X3X3XtXtXtXfXsXaXaX0X0XtXaX9X3X0X0X>X",
"1X>XtXsXaX3X>X9X3X3X9X9X1X1X0XtX9X1X9X9X1X1X1X1X3X1X>X:X;X:X1X0X9X3X0X9X>X0X0X0X9X9X0X8X0X0X9XaXsXsXtXtXaX0X1X9XaXtX0X9X1X1X1X1X",
"1X3XaXaX0X>X:X9XqX3X9X3X3X1X9XtX0X9X3XtXqX1X1X3X3X1X;X:X>X>X3XaXtX0XtXtX9XtX0X3X3XtXsXsXyXtX0XuXaXtX9X9X9X0X9X0XaXtX3X1X>X1X>X1X",
">X9XsXtX1X:X:X3XtXtX3X1X1X3XtXpXaX9X3X0X9X1X3X1X>X>X;X;X>X1X0XsXsXaXsXsXtXaX0X3X9XaXsXaXyXrXtXtXtX9X3X1X3X9X9X3X0X9X3X1X>X1X:X>X",
"1XtXsX0X:X;X>X0XtX0X1X>X1X9X9XtXtX0X9X3X1X1X3X>X:X:X>X1X3XtXaXfXdXdXsXsXtX0X0X0X0X9X8X0XuXuXiXuX3X1X1X3X3X3X>X>X9X0X3X1X1X>X>X>X",
"1XtXaX9X1X1X9XtX3X>X3X1X>X3X9X0XtX0X9X>X1X9X3X1X1XtXaXtXtXpXtXaXfXaXqX0X9X9X9X0X8X2X7XyXiXdXdXiX0X1X:X1X1X>X>X>X9XqX1X3X3X>X>X1X",
"1XtXtX1X0XtXtXtX9X3X9X3X>X>X3XaXsXaX0X9X0X0X0X3X9XsXsXtX0X3X1X9X0X1X>X:X1X9X8X8X9X0XtXuXiXdXdXdXtXtX0X1X>X:X;X>X9X0X3X9X9X:X>X3X",
"3X9X9X>X9XtXdXfXaX9X1X3X3X1X3XtXsXsXtX0XtXaXaXtXaXaXtX3X>X>X>X3X1X:X:X;X|.7XaXyXyXuXrXyXiXdXiXuX0X8XdXyX3X:X>X3X9X9X9X9X1X>X3X9X",
"0X9X9X1X3X0XsXdXfXaX9X3X3X0X9X9X0XtXtXtX0XaXaXtX0X9X1X:X:X:X3X3X>X>X1X>X2X0XrXyXuXyXrXuXdXdXdXrX%X=XyXsXfXaXsXaX9X3X0X9X:X1XqX0X",
"tXaX3X3X1X3X0X0XtXaXdXtX3X9X9X>X3X0X0X9X9XtXsXtX>X>X:X;X>X1X9X3X1X1X1X9XyXrXuXuXuXuXdXdXdXiXuXrX%X%X9XaXdXhXhXdXtX9XtXtX9X0XaX0X",
"dXsX9X1X>X:X:X1X1X9XaXaXtXtX3X>X1X9X9X>X1X0XfXaX3X:X>X>X3X1X9X9X>X1XtX8X8XyXyXuXdXdXdXdXdXuXrX7X%X&X8X8X0XaXsXaX0X9XtXtXaXaXsXsX",
"hXaX9X>X>X1X>X:X;X1X0XtXsXsXtX9X3X9X9X1X1X9XaXdX0X>X1X1X1X1X9X3X>X0X7X$X=XyXtXaXdXdXdXdXyX0X=X=X&X].8X2X0X0X9X3X0X9X0X0XaXdXdXhX",
"hXtX3X1X1X>X:X:X:X3X9X9XtXsXsXaX9X3X3X9X3X1X0XsXaX9X9X3X3X3X9X2X0X<X].(.tXtXtXsXdXdXdXdXrX8X=X&X$X$X7X7X0X0X3X3X0XtX0X0XaXdXdXhX",
"sX9X1X1X>X:X:X;X:X3X3X1X3X0XaXaX0X9X0XtXtX9X3XtXaXsXtX0X0XtX0X8X4X{.Q.4XyXuXuXsXsXsXdXuXuX8X&X].).<X<X7X9X0XtXaXaXtXaXdXdXdXfXdX",
"aX0X1X>X;X;X;X>X1X3X>X:X>XtXdXsXaXtXtXtXtXtX0XtXaXtX0X0X8X<X4X7X<X$X).4XyXdXsXsXyXtXuXuXyX4X$X).).$X).&X9XtXsXdXaXaXaXhXhXsXsXaX",
"sXtX3X>X>X:X;X>X1X>X:X>X1XaXdXsXtXaXaXtX0XsXsXaXaXtX0X0X8X4X$X%X%X&X[.7XyXyXyXyXyXtXuXuXyX4X%X$X).).).%XtXtXaXaX0XaXsXsXdXsXaXsX",
"aX3X>X1X1X>X:X>X>X>X>X3X9XtXfXaX0XtXaX0X0XaXtXaXaXtXaXaXtXuXyXrX8X4X7XtXtXsXyXyXyXtXyXuXyX=X<X%X/.E.OX4X0X0X9X9X9X9XtXaXsXdXdXdX",
"aX3X>X:X>X>X>X>X>X3X0XtXtX0X0XtXtX0X0XaX0X0XaXaXtXtXsXaXU Z.U sXfXeX.XyXyXyX0X8X8XtXtXtX=X$X5X%XR.j.Q.%X3X9X9X0XaX0X0XaXsXdXsXsX",
"aXtX3X>X>X:X:X>X9XqXaXaXtX9X9XtXyXtXtXaXtXaXaXtXyXyXyXA.5Xz.fXfXwXhXb.b.rXyX8X<X$X<X8X4X).R.OX).d.g.W.].>X1XtXaXtX0X0XaXtX0XtXtX",
"0XtXaXtX9X3X1X3X0XtXtX0X9X9XtXtXtXaXaX0XtXaXtXtXtXtXn.s s pXfXeXz.K.fXf c.C.tX0X]./.OX$XT.d.T.G.p.d.!.^.>X0X0X0X0X9X0X0X3X>X3X9X",
"3XtXsXdXdXdXfXaX0X9X3X9X9XtXaX0X9XtX0X0XtXaXaXtX0XF *Xv.XXb.pXfXz.U pX| 6Xm.tXtX%XU.W.(.D.p.g.H.p.d.W.'.9X0X9X3X9X9X9X0XtXtXtX9X",
"9X9XtXsXjXjXjXdXaX0X3X1X9XaXtX0X3X9X0XtXyX0XtX0X8XF H.i K.XXM.pXU f qX5X8XD Y tX=XU.W.G.D.a.a.F.p.t.U.$X9X3X1X3X9X3X3X9XtXaXtX9X",
"3X3X9XtXfXdXdXdXtX9X9X9X0XtX0X9X1X9X0XtXtX0XtXtXtXA.H.c.m.c.K.M.f z.5X=X=X*XD 0X,XY.D.D.g.s.i.p.p.i.G.].3X1X1X3X9X3X3XqX3X1X1X>X",
"1X9X0X0X0XaXsXtXtX0X0X0X0X0XtX9X9X3X4X4X8XtX8X0XaXT V.@Xd 6Xv.M.i XXV.=XZ.m.S 7X&XR.d.a.d.q.q.p.a.a.W.E.:X1X3X3X1X3X9X9X1X>X;X>X",
"9X3X9X9X9X0XqX9X0X0XtXsX0X9X0X6X0X<X].{.<XtX0X0XuXD .X XH.=X4Xv.9 -XL.c.*XD 9 7X].Y.g.g.d.y.i.p.p.g.(.f.>X9X9X>X>X9X9X3X1X1X>XqX",
"1X>X1X1X1X9X9X9X9X9XsXaX3X1X3X1X2X$X/.^.].4X,X9XyX8 G p  Xc.@XD 8 XX=X8  XS.| $X&X^.^.^.R.s.g.a.p.g.,XY.3X9X>X;X1X3X9X9X9X3X1X3X",
";X:X>X:X>X3XqX3X9X0XsXsX1X1X>X;X,X$XR.Y.R.].[.{.9Xa S.=  XZ.*X8 0 m.#X8 D A.`.`.,X{.[.{.[.R.I.D.f.D.$X(.3X>X;X:X1X0X9X0X3X1X>X;X",
";X:X:X;X:X>X>X>X9XtXsXaX3X1X:X}.+X<XR.Y./.).^.^.>X{.o S.G x.S.x.a S D #XS | ]._.|.<X|.}.{./.j.G.R.R.%X@XaXtX0XtXtXtXtXtX9X3X>X;X",
";X1X>X:X:X>X:X;X1XaXaX0X9X1X:X{.<X%X/./.!.^.R./.$X].T.= S N.0 A.I d a | ; 7X$X[.|.{.[.^.[.].T.W./.^.%X+XsXsXaXsXsXaXaXaXqXqX3X;X",
";X1X>X>X:X>X>X:XqXsXtX9X9X1X9X4X+XOX)./.G.R.Y./.OX{.T.g.t . a A.x.X ; G tX7X1X7X,X[._.Y.^.$X^.E.).[.4X5XsXtX9X9X3X3X9XtXtX3X3X;X",
"9X0XtXaX0X9X9XtX3XtXsX8X2X&X=XyX=XOXOXoXQ.T.D.Y.{.{.oXT.f.8.X   . -XtX9X0XtX1X,X8X|.`.Y.R.$X_.].%X$X7X$X9X>X9X1X1X1XtXdXdXaX9XtX",
"1XaXtX3X3X9X1XtX1X3X3X1X2XOX7XyX8XOX(./.Q.I.T.(.].>.%XOX:.f.  X % P.J.9X9X0X3X,X8X1X`.Y.R.&X}.$X%X$X4XOX9X9X9X8XtXaXaX0XtX0X3X1X",
"1XaX1X>X0X3X1X0X8X9X2X2X1XoX&X4XtX8X$X(./.).+.v f.h.-.>.;.;.o   u :.>.@.$.6X(.>X&X2X}.E.'.&X}.$X$X$X4X$X0XaXtXtXtX3X9X9XtX3X1X>X",
"9XtX>X9X3X1X3X8XtX3X2X1X{.oXOXOX<X8X8X<X&X)./ b v v $.b x x w   t #.v $.c %.%.+.$X0X1X`.[.|.].{.$X,X7XOX9X1X9XtX3X>X1X>X7X1X1X>X",
"9X3X0XaX9X3X1X0XsX0XtX0XXX).W.!.).,X<X<X,X,X<X#.*.&.@.h j e w X X g j x c %.h [.].8X0X$X'.$X{.'.&X,X{.!.7X>X:X3XaXtX>X>X9X9X1X3X",
"0X3X3XaXsX0X3X3X0X0X0XtXXX(.oX/.[.2X7X<X,XK n n ^ E E x g + 6 X X & z k v #.=.v r n L 8X<X&X2X}.}.<XoXW.2X:X3X9XtXaXdXsX9X0X3X0X",
"sX2X>X:X1XtXyX3X3X3X3X5X%X%X$X'.{.7X0X7X,XL n C.C C Q R q e 5 X   @ q v W y c ;.l M P 9X7X7X0X7X&X7X4XI.7X3X>X3X9X3X0XtX9X0XaXdX",
"aX1X>X:X1X2XtXaX9X9X<X=X8X4X%X_.[.7X8X%X<XK I ..=.z g Q c e = = O E k ;.$.z & V n 4 L 8X<X9XtX8X4X8X9X!.OX8X:X1X0X0X0X0XtXaXsXdX",
"tX1X:X:X1X>X9XsXyXtXOX=X5X<X].R.{.<X$X{.4XL , M m e l :.h *.k z $.v @.t r R < M M n L <X<X,X2X<X2X8X9XOX).9X>X9X9X9X0XsXaXsXdXaX",
"0X>X>X>X>X9X0XaXtX=X=X$X$X$X/.^.$X]./.{.7XL n I 4 & , 1 > y W E q - & - 4 4 4 n H n K &X[.].).[.{.7X<X].F.tX1X9XsXtX0X9X0XtXsXdX",
"tX9X1X1X0XtX9X0X5X+X%X/.$X%X{.%X4X,X,X,X8XL A , 6 B B 5 * #   O . : ; : 0 7 n 2 : M J _.~.Y.D.E.~.<X<X/.G.7X9X0XtX3X1X0X0XtX9X0X",
"0XsXdXdXtX3XtX8X=X4X].!.&X4X<X<X7X7X9X7X7XK B 1 6 7 1 % % * X   X ; % - 6 < A , n n J ^.R.k.g.Y.^.&X$XE.T.+XaX8X1X1X9X3X9X3XaX9X",
"3X0XaXsX0X0X0X+X8X&X)./.8X8X$X&X1X7X3X8X&XZ n m 6 , 5 > - o # o . * * - : $ 1 1 < n K >X)._.k.j.).&X[.Y.D.H.7X9X0X3X>X3X3X9X1X>X",
"1X3X3X8X9XaXOX=X2XQ.Q.&X8X4X).$X$X,X1X9X<XZ V B gX2 , $ % - # % ; = $ 4 m A 2 M m n K 8X2X,X_.j./.&X(.W.D.H.@XaX1X;X3X>X1X3X1X3X",
":X:X>X1X6XXXF.4X).B.B.$X<X,X$X$X$X&X<X7X2XH N 5 : A 2 , > $ # # * $ $ < 3 3 4 m I n J 9X2X7X&X^.].].Y.W.Q.H.XXyX9X0X9X3X0X0X3X:X",
":X>X>X:X+XO.w.B.w.9.G.&X<X2X&X7X<X&X<X2X9XJ N n 2 N M H n $ > > > 6 4 2 m n V < 2 4 K 9X0X9XOX).$X].d.F.<XQ.F.4XaXdXaXtX0XtX0X>X",
"9X9X9X2X+X6._ o. .+./.=X%X&X2X8X&X<X7X2X2X{.^.^.E.k.k.Y.`.,X<X{._.).4X,X].{.1X9X2X2X9X8XtX0X$X].,X).s.G.4XW.e.B.7XtXsXtXtX1X:X3X",
"3X8X3X4X(.a.X._ _ 9.Q.%X2X=X=X=X,X<X9X2X2X$X[.`.).l.k.R.{.4X7X{.Y.E.$X$X|.,X2X2X1X2X8X8X0X0X2X2X>XOXI.Y.$X/.6.{ $X0X0X0X0X>X:X3X",
"tXaXaX<X+XQ.e.7.{ ] 6.!.%X+XQ./.7X9X9X3X&X$X|.{.|.~.l.R.(.<X9X,XR.E.&X4X1X1X2X8X,X<X8X8X0XyX7X,X&XOXT.a.D./.5.O.5X0X0X0X1X;X>X0X",
"sXtX0X7X<X_.G.a.7.] ) 6.w.9.6.d.%X9X<X{.^.&X{.<X{.'.~._.).,X9X,X_.Y.].&X4X2X9X<X$X&X&X2X4X8X7X,X$X$XI.5.5.i.6.9.OX2X3X1X>X1X1X9X",
"1X:X1XtX2X~.k.D.B.5.] ' ( ( ( o.D.).^.g.D.$X$X$X'.>X[.[.^.{.7X2XR.s.I.Q.$X,X8X7X&X{.&X,X,X<X%X{.&XW.w.[ ` O.2.t.Q.{.9X0X3X1X;X1X",
">X1X3XaX2X_.^.T.G.w.6.O.] } ) ) ` 2.O.o.q.<X4X$X).[._.'./.{.7X7XY.t.t.s.g.Y.E.Q.].&X&X{.&X<X).j.I.p.5.1.q.w.q.a.W.(.7X9X>X;X:X3X",
">X0X3X9X7X,X`./.].I.e.7.1.1.o.o.} ) ( ( o.H.G.G.T.^.[.).^.$X<X<Xg.1.1.8.q.q.8.a.I.g.I.^.{.<XT.q.8.4.1.<.0.D.F.I.T.^.,XtX1X>X1X9X",
"aXtX3X9XtX7X:X>X4X$X!.F.p.w.6.6.1.] ~ ! ) O.O.o.5.g.^.[.'.<X%XD.q.1.} 1.O.[ o.5.5.5.0.y.~.).g.o.} [ ,.,.7.s.Q.XXQ.].,XtXtX0X9X9X",
"dX0X9X9X9X9X>X3X9X9X7X@X(.H.B.e.q.<.] ~ ~ ~ ) ' [ q.I.OX].G.w.o.} } ' ' ' ] ] } { ` } 3.y.G.6.[ } <.<.3.q.u.R.OX%X4X5XyXdXdXtXdX",
"9X3X>X>X3XtX1X9XsXtX9X<X<X@XH.F.q.7.3.,.] X.] ' ` { w.H.6.X.` ` ] ] ] ,.] ] ] 2.5.5.1.1.8.q.o.6.q.r.r.r.y.g.W.$X,X4XtX0XyX0XsXsX",
"1X>X;X;X1X0X8X0XtX2X1XtX8X6X(.H.F.B.0.3.3.7.5.o.X.1...<.o.X.X.X.<.<.<.,.X.} 2.7.8.3.3.q.8.8.q.w.D.a.y.f.D.(.,X6XpXtX1X9XsX0X8X0X",
"3X;X;X;X3X0XyX0X1X1X9X3X9X7X8X%X(.H.F.e.7.7.0.5.2.7.7.6.w.q.3.0.t.u.u.r.t.p.p.8.0.0.a.t.0.t.a.D.D.F.L.XXOX{.7XtX9X3X9XyXsX9X1X3X",
":X>X;X;X3X0X9X9X0X3X>X3X3X9X1X:X,XOXoXH.p.t.t.7.3.t.r.t.D.D.p.f.k.~.l.k.Y.W.g.g.D.I.f.y.y.i.f.f.D.W.XX-X<X7X0X0X2X1X>X9XtX0X1X>X",
">XtX0X>X9XtXtXaX1X;X3X>X1X9X3X3X1X1X,X].W.Q.I.p.i.g.f.j.XX(.E.R.~.<X<X^.$X=X=X+X^.l.Y.s.f.g.I./.^.'.>X,X7XtX3X3X9X9X>X>XaX0X1X1X",
"2X0XaXsXdXdXdXaX9X0X9X3X0X0X3X;X}.:X>X1X7X0X|.l.Y.(.$X{.-X%XOX,X{.7XyXyXdXdXdXrX4X8X$X^.Q.OX>X`.`.:X>X,X0XtX>X:X>X8X9X9XaX0X9X9X",
"6XtX9XaXsXtXaXaXaXdXaXtX0XtX0X>X>X>X:X:X3X2X2X:X1X>X2XuXdXdXtX0X0XtX7XaXsXtXaXtXyXdXyX8X8X0X0X>X:X>X>X:X3X1X3X>X1X>X3XsXhXdXaXtX"
};
