/* XPM */
static char *result[] = {
/* columns rows colors chars-per-pixel */
"64 64 245 2 ",
"   c #0C0C18",
".  c #12121D",
"X  c #0C0D28",
"o  c #181826",
"O  c #0A0C31",
"+  c #0B0E3A",
"@  c #0D1134",
"#  c #0D113E",
"$  c #151739",
"%  c #1F213C",
"&  c #24242C",
"*  c #262636",
"=  c #24253C",
"-  c #32323F",
";  c #0E1243",
":  c #0E134C",
">  c #0F1D4D",
",  c #111443",
"<  c #171A49",
"1  c #151A4B",
"2  c #0C0A50",
"3  c #0F1556",
"4  c #111654",
"5  c #131A55",
"6  c #191D53",
"7  c #11165B",
"8  c #13195D",
"9  c #1A1E5B",
"0  c #1E214A",
"q  c #1B2156",
"w  c #1D235B",
"e  c #252647",
"r  c #2B2D4C",
"t  c #353549",
"y  c #222554",
"u  c #262955",
"i  c #2C2E54",
"p  c #22265B",
"a  c #25295C",
"s  c #2A2D5C",
"d  c #302D51",
"f  c #2C3159",
"g  c #363758",
"h  c #141864",
"j  c #141A64",
"k  c #191E63",
"l  c #141B6B",
"z  c #161D74",
"x  c #191E75",
"c  c #171F79",
"v  c #181F7B",
"b  c #1C2365",
"n  c #16266A",
"m  c #1D236B",
"M  c #142373",
"N  c #1B2373",
"B  c #19217E",
"V  c #172979",
"C  c #1C3478",
"Z  c #252A63",
"A  c #272B66",
"S  c #20266C",
"D  c #23296C",
"F  c #283467",
"G  c #2D326B",
"H  c #343764",
"J  c #3A3C63",
"K  c #32356B",
"L  c #36396D",
"P  c #3A3D6B",
"I  c #252B74",
"U  c #242A77",
"Y  c #292E72",
"T  c #242C7C",
"R  c #2B3273",
"E  c #2C347B",
"W  c #273879",
"Q  c #333772",
"!  c #373C75",
"~  c #31367C",
"^  c #343B7B",
"/  c #393E7A",
"(  c #3E416A",
")  c #2C4478",
"_  c #3C4376",
"`  c #3C437C",
"'  c #414158",
"]  c #46496B",
"[  c #55566B",
"{  c #454976",
"}  c #4D527A",
"|  c #55597C",
" . c #5D607C",
".. c #1B2384",
"X. c #1B2985",
"o. c #1B2C88",
"O. c #183886",
"+. c #1D348B",
"@. c #183B92",
"#. c #232B84",
"$. c #242B84",
"%. c #252C89",
"&. c #282F8A",
"*. c #243484",
"=. c #2B3285",
"-. c #2B3C83",
";. c #24378A",
":. c #2C338D",
">. c #2A3B8C",
",. c #343A83",
"<. c #373C85",
"1. c #30378B",
"2. c #343B8C",
"3. c #223A90",
"4. c #2B3B90",
"5. c #303790",
"6. c #343B92",
"7. c #383F93",
"8. c #1E4995",
"9. c #2B4386",
"0. c #3C4384",
"q. c #3E4B84",
"w. c #3C438B",
"e. c #364888",
"r. c #39528C",
"t. c #2B4797",
"y. c #354395",
"u. c #3B4294",
"i. c #384A95",
"p. c #3E4698",
"a. c #344B9A",
"s. c #3B4B9A",
"d. c #2B5792",
"f. c #375598",
"g. c #3C549C",
"h. c #3D6398",
"j. c #2257A4",
"k. c #385BA5",
"l. c #3C69AA",
"z. c #3775B2",
"x. c #414583",
"c. c #444B83",
"v. c #4A4D82",
"b. c #434A8C",
"n. c #464B8C",
"m. c #4C528A",
"M. c #495488",
"N. c #565A85",
"B. c #51568D",
"V. c #444A94",
"C. c #444B94",
"Z. c #444B9A",
"A. c #484F9C",
"S. c #4C5295",
"D. c #4A5A96",
"F. c #43549C",
"G. c #4C539C",
"H. c #525794",
"J. c #545A93",
"K. c #5A5E95",
"L. c #50569C",
"P. c #545B9C",
"I. c #5D628B",
"U. c #486398",
"Y. c #5C6295",
"T. c #576699",
"R. c #5C639B",
"E. c #626687",
"W. c #656998",
"Q. c #636C9D",
"!. c #6B729B",
"~. c #75799B",
"^. c #4958A1",
"/. c #4A5DA2",
"(. c #5057A1",
"). c #555BA3",
"_. c #595EA3",
"`. c #4A67A8",
"'. c #466FAF",
"]. c #5B62A5",
"[. c #5668A5",
"{. c #5D64A9",
"}. c #5C6AAB",
"|. c #5972AA",
" X c #5878B4",
".X c #646AA5",
"XX c #676BA6",
"oX c #636BAC",
"OX c #6775A6",
"+X c #6D73A4",
"@X c #6C71AC",
"#X c #7579A8",
"$X c #757BAD",
"%X c #637AB4",
"&X c #6A7AB5",
"*X c #7175B1",
"=X c #757BB5",
"-X c #7A7EB4",
";X c #5587B6",
":X c #5B8ABC",
">X c #7A83AA",
",X c #6A85BA",
"<X c #7986B8",
"1X c #6990BA",
"2X c #7C91BB",
"3X c #778FC2",
"4X c #6D95C6",
"5X c #7A94C3",
"6X c #76AACE",
"7X c #808094",
"8X c #8487AA",
"9X c #9295AA",
"0X c #858AB8",
"qX c #8A95B8",
"wX c #9699B9",
"eX c #99A3B9",
"rX c #A5A8BB",
"tX c #A8B1BA",
"yX c #8B8FC0",
"uX c #8A95C4",
"iX c #9296C3",
"pX c #959BC4",
"aX c #999DC6",
"sX c #8BA7CC",
"dX c #9CA3CB",
"fX c #98A6C9",
"gX c #94ACD2",
"hX c #A6A9CB",
"jX c #AAB1CA",
"kX c #B5B9CC",
"lX c #A6ADD1",
"zX c #A9B6D4",
"xX c #B9BBD5",
"cX c #B3BEDA",
"vX c #9FC5DE",
"bX c #A7C4DC",
"nX c #B7C5DC",
"mX c #B5CDE2",
"MX c #C4C6DB",
"NX c #C7CDE2",
"BX c #CCD2E5",
"VX c #CDDAE9",
"CX c #D4D8E8",
"ZX c #D7E3EE",
"AX c #F4F5F9",
/* pixels */
"........hX&.y.s.s.t. XqX#X~.( { k 4 5 y # # B B ..c h c z ....:.&.......B z v ....%.......7.{.%.y.a./.s.2X8X8XE.{ Z 6 1 : , + # ",
"......lX X-X2.u.7.oX}.&X<XCXBXCXVXBXsXqXrXP $XQ.U M l N 8XXXu.p.).&.Z.%.&.7.1.1.........6.cXlXy.=.].p.}.}.,XgXNXNXNXZXnXzXwXwX4 ",
"....BXt.O.q.kXiXX.$X].a.}. XbX;X6X[.t.>XQ.T.w.n.=XqXO.fXV.A.-X_.C.2.G.u.c z z 7 l v ..A.uXX.r.{ jX7.u..XZ.a.3X;XgX6X`.%X>.2X+Xm ",
"..$.l h h 7 2 8 ,.b.2.5.4.).oX_.2.V z B X.3.U k b A eXD h k 8 8 S h c aXaXV l 7 k @X0XV.l l j 3 7 Y -.2.7.6.5.oXoX7.=.z z B +./.",
"B ..v z h z c V.I h h h c >.;.y.2.Y.W.v.w 5 1.1.....%.$.=.G.A.A.L.6.....5.uXk.*.P.v ....c l h z v <.^ h h l $.>.:.u.0.W.I.A 1 5 ",
"u.6.7...v ..%.Z.%.C.#XS.0.R W S.R.>.O.-.U.qX@X@X@X1.=.:.......z ......%...#.AX X2.#.A.7.6.v ..%.6.u.1.V.$Xm.^ n 9.U.T.o.*.r.2X>X",
"B ........6.1.1.=._.u.(.-XpXjX>X^ c.R 0X0.V Y I G c.Y.c.,.>.X.#.Z.#.A.7...#.&.zX............X.&.1.$.V.-X7._.yXdXfXY.q.R b.qXT W ",
"..........o.Z.6.p.p.p.p.}.&X5XuXbXnXMXMXqXY u.$.pX%X$XT.9.).A.].p.%.......#...#.v #...........#.A.Z.7.(.7.).=Xt.uXcXcXnXMXjXR.E ",
"......$.....#.....v %.:.p.{.p.{.W Q.qX|.hX..e.E kXMXnXcXmX0X X2X).y.(.6.V.7.&.X.#.........#.B B #.v ....%.5.).).Z.[.e.$X$X%X].$.",
"..........xX#.%.%.Z.u.%.u...X.1.,.B.J.` D m T C J.+X^ M.x.qXjXiX*XZ.).(.1.2.T 5.........X...#.(.#.#...(.5.7.&...:.e.^ W.` m D k ",
"..7.:...$.`.AXX.........v x ....#.:.2.i..X*XXXqXM.O.+.i.[.b.n ~ x.K.oXZ.X.p.5...v ..#.7.$.=.dXfX_.%.........c c ....%.:.w.@XP.@X",
"v c ....qXM 4X=X5.....7.L.P.u.G.=.$.$.B ..6.n 5 a N.!.B.1.y.4.;.l h h k N u.B l h c v ....o.8X@.zXA.X...6.V.7._.G.G.=.#.....$.u.",
"..&.-XwXh 7 z $.MXhXz h Y 8 h 8 h _ tXm k k Z.+...B M I :.oX{.^.7.5.=.w.~ 4 3 7 h z ..).-X0.7 7 ..).Z.Z.h j S 8 7 8 h #XI.k b h ",
"&...c c h h M l v (.C.2.S._.*XG.G.<XO.zX*Xw.T !.Q.}.[.k.vX:XsX,X^.y.).+X#.hXJ.e.o.y.#...z z h j z z ..{.C.u.P.oXC.1.wXO.@.nX-XJ.",
"v ..v ..%.2.:.7.%.:.L.:.Z.7.p.0XP.z h V T #XQ N.fXeXgXCXCXCXMXNX X%XoX}.Z.:.b.aX3X].v v ....1.7.6.7.X.Z.u.G.G.6.G.hX0.l l x ,.#X",
"..:.%.%.....c z %.......%.6...v z z l c ..v w # + y : : 9 N.( >X#XqX|.s.s.a.&.5.dX..%.:.%.......c c #.......&.7...v z l z v v X.",
"........................5.5...X.........#.......7.....%.%.Z.....%.......&.....X.........:.4.............X...............:.:.....",
"......7.v &.....B ..yX..v ..%.&...&...#.Z.7.#.1.N D V.].s.e.$.6.&.X.:.Z.4.&.z l j j j v.C.o.&.:.........Z.%.........yX......%.&.",
"....cXNX#.%...B Z.uXk.aX..%.Z.u.o.A.%...<./ n.aXL.^ b a { ` u.a.+.%.F.[.I h >X<X2Xf.f.,Xb.,.D h C.F.X.G.P.*.=.V._.uXk.aX..%.....",
"%.L.z @.{.....&.h h z x ..&...5.%.A.x ,.&.T h Q 8 c.i.>.1.i.W E h A | ` M.m.2.m R : 4 D M.9.3 4 4 8 7 S ^ { C./ : a <.<...&.....",
"..l h c ..v *X....h z ..=.%.5.5.H.C u.:.Z.6.2.U t.F.^ J.H.^.`.`.E k m ~ L 5 w ` W.[.r.w.~ Z ! 0.sX1XD.e.M l W E h A H.%.&.v 5...",
"..:...#.v p.%XdX....c 7.X.G...R k.[.9.m d.6.m :.k jX#X` <X3X4X-XOX<.Y m.` n n ,.).6.U.$XjX8X{ g $ O @ ; n `.k.l T B $.B <X..%.%.",
"......nXv h h o.#.:.Z.X.P.z o./.f.^ 4.^.a.&.:.I V.].Z.a.&.I x.U J.W m K.[.F.L.2.~ h / iX5XsX}.t.s.E T D 3 b V.k.L.R Q w.a.,X_...",
"..Z.XXM ,.oXB k %.7.).L.Y `.[.n '.f.s.a.:.^ iXZ.X.<X3Xm I B.G.v.<X4X6Xg.0.B.qXCXzXxXwXI.L N.{ u g f ; b R..XZ D D.|.Z.+X2 z 5...",
"....c l c ..l z G.x.:.h ,XR 1XfXn y.o.9.n. X;Xr.#Xw.9 !.V.p.yXxX>X] $ E.I h #XqXI.q.M./ q.Z._.1.6.>.1.*.C.#...(.Q.4 =.{.=.Z.o...",
"..5.%.:.%.#.l h #.l n.S n :X4XC /.t.k Q.>X+XQ.i._ w I J.#XE.y g I.W.!.c.E B.D 5 6 < P w y < % @ < ( a b I 7.^.&.].uXN m u.&.:...",
"....5.%.X.l N l Z.m S ! eXZX0X@XD -.D P.: <X|.0 9X`.r.K Q MXaX..C.[.c.D Z x.$XsX^.>...[.`.f.V.,Xf.pXzXT.R.q.Q 1 6 :Xf.D S V.Z...",
"..:.$...l B D Q u.7 b.{ VXmX#X[.!.s C ] jXH tXbX4Xx.I D x.~.K.Y i J ; i f ( i g , e J ] P A 5 -.u.e.` ].Z.`.oXL.b 6 '.n 4 3.1...",
"..#.#...h ..b ^ V.4 `.v.bXjX@X>X: `._ >Xa F fXF b ^ A 2 x { d a A H v.{ N.Z G K K T V.E 1 Q 1X}.m.I uXD.9 M.:./.l.b T f.: x.%...",
"....%.7.b t.w M.D K 2Xv.Y.: H.I.> m q _ <XA 7 0.H u h Y / G a L w p y 6 : < s K Q c.W.-XJ.J = % ` R.^.'.yX] ` =.(.S.<Xi.! a #.&.",
"..#.V.&.9 8.I f.9.w W Q.: B.aXN.L OX| 2X( 0 # H W.H < J d P Q a 6 P { A J ( J { L K P 5 5 Q 7 J @ + T.a.6.6.{ 0X%.j 0.:.XX: 0.:.",
"..C.v.u.: a.).} g.# S.f.D Z q.b >X} ~.; _ i _ ( , | 7Xy , e ' ] H ] ] ] w H Q { ] A Q y Z <.x.>X$ kXv.E L.W.L.: y.:.D :.;.j Y ..",
"..u.: (.: l.%.-.j.Y.D i.D L ! I .Xi ; ! 3 R w i E. .g e E.] i u J g y < 0 < u ( #XN.X } ( w ~ L.K.N.A._.J 6 0X.X/ @.^ 2./.R S.:.",
"#...4 2.I }.w.).|.4XY.^ -.G a Z R.[ s } { F i ' d t e ' [ g g g d d r e d d $ $ r J s e I.s N.{ 0./ .XhX0X; K 6.<.j.Z.7 t.z &.4.",
"....=.A F.c.w fX].h.vX2XI e./ q Z @Xu ] h a 0 f $ - t t . . &   * . * & X X X & e = 6 , P J.< S.7.p L.Y [.#XA L.:.s.u., /.$.X...",
"..5.*.5 U.t.M.5 wX:.a.9.n e.q r.I.d.fX$ $ i f d t t * & = = t = & o . & X o X % % [ d $ { Y H (.).^ *XyXN t._ R Z.[.1.# *.C.&...",
"o.v &.;.Z F ;XR.: 0.V.Z.f.>X~.Z ) } E._ * X @ t * d & e &     o . . . o o % X X g } [ y ,.U ] ^.-X+X|./.: <.e.[.b.f.S.K ~ F.y...",
"..:.6...s.G.} ) < ; ; > C b D.q.U.<Xq.F U.@X!.r % % $ t = .       & & o o t t d J ! P Y _ s aX`.2.2.$.U.| 9 ^ g.b.|.# L.h t...X.",
"......cX1.Z.=X,X<XxXnXCXqX~.; : : > q q.J.` A v.T x.W.[ f e @ % o = [  .J 0 e @ 6 0X/ P y -X6.-X:.{.t.$ wX~.2.z.b Q Z R ,.t.:...",
"..Z.OXM A _.A.Z.[.z.%X9...F.9.D.+X!.N.} s < 0 , , y 0 < s f 0 q d d J ' e X g g } 0 a v.@X[.;.m.Z.C <.N.W.aXn F.3 y.j Q.w >.Z.7.",
"....c h z <.D l z 5.u.H.M.w q ) D./.oX4. X<XwXhXeXkX9XeX= g ( m.I.N.{ v.m E y < H #Xe.s.^.F.q W.V J.0 W XXjXC W  Xd.Z ].9 :.(...",
"..6.....%...(._.+X9.I C f.g.'.+X_ # ; b B.R T.b.T [.sXsXS.] ]  .E.} | !.wX+XwXiX0XlX@XZ.( + v.E E ; g.p `.! |.e.q.4 S.k W i.v ..",
"......#.#.7.Z.Z.^.k.2XgXBXfX0.+.T.Q.T.Q.N.P a , , ; @ # < q K { _ A Z H Q.E._ q e + : < 7 m z 0.@ V.` _ 1.k 9.w.; q.` U >.v :...",
"........%...&.%._.#.<.D Q q.Q w.J.F.d.).u.%.y.k.dXzX*XU I.!.2X9X~.d 6 u y H ( I..XA w w q.T < e S.n.w  X=.K.S ; W.R.M B ..1.2...",
"..$.v #.lX&.....B B %.7.2..X0XiXlX2XgXdX,XpX8X} 9 + # # , q P v.( S { / =Xt.B l A Q.-.u.5 : ` *.c.9.6.o.m 4 ^ P./ S ..u.>.c ....",
"....-Xm h Z.oXl R h b m #Xl l l R ^ h 7 j b } 6 # G -.R l Z G w s s q : 1 4 XX/.`.0.m W 8./ V.C.%.b.^ E .X:.=.m .XB #.%.dX#.X...",
"..v v v =.$.:.u.G.:.2./.V $XMXiX0XR._.$X>XG.u.=.%.o...u.C.7.G.J.H.[.v %.2.7.7.l l Z...%.S...&.%.Z.S.....G.b z ..$.#.5./.V *XkX..",
"..:.%.....c ....%.%...c z ......o.:.%...1.B 2...........$.:...%.4.4.%.....x ..6.....:...B ........:.%.....z ..........c z ......",
"........hX&.u.a.s.t. XqX>X~.P { k 4 5 y # # U ....v l z z v ..&.&.&.......&.z c ......&.%.&...%.........lX%.s.a.s.t.%XqX#X~.P _ ",
"......lX X-X2.p.7.oX}.&X<XCXBXCXVXBXsXqXrX( +Xm.l z h h U kX_.Z.)._.$.A.5.&.Z.&.7.6...........%.......zX}.OX1.Z.:.oX}.,X<XCXBXBX",
"....BXt.*.e.kXyX#.*X].a.}. XbX;X6X[.t.>X.XT..XV.aXgXo.@.<X%.%.L.oXL.%.&._...c #.h h z v ..v #.......BX3.;.q.CX-X$.$X[.a.%X XnX:X",
"..$.l h h 7 4 8 ~ b.2.5.4.).oX).2.V z B X.3.m h j F Q.Y.Y h 8 h h D S U *X@Xz l 7 7 S +X_...#.v B 1.l l h 7 : k ,.w.7.1.:.[.oX).",
"v ....l h l v V.Y 8 h h c >.;.y.2.Y.W.v.q 5 ].$.X.=.G.z I E $.0.T ,.1...:.iXCXj.V K.S.:.%.............z h l c V.E 8 h h z >.;.y.",
"p.6.7.......%.p.&.V.*XB.x.R W S.R.>.O.-.U.qXaX*XR.1.2.Z.A.5.6...z $.&.......:.BX4.nXB z v v v ..V.7.7.......%.V.%.C.$XS./ I ~ D.",
"..v ......6.1.1.&._.u.^.-XpXjX>X^ c.R 0X0.V E R.w.R.$X.XV.............#.&.:.5.*XlX(.7.7.7.%.X.dXB ..v ....5.6.:.$.oX6.G.0XaXjX$X",
"..........o.Z.6.p.p.p.p.}.&X5XuXbXnXMXMXqXR ~ m.B.e.^ Y m ~ .X..7.@X..5.6.......%...v ....v #.}...........X.G.7.V.Z.y.Z.}.'.uXpX",
"v ....$.....#.......#.:.p.{.p.{.W T.qX XhXB 2.#.aXdXfX,Xh.'.&.a.Z.3X{.5.....#.$.#.:.%.X.....:.@.v ....$...........v %.:.p.{.u.}.",
"..........xX%.%...Z.p.$.u.....2.,.B.J.` D S W m 8XnXMXNXmXNXcX|.dXoX&.p.:.7.7.(...............X...........hX%.%.#.Z.7.%.u...X.2.",
"..7.:...#.`.AX..........v z ....%.:.2.u..X*Xp.;.b.$XW W ) q.OX>X<X-X(.V.A.#.#.1.#.............z ..7.1.#...'.AXo.........v c ....",
"..c ....qXc 4X=X6.....7.L.).u.G.=.T %...X.6..XeXD.-.+.;.}.T.e.l Q x.J.@XV.%.Z.&.......:.u.7.:.l ..v v B hXV sX@X5.....7.L._.2.(.",
"..&.-XwXh 4 z C xXhXz h Y 8 7 k k _ tXm l k w 5 q M.W.Y.,.6.4.4.>.j h 8 h E V.B c h l c ....v h ..5.-X8Xh 4 z =.MXiXl h R 8 h 8 ",
"&...c z h h N z ..(.C.2.S._.*XG.G.<XO.zX*X0.[.o.C z j N ,.{.[.Z.:.:.%.=.<.~ k 4 7 7 h h l 2...l &...c c h h x z v _.Z.7.S._.*XV.",
"..v ....%.2.:.7.&.:.(.1.Z.7.u.0XP.l l M T #Xi.D.U.P.o.f. X5XlXz.<XZ.u.).].#..XjXY W l _.ZX1...c v ..v ..%.7.1.7.%.6.(.2.u.7.V.0X",
"..:.%.#.....c z %.......%.6...v z c h c ..v l 8XwX<X4XcXmXmXBXAXmX Xs.Z.2.2._.T yXuX'.lX..........:.%.%.....v z &.......%.7....."
};
