/* XPM */
static char *result[] = {
/* columns rows colors chars-per-pixel */
"64 64 247 2 ",
"   c #0C0E29",
".  c #0A0C31",
"X  c #0B0E3A",
"o  c #0D1134",
"O  c #0D113E",
"+  c #13163B",
"@  c #1F213C",
"#  c #20223A",
"$  c #0E1243",
"%  c #0E134C",
"&  c #0F1D4D",
"*  c #151847",
"=  c #151A4A",
"-  c #0C0A50",
";  c #0F1556",
":  c #111654",
">  c #131A55",
",  c #11165B",
"<  c #13195D",
"1  c #1A1E58",
"2  c #1E2248",
"3  c #1A2257",
"4  c #1D235C",
"5  c #26284A",
"6  c #252856",
"7  c #22265B",
"8  c #2A2D5B",
"9  c #302D51",
"0  c #2C3159",
"q  c #33355A",
"w  c #141864",
"e  c #141A64",
"r  c #191E63",
"t  c #141B6B",
"y  c #161D74",
"u  c #191E75",
"i  c #171F79",
"p  c #181F7B",
"a  c #1C2365",
"s  c #16266A",
"d  c #1D236B",
"f  c #142373",
"g  c #1B2373",
"h  c #19217E",
"j  c #172979",
"k  c #1C3478",
"l  c #252A63",
"z  c #2A2E63",
"x  c #242869",
"c  c #23296C",
"v  c #293369",
"b  c #363964",
"n  c #32356B",
"m  c #36396D",
"M  c #3A3D6B",
"N  c #242B73",
"B  c #292E72",
"V  c #232978",
"C  c #242C7C",
"Z  c #2B3273",
"A  c #2C347B",
"S  c #273879",
"D  c #363A74",
"F  c #31377C",
"G  c #343B7B",
"H  c #393E7A",
"J  c #3E426B",
"K  c #2C4478",
"L  c #3A4376",
"P  c #3C437C",
"I  c #40405A",
"U  c #454A6D",
"Y  c #50526D",
"T  c #454977",
"R  c #4E547B",
"E  c #55597D",
"W  c #1B2384",
"Q  c #1B2985",
"!  c #1B2C88",
"~  c #183886",
"^  c #1D348B",
"/  c #183B92",
"(  c #232985",
")  c #232A84",
"_  c #252C89",
"`  c #282F8A",
"'  c #2B3285",
"]  c #2C3C83",
"[  c #243688",
"{  c #2C338D",
"}  c #2A3B8C",
"|  c #343B83",
" . c #373C85",
".. c #30378B",
"X. c #343B8C",
"o. c #223A90",
"O. c #2B3B91",
"+. c #303790",
"@. c #343C92",
"#. c #383F93",
"$. c #1E4995",
"%. c #2B4386",
"&. c #3C4384",
"*. c #3E4B84",
"=. c #3C438B",
"-. c #364888",
";. c #39528C",
":. c #2A4797",
">. c #354395",
",. c #3B4294",
"<. c #384A95",
"1. c #3E4698",
"2. c #344B9A",
"3. c #3B4B9A",
"4. c #2B5792",
"5. c #375598",
"6. c #3C549C",
"7. c #3C6196",
"8. c #2257A4",
"9. c #385BA5",
"0. c #3C69AA",
"q. c #3775B2",
"w. c #404583",
"e. c #444B83",
"r. c #434A8B",
"t. c #474C88",
"y. c #4C528A",
"u. c #495489",
"i. c #575B86",
"p. c #51558D",
"a. c #444A94",
"s. c #444B94",
"d. c #444B9A",
"f. c #484F9C",
"g. c #4A5896",
"h. c #43549C",
"j. c #4C539C",
"k. c #545A93",
"l. c #535895",
"z. c #5A5E95",
"x. c #50569C",
"c. c #545A9B",
"v. c #4E638C",
"b. c #5D638A",
"n. c #486398",
"m. c #5D6395",
"M. c #5B639B",
"N. c #586798",
"B. c #636889",
"V. c #646995",
"C. c #65699A",
"Z. c #636C9D",
"A. c #6D719C",
"S. c #75799B",
"D. c #4958A1",
"F. c #4A5DA2",
"G. c #5057A1",
"H. c #555BA2",
"J. c #585EA4",
"K. c #4A67A8",
"L. c #476FAF",
"P. c #5B62A5",
"I. c #5668A6",
"U. c #5D64A9",
"Y. c #5C6AAB",
"T. c #5B72AA",
"R. c #5878B4",
"E. c #646AA5",
"W. c #666BA6",
"Q. c #636BAC",
"!. c #6D73A5",
"~. c #6974A8",
"^. c #767AA8",
"/. c #747BAD",
"(. c #637AB4",
"). c #6A7BB6",
"_. c #7175B1",
"`. c #747BB5",
"'. c #7A7EB4",
"]. c #5D85A7",
"[. c #4D89BD",
"{. c #5C8ABB",
"}. c #6C8EAE",
"|. c #7982AA",
" X c #6A85B9",
".X c #7986B8",
"XX c #7C93BB",
"oX c #778FC2",
"OX c #6D95C6",
"+X c #7995C3",
"@X c #72ACCE",
"#X c #77BAD5",
"$X c #7DC2DD",
"%X c #7DC7E5",
"&X c #808094",
"*X c #8487AA",
"=X c #8F94AC",
"-X c #858AB8",
";X c #8A95B8",
":X c #969AB9",
">X c #95A2BA",
",X c #A6ACBD",
"<X c #8B8FC0",
"1X c #8C92C2",
"2X c #8798C5",
"3X c #9699C4",
"4X c #959BC4",
"5X c #89A8CB",
"6X c #99A5C9",
"7X c #95ADD2",
"8X c #A6A9CB",
"9X c #AAB1CA",
"0X c #B4B8CC",
"qX c #A6ADD1",
"wX c #A8B7D5",
"eX c #B9BBD5",
"rX c #B3BEDA",
"tX c #91C4DD",
"yX c #A7C4DC",
"uX c #B7C5DC",
"iX c #86CBE6",
"pX c #8AD2EE",
"aX c #91D0E9",
"sX c #93D3EC",
"dX c #9AD3EA",
"fX c #9BDAF3",
"gX c #99DAF5",
"hX c #AED2E8",
"jX c #A4DCF4",
"kX c #A9DEF5",
"lX c #ABE2F8",
"zX c #B6E5F9",
"xX c #BDEAFE",
"cX c #C4C6DB",
"vX c #C7CDE2",
"bX c #CCD2E4",
"nX c #CDDAE9",
"mX c #D4D7E8",
"MX c #D6E1ED",
"NX c #C6E5FB",
"BX c #C3ECFE",
"VX c #CBEDFE",
"CX c #D7ECFD",
"ZX c #CEF0FF",
"AX c #D3F1FF",
"SX c #DBF2FF",
"DX c #F4F5F9",
/* pixels */
"W W W W 8X` #.3.3.:.R.;X^.S.M T r % > 6 X O h h W y t y p W W { _ W W W h y p W W _ W W W #.U._ >.2.F.2.XX*X*XB.T 7 > = : * o O ",
"W W W qXR.'.@.,.@.Q.Y. X.XmXbXmXnXbX5X:X,XM ^.A.V f t g |.E.,.a.H.` d._ ` #.....W W W W #.rXqX,.` P.d.Y.Y.).7XbXvXbXMXuXqX:X:X: ",
"W W bX:.~ *.0X1X) _.U.2.Y.R.yX{.@XI.:..XI.N.=.s.`.;X~ 6Xa.j.'.J.a.#.f.,.p y y , t p W d.2XQ ;.T 9X,.=.E.d.2.XX[.6X@XK.(.} XX!.d ",
"W ) t w w , : < G r.X.{ +.H.Q.J.X.g y h W } g r t v >Xc r e , < x w p 3X3Xj t , t !.-Xa.t w w ; : B ' @.#.@.+.Q.Q.#.' i y h ~ F.",
"h W p y w t p a.B w w w y } o.>.| m.V.R 4 , X.+.h W ) ) { x.f.j.x.@.W W @.1X9.[ c.p W W y t w p W | H w w w ) } } >.&.V.z.z = > ",
",.@.,.W W W _ a._ a./.j.&.B S u.I.} ^ [ n.;X~.~._. .{ { W p W y W W W ( W ( DXR.X.) f.a.@.W W ( +.,...a._.y.H t %.k.P.^ [ *..X.X",
"h W W W W @.{ ..` J.#.j..X3X9X|.G *.A *X*.j Z c B T m.t.| ..W ) a.( f.#.Q ( { qXW W p W W W ( ) X.) a.`.#.J.-X6X6Xm.e.Z r.;XS S ",
"W W W W W Q d.@.a.,.a.1.Y.).+X1XuXrXcXcX;XN ,.) 4X(.|.n.%.J.f.P.1.` W W W ( W ( W Q W W W W Q ( f.d.#.H.#.J. X2.4XwXyXrXcX9Xm.A ",
"h W W ) h ( W W W W Q { 1.U.1.U.S N.;XT.8XW -.A 0XcXeXrXhX-XR..XF.#.G.@.d.#.{ ( Q W W W W W ( h ( W p W _ @.G.H.d.K.-.|.`.(.P.) ",
"W W W W W eX_ _ ( d.a._ #.( Q ..| p.k.&.c x C j l.!.K u.e.;X9X4X`.f.J.D...X.h X.W W W W W W W H.( Q W G.{ @.` W { &.G V.P d c < ",
"W ,.{ W ) K.DXQ W W W W p y W W ) { X.=.E._.E.:Xu.^ ^ <.M.r.d A w.z.Q.d.W ,.+.W p W _ #.) ' qX4XJ.( ( W W W p p W W _ { ,.!.c._.",
"h i W W ;Xi OX`.+.W W @.x.H.#.G.' ) _ Q W @.s > 7 b.A.k.X.>.o.{ t w w r N ,.i t w i i W p ) -X/ wXf.Q W @.a.#.J.j.j.' ( W W ) ,.",
"W _ '.:Xw , y ) eX8Xy w B < w 1 e H ,Xd t a s.^ W h f N { Y.Y.d.@.+.{ =.Z : % < w y W J.'.P , , W J.d.d.w r x w , < e ^.b.a d e ",
"{ W p y w w g t p G.s.X.f.c._.f.x. X~ 0X_.=.C !.Z.I.I.9.yX{.5XOXD.>.J.!.( 8Xk.<.~ >.( W i y , w i y W E.a.,.H.E.a...:X~ / eX'.k.",
"W p h W ( +...#._ +.G...d.#.a.-XM.t t f N ^.Z E >X:X7XmXmXmXcXvXR.).Q.U.d.{ r.3XoXP.p W p W +.#.#.#.W a.,.j.j.#.f.8X&.t t y | |.",
"W { _ _ W W p y ` W W W _ +.W W y y t i W h a + $ 6 % % 1 i.J |.^.;XT.2.3.2.` O.6XW _ ` ` W W W p i Q W W W _ @.W p i t t W p h ",
"W W W W Q W W W W W W W +.+.W ! W W W W W W W ( >.W W ` ) d.W W _ W W W { W W W W W W W ` +.W W W W W W ! W W W W W W W +.` W W ",
"W W W #.p _ W W h W <Xh p W _ ` W ` W ( f.#.( ..g d a.P.d.-.) @.` Q +.a.+.` f r < r t e.s.! ` +.W W W W d._ W W h W ;XW W W _ _ ",
"W W rXvX( _ W W f.2X9.3XW _ d.,.W f._ W  .G r.3Xx.G a 8 T P 1.2.^ _ h.I.B e .X XXX5.5. Xr.| c w s.h.! f.x.` ] =.P.2X9.3X( _ W W ",
"_ x.t / U.W W _ t w y g W ` W +._ f.u  .` A w D , r.3.} ' <.S A w v E P t.y.| g Z % : c u.%.: : : , , x H T f.P % 7 |  .W { W W ",
"W t w p W p _.W W w y W { _ ..{ l.k @.{ 1.@.X.N :.6.H k.v.6.L.K.A r d F n > 4 P V.P.;.=.F r D =.6X{.g.-.f t C F w v l._ _ W +.W ",
"W +.W ( p a.(.6XW W y @.W x.W N 6.Y.%.d 4.@.d { r 9X!.T .XoXOX`.W.| B y.L a s | H.@.F.|.9X=XY 0 2 . o $ s K.9.t C h ) h '.W _ ( ",
"W W W rXp w t ! _ { a.W c.y [ I.5.K O.D.2._ { N s.U.d.>.` B w.N k.A d z.T.h.x.-.G w G 1X+X5XI.:.<.C A c ; l r.9.j.B Z =.2.).U.W ",
"W d.W.f  .E.p t _ #.J.x.Z K.I.s L.9.d.2.[ | 4Xd.! `.oXN N p.x.t..XOX@X6.&.p.-XmXqXrX:XB.m i.T 6 q 0 O a M.I.x c g.Y.d.!.% y +.W ",
"W W y t p W t y j.w.+.w  XZ {.5Xs >.! %.y.(.L.4.^.=.1 !.d.a.<XeX|.U + B.B w !.;Xm.T p.&.&.f.P.} @.} X.) a.C W F.A.: ' U.{ d.( W ",
"W +._ +._ _ w e ( t y.d s {.+Xk D.:.r V.'.!.A.3.J 6 N k.^.b.5 q b.V.A.e.B p.N yXNX* M 1 6 * # o * b l s C #.j.` E.+Xd t ,._ { W ",
"W W +._ h t g t d.d d H 6XnX-X~.B ] B l.&  XN.2 =XK.;.n n cX3XW s.I.t.x 8 w.hXCXSXZXQ I.K.2.1. X9.:X0XN.M.*.G * 1 {.9.x x 1.,.W ",
"W { ) W t W c D #., r.U MXuX!.I.A.8 k J 9Xq 9XyXOX&.N c w.^.i.B 0 q $ 0 |.NXBXSXCXNXyXU M 8 > | <.=.L I.d.K.Q.x.a = K.k : O.X.W ",
"W ( ) W w Q 4 S d.: K.T uX8X~.*X% K.L |.0 v 6Xn 4 L x - u U 9 l 6 n m.NXVXVXCXCXCXzXlXB = Z }.T.t.C 1Xg.7 y.{ G.9.a C 5.* &._ W ",
"W W ) #.r :.4 g.c n XXt.m.% k.m.& c < J }.x ,  .n 8 t B F n z m a yXzXVXZXSXSXSXNXlXkX'.k.M @ @ P M.F.L.-XU P ` H.g..X<.L 4 W { ",
"W ( a.` 4 $.N u.%.4 S Z.: y.6XE n !.E XXU 6 o b V.b = I 9 M D 7 zXjXzXBXAXSXSXBXzXjXfXN.> m w b o X N.2.@.X.Y -X_ t  .{ A.% &.{ ",
"W a.y.#.% 2.c.t.6.O g.5.c l &.a |.R S.$ m 0 L M $ E &Xz uXNXzXxXkXdXZXAXAXVXSXVXjXdXlXi.l  .&.*X+ 9XR F x.J.G.= @.} c { o.e Z W ",
"W ,.% x.: 9._ A 8.N.c <.c m M B Z.0 + H = S 3 0 E E I ZXxXxXzXlXkXdXVXZXVXVXVXBXkXdXdX}.J 6 G j.z.p.f.z.m = ;XQ.H o.F X.F.N g.{ ",
"( W : ..N T.=.c.Q.OXm.F ] Z 7 l M.Y 8 T P v 9 I 9 9 AXBXZXZXZXBXzXBXBXVXxXBXBXzXzXdXiX].b.9 i.T &.L E.9X-X$ n @...8.d., :.y _ @.",
"W W [ v h.e.4 7XI.7.yXXXN -.H 3 l ~.0 U < 8 2 0 # ZXBXBXBXAXxXzXlXBXZXBXlXsXzXtXaX$X$X].M z.* s.,.7 H.V Y.!.z l.{ 3.,.$ n.) W W ",
"W +.` * K.:.u.> :X{ 2.%.s -.1 ;.B.4.6X+ + 9 0 9 xXZXBXxXAXZXBXlXkXxXxXBXBXtXdXiX#XiX$X].P B q J.H.G _.-XN $.L Z a.I. .$ ' s._ Q ",
"Q p _ [ x v ].Z.% P a.h.5./.S.x K T V.U @   o *XBXxXxXBXZXxXZXlXjXfXzXxXBXaXtX$X#X#X@X].| c T d..X!.T.F.% | %.U.r.5.p.n G h.@.W ",
"W { @.Q >.G.e.K * $ $ & k s i.;.K.|.*.v v./.A.lXkXxXzXZXAXxXxXlXdXlXlXgXzXpX$X#X@X#X$X].L 8 8XK.] @.A n.R < G 9.r.T.$ g.t :.W ( ",
"W W W uX..a..X X.X0XeXMX;XS.$ % % & > *.v.K L fXiXlXlXxXxXxXzXgXiXgXzXfXgXsXpX%X#X#X%X}.6 _.X..X` Y.>.$ >XS.=.0.a D 8 A G 2.{ W ",
"W d.W.f z H.f.f.U.q.(.o.! g.%.g.!.A.i.R 0 @ @XjXiXsXpXgXgXsX%XiXsXzXlXlXpXlXgXfX%XiXaXXX!.Y.[ y.f.k | i.C.3Xd h.: } t P.4 o.d.@.",
"W W y t y  .x t y } <.k.u.3 3 S n.D.Q.O.R.2XkXdXdXiXiXjXaXiX$X%XlXxXBXlXlXgXpXsXaXaXpX+XD.h.4 V.g z.2 S Q.9Xk A R.2.z P.1 X.D.W ",
"W @.Q W _ W G.J.W.&.N k 5.h.L.!.L O $ a p.H Z.l.] Y.5X@Xl.R Y B.B.E v.|.:X~.2X4X2XqX`.D.J X t.A A $ 5.4 K.D T.-.;.= j.r S ,.p W ",
"W W W ( ( #.a.d.D.9.XX7XvX8X-.! N.Z.N.Z.i.m 6 * $ % X + * = M T L v 8 n V.V.M 3 5 O % = , d g &.o s.&.G X.r %.=.$ *.P j [ W { W ",
"W W W W ` W ` _ J.( X.c S T D =.k.h.4.x.,.` >.9.6X9X_.C m.Z.XX=XS.6 2 6 6 b J b.P.x 4 4 *.V = 2 g.r.3 R.| z.x O M.m.g j W ....W ",
"W ( h ) qX` W W h h _ @.X.E.-X1XqXXX5X8X X4X*XT 1 X X O $ 1 b y.J a P T _.:.h t z V.%.,.> % T ) e.%.@.! d : H x.H x W <.X.i W W ",
"W W '.r w d.Q.y B w a d S.u t d Z G w , a 4 R 3 O Z ] B r x n 4 0 0 1 = : : W.K.K.*.d C $.L 1.f._ r.H A E.{ ' d E.p ) _ 6X_ h W ",
"W h W p ' ) { #.j.{ @.F.j /.cX1X-XP.J./.|.j.,.{ _ ! ( ,.d.X.G.p.n.I.p )  .#.@.t d d.W _ g.W ` ( a.j.W W f.d p W ) ( +.F.j _.0XW ",
"W { _ W W y W W _ _ W p y W W W ) { _ W ..h ..W W W W W ) { W ! O.O._ W W i W @.W W ` W i W W W W ` _ W W y W W W W W p y W W W ",
"W W W W 8X` #.2.3.:.R.;X^.S.M T r % > 6 O O C W W i t y i p W _ ` _ W W W ` y i p W W _ ` ` W ` W W W W 8X_ 1.2.2.>.(.;X^.S.M L ",
"W W W qXR.'.X.1.@.Q.Y.)..XmXbXmXnXmX6X;X,XJ !.p.y y w w x eXJ.d.H.H.( f.{ ` d.` ,.@.W W W W W _ W W W wXR.~.X.d.{ Y.I. X.XmXmXbX",
"W W bX:.~ *.0X<X) /.P.2.Y.R.yX{.@XK.:.`.I.N.E. .4X7X! / .X_ _ G.W.j._ ` J.W p ( t w y p p W ( W W W bXo.[ *.mX'.) _.U.2.T.R.yX{.",
"W ( t w w , : w | r...+.+.J.Q.J. .g y i W o.d e r v N.m.Z r e w w c c C Q.W.y t , , g A.j.W ( p W | t t e : : w | r.X.@.{ U.W.J.",
"h W W t t t p a.B < w w y } o.>.] M.V.i.4 > M.' Q ) f.y g A A  .C |  .W { 1XMX8.j m.p.{ ) W W W W W W t w y p a.B w w t h } ^ >.",
",.@.#.W W W _ a._ a._.l.&.B S u.N.} ^ [ n.;X4X_.J. .=.f.j.@.@.W i ( ` W W W ` mXo.rXp i p p p W a.@.@.W W W ( a.` a./.p.P N G g.",
"h W p W W +.....` P.1.f..X3X9X|.G *.A *X=.j ' M.=.M.`.E.1.W W W W W W ( { { +._.qXG.@.#.#.` _ 3XW p W W W +.X.{ _ E.@.j.-X6X9X/.",
"W W W Q W ( d.@.1.,.1.1.Y.).+X1XuXuXcXcX;XB F y.p.P D N d F E.W #.Q.( +.+.W W W ` p W W W W W U.W W W W W Q G.#.1.d.>.d.Y.K.2X4X",
"p W W ) h ( W W W p _ { 1.U.1.Y.S I.;XT.8Xh  .Q 6X:X6X X7.L.} 3.f.`.J.@.W W ( _ ) [ _ ( W W } / W W W ) W W ( W W W _ { 1.U.,.Y.",
"W W W W W eX_ _ _ d.,._ ,.W W ..| p.k.P c x C a *XuXcXvXuXvXrXI.7XQ.` 1.{ #.#.j.W W W W W W W Q W W W W W 8X( _ W d.#.` #.W W X.",
"W @.{ W ) K.DXQ W W W W W y W W Q +.>.=.E._.<.} =. XS S K ;.A..X.X'.G.1.f.( ( ..) W W W W W W y W @.{ C W K.DX_ W W W W p y W W ",
"W p W W ;Xj OX`.+.W W #.x.c.,.x.' C ( W W @.W.>Xn.F ^ [ U.M.-.s Z w.z.!.a.` f.` W W W { #.#.{ t h p i W 8Xh @X_.@.W W #.j.J.@.c.",
"W ` '.:Xw , y ) eX8Xy w B 1 e w e P ,Xd r w a : 3 y.V.V. .@.o.O.[ w e < w Z a.p y w t i W W i t W +..X*Xw : y ' cX3Xt w Z < , < ",
"` W p y w w g t W G.a.X.s.c._.j.j. X~ 0X_.r.n.^ j g t t | Y.J.d.+.{ _ {  .F r : , w w w t #.i t { W i y w w g y p H.d.#.x.J._.a.",
"p W p W ) X.{ #.` { G...d.#.a.-XM.t e h C ^.r.g.c.c._ 2.T.+X7Xq..XD.,.G.E.( J.0XB k y c.MX+.W i p W W W _ #...#._ +.G.+.a.@.a.;X",
"W { _ _ W W p y ` W W W _ +.W p y i e p p W t |.:X}.OXuXhXuXbXDXvXR.3.a...X.J.( <X<XL.8XW W W W W { ( ( W W p u ` W W W _ @.W W "
};
