/* XPM */
static char *e6c4232ef01d4413ccccdcb887f7a55caCjTHPeRegfewrD2[] = {
/* columns rows colors chars-per-pixel */
"64 64 198 2 ",
"   c #060A34",
".  c #12153E",
"X  c #0B0F45",
"o  c #0F1346",
"O  c #0E134B",
"+  c #151843",
"@  c #181B47",
"#  c #12154C",
"$  c #14194D",
"%  c #0F1452",
"&  c #0F165B",
"*  c #101554",
"=  c #151A53",
"-  c #1A1E53",
";  c #11165B",
":  c #151A5B",
">  c #191E5D",
",  c #1E235B",
"<  c #222544",
"1  c #21244C",
"2  c #202453",
"3  c #2B2E54",
"4  c #21245E",
"5  c #25295B",
"6  c #292D5A",
"7  c #2E3157",
"8  c #36395C",
"9  c #121760",
"0  c #141A64",
"q  c #191E63",
"w  c #151C6C",
"e  c #191F6A",
"r  c #171E74",
"t  c #181F76",
"y  c #171F79",
"u  c #181F79",
"i  c #1C2265",
"p  c #1C226C",
"a  c #1C2274",
"s  c #1A217C",
"d  c #202564",
"f  c #242A66",
"g  c #292E64",
"h  c #21266C",
"j  c #242A6B",
"k  c #292E6D",
"l  c #2C3164",
"z  c #2C316E",
"x  c #383B65",
"c  c #31366B",
"v  c #34396D",
"b  c #212774",
"n  c #242A74",
"m  c #292E73",
"M  c #20277E",
"N  c #242B7C",
"B  c #282E7C",
"V  c #2D3275",
"C  c #2B327C",
"Z  c #313674",
"A  c #353A75",
"S  c #3A3D74",
"D  c #32367B",
"F  c #353A7C",
"G  c #393E7B",
"H  c #3B4065",
"J  c #3D427E",
"K  c #42446C",
"L  c #414477",
"P  c #43457B",
"I  c #45497B",
"U  c #4A4E7B",
"Y  c #53567E",
"T  c #1B2384",
"R  c #202782",
"E  c #242B84",
"W  c #282F83",
"Q  c #242C89",
"!  c #282F8A",
"~  c #2B3284",
"^  c #2A3189",
"/  c #2A318D",
"(  c #2C338C",
")  c #2E358E",
"_  c #313682",
"`  c #343A83",
"'  c #393E84",
"]  c #30378B",
"[  c #30378E",
"{  c #333A8C",
"}  c #393E8B",
"|  c #303790",
" . c #323891",
".. c #343B91",
"X. c #393F93",
"o. c #3B4183",
"O. c #3C428C",
"+. c #3C4394",
"@. c #3E4598",
"#. c #414684",
"$. c #444984",
"%. c #494C84",
"&. c #41478C",
"*. c #454B8B",
"=. c #494E8C",
"-. c #4E5184",
";. c #4D528A",
":. c #525584",
">. c #565A86",
",. c #52568C",
"<. c #54598D",
"1. c #595D8D",
"2. c #414793",
"3. c #454B94",
"4. c #494F93",
"5. c #414798",
"6. c #444B9A",
"7. c #494E9B",
"8. c #4D5295",
"9. c #4C529C",
"0. c #525695",
"q. c #555B94",
"w. c #5A5E92",
"e. c #51569D",
"r. c #545A9C",
"t. c #595E9C",
"y. c #5D6189",
"u. c #5C6191",
"i. c #5C619C",
"p. c #67698D",
"a. c #626695",
"s. c #666B95",
"d. c #61669C",
"f. c #666A9A",
"g. c #6D719D",
"h. c #727599",
"j. c #76789C",
"k. c #4F56A0",
"l. c #5156A1",
"z. c #555BA2",
"x. c #595EA4",
"c. c #5C62A5",
"v. c #5E64A8",
"b. c #6165A5",
"n. c #656AA4",
"m. c #696DA3",
"M. c #6166A9",
"N. c #656AAB",
"B. c #696EAC",
"V. c #6D72A6",
"C. c #6D72AD",
"Z. c #7376A3",
"A. c #7679A4",
"S. c #7A7DA3",
"D. c #7276AD",
"F. c #7479AD",
"G. c #7A7DAC",
"H. c #6E74B0",
"J. c #7176B1",
"K. c #757AB3",
"L. c #7A7EB4",
"P. c #7C80AA",
"I. c #7D82B5",
"U. c #7E83B8",
"Y. c #8286AD",
"T. c #878AAA",
"R. c #8286B5",
"E. c #858AB6",
"W. c #8A8CB4",
"Q. c #8285B9",
"!. c #858ABB",
"~. c #8A8EBD",
"^. c #8E91B5",
"/. c #8D91BD",
"(. c #9194BD",
"). c #9598B8",
"_. c #9CA0BC",
"`. c #A0A3BE",
"'. c #8B8FC0",
"]. c #8E92C0",
"[. c #9295C2",
"{. c #9599C3",
"}. c #9A9DC5",
"|. c #9C9DC8",
" X c #9CA0C5",
".X c #9EA2C9",
"XX c #A1A4C6",
"oX c #A1A3C9",
"OX c #A6A9CD",
"+X c #A9ACCD",
"@X c #ACB0CD",
"#X c #B4B6CF",
"$X c #AFB1D0",
"%X c #B6B8D4",
"&X c #BEC1D9",
"*X c #C4C6DC",
"=X c #C7CADF",
"-X c #CCCDE0",
/* pixels */
"T T T T T T T T T T T T T T T T T T T T T T T T T T T T T T T T T T T T T T T T T T T T T T T T T T T T T T T T T T T T T T T T ",
"T T T T T T T T T T T T T T T T T T T T T T T T T T T T T T T T T s s s T T T T T T T T T T T T T T T T E T T T T T T T T T T T ",
"T T T T T T T T T T T T T T T T T T T T T T T T T T Q ) ../ Q T T T s u s T T T u s s s s s T T T T T T  .Q T T T T T T T T T T ",
"T T T T T T T T T T s s s s s s s s s s s s u s T T Q Q Q Q Q ../ E T s s s s T s T s u r r s T T T T T /  .Q T T T T T T T T T ",
"T T T T T T T T T t r u s s s s u s s s s s r r u a R E N E E Q Q ^ ( R s s u s s s s s t w r T T T u T Q / Q T T T T T T T T T ",
"T T T T T T T T T s s s T s s s u s s s s y r r u r u s w s s Q Q Q ! ) Q s s s s T T E E s r w s s u t T ) / Q T T T T T T T T ",
"T T T T T T s u r w r 0 r w w 0 0 r r r r r w 0 r r s s r s s s a E Q Q ! ^ E s s s T E E M s r r r s s s E / /  ./ T T T T T T ",
"T T T T s s r r r r u r s t r t y s u t a N N N ~ ~ ! Q s T s T s s a Q Q Q ( ^ s s s E / ^ E a r u T s u a N E Q ! T T T T T T ",
"T T T T T T s E N N { O.} O.O.O.} { N a s N R M ^ Q Q / ) / T T s s s s a N E ! E s t s R ^ ! T r u T T s r s E / ) E T T T T T ",
"T T T T T T E ~ E E ! ^ Q ! ^ ^ Q ) E } ( ) ^ Q / Q Q Q Q Q T T T ( ^ E t s M E s T s r a E ^ ^ s u T T s r w s T +.Q T T T T T ",
"T T T T T Q / ! Q Q ) [ )  .[ ] ) X.] ..) )  .[ X.] | +.5.+./ Q T Q Q E N E T s s u s u u p N ^ ^ a s T ] E w r T ] a s T T T T ",
"T T T T T Q Q Q T T T s u t r T / 7.9.B.v.c.v.c.B.v.C.I.I.K.N.x.z.x.7.) Q Q ^ ! T s r r y r p E ^ E T T / T r r s [ N T T T T T ",
"T T T T T T T T u s s r t N { 5.5.7.l.l.6.x.l.9.M.x.v.N.M.N.M.x.N.B.J.I.J.x.@.} ~ ^ ~ T s r t a N Q E E  .E t w t ^ N T T T T T ",
"T T T T T T T T s s r r a ~ O.e.9.z.M.M.c.N.x.c.v.e.b.b.c.v.x.k.e.7.9.b.B.I.K.K.v.7.} ..) E a r a N Q T / [ E w r E N s T T T T ",
"T T T T T T T T r w a N } @.7.B.l.5.9. . .} ~ ~ ) C V j V A G #.o.` $.r.e.v.v.B.J.B.N.B.9.@.^ a a a ` Q Q / E t r ! ~ s T T T T ",
"T T T T T T T y w a E ] @.5.7.9.{ ] { E N n N } { C F k m V m _ h n e h k #.8.z.v.J.B.U.M.5.@.) s a W E E ) / s r E E s T T T T ",
"T T T T T T s w a ~ ! ..+.+.[ { b a e r s a ~ { ( a b p b N N ` C $.` a r p n m o.8.8.C.K.H.9.X.! s ~ W T E  .Q s ! ^ s s T T T ",
"T T T T T T r r ~ ^ Q X.) ~ E a e B B &.0.4.9.8.3.r.c.q.r.8.O.O.~ ` &.o.D b N a a ` ` 4.B.L.K.z.+.Q M ~ Q T Q ) E / ) a s T T T ",
"T T T T T w w W ) Q T Q s N N C o.*.m.L.!.~.{.].U.L.!.L.L.U.L.K.M.H.C.v.3.O.` b 0 0 a m 4.C.L.C.z.[ Q ~ Q s M ( ! ) ^ w s T T T ",
"T T T T y r E ( Q T s n b C O.8.b.L.oX[.[.!.U.C.v.c.C.B.B.H.H.C.z.v.K.D.K.C.b.+.C p 9 w B r.Q.L.B.9...) ^ s w N ^ ) ^ e u T T T ",
"T T T s r a ( / T s n V C O.8.B.!.].[.J.B.b.i.,.=.#.$.$.$.%.;.%.o.=.e.l.M.J.H.v.&.N h ; * n z.I.H.x.7. .[ E r a E / ( p s T T T ",
"T T T r r Q | Q E N p N &.b.K.].!.F.q.o.' m , = $ : > : i 4 k d , j z V %.t.I.U.N.O.V h ; : ` v.C.B.v.z.X.Q t w s Q ! q y T T T ",
"T T T r a [ / E C b b +.x.U.E.R.u.o.n : ; O = > > V k G G Z N 0 q e 0 e d A c.C.U.c.O.h ; * p 2.i.N.N.N.7./ s 0 r E [ a s T T T ",
"T T T r E ( ^ N N N } 3.C.G.P.a.A N 0 ; p i P :.>.Y.j.T.W.T.).h.1.#.j 0 p p Z *.n.M.D.4.p o & b 8.L.K.J.c.6.Q 0 r T Q w u T T T ",
"T T s s Q ^ n j N [ 5.x.J.E.Z.A p e i Z ;.u.Y.(.}..X(..XoX{. X{.}.XXW.m.` C j 5 J 4.L.c.' = % w 8.K.K.K.B.l.~ 0 0 s Q r r T T T ",
"T T u s E a i n ..7.N.N.Q.V.2.q d $.q.i.!.!.[.OX$X$X.X].~.I.E.R.Q.[.!.[./.Z.S - h F d.F.i.i % ; _ n.L.{.L.M.+.w w T T r r T T T ",
"T T r s T w i N 6.N.I.H.Q.C.m - c ;.B.L.{.|.}.(.I.u.I c 3 3 3 x <.I.U.[.[.F.,.d & b %.F.R.*.= * m 8.K.!.U.B.8.b w s s 0 r T T T ",
"T T s T r ; 0 { M.Q.Q.B.[.f.f , S n.I.!.~.!.w.U 8 7 1 $ o - = # . 2 c i.Q.~.Y.$.q 0 k ,.D.9.p = > =.L.'.Q.M.9.~ E ~ a w r T T T ",
"T T s T r ; b @.J.!.K.I.[.I , 5 %.B.[.!.L.f.l < @ 2 6 l x K x 5 - 5 + 5 4.N.~.i.n w n ,.L.C.G - * ` C.Q.U.v.9.~ ^ W w r r T T T ",
"T T T r 0 q C e.L.Q.B.~.I.A f h #.C.[.F.;.7 1 3 H Y p.h.Y.A.a.U K v $ X d q./.K.F q d <.C.v.O., o V N.Q.Q.c.7...] N r y r s T T ",
"T T T s r N +.v.B.K.U.[.n.z i j q.R./.s.v 1 3 K j.`.#X%X&X+X{.W.S.:..   ; 8.{.I.C 0 n d.C.z.4.j # n C.!.U.B.9...] a r s t T T T ",
"T T T s w ~ @.v.c.B.U.!.8.j e S d.L./.y.2 + 6 $.L.+X*X*X=XOX{.^.G.;., $ j F.{.B.h * j m.K.z.3.m ; b v.~.~.M.+.@.N 0 u s r u T T ",
"T T T T N @.z.M.8.B.[.R.O.V a D i.b.(.p.5 + @ l 1.~.+X*X-X%X$X).A.=.g L f.[./.9.q % F I.U.z.9.f ; n b.}.~.v.5.[ a r T u r u T T ",
"T T T s N +.k.9.k.K./.I.*.V a z <.m.XXS.c * X * j 0.U.}.oXOX$X+XoX/.^._.@X|.B.n % = *.I.Q.C.O.> * D v.[.I.z.6.) t ~ E y 0 r T T ",
"T T T t ~ 9.z.7.6.K.].Q.e.J n p S $.T.^.S.S = % O - G A.E.(.XX[.}.[.{.OX[.n.F q * m C.~.!.z.j ; : ` C.].B.l.X.E ~ ) T w 0 r T T ",
"T T T s ] 9.9.5.7.I.Q.Q.n.=.V j F #.G.[.(.G.:.f % = i 5 l $.f.V.D.L.I.!.n.O.p q f Z.R.K.K.o.: 9 i 8.J.Q.N.9.[  .) / s 0 0 s T T ",
"T T T s ..@...+.9.J.U.I.F.i.' p z D i.R.[.[.~.a.v > p , , - g g A J o.G d p ; p 8.I.L.n.8.q & 0 $.b.L.L.x.9...( Q T r 0 r T T T ",
"T T T !  ...X...6.N.N.N.L.F.0.n j n F i.!.{.[.W.Y.<.V d : % % : q i > > > p Z q.!.[.i.} ~ o O N 9.J.Q.J.9.+./ Q T r 0 w s T T T ",
"T T T ) ) ) @.+.N.v.z.c.J.Q.J.$.m b h V w.A./.oX.X~.I.j.P k i p a h p n m *.w.C.L.0.` W 0 o p } J.K.C.N.5. .Q T r w r y T T T T ",
"T T T ../ / @.7.z...} 9.B.L.U.n.o.a p n o.U 1.R.(.]..XXX).).W.^.P.f.s.f.q.m.D.n.w.O.N 0 0 i _ c.U.L.C.e.( E T s w a s T T T T T ",
"T T T ) E ^ 3.c.z.W C 9.b.M.Q.I.D.t.V f V z v I :.f.G.R.Q.U.L.!.I.C.K.H.z.r.*.Z g q w r ` =.z.J.L.B.z...s r r r a W R T T T T T ",
"T T T ! T a O.J.7.s b o.z.c.U.!.L.F.m.=._ V V z g c -.U s.g.Z.Z.w.%.-.L Z Z j h h _ } } z.C.K.I.B.v.O.a w w y s E ( T T T T T T ",
"T T T T T p } J.5.T a C { +.J.K.L./.L.F.G.q.%.G Z V C , j f 5 g 6 g z V F m k G ` 0.c.e.C.Q.K.N.3.` b r 0 w s R ) / T T T T T T ",
"T T T T s w O.C.5.E r a B { x.B.B.R.L.D.!.I.R.Z.a.<.#.Z D A V b j k V J *.*.0.t.n.J.!.I.!.K.q.4.C b r w 0 r T Q ) s T T T T T T ",
"T T T T u w +.C.9.Q s w w N 3.z.M.C.J.[.{.~.[.}.Q.!.W.A.A.g.s.g.h.S.A.R.I.F.!.R.Q.!.~.F.n.4._ ~ a w w r r T ! | Q s T T T T T T ",
"T T T T r p O.v.6...E r 0 a ] r.v.v.v.v.L.L.K.~.I.!.}.{.}.}.{.~.~.!.Q.[./.~.[.Q.I.n.i.0.3.C a a r r s s E ) ) Q a u T T T T T T ",
"T T T T r N 2.x.@./ ) N w r E O.t.z.x.v.B.N.N.L.J.K.~.U.Q.!.}.[.{.}.~./.!.~.~.I.D.i.3.` a 0 w t s Q } ) | / E s t s T T T T T T ",
"T T T T r b O.5... .! E h w s ] *.2.3.O.7.l.9.C.C.v.J.J.J.J.J.J.C.M.e.z.c.N.M.z.9.{ N M a N ~ } } 5.X./ ^ E s s u s T T T T T T ",
"T T T T r n +.+.X.@.) Q N p a s +.3.2.} ..5.8.M.H.l.6.{ } 7.0.9.c.v.z.9.6.9.9.9.9.e.4.&.&.} } [ Q  .| Q R s u u r y T T T T T T ",
"T T T T r a ~ ) ..5.Q R N p w s W O.t.} W ` _ 8.B.K.B.3.` ~ B ] +.] ..+.@.7.l.z.9.e.4.+.} /  .) ! E a s r r r y s T T T T T T T ",
"T T T T u e E |  .z. .T s a r s E } 0.O.~ s N _ 8.v.z.0.3.{ N a C n C C N ( { } } +.X.{ ] E N w 0 0 0 r r u s s s T T T T T T T ",
"T T T T s 0 a } ) z.5.Q r w r u s ~ 8.4.} s r a ` 0.t.6.e.O.~ ~ W r a E E ( ] C n j p q ; 0 0 9 0 0 r s s s T T T T T T T T T T ",
"T T T T T w 0 B ^ 7.6.Q r r y u r a ' 3.6.[ s y N k F 3.x.c.8.O.E r r u s s T s s r r r w r w w w r s R ^ E T T T T T T T T T T ",
"T T T T T r w N ! X.x.[ r r s s r t m $.+.+.[ { N a b C } 0.b.M.v.3.) ^ Q ) ! ! N a b o.C a a a M ( / ) / T T T T T T T T T T T ",
"T T T T T u 0 a a E 9.7.E t y y r r a C } X.) 7.{ N a b n F 3.k.l.x.5.7.+...+.X.+.X. .x.l.@.../ Q / Q Q Q T T T T T T T T T T T ",
"T T T T T T r s s a } 3.[ s u s y r a E ~ .. .7.6.X.~ N e b V o.9.z.@.6.) ) ] ) +.5.7.v.x.5...! Q / Q Q T T s r s T T T T T T T ",
"T T T T T T u u s s ~ 7.+.T s r y y r a E ~ [ +.@.2.{ ~ a r s b B ` C 2.{ [ ) ^ )  . .+.5. ./ Q T T T s s s s s T T T T T T T T ",
"T T T T T T s t u y s ~ O.! s u u r y a N N N )  ...5.[ u y r r s N p h a a r t N ^ ^ ^ ( Q M s s t u s s s s s T T T T T T T T ",
"T T T T T T T s s u s E ~ s s s s u r r T N E ) ) / ....Q T ) ~ N s a b a a u u u r r r w r r y u r u u s T T T T T T T T T T T ",
"T T T T T T T s s s s s E T s T T s u r r a a E [ Q / / T T Q Q Q Q a a t r u u s u u r r u r u r r t s T T T T T T T T T T T T ",
"T T T T T T T T s u s T s s T T T T u s T y s E ! T T Q T T / Q Q ) / ^ ) E T T s u y r r u u s s s s T T T T T T T T T T T T T ",
"T T T T T T T T T s t s T T T T T T T s s s s T Q T T T T T T Q Q ! Q Q / T T T T T T T T T T T T T T T T T T T T T T T T T T T ",
"T T T T T T T T T T s T T T T T T T T T T T T T T T T T T T T T T Q Q Q / T T T T T T T T T T T T T T T T T T T T T T T T T T T ",
"T T T T T T T T T T s T T T T T T T T T T T T T T T T T T T T T T T T T T T T T T T T T T T T T T T T T T T T T T T T T T T T T "
};
