/* XPM */
static char *_9aea8158b0e47d3e617ffea32c5d575UxHtXPOjHaGv184E[] = {
/* columns rows colors chars-per-pixel */
"64 64 32 1 ",
"  c #8BDFFF",
". c #8DE0FF",
"X c #94E2FF",
"o c #9CE4FF",
"O c #A4E5FF",
"+ c #AAE7FF",
"@ c #ADE8FF",
"# c #B1E7FF",
"$ c #B2E9FF",
"% c #B7EBFF",
"& c #BBEBFF",
"* c #BDEBFF",
"= c #BAECFE",
"- c #BEEDFF",
"; c #C0ECFF",
": c #C2ECFF",
"> c #C4EDFF",
", c #CAEFFF",
"< c #CCEFFF",
"1 c #D1EFFF",
"2 c #CBF0FF",
"3 c #CEF0FF",
"4 c #D2F1FF",
"5 c #D4F1FF",
"6 c #D9F3FF",
"7 c #DCF3FF",
"8 c #DAF4FF",
"9 c #DDF4FF",
"0 c #E2F5FE",
"q c #E4F7FF",
"w c #EAF7FF",
"e c #EAF8FF",
/* pixels */
"-%--+>65>%&%+:4:$&2696:%@OO+X..,+%%$@@Oo$@XO&$OOoOoX+,50qeq:O:3>",
"OO&>,44:%$&@o:3&OO@&34:@$+OOXOO==@$:*:*+%$OO%&+Xo+$&>665556#+,3%",
"OO:15,#$+@$OO%::$OO@@$+OO+oXXoo$%@$&@*>-%$$++$+@::>5432-&>2$+-&O",
"OO>5<@o%$@%$OO->%o%%OOOO@+XX.XO:%+-&o%-%$%:***&,53,,2&O%,,:$OOOO",
"O+<1*oX$&$%$+O%>*$$:%O++@O..Xo$2:&>:%:-@$>542**33>&%$&$-3:@OoOXO",
"o&4:OXX@>:+OO@-,>%@-%++OOX..XO&45444:2-@%,3,>&&::$+++%&$-&@OoOXO",
"O:4=X.o&:&OXO%%>:&$@O+@oXXXO$:369943>--&&&%@=:>:@OO@@+Oo$&@OOoXO",
"O>3%OO%:@o+OO+@->-%oO@@OO:,,:>>483-&%$%&&@oXO$:,%oXO+oXX$-+@@XoO",
"O::O%>>:%@$@oX@,5<*$&-*@&45>&#o&&OoXO%&*$@o..X@:>,-OXX.o%&@%$Xo+",
"@&$X$>68,$O+@O@>54:-:2,>,3:+Ooo+OXX.X@45&@OXXXO&488,@XX@%%%$Oo@%",
"%&$O+*596,&@@%%$:>::-3<::$oXXX@$XoOoO@36&OoXO+O&>4556332$+:$XO--",
">,$@O+%->36>@%$o+&-%$>4:OXX.XO$$OO+O+@:<%OoXO$$--$-,9009-&>:%*,&",
"65%OoXXOO%<3,:@oO%$oO:54+XXoOO%%Oo@&@+%>*+OOoOO%&+@$-344&%>:<355",
"q4$ooOoXXO&>55*%@$$OO$36-XO+OO$@XO:>%O@%-*%@oXo@&%@@-&$@%&%*<670",
"0,OOOoXXX+%$>54,%@@$@O-4,%$@+$%X+>3:@OO&>2:@oXo@&&%%*&+@->--466q",
"5#OOXXX.X++O@-33-%=>:$@>35,&&::&89,-$@@--&-$XXXO-:&%%-><<>386559",
",*OXXX.XO+oXo>64,>>,::*:4004=:49q6:&&%$=$+%@XXO%&*$@%>364,40q542",
"4:+ooXXXOoXX+294,<,:*4656909>,q093&&%$@$%@:%oO@$%-%=:>3<:2456445",
"4+OOOOXooXO+#,53->,--43454,><908-&$@@OoO@$>-O+$%:4,::-&$%%>,4569",
",@oXooXoo+&>:&*>>&-,-%O$>,:O>06&$#$OoX.XO+:>@+$-463:@$$-,&*34655",
",>@XXXXo$-3,:$#><>>,:OO->4,$-4>@O++oX..oO+%>=@$-<3-+XO:,>&-<>=:>",
"-2,:$+O@&::-%$:>>,,:$@@,453@@+%-@oXX...XOO+->&&::%OXo&--&%&:$O@%",
"@>486663:%@$%:,:%:-++%:466>+OXo--o.....XOO+:<3:-$OXX$-$@$&$&>>:$",
"$&>5wwq93&+O%<>&@$+O%--55<>%$oo++oX....X@%-,3>-%Oo+%%@O+$@+$>3:%",
"+$$,5775>%$$*>-%++OO+O+,2>>$%OXOoOo....X+&=,-$@@$&%$+OO@%+@$$@Oo",
"O%--:34,:---%--%$+OXXXX-:>-O@oXOXX+O....O+$>-O$-:-+XXO$++$%%OX.X",
"%@%%@&-&&->3=%&%&$+OXX.$,3>@@ooOXX&>*O..++&>%&24:O .o%@oo$%+OOO%",
"OXOOO$%$$%43$++O@%:-+oX+33>&$Oo+OO&35,$$=:,><64:+XXX+$o.o@%$@@+@",
".XXXX@$$%-54oOo.X$::%@o@3<&%+o@$OO$*<4446996705&OO+@+o.XO%&&@OXX",
".XXXXooo$>5,@OX.XO$%%*&:3,:>>::@O$%>,,440q977963:<54,::>>>>:%+X.",
".OXXXXXXO,3*$OXXOOOOO&,5657063<#@-:,*%>4673,595>,57555344<,3>&+.",
"XOOXXOoX-4>$%OXOOOOXX&40qqq9,>::>:::+O>54:&%&33->4791>&%$+$>:$@.",
"+%%%@@OO45%+&$OOoOoX+,50qeq:O:3>-%--+>65>%&%+:4:$&2696>:-+O+X..,",
"=@$:*:*@,5=+%&+Xo+$&>665556#&54%OO&>,44:%$&@o:3&OO@&463:4>+OXOO=",
"%@$&@*>-%=&++$+@::>5432-&>2$$3>@OO:15,#$+@$OO$::$O$---&:,:OXXoo$",
"%+-&o%-%$%:***&,53,,2&O%,,:$O+@%$O>5<@o%$@%$OO-,:$:>%$->:+XX.XO:",
":&>,>3:@*3654>*33>&%$&$-3:@OoOo@%*51*oX$&$%$+O-4<-&,-=,:$O..Xo$2",
"<<4534:@:4554>*::$++@%&$-&@OoOXOO>93#XX@>:@+&-,4<%@::%&+OX..XO@:",
"4543>--&&**%:>,:@OO@@+Oo$&@OOoXOO:5>+oO&:&++%:*>:&$@+@@oXXXXoO@:",
"4,-&%$%&&@oXO$:,%oXO+oXX$-+@@XoOO>4-$%>3$o@+O+@=>-%oO@@Oo+@@OOO:",
"&OoXO%&&$@o..X@:>,-OXX.o%&@%$Xo+O:>%:,<3:&%@oXO-,:$O@&&@+%%OXXX%",
"OXX.X@45&@OXXXO&4883%XX@%%%$Oo@%@&%@-,693:*=%O+-3>%@$::$+@OX..X+",
"XoOoO@36&OoXO+O&>4599332$+-$XO--%&$+$:5963>*->:%-:::=--@ooX..X@$",
"OO+O+@:<%OoXO$$--$-50009-&>:%*,&>,$@O+%->304%::@+&-%$&:%oXX.XO$$",
"Oo@&@+%>*+OOoOO%&+@&3444&%>:<35565%OoXXOO%483-%+O%$oO&2:OXXoOO%%",
"XO:>%O@%-*%@oXo@&%@@>,&@%&%*<670q4$ooOoXXO&,43>%+$$OO@>3%XO+OO$@",
"+>3:@OO&>2:@oXo@&&%%:>-%->--466q0,OOOoXXX+%$-354%@@$@O-3>%$@+$%X",
"89,-$@@--&-$XXXO-:&%%-35<>3865595#OOXXX.X++OO$,54-->:$@>35,&&::&",
"q6:&&%$=$+%@XXO%&*$@%>464,40q542,*OXX..XO+oXXO%>452,::*:4004=:49",
"93&&%$@$%@:%oO@$%-%=->3<:25564454:+ooXXXOoXXO+%%&,>:*4656909>,q0",
"-&$@@OoO@$>-O+$%:4,::-&$%&3566694+OOOOXooXO+@%&%$@*-,43454,><908",
"$#$OoX.XO+:>@+$-463:@$$-,&:56086,@oXoXXoo+&>:$O&:$$:>&O$>,:O>06&",
"O++oX..oO+%>=@$-<3-+XO:,>&-<>:<44,$XXXXO$-3,:$@><>:*$XO->4,$-4>@",
"$OXX...XOO+->&&::%OXo&--&%&:$O$:,44>%@O@&::-%$:>>,,*OO@,453@@+%-",
"-o.....XOO+:<3:-$OoX$-$@$&$&>>:$$,800663:%@$&:>:%:-++%:466>+OXo-",
"+oX....X@%-,3>-%Oo+%%@O+$@+$>3:%$&,7ewq93&+O%<>%@$@O%--55<>%$oo+",
"ooo....X+&=,-$@@$&%$+OO@%+@$$@Oo+$$,5775>%$$*,-%++OO+O+,2>>$%OXO",
"XX+O....O+$>-O$-:-+XXO$++$%%OX.XO%--:34,:---&--%$+OXXXX-:>-O@oXO",
"XX&>*O..++&>%&24:O .o%@oo$%+OOO%%@%%@&-&&->>$%&%&$+OXX.$,3>@@ooO",
"OO&35,$$=:,><64:+XXX+$o.o@%$@@+@OXOOO$%$$%3>O++O@%:-+oX+33>&$Oo+",
"OO$*<4446996705&OO+@+o.XO%&&@OXX.XXXX@$$%&,:XOo.X@::%@o@3<&%+o@$",
"O$%>,,440q977963:<54,::>>>>:%+X..XXXXooo$:>%OOX.XO$%%*&:3,:>>::@",
"@-:,*%>4673,595>,57555344<,3>&+..OXXXXXXo&&+@OXXOOOOO&,5657063<#",
">:::+O>54:&%&33->4791>&%$+$>:$@.XOOXXOo.@$OO$OXOOOOXX&40qqq9,>::"
};
