/* XPM */
static char *d8d4f308c5404193be4179df054a2cfeb1SjOXd6JCrQn1C6[] = {
/* columns rows colors chars-per-pixel */
"64 64 205 2 ",
"   c #111656",
".  c #11165C",
"X  c #12185F",
"o  c #111762",
"O  c #121964",
"+  c #141B6B",
"@  c #181E6D",
"#  c #161D74",
"$  c #181F77",
"%  c #171F7A",
"&  c #181F7A",
"*  c #0F236E",
"=  c #1A226D",
"-  c #132274",
";  c #1A2374",
":  c #13267A",
">  c #19217D",
",  c #122A7D",
"<  c #13317E",
"1  c #19337C",
"2  c #242A74",
"3  c #20277E",
"4  c #252B79",
"5  c #232A7D",
"6  c #2D3577",
"7  c #29357B",
"8  c #2E347C",
"9  c #34397E",
"0  c #172785",
"q  c #1B2384",
"w  c #142B84",
"e  c #152C88",
"r  c #0F3B8E",
"t  c #133486",
"y  c #13328C",
"u  c #0E3D90",
"i  c #153695",
"p  c #123B95",
"a  c #193B97",
"s  c #202783",
"d  c #222A86",
"f  c #292F86",
"g  c #282F8B",
"h  c #2C3385",
"j  c #2B338D",
"k  c #24398A",
"l  c #363C83",
"z  c #30378F",
"x  c #333A8D",
"c  c #393F8F",
"v  c #213290",
"b  c #2F3690",
"n  c #303790",
"m  c #343B92",
"M  c #383F94",
"N  c #143FA0",
"B  c #0F439F",
"V  c #11419C",
"C  c #1E429E",
"Z  c #21408D",
"A  c #29428F",
"S  c #3B428B",
"D  c #294598",
"F  c #2C499C",
"G  c #334093",
"H  c #3C4395",
"J  c #3E4598",
"K  c #364C9D",
"L  c #394999",
"P  c #27529E",
"I  c #34529C",
"U  c #3A559A",
"Y  c #1444A1",
"T  c #254EA3",
"R  c #2650A8",
"E  c #2C5AAA",
"W  c #3053A3",
"Q  c #3C55A3",
"!  c #3257AA",
"~  c #355BAB",
"^  c #3C5CAC",
"/  c #2C5BB0",
"(  c #3D63AF",
")  c #2B65B4",
"_  c #3B66B5",
"`  c #464A86",
"'  c #4B508B",
"]  c #52578E",
"[  c #414794",
"{  c #434A96",
"}  c #494E94",
"|  c #404799",
" . c #444B9A",
".. c #484F9D",
"X. c #475799",
"o. c #4C529D",
"O. c #565B97",
"+. c #5F6398",
"@. c #676B9E",
"#. c #717597",
"$. c #4454A1",
"%. c #4E55A0",
"&. c #4C5BA7",
"*. c #5056A1",
"=. c #545AA3",
"-. c #585EA5",
";. c #4261AD",
":. c #4A61AC",
">. c #5764A8",
",. c #5C63A9",
"<. c #556AAE",
"1. c #426DB9",
"2. c #566DB2",
"3. c #4973BA",
"4. c #547BBD",
"5. c #656AA4",
"6. c #696DA3",
"7. c #6166AA",
"8. c #646AAB",
"9. c #6A6FAD",
"0. c #6C71AD",
"q. c #797EA6",
"w. c #646EB0",
"e. c #6E73B1",
"r. c #6B79B3",
"t. c #7277B3",
"y. c #767BB5",
"u. c #797DB4",
"i. c #3A75C3",
"p. c #587EC2",
"a. c #5C83BF",
"s. c #7989AE",
"d. c #6E82BE",
"f. c #7683BC",
"g. c #7E82B9",
"h. c #7C88BE",
"j. c #5888CA",
"k. c #6188C6",
"l. c #6F9BCA",
"z. c #7593CB",
"x. c #729CD4",
"c. c #7EA8D9",
"v. c #8488AF",
"b. c #8185B5",
"n. c #8287BC",
"m. c #868ABE",
"M. c #8A8DBE",
"N. c #8C90BF",
"B. c #9295BC",
"V. c #9799BE",
"C. c #9DA0BF",
"Z. c #8B8FC1",
"A. c #8C90C1",
"S. c #869AC7",
"D. c #9296C4",
"F. c #9699C5",
"G. c #989EC0",
"H. c #9A9EC8",
"J. c #81A0CF",
"K. c #9DA2CB",
"L. c #90AFD7",
"P. c #A9ABC7",
"I. c #A2A5CD",
"U. c #A6A9CF",
"Y. c #ABAECF",
"T. c #B4B6CC",
"R. c #B7B8CD",
"E. c #A4AFD3",
"W. c #ABAED2",
"Q. c #AFB2D4",
"!. c #B3B5D5",
"~. c #B6B8D2",
"^. c #BDBED4",
"/. c #B7BAD8",
"(. c #BBBDDA",
"). c #BFC1D8",
"_. c #BACBE7",
"`. c #B5D3EF",
"'. c #BFD9F2",
"]. c #C2C4DC",
"[. c #C8C9D8",
"{. c #CFD0DB",
"}. c #C5C7E0",
"|. c #C7CBE2",
" X c #CBCCE2",
".X c #CDD1E3",
"XX c #CAD8EB",
"oX c #D3D4E5",
"OX c #D5D6E8",
"+X c #D5DAEB",
"@X c #DCDDEB",
"#X c #D3E1EE",
"$X c #DBE1EE",
"%X c #DBE7F4",
"&X c #DFF3FF",
"*X c #E1E2EE",
"=X c #E3E5F1",
"-X c #E0E8F4",
";X c #EBECF3",
":X c #EDF5FB",
">X c #ECF8FF",
",X c #F1F2F5",
"<X c #F4F4F9",
"1X c #F0F9FF",
"2X c #FCFDFD",
/* pixels */
"q q q q q q q q q q q q q q q q q q q q q q q q q q q q q q q q q q q q q q q q q q q q q q q q q q q q q q q q q q q q q q q q ",
"q q q q q q q q q q q q q q q q q q q q q q q q q q q q q q q q q q q q q q q q q q q q q q q q q q d m b m d q q q q q q q q q ",
"q q q q q q q q q q q q q q q d d q j j m d q q q q q q q q q q q q q q q q q q q q q q q q q M |  .H m m m M d q q q q q q q q ",
"q q q q q m m q g q q q q q q d j j f & % h > q q q q q q q q g d d g j g q j g g d m q q q M m j g m m q > h q q q q q q q q q ",
"q q q q q q g ....q q q q q > > > > # % # & > q q q q q q q j m j g g j m m z m H j d q q q m > # > # > # # % q q q q q q q q q ",
"q q q q q q q q q q q ..2Xq > % # % # # q q g j q q q q q q q q f > q % q q q ;X2X2Xg q q > q > # % % # > % q q q g d g j g d q ",
"q q q q q q q q q q q  X2XI.q > > q > q q q J H q q q q q q > q > % > > > > > n.!.z @Xq q q > > q q q q q q q q g j d g j g m m ",
"q q q q q q q q q q n.I.U.g.q q q q q q q H  .j d g j =.J g m m q q q q q q x H b :.;X;Xq q q q q q q q q q q q f > q q & % h q ",
"q q q q q q q d m  .<X2XU.M.m q q q q q %.=.g q g | H d s H x x q q q q q =X>Xf.$.! j t.m q q q q q q q q q q q > % & > > > > q ",
"q q q q q q q d M 2X|.^ 9.2XOXg q q q q q q q q q q q > # > > > > q q  .<X:XF i z ;.! d.8.2Xd q q q q q q g q q q & > q q q q q ",
"q q q q q q q  ..Xm &Xp.g.2XH m j d j j q q x h j > q & % > q > q q @Xq N.oX$.p P W ^ k.,.9.OXo.e.q g j d M q g g q q q q q q q ",
"q q q q q q j e.<XG E ) =.!.H. . Xm m z f g s > h f d q q q q q q q ,Xx O.; 4 k I C 4.a.<.<X2X/.2X2X%.j g h q f > > q q q q q q ",
"q q q q g  .u.T.% - t ) 1.Z.!.(.2X-.m q > q q q j d d q q q q Z.b.# 8 o o O O 2 # L v G o.9.=.;Xg q q q q > > % # > q > q q q q ",
"q q q ~.oXB.+.5 # + # y T E i :.1X X .q q q q q q q q q q q q (.Y.# o   X o O + + # # # # ; 5 5 5 q q q q g > q % q q q q q q q ",
"q q { S V.[ ; O o + # # : y t e K o.s q d d q g q g q g g m z s ; + X . . . o O o + + + O @ @ # > q q q q %.g M q q q q q q q q ",
"q q  .S # + O o X o + + + + - - - > > 3 j d j j g j j d j j g > % + O o o o X o O + @ + O @ # > q q q m J H o.m q q q q q q q q ",
"q q q # @ + o X X o o o O O # # $ > > > q q f > q s j q q q q q q q % + + O X o O + # # # > > q q j j  . .q x q s m q q q q q q ",
"q q q & # + O o o X o o O + % > q q > > % % % % > o.%.q q q q q q q > # + + o O O O # > > q q q q j m f % % % g H H *.j q q q q ",
"q q q q & + O O + O + + # > q q q q > q > > > q q A.I.q q q q q q q q > % + + + # # > g d q q g q q g d # # > % d q q q q q q q ",
"q q q q & + + % > > > 5 j g n j g g g j q q q q q !.OXD.@Xq q q b m j > # # % # f j d j j j g j d q > % & % > q q q q q q q q q ",
"q q q q q % > q q q q j m j x q q > q j x q q q ..2X+X#X/.m q q q d m q # # > q j j q d j j f g q q q q q q q q g m g q q q q q ",
"q q q m m d =.q q q q d g g f % % # > > q q q q OX@X2._ -Xe.;Xq q q d q q > q > > % & % > > > q q M 7.q q q q q q g g d q g q q ",
"q q q m m q g =.q q q q q q q > q > q q q m.J OX%.:.Y T x.>.}.}.q q q q q q q q > # # % % % q q d n.@X .q q q q q d g d q j q q ",
"q q q d d q q q q q q q q .. .g g j M D.K.;X<X].> 0 ;.j.j.i.C +X].e.W.q M.q q q > > > q q q q q =.=Xd.L y.y.q q q q q q q j g g ",
"q q q q q q q q q q q q q OX*X-.j g m x @.5.# + O + w R 3.i./ e.U.2X=X+XA.q q q j m d g g q q q Q.$XA <. X].q q q q q q q d g g ",
"q q q q q q q q q q q q q *X2X%.g q > @ O o O o o o O - w v D m m g j W. .m g j d f h q q q m L.c.W U r.7.K.OXL q q q q q q q q ",
"q q q q q q q q q q q U.*XE.2.oXA.q # + + O o o X X X o # q > > > > > > c x q q q q q q d J &.c.E Z X.<.Z F R z.m g. Xj g q q q ",
"q q q q q q q q q q Q.S.3.( ~ H.K.F.> > > & # o X o o O + @ @ # # # # > > > > > > q z y.F..XG t < 7 6 1 < A Q XXV..Xm j g j q q ",
"q q q q q q q q ..XXW J.! D P S.Q *Xq *X%.q > @ O O O + # @ @ > > > % q > > q q q j =.].u.q.o o o o X O * ; ; @ 6.z q q q g q q ",
"q q q q q q q q ,X.XS.w # ; k I I S x 2X(.oX .% & # # % % > > q b q q q q q j m M m H 9.# + o X X . . X + + + @ q q q q q q q q ",
"q q q q q ].q F.oXl O O O O + - 7 8 8 } oX .d H H q f d > f M M ..m m g d b j d d d % # # # + o X X X O + # # > q q q q q q q q ",
"q q q q q oX% 6.4 O O O o O O O + + + # # $ c  . .M =.m g H | m  .o.H q q b q q q q > > > % # + O + O O O > > M M q q g g g g q ",
"q q q > % S % # + O + + o o o X O + # @ # % > q J g H ,.H j j q q q q q q q q q q q q q d d q % # # + @ $ q q q j d g m b g g q ",
"q q q > > q q q # + + + + O o o + @ % % > q q q q q q q q q q q q q q q q q q q j H H j  .%.H q x x > q q q q q q q q q q q q q ",
"q q q q q q q q q q % # # + + O @ $ q q q q q q q q q > > q q q q q q > > > % q j x m g g *.%.j m m q q d m q m g g d g q q q q ",
"q q q q q q q q j j d & % # # # > q q q q q q q q q q q % % % % > % # > q q q q j j 5 % # 5 f j q q q q g m q j m j d g q q q q ",
"q q q j ....j H J M J q q > > q q q j q M  .m q d d M q > > & % % > q q q q q q % % # % # % % q q q q q q q q d d q q q g q q q ",
"q q q j H %.H J M J q q q q q q q q o.j H j q d  . .H g q q q q q q q q j j q q q % > > % q > q q q q q q q q q q q q q q q q q ",
"q q q > g h > > q q q q q q q d j q q g s q % % q H g d q q q q q q q q 7.t.u.j q q > > q q j b q q m H H H j m q > % > > > q q ",
"q q % > > % > > > q q q q q q q H x $ > $ % % % > > q q q q q q q q q q  .m.}. .q q q q q q d j H  .h H H x j m > q > > % % q q ",
"q q > q q q q q q q q q q q q q q q > > > > q q q q q q q q q q q q q H .X2XF.@X%.q q q q q q > > 3 # > > % > H q q q > > # % q ",
"q q q q q q q q q q q q q q q q q q q q q q q q q q q q q  .H ..%.g M ).5.8.F S. X7.q q q q q & > # # # # > > q q q q > > > q q ",
"q q q q q q q q q q q d j j m j m j g j q j q q q q > % # H { { g o.,XoXE.y y K '.K.j q q q q q q q % > > q q q q q q q > q q q ",
"q q q q q q q q q q q j j q d x f f g h d h q q q q > # # # % > q m #XV B : - : ( _.].2XH q j j > > > q q q q d g g q q q q q q ",
"q q q q > > q q q q q d q > > > q > > > d q % q > q > # q q q H.!.6.s.u t o + + y E %X> (.%.8.8.> > > q m m J J j z j q q q q q ",
"q q q > > > > > > > > q > > > q q q q q q q > q q q q q q q ..<X*X9 + * X X X O # w - > y.z q q q q q q z { c g q m m d q q q q ",
"q q q q q q q q q q q q q q q q OX..d q q q q q q q q q ,.D.@Xh 2 o o .   . X o + # % % q > q q q q q q > h 3 % > % } q q q q q ",
"q q q q q q q q j g g d d g q j 2XK.-.j m M j j m j n j -.M.=.> + o o X   . X O # % > % q > q q g g q q > > > > q > q > q q q q ",
"q q q q q j M H .. ...m m o.q h.z.Q. X=Xj q M q j z m q > q q q % # + o . . O # > > q q q d j j g m j d q q q q q q q q q q q q ",
"q q q q q j m { h f % > % S > >XN r.2X2Xj q q q q q q > q q > > > % @ O o o % q q q q q q d j g > f f > % > % % q q q q q q q q ",
"q q q > % # % % # # # % % q q %Xi e 2XXX@X..q q q q q q q q q q > # # # # > d q q q q j m g q q $ % > # % % # & q q q g q d d q ",
"q q q q > # # > q % & q q d {.q.- r Y `.|.0.q q q q q q q q q q q > q q q q | q q q q q q q q > > q q q > q > q q q j m g j g d ",
"q q q q q q q q q q q q > v.+.#.o , p V 4._.2Xe.u.q q q q q q q j j b g q %.%.q m q j m n q q q b b q g g q g q d j d g d s q s ",
"q q q q q q q j  .u.8.P.O.6 = o X X - y i e *X2X2Xq A.A.q q q q j m %.J g q q > % x f h g j q q n.2Xd j b g g j g f d > > > q q ",
"q q q q q q q ,.u.b.v.T.` O o .     O @ - - % 9.^.q oX..q q q q q d m q q q % > % > > q q q  .W.$X%Xf.g d d q g s > % % > q q q ",
"q q q g g q q j h 8 ] 9 + O o .   X X O + + @ % % q q q d q q q q d d q g q > q > q q q q  ...w.J.V L.A.q q q q q > q q q q q q ",
"q q j j j d q q > % # # # + o . X o O + # @ # % % q q g m b g d d j j g j j q q q q q q q ]..Xa P V Y *X;Xy.=. .q q q q q q q q ",
"q q g d d q > > > q > > & # # + + + h j q > > q q q q q q q q q d d f g q j q q q q q j m.w.p w w w p l.).H.I.2Xq (.F.8.j q q q ",
"q q q > > > % > > & > q q > g f > x | H .. .q q q q q q q > > > q f g q q q q q q H =.0.[.G.w # + + - p # l O.F.;X^.[.0.h q q q ",
"q q q q q > > q q q q q q q j M H | h g m x %.j j q j g q q q q s f x g n j g g H b.{.C.2 = + + + + + - @ # # # ] ' R.].q d g d ",
"q q q q q q g b d d d d q q q g x % % & % # S x H q j g q q q q q q g g j q q Y.u.5.{ S + + + O o O + @ # % # # # % q m M M m d ",
"q q q q q j b b j g j j q q q q q > > # # # # > x q q q q q q q q q q q q q q q q > > # # # # + o O # # & q q > > q q q q q q q ",
"q q q q q g j q d d d d q q q q q q q q q q > q q q q q q q q q q q q q q q q q q q q > > q q # # # > q q q q q q q q q q q q q ",
"q q q q q q q q q q q q q q q q q q q q q q q q q q q q q q q q q q q q q q q q q q q q q q q q q q q q q q q q q q q q q q q q "
};
