/* XPM */
static char *result[] = {
/* columns rows colors chars-per-pixel */
"64 64 228 2 ",
"   c #12175B",
".  c #11175E",
"X  c #111762",
"o  c #131964",
"O  c #141B6C",
"+  c #181E6D",
"@  c #161D74",
"#  c #181F75",
"$  c #171F7A",
"%  c #181F7B",
"&  c #19236F",
"*  c #142174",
"=  c #1B2574",
"-  c #16227B",
";  c #19217D",
":  c #172A7A",
">  c #17327A",
",  c #232A7C",
"<  c #1D427E",
"1  c #3F447D",
"2  c #1B2385",
"3  c #122F87",
"4  c #1C2B84",
"5  c #1E2B88",
"6  c #1C3385",
"7  c #13348B",
"8  c #1D348A",
"9  c #1E3B8A",
"0  c #163895",
"q  c #202784",
"w  c #222A86",
"e  c #282F80",
"r  c #242C8A",
"t  c #282F8C",
"y  c #283584",
"u  c #24348B",
"i  c #2B338D",
"p  c #223C8C",
"a  c #293B8E",
"s  c #333981",
"d  c #30378E",
"f  c #333A8E",
"g  c #2E3891",
"h  c #343B92",
"j  c #353C91",
"k  c #1F448A",
"l  c #21428D",
"z  c #29428D",
"x  c #224A8C",
"c  c #37438A",
"v  c #265787",
"b  c #22528D",
"n  c #244591",
"m  c #2B4391",
"M  c #244B92",
"N  c #2B4B94",
"B  c #2B4B9A",
"V  c #354796",
"C  c #3C4395",
"Z  c #3E4698",
"A  c #245494",
"S  c #2A5396",
"D  c #255B95",
"F  c #265E98",
"G  c #2A5A99",
"H  c #36579A",
"J  c #276897",
"K  c #276399",
"L  c #2A659A",
"P  c #296B9C",
"I  c #386A9F",
"U  c #2A739E",
"Y  c #357A9D",
"T  c #254EA1",
"R  c #2A57A9",
"E  c #3658A8",
"W  c #3C68A4",
"Q  c #2D77A0",
"!  c #3575A2",
"~  c #377BA3",
"^  c #2B65B4",
"/  c #454A8E",
"(  c #424996",
")  c #444B9A",
"_  c #444B9B",
"`  c #425099",
"'  c #4C539E",
"]  c #53589C",
"[  c #536B9D",
"{  c #676C9F",
"}  c #4A58A2",
"|  c #535AA3",
" . c #545AA3",
".. c #4965A7",
"X. c #5667AA",
"o. c #5473A7",
"O. c #556EB4",
"+. c #4870B5",
"@. c #5777B5",
"#. c #666BA9",
"$. c #6B71A9",
"%. c #6979B6",
"&. c #757AB4",
"*. c #797DB4",
"=. c #587EC2",
"-. c #3D83A7",
";. c #4888A5",
":. c #448AAB",
">. c #528DAE",
",. c #4C93AF",
"<. c #4C91B1",
"1. c #569BB6",
"2. c #6485BE",
"3. c #7383BD",
"4. c #7B86BB",
"5. c #609DB4",
"6. c #57A0BC",
"7. c #5CA2BD",
"8. c #62A4BE",
"9. c #738BC3",
"0. c #6993C6",
"q. c #7697C9",
"w. c #5EA7C3",
"e. c #5EA8C4",
"r. c #64A9C4",
"t. c #68A9C5",
"y. c #76AAC7",
"u. c #66B1CD",
"i. c #6BB2CD",
"p. c #72B2CB",
"a. c #7CB6CC",
"s. c #7FA7D0",
"d. c #6DB7D4",
"f. c #72B7D1",
"g. c #73B9D4",
"h. c #7BBCD5",
"j. c #76BEDA",
"k. c #79BED9",
"l. c #75C1DD",
"z. c #7CC2DD",
"x. c #7BC6E2",
"c. c #7BC8E6",
"v. c #7DC9E5",
"b. c #8589BC",
"n. c #8F94BD",
"m. c #9497BC",
"M. c #898FC1",
"N. c #8698C6",
"B. c #979BC7",
"V. c #9EA2CB",
"C. c #86ABD6",
"Z. c #91ACD5",
"A. c #8AB3D3",
"S. c #82BCD5",
"D. c #96B6D7",
"F. c #A3A6CB",
"G. c #A5A9CE",
"H. c #ACB3D1",
"J. c #AAB6D7",
"K. c #B3B5D6",
"L. c #BABCD7",
"P. c #98BAE4",
"I. c #8FC3D7",
"U. c #83C3DC",
"Y. c #8BC6DD",
"T. c #94C4DD",
"R. c #82C6E1",
"E. c #89C7E0",
"W. c #84CAE5",
"Q. c #8BCBE4",
"!. c #84CEEA",
"~. c #8BCEE9",
"^. c #93CDE4",
"/. c #96CCE7",
"(. c #86D0ED",
"). c #8CD1EC",
"_. c #94D3EC",
"`. c #9CD5EB",
"'. c #9BD5EC",
"]. c #8AD6F2",
"[. c #8CD5F2",
"{. c #93D7F1",
"}. c #9AD7F0",
"|. c #95D9F4",
" X c #9CDBF4",
".X c #93DCF9",
"XX c #9DDEF9",
"oX c #A5CCEB",
"OX c #B8CAE6",
"+X c #A3D6EB",
"@X c #A9D6ED",
"#X c #A3D9EF",
"$X c #A9D7F5",
"%X c #A3DDF4",
"&X c #AADEF4",
"*X c #A3DFF8",
"=X c #B2DDF4",
"-X c #9EE1FC",
";X c #A6E0F7",
":X c #ACE1F6",
">X c #A5E2FB",
",X c #ACE3FB",
"<X c #AFE8FE",
"1X c #B2E2F6",
"2X c #BBE4F6",
"3X c #B3E5FB",
"4X c #BAE6FA",
"5X c #B5E8FE",
"6X c #BCEAFD",
"7X c #C2C4DE",
"8X c #C5C8E1",
"9X c #CBCCE2",
"0X c #CBD5E7",
"qX c #D4D5E4",
"wX c #D8DAE9",
"eX c #C4E4FB",
"rX c #C3ECFE",
"tX c #CBEDFE",
"yX c #D2EEFE",
"uX c #D8EEFF",
"iX c #CEF0FF",
"pX c #D3F1FF",
"aX c #DBF2FF",
"sX c #E2E3EE",
"dX c #E5EAF4",
"fX c #EEF6FC",
"gX c #F2F4F9",
"hX c #FDFDFE",
/* pixels */
"2 2 2 2 2 2 2 2 2 2 2 2 2 2 2 2 2 2 2 2 2 2 2 2 2 2 2 2 2 2 2 2 2 2 2 2 2 2 2 2 2 2 2 2 2 2 2 2 2 2 2 2 2 2 2 2 2 2 2 2 2 2 2 2 ",
"2 2 2 2 2 2 2 2 2 2 2 2 2 2 2 2 2 2 2 2 2 2 2 2 2 2 2 2 2 2 2 2 2 2 2 2 2 2 2 2 2 2 2 2 2 2 2 5 2 2 r g d h w 2 2 2 2 2 2 2 2 2 ",
"2 2 2 2 2 2 2 2 2 2 2 2 2 2 2 r r 2 t i h w 2 2 2 2 2 2 2 2 2 2 2 2 2 2 2 2 2 2 2 2 2 2 2 2 2 j _ _ Z g j j d 2 2 2 2 2 2 2 2 2 ",
"2 2 2 2 2 g g 2 t 2 2 2 2 2 2 r t i r % 2 e 2 2 2 2 2 2 2 2 2 t w r r t r 2 g t r w h 2 2 2 h h t t h h q % t 2 2 2 2 2 2 2 2 2 ",
"2 2 2 2 2 2 t } ' 2 2 2 2 2 2 2 % % # $ O % 2 2 $ 2 2 2 2 2 i h i t t t h g g j Z i r 2 2 ; h ; % % @ % $ @ $ 2 2 2 2 2 2 2 2 2 ",
"2 2 2 2 2 2 2 2 2 2 2 _ gX2 % % @ $ @ @ 2 2 e t 2 2 2 2 2 2 2 2 w % 2 # 2 2 q dXhXhXr 2 X.3.3.g $ % $ @ % $ 2 2 2 r w t g t 5 2 ",
"2 2 2 2 2 2 2 2 2 2 2 8XhXV.2 % 2 % 2 2 2 2 ( j 2 2 2 2 2 2 2 2 % % 2 % % 2 2 b.K.g wX3.tXuXuXOXg 2 2 2 2 2 2 2 t t q r i r h g ",
"2 2 2 2 2 2 2 2 2 2 M.F.G.*.2 2 2 2 2 2 2 j ( d q r i | Z r g g 2 2 % 2 2 2 j C g ..dXtXuXuXaXuXoX2 2 2 2 2 2 2 r 2 % 2 2 2 t 2 ",
"2 2 2 2 2 2 2 q g _ fXgXG.M.d 2 2 2 2 2 | | t 2 t ( j w q c f f 2 2 2 2 2 sXfX9. .Z.rXtXuXaXaXaXtX=.2 2 2 2 % 2 % % % $ $ % 2 2 ",
"2 2 2 2 2 2 2 q j hX0XE %.hXwXt 2 2 2 2 2 2 2 2 2 2 2 % # ; , ; % 2 2 _ hXgXO.P.tXyXrXtXuXaXaXyXeX$X2 2 2 r 2 2 2 2 % 2 2 2 2 2 ",
"2 2 2 2 2 2 2 ( 9Xh fX=.*.hXj j i w d t 2 q d d i ; 2 % % ; 2 ; 2 2 wX, M.eXeXtXyXtXeXyXaXaXaXeX$X=XO.t q j 2 t r q 2 2 2 2 2 2 ",
"2 2 2 2 2 2 d &.gXh R ^  .K.B._ 9Xd d d w t q % d w r 2 2 2 2 2 2 2 gX&.eXtXtXyXpXuXuXuXaXuXyXeX&X*XN.i t i 2 q ; % 2 2 2 2 2 2 ",
"2 2 2 2 e _ *.K.$ * 7 ^ +.M.K.7XhXX.d 2 $ 2 2 2 y w r 2 2 2 2 M.*.e D.6X4XtXtXyXaXaXaXaXaXiXeX4X&X$XoX2 2 2 % @ @ 2 2 % % 2 2 2 ",
"2 2 2 K.qXm.[ , @ O O 3 T R 0 ..fX9X_ 2 2 2 2 2 2 2 2 2 2 2 2 L.J.OX3X&X1XtXrXpXaXaXaXaXrX6X=X=X*X#X3Xr 2 r 2 2 $ % 2 2 2 2 2 2 ",
"2 2 _ j B.C = X X o @ @ 3 3 3 3 V ' q 2 2 w 2 r 2 t 2 r u g f o./.,X'.+XrXrXrXpXaXaXaXaXrX4X,X%X%X%X3XO.q ' r h 2 2 2 2 2 2 2 2 ",
"2 2 _ c @ O X X X X O O o O @ $ = % % q t w g i t Z 9.9.N.4XrX6X=X#X/.=XyXtXpXpXpXpXaXpXyX4X*X}.}.=X,X@._ j ' d 2 2 2 2 2 2 2 2 ",
"2 2 % # O O X X . X X o o o O @ # 2 2 % 2 % e r s.6XrX6X6X,X1X,X:X#X}.3XiXpXpXpXtXrXpXpXtX1X%X}.'.#X'.O.) 2 f 2 w j 2 2 2 2 2 2 ",
"2 2 2 2 # O o X X X X X o O $ % 2 2 % 2 % % % D.tXtX6X6X4X:X&X&X1X-X{.3XrXiXiXiXtXrXtXiXtX1X:X`.`.'.'...$ $ ; e C C | i 2 2 2 2 ",
"2 2 2 2 2 O o o O o O O # % 2 2 2 2 % q % i @XtXiX6XiXiXrXiXrXrX4X1X4XrXrXpXiXrXtXtXiXiXtX2X,X&X/.~.%X@.@ @ ; @ w 2 2 2 2 2 2 2 ",
"2 2 2 2 % O O % $ $ 2 w t t d d t r t t 2 C.yXtXrXtXiXiXpXiXiX4X2XrXrXrXiXiXrX5X4X6XrXeX1X%X2X:XW.R.`.o.% $ ; 2 2 2 2 2 2 2 2 2 ",
"2 2 2 2 2 % % 2 2 2 2 i d i f 2 ; ; 4 i 9.tXiXtXtXtXtXiXiXrXrX1X3X4XrXpXpXrX5X,X;X;X4X1X`.~.#X'.z.z.^.@.2 2 2 2 r g t 2 2 2 2 2 ",
"2 2 2 g d q  .2 2 2 2 r t r e % % # ; O.rXtXrXrXrX6XtXiXiXrXrX;X;X:X4XiXiXrXrX4X}._.#X@XY.z.Y.Y.g.j.Q.O.2 2 2 2 2 t t 5 2 t 2 2 ",
"2 2 2 j j 2 r  .2 2 2 2 2 2 2 % 2 ; } 3XrXiXtXrX6XiXpXiXrXiXrX&X%X2X4XrX6XrXrXrX&XY.^.`.U.g.U.Y.f.k.^.2.2 2 2 2 2 r t r 5 i 2 2 ",
"2 2 2 w w 2 2 2 2 2 2 2 q _ _ t r i =XrXrX6XrX6X6XiXpXrX6XrX,X X`.%X4X6X4XrXrXtX:XQ.^.Y.z.h.h.I.f.f.E.0.&.&.2 2 2 2 2 2 2 t r t ",
"2 2 2 2 2 2 2 2 2 2 2 2 2 wXuX .i %.4XrXrX6XrXrXrXiXiX6X6XiX3X;X#X X;X;X,X3XrX6X;XY.z.U.z.h.p.h.g.f.Y.0.9X8X2 2 2 2 2 2 2 w r t ",
"2 2 2 2 2 2 2 2 2 2 2 2 2 sXhX' i /.=X1X4XrX6X6XiXaXpX6XrXrX5X;X#X%X;X;X#X-X,X5X;X!.z.l.z.u.u.f.h.h.^.q.X.B.wXZ 2 2 2 2 2 2 2 2 ",
"2 2 2 2 2 2 2 2 2 2 2 G.sXG.O.0XN.=X X X,XrX6X6XiXaXiX6X6XrX1X-X^._.;X1X:X X;X3X#Xv.z.z.l.d.f.f.f.U.+Xt.p B T q.h 4.9Xi t 2 2 2 ",
"2 2 2 2 2 2 2 2 2 2 K.N.+.+.E B.J.%X{.~.}.,X,X5XrXiX6X6X6X4X;X{.).!. X2X,X X`.-X;XW.).{.Y.l.z.z.f.z.&X>.3 m E wXB.9Xd i t t 2 2 ",
"2 2 2 2 2 2 2 2 _ eXE C.E m S N.}.*X!.W.~.}.{. X<X<X,X,X,X-X}.).!.).;X6X4X1X).).;X X{.|.|.W.z.Y.z.R.%X[ @ # ; + #.g 2 2 2 t 5 2 ",
"2 2 2 2 2 2 2 2 gX9XN.2 * * k O.&X=X~.W.^._.)._.;X-X|.{.(.W.v.Q._.-X5X6X3X,X{.].-X&X-X|.-X{.v.Y.W.!.;X[ X O O O 2 2 2 2 2 2 2 2 ",
"2 2 2 2 2 7X2 B.9Xs o o o o = y.&X&X/._._.).!._.;X XQ.z.z.l.l.!.'.;X<X6XrX3X:X|.-X X-X)._.`.Q.Q.).).#X[ O @ @ 2 2 2 2 2 2 2 2 2 ",
"2 2 2 2 2 qX2 #., O o o X o A.2X&X+X}._.Y.~.W.).-X`.Q.z.l.d.l.).:X1X6XrXrX3X,X,X;X{.].W.).%X_.).`.{.3Xo.X % 2 C j 2 2 t t t t 2 ",
"2 2 2 2 2 2 2 2 2 2 2 2 2 } 1XtX1X+X#X`.`.Q.z.U.`.%X`.Q.z.l.z.~.2XrXrX5X5XrX>X>X5X-X[.W.!.%X[. X&X;X2X@.2 2 2 2 2 r r 2 2 2 2 2 ",
"2 2 2 5 2 2 2 2 r r w 2 2 C.1XiX6X#X`.`.^.E.~._.`.:X:X X(.v.v.).6XpXrX5X6X6X,X>X5X>X.XW.Q.-X|.#X&X#X1X0.q w 2 g h h t t 2 2 2 2 ",
"2 2 2 r t t | $ # @ $ w 5 +X%X1XrX2X#X`.^.}.%X#X{. X;X1X<X X`.;X6XrXrX5XrX6X>X-X;X,X.X).[.;X|.-X X%X3XT.B.q ; 4 $ $ $ % 2 w w 2 ",
"2 2 2 2 2 M.H.2 2 2 w C ..+X#X%X:X5X5X:X&X X#X).).|.1X6XtX6X2X2X6X<X,X5X6X4X%X{. X6X>X].|.-X|. X;X:X4XT.X.K.2 2 2 2 2 2 r q q t ",
"2 2 2 5 $.OXG.| 2 2 j w A.+X^.^.`.>X,X:X;X;X1X X{. X6XtXiXrXrXrX6X<X5X5X6X,X)._. X6X6X;X{. X-X[.-X;XXXY.H  .$.2 2 2 2 2 % % 2 2 ",
"2 2 2 Z M.0.V.| ' i w ` +X`.`./.}.,X,X,X;X4X6X1X X;X3XtXtX6XtXtX6XrXrX5X5X X(.!._.3XrX4X:X;X:X.X}.,X+XS.T =.b.K.F.j i q 2 2 2 2 ",
"2 ( &.#.@ 7 ..3.8Xi 2 s.&X&X%X'.-X3X6X2X,X4X6X5X>X>X<X6X6X4X2X<X<XrXrX,X,X|.(.R.{.:X6X5X4X4X6X3X;X,X1XW.e 4 c #.2 2 2 2 $ % 2 2 ",
"2 ( c O . * - - a ; X.=X2X4X*X). X3X2X&X<X6X6X5X>X-X6X6X4X2X<X-X>X5XeX;XXX_.!.v._.>XrX4X,X,XrX6X1X4X6X~.z + + @ 2 w j h 2 2 2 2 ",
"2 2 O X X X X # ; ; A.1X1X,X_.!._.,X%X#X3X6X6X5X>X,X<X<X6X5X;X;X,X>X:X X[.(.x.x.(..X4X,X:X:X:X,X,X4X3X#Xo.@ ; ; w d w w f i 2 2 ",
"2 2 $ O # # q r 5 4.&X%X&X%X_.).#X#X_.|.2X6XrX5X3X,X>X>X3X<X-X;X-X{.{.'.(.c.l.l.x.].:X-X|.{.{.}..X3X,X%Xy.e r r 2 2 $ % 2 2 2 2 ",
"2 q q t 2 r t w H @X;X'.%X&X}.&X,X;X,X;X2X6X6X<X3X,X-X-X<X5X<X-X:X;X_.!.U.d.g.g.l.{.;X].(.W.U.~.).;X;X_.S.r 5 2 q 2 2 2 t r q 2 ",
"2 q r t 2 2 2 C @X1X}.^.*X1X:X3X<X3X3X5X,X;X-X;X,X;X X_.-X3X3X>X-X#X}.!.U.l.g.z.v.-X X(.(.c.z.W.).%X;X~.T.@.$ 2 q i w 2 2 2 r w ",
"2 2 2 2 2 2 q Z.2X:X_.`.4X2X;X;X;X5X<X5X;X].!. X;X-X-X_.-X<X<X>X-X}.#X{.W.U.z.z.|.>X,X-X|.).v.v.'.;X}.!.Y.T.a 5 r 2 t 2 2 2 2 r ",
"2 2 2 2 2 2 H =X1X_._.%X4X1X`.}.-X-X,X4X:X(.x.~.|.].~.}.-X5X6X>X;X X-X;XW.z.Q.{.>X,X5X6X,X>X).z._.;X`.^.U.T.o.2 4 2 5 u 2 w r 2 ",
"2 2 2 2 2 H A.=X`.a.z.%X,X:X X;X%X%X:X3X,X[.v.!.~.v.v.{.-X3X6X>X X X>X;XW.x._.,X5X-X5X<X5X3X-X).}. XW.T.`.T.A.; $ @ % ; 2 2 2 2 ",
"2 2 q 2 6 >.a.S.p.y.Y.;X,X;X;X3X:X:X,X,X5X-X].W.(.c.v.(.-X,X5X;X.X;X3X>X).).XX3X>X<X<X5X6X5X#X}.;X}.l.Y.1X^.I.} 2 $ % 2 r 2 r 2 ",
"2 2 2 ; > v >.5.5.8._.1X:X;X,X4X;X;X3X,X<X X).).~.l.x.(.{.>X,X X).'.1X;X X-X>X<X<X,X3X6X6X6X&X}.;X'.l.Y.1X/.S.8., $ 2 2 w r r 2 ",
"2 2 2 4 p A J o.,.8.T.=X,X:X1X1X:X,X3X<X,X-X{.{.{.v.z.!. X1X3X}.W.~.%X;X X>X>X,X>X,X3X6X6X6X,X,XXX`.U.E.#X_.8.8.i 2 i r i r 2 2 ",
"2 w _ V V M A D U -.8.`.1X=X^.`.,X5X5X<X;X;X-X X-X].v.].`.1X4X-X(.).%X1X>X>X<X4X>X,X3X5X6XtX3X>X;X%X~.h.U.).r.;.2 2 2 2 2 2 w 2 ",
"2 % 2 2 4 8 l A I J Y 8.p.8.8.z.:X5X:X X). X X;X X[.].]._.;X5X>X).W.|.;X,X<X5X:X*X*X,X,X1X6X4X*X;X%XU.r.r.f.t.I m j C d 2 % $ 2 ",
"2 % 2 2 2 8 p M W ! ! -.;.;.;.8.Y.{.Q.z.U.%X%X%X{.-X|.{.).-X3X,X~.l.U._.%X;X4X4X%X%X%X>X*X1X&X}.XXQ.p.1.,.7.! A l : % w 2 2 $ 2 ",
"2 2 2 2 2 8 z N S G L Y U J Y -.,.7.8.7.p.*X1X&X_.{.{._.). X3X4XW.i.i.k.z.~.Q./. X X XXX%X,X}.x.U.h.8.~ L F D M 9 6 2 2 2 2 2 2 ",
"2 2 $ % 2 5 4 6 6 l A D J K J J U U ;.;.1./.Y.U.Y.{.|.{._.%X:X:Xz.e.w.u.i.r.u.z.U.z.W.).XX&X~.i.u.t.! K I ..I H 9 9 c j i r 2 2 ",
"2 2 2 2 2 q 2 5 G.m N N D D J J J J U Y ,.8.r.w.r.z.).|.{.&X#XY.u.7.6.7.8.1.7.r.r.e.u.f.~.}.j.e.1.:.L L F x 9 9 l 6 4 ; % w 2 2 ",
"2 2 r C f i j $.2.dXu p l x A A D v J U U U Q -.1.t.W.#X}.E.p.w.1.-.-.-.~ Q Q ~ <.,.1.w.g.E.t.<.:.L J D A M p z a y ; ; 2 2 2 2 ",
"2 2 # % % $ 2 m.7 J.B.2 5 8 M M D D F P P U P Q ~ >.p.T.r.<.~ ~ P Q P P P Q P L K J U :.<.i.<.L D A A S A M l 4 4 ; ; ; 2 i w 5 ",
"2 2 2 2 C ' / 1 o 7 X.0X%.| 8 k S H G K J P J L P L L U P P P L L K K K P L L K D D D D F F D A S H G S N m a 2 &.r r r y 2 2 2 ",
"2 2 , f ] $.& .   o @ y ( | 5 5 p N A D D D D K J K F K D D D A A M M A D A A b v b b b G A A M A A x 9 6 4 u #.Z.%.5 2 ; ; 2 2 ",
"2 r w ; % $ @ o X , # % % 2 t w u a n n A A A K F D A A M M M M n l p 9 k 9 k < < x k b S I W ..H M m 8 4 5 &.E 0 @.K.M.) ' q 2 ",
"2 2 ; % % 2 2 i d j C t 2 w % 2 e d u u l l l b k b n k l 9 9 l 8 4 4 4 4 4 4 m V V H S S H k 8 y a u r ( n.{ @ o * , / n.G.q q ",
"2 2 q i r r 2 q ; ; @ e i 2 2 2 ) _ ' X.' 2 : = > > 4 : 8 5 u u 4 2 w g r r 4 5 : ; > z m p 4 4 2 w 5 Z ( e + O X @ % % % q i r ",
"2 2 w 2 w 2 2 2 2 2 2 2 2 2 2 2 2 2 2 2 2 2 ; ; ; 2 2 2 2 2 2 2 2 2 2 w 2 2 2 2 2 2 2 2 2 2 2 2 2 2 2 2 2 2 2 ; ; ; 2 2 2 2 2 2 "
};
