/* XPM */
static char *result[] = {
/* columns rows colors chars-per-pixel */
"64 64 125 2 ",
"   c #3B89A6",
".  c #3E93B3",
"X  c #468BA5",
"o  c #4B8CA5",
"O  c #4792AE",
"+  c #4A93AE",
"@  c #5493AB",
"#  c #4394B2",
"$  c #4C96B2",
"%  c #4798B6",
"&  c #4C99B6",
"*  c #479DBC",
"=  c #4C9CBA",
"-  c #5296B0",
";  c #539BB5",
":  c #539DB9",
">  c #5C9FB8",
",  c #609DB4",
"<  c #4FA0BE",
"1  c #56A1BE",
"2  c #5BA2BD",
"3  c #63A4BC",
"4  c #4EA2C1",
"5  c #53A5C3",
"6  c #5CA6C1",
"7  c #56A9C7",
"8  c #5CA9C5",
"9  c #5FACCA",
"0  c #63A7C0",
"q  c #64AAC5",
"w  c #6AACC5",
"e  c #63AEC9",
"r  c #69AFC9",
"t  c #72ADC4",
"y  c #64B1CE",
"u  c #6BB2CC",
"i  c #73B4CC",
"p  c #7AB6CD",
"a  c #7FB8CE",
"s  c #64B4D2",
"d  c #6CB6D2",
"f  c #6DB9D5",
"g  c #65BBDA",
"h  c #6FBDDA",
"j  c #72B7D1",
"k  c #73B9D4",
"l  c #7ABCD5",
"z  c #74BEDA",
"x  c #79BED9",
"c  c #75C1DD",
"v  c #7CC2DC",
"b  c #77C4E2",
"n  c #7BC6E2",
"m  c #7CC9E5",
"M  c #75C9E8",
"N  c #7ECEEB",
"B  c #82BDD4",
"V  c #8DC2D6",
"C  c #83C3DC",
"Z  c #8BC5DC",
"A  c #8CC8DE",
"S  c #91C5DA",
"D  c #93C8DD",
"F  c #9ACADE",
"G  c #A1CCDE",
"H  c #83C6E1",
"J  c #89C7E0",
"K  c #84CAE4",
"L  c #8BCBE4",
"P  c #84CEEA",
"I  c #8BCFE9",
"U  c #93CDE4",
"Y  c #9ACEE3",
"T  c #91CFE8",
"R  c #85D1EE",
"E  c #8CD1EC",
"W  c #97D0E7",
"Q  c #9CD1E6",
"!  c #94D3EC",
"~  c #9BD5EC",
"^  c #9ED8EE",
"/  c #86D3F0",
"(  c #8CD5F2",
")  c #8ED8F4",
"_  c #93D7F1",
"`  c #9AD7F0",
"'  c #95D9F4",
"]  c #9CDBF4",
"[  c #92DDFA",
"{  c #9DDEF9",
"}  c #A3D2E5",
"|  c #ABD5E6",
" . c #A3D6EB",
".. c #A8D6E8",
"X. c #A3D9EE",
"o. c #ACDAED",
"O. c #B2DDEE",
"+. c #A3DDF4",
"@. c #AADEF4",
"#. c #A3DFF8",
"$. c #B2DFF2",
"%. c #8DE0FF",
"&. c #94E2FF",
"*. c #9CE3FF",
"=. c #A6E0F7",
"-. c #ACE1F6",
";. c #A4E5FE",
":. c #ABE5FD",
">. c #ADE8FF",
",. c #B3E2F6",
"<. c #BAE4F5",
"1. c #B3E5FB",
"2. c #BAE6FA",
"3. c #B4E9FF",
"4. c #BCEBFE",
"5. c #C0E5FB",
"6. c #C3EDFF",
"7. c #CBEEFF",
"8. c #D2EEFE",
"9. c #D8EEFF",
"0. c #CDF0FF",
"q. c #D3F1FF",
"w. c #DBF3FF",
"e. c #E3F5FF",
"r. c #EAF8FF",
/* pixels */
"4.4.4.4.;.6.w.q.6.3.3.3.>.4.q.6.3.4.0.q.w.q.4.4.>.;.;.>.&.%.%.0.>.3.4.3.>.3.*.*.3.>.&.;.3.3.*.;.*.;.*.&.;.0.q.r.e.r.r.6.;.6.0.6.",
";.;.4.6.0.q.q.6.3.3.4.>.*.6.0.4.;.;.>.4.0.q.4.>.>.>.;.;.*.;.;.3.3.>.3.4.4.4.4.3.3.>.;.;.3.4.>.&.*.>.3.3.0.w.q.q.q.q.q.>.;.0.0.3.",
";.;.6.q.q.0.>.3.>.>.3.;.;.3.6.4.3.*.;.>.3.>.>.;.;.;.*.*.&.*.;.>.3.>.3.4.3.4.0.4.3.3.>.:.>.>.:.3.6.6.6.q.0.0.0.6.4.6.0.3.;.4.3.;.",
";.*.6.q.0.>.*.3.>.>.3.3.;.;.4.0.4.*.3.4.;.;.;.;.>.>.&.&.%.&.;.4.3.>.4.3.*.3.4.3.3.3.6.4.4.4.4.6.q.0.6.0.0.4.;.3.0.6.6.3.;.>.*.;.",
";.>.0.0.4.*.&.3.4.3.3.3.>.;.3.6.4.3.3.4.3.;.>.;.>.;.%.%.*.*.>.0.4.4.0.6.3.6.4.>.3.6.q.q.7.4.4.7.q.0.3.3.>.3.3.4.0.4.>.;.*.;.*.;.",
"*.3.q.6.;.&.&.>.6.4.>.;.;.>.4.0.6.3.>.4.3.;.>.;.;.*.%.&.*.;.4.q.q.0.0.q.4.0.4.3.3.6.q.7.7.7.6.6.4.>.>.>.>.3.3.>.4.3.>.;.;.*.&.;.",
";.6.q.4.&.%.*.4.4.4.;.&.>.3.3.6.6.4.3.>.;.>.>.*.&.*.*.;.3.4.0.w.w.e.0.0.6.4.4.4.3.4.1.4.9.9.9.8.>.;.;.>.>.>.*.*.4.4.>.*.;.*.&.;.",
";.6.0.3.;.;.3.6.>.;.>.;.*.>.>.4.6.4.3.*.;.>.>.;.*.4.0.6.4.0.6.0.w.0.4.4.3.3.3.4.4.>.1.7.9.9.w.9.4.;.&.;.>.*.&.*.>.4.>.>.>.*.*.;.",
";.6.4.;.3.4.0.6.3.>.3.>.*.*.>.0.q.0.4.3.4.4.4.>.3.q.q.6.4.>.;.3.4.;.*.&.;.3.4.4.3.4.6.8.9.9.e.w.6.6.4.;.*.&.%.*.4.4.>.3.3.&.*.>.",
">.4.3.&.3.0.q.q.0.3.;.>.>.;.>.6.q.0.6.4.6.0.0.0.0.0.6.>.*.*.*.>.;.&.&.%.*.1.7.7.7.8.5.7.9.9.9.8.4.3.w.0.>.&.*.>.3.3.3.3.;.*.>.3.",
"3.4.>.>.>.4.q.w.q.0.4.>.>.3.3.3.4.6.6.6.4.0.0.6.4.3.;.&.&.&.>.>.*.*.;.*.:.5.5.7.9.7.5.9.9.e.9.7.@.1.0.q.q.q.q.0.3.>.4.3.&.;.4.4.",
"6.0.>.>.>.>.4.4.6.0.q.6.>.4.>.;.>.4.4.3.4.6.0.6.;.&.&.%.*.;.3.>.*.;.>.>.7.5.8.8.9.9.9.9.9.9.9.5.@.-.4.0.w.w.e.w.4.4.4.6.3.4.0.4.",
"q.q.3.>.*.&.&.;.;.3.0.0.6.6.>.*.;.3.3.*.>.4.q.q.>.&.&.*.;.;.3.3.;.*.4.2.4.7.7.q.q.w.w.w.w.7.5.$.@.@.1.3.4.0.q.0.4.3.6.0.0.0.q.q.",
"e.q.3.&.*.;.*.&.&.;.4.6.q.q.4.3.>.3.3.;.*.3.q.q.4.*.;.>.;.;.3.3.*.4.,.@.,.0.6.q.w.w.e.w.7.4.$.$.+.` 2.>.4.4.>.>.3.3.3.4.0.q.w.e.",
"w.0.>.;.;.*.&.&.&.>.>.3.0.q.q.0.3.>.>.>.>.>.4.q.0.3.3.>.:.3.3.:.4.-.^ ~ 5.6.4.q.w.w.w.q.5.2.$.#.+.+.1.1.4.4.>.>.4.0.4.4.q.w.w.r.",
"q.>.;.;.*.&.&.%.*.;.>.;.>.4.0.0.4.3.4.0.4.>.>.6.0.q.6.4.4.6.4.4.3.] W -.q.0.q.q.q.8.w.q.9.2.#.` ~ -.-.1.4.4.4.0.0.6.0.w.w.q.q.w.",
"0.4.;.&.&.&.%.&.;.>.*.&.;.4.q.q.0.0.4.0.4.6.4.6.7.6.6.4.2.-.-.,.-.=.~ 1.0.q.q.q.7.6.7.8.7.,.] ^ ~ @.~ +.3.6.q.w.0.0.q.e.e.q.q.0.",
"q.6.>.*.*.&.&.*.;.*.&.&.>.0.w.0.6.0.0.4.4.q.q.0.0.6.4.4.2.,.-.@.-.] _ 2.7.7.q.7.7.6.8.8.7.,.-.^ ~ ~ ! @.6.6.0.0.6.6.0.q.q.q.q.q.",
"0.>.*.;.;.;.&.*.*.*.*.>.>.0.q.0.4.0.0.4.4.0.6.0.7.6.0.0.6.7.7.5.2.,.1.5.7.q.0.6.7.7.7.8.7.<.,.@.T I @.@.4.4.3.3.3.3.6.0.q.q.w.w.",
"0.>.*.&.*.*.&.*.;.;.4.0.4.4.4.0.6.3.4.0.6.4.0.0.6.6.q.0.q.7.7.4.2.5.6.7.7.7.4.2.4.4.6.6.$.+.<.-.K H ~ @.>.3.3.6.0.4.4.q.q.w.q.q.",
"0.6.>.*.&.&.&.;.3.4.0.0.4.3.>.6.0.4.6.0.6.0.0.0.6.6.7.q.7.6.6.1.2.2.6.q.8.6.3.:.+.@.2.,.~ I X.! v v U ] *.;.6.6.0.4.4.0.6.4.6.6.",
"4.0.6.6.3.>.;.>.4.6.4.4.4.3.6.0.6.0.0.4.4.0.6.6.6.6.7.q.8.6.4.-.=.-.2.0.7.7.6.2.~ ! X.@.A v A A k x U _ ;.3.4.6.3.3.4.4.3.*.>.3.",
">.6.q.w.w.w.q.0.4.3.>.3.4.4.6.4.3.6.4.4.0.0.0.6.6.0.q.0.6.7.5.@.+.<.2.6.6.6.6.6.@.Z U ~ C j C D k l U E >.4.3.>.>.4.>.4.6.0.6.3.",
"3.3.6.q.r.r.r.w.0.4.>.;.3.0.0.4.>.3.4.6.6.4.6.3.4.7.q.6.4.7.:.+.^ +.2.4.2.5.6.6.@.U L Z C k v V k d J +.3.3.;.;.3.>.>.>.6.0.6.3.",
">.>.>.0.q.w.w.q.6.4.3.3.4.0.4.3.>.3.4.6.4.4.6.6.6.q.0.4.6.6.1.+.X.] =.=.:.<.6.4.=.A C V v k j j c i A ^ >.;.;.>.3.>.>.3.3.>.;.*.",
";.3.4.4.4.0.q.0.4.4.4.4.3.4.4.3.>.>.,.1.2.6.4.4.q.q.q.4.6.6.1.@.X.X.=.=.X.*.>.1.*.K v c v y r j p c U P &.;.>.>.>.>.3.3.;.*.%.&.",
"3.>.3.3.3.4.4.4.4.4.0.0.4.3.4.3.4.-.] *.-.6.4.6.0.w.0.4.4.6.1.' ! ! =.1.-.] +.1.] K v v c j j j j v ^ v *.3.>.*.*.>.3.>.>.*.;.3.",
";.*.;.;.*.3.3.3.3.3.0.0.>.:.:.;.-.+.! L ^ -.-.1.6.0.4.4.4.4.=._ E L ' ,.1.] ~ +.=.I P ! K c v v c v =.P >.>.*.%.*.>.3.3.>.>.>.>.",
"%.&.&.&.*.>.3.3.3.4.q.q.;.;.*.%.=.=.P m I ^ _ &.2.>.:.:.:.] ! ! I ( +.2.1.-.E ( =.^ ' ' ' P v C c C +.~ >.*.%.&.;.3.4.4.>.>.&.&.",
"%.&.&.%.&.*.*.*.>.0.q.0.>.;.*.%.o.-.I m ! ~ E ! =.*.' _ E P m L ! ] 1.4.1.1.` / *.@.*.' ] ' v A C L @.O.0.6.4.0.6.0.6.4.3.;.&.%.",
"%.;.&.&.&.&.&.%.;.0.0.4.>.;.&.] @.-.T ! I I P _ =.^ L v c c c E ` +.>.6.6.1.-.' *.^ ' E _ X.L I T / o.O.q.q.0.0.0.0.0.0.6.3.;.%.",
"%.;.;.*.&.;.*.&.4.q.6.3.3.;.3.1.o.X.^ ! A L K T ^ ] L v z f c E @.1.4.6.6.1.;.-.=.' ( P E +.T I ^ ' ,.<.0.6.4.3.3.>.3.6.6.3.>.%.",
">.4.6.q.4.3.3.6.>.6.q.4.:.#.,.7.$. .X.X.Y L v K ^ +. .L c z n I 2.7.6.3.1.6.;.#.1.*.( K L +._ ~ @.+.1.+.3.*.3.*.;.;.6.w.w.0.3.6.",
";.0.6.>.>.3.;.6.:.>.:.;.:.X.2.7.4.+.Q W U K L W ^ =.-.^ E P m E 2.8.6.1.4.6.:.=.2.;.) K I { [ +.@.+.,.X.3.3.3.4.7.0.0.3.6.4.:.:.",
";.0.;.*.4.>.;.6.4.3.>.;.;. .#.,.5.2.+.~ W ~ X.] ( ' -.-.-.` ^ ;.6.6.6.4.6.4.=.] @.:.[ I _ { [ +.+.+.,.+.4.0.6.6.6.3.3.3.6.;.;.*.",
"3.6.*.3.3.*.;.4.6.:.:.;.`  .X.X.-.2.3.,.+.+.] ! E ' ,.4.7.4.<.,.4.>.;.1.6.2.#.' { 2.;.) ' { ' ] +.=.1.X.3.;.3.6.:.*.;.*.4.;.;.*.",
"3.>.4.0.4.:.;.4.0.4.6.4. . .U T ~ =.-.-.=.=.,.] ! ] 4.7.q.6.5.7.4.>.1.1.2.=._ _ ] 4.4.+.' +.' ' +.:.] U 3.&.&.3.0.6.*.*.3.3.;.>.",
"4.>.>.0.0.4.>.>.4.4.6.6. .Q  .T ' >.>.-.=.1.6.,.+.+.2.7.7.5.7.7.6.6.6.1.1.] P K ` 1.6.2.-.+.:.' ' -. .U >.*.:.3.6.0.w.q.3.4.>.4.",
"q.:.*.*.;.6.7.3.>.;.>.,.o.@.@.' ' 1.4.<.-.4.5.1.=.:.>.6.6.1.4.1.:.6.7.:.#.' P K ! =.6.1.1.2.6.:.=.:.,.H -.>.*.:.3.>.6.4.3.6.0.w.",
"0.;.*.%.;.:.6.0.3.4.-.$.2.1.@.I ] 1.2.+.:.4.2.>.;.;.3.4.2.2.-.{ ;.1.6.=.#._ P n ! =.6.1.:.1.4.2.1.2.2.E @.3.&.;.4.4.4.4.6.6.q.w.",
"6.;.&.&.;.&.3.w.6.6.o.$.2.:.' P ` ,.@.] 1.5.4.1.=.:.1.1.1.4.*.=.-.:.@.] ) P b n K ' 2.>.=.=.1.>.:.2.1.X.Q 3.*.>.4.3.6.q.0.q.w.q.",
"4.*.*.*.*.3.4.0.6.$.@.X.@.+.! I +.] ! ] ,.6.6.4.1.>.;.;.1.:.=.#.{ _ _ ~ P M b b b ) =.{ ` _ ` ` ' 1.:.] A 6.;.3.0.6.3.3.3.6.q.w.",
"6.3.;.;.4.6.3.4.2.o.@.~ X.@.` @.1.+.=.=.,.6.4.:.1.:.=.] >.4.:.*.@.+.! P C k k k n _ +.( E K H I E -.:.W A 2.2.4.6.>.;.4.4.4.3.4.",
"4.q.w.w.6.:.6.4.$.$.` T #.1.@.1.1.1.3.1.-.#.{ =.:.=.{ ! { 1.1.=.{ +.` I n x k n N { ] E P b x K E +.+.I A X.0.4.;.;.3.>.3.3.6.4.",
">.4.0.q.4.4.4.o.2.@.! ` 2.2.@.#.:.1.>.4.=.( P ' =.&.+.! &.:.>.;.{ ' +.' K C l n _ ;.:.] ` ( m n ! =.' L C G :.3.3.>.*.>.>.3.;.*.",
";.>.>.2.3.0.X.<.,.T W #.2.,.` +.] #.;.1.1.P b I ! ( E ' *.2.4.:.#.{ #.+.K n L ' =.:.3.4.>.=.( n ! =.~ U C D o.0.>.%.>.*.;.3.;.>.",
"%.&.*.:.1.| V -.~ B B +.-.=.+.+.+.#.-.1.-.) R K P N P ' =.,.4.;.] #.=.+.K n ! -.1.;.3.1.1.1.] I ^ ] K D Q D } 0.3.4.3.>.4.4.>.&.",
"*.*.&.&.o.2 i V i t J @.:.#.#.1.=.@.-.>.3.{ ( K L n N ( ' :.2.=.' =.1.;.E I { 1.;.:.>.1.4.1.@.` +.` c A ,.W V ,.0.w.q.6.4.4.4.*.",
"3.4.3.:.o.3 @ 3 , 3 W -.-.=.-.2.=.-.1.:.>.] E E L b b R ) =.:.' I ' 1.@.] ] ;.1.>.:.3.4.4.4.=.] =.! x A ,.W B B >.6.q.6.6.;.&.>.",
">.3.>.-.Q c 2 - , 3 F -.:.-.,.-.=.:.1.:.:.=._ ( _ N c I ^ ,.1.^ K L +.#.{ =.;.>.=.:.1.4.4.4.-.-.{ ^ H K +.! 3 , +.4.4.4.4.*.&.>.",
"6.0.0.-.o.F v 3 3 < 3 W -.o.Q ! :.2.2.-.=.=.*.+.=.R N R ~ -.2.=.P T +.1.=.;.>.2.=.1.1.3.4.0.3.=.{ X.L l C ! q 3 <.4.4.4.;.%.*.4.",
"0.6.4.2.-.T A v e < # t i t 3 v -.3.-.*.E ' +.+.*.' R ( _ =.1.;.( K ' @.-.>.1.@.+.+.-.:.,.4.,.;.+.@.H q 6 k w t X.:.:.;.*.;.;.3.",
";.&.;.6.:.R M v v q < % o o o 2 C ~ T v C +.=.+._ ] ' _ E ] 1.:.P x n T @.=.2.,.+.] =.=.*.,.@.^ +.U i ; $ 6 q d W ^ 2.3.>.;.%.;.",
"*.;.>.0.:.( ! A S i w 3 1 & + + ; 2 2 2 i @.-.@.^ ' _ _ ! ' 1.1.K d j l v K I ~ ] ] ] *.=.-.~ v H l 0 6 t i u k W ^ 1.3.*.%.*.>.",
"*.4.>.3.2.;.) ! ^ C k r 8 2 2 2 < O X o 2 D A A A E _ _ ! +.-.-.v 6 6 r i y r B H v K E ] =.I u r 0 5 5 y B Z C K I =.6.*.;.;.3.",
"0.6.>.3.4.2.&.&.-.+.F C k r w t 2 < .   O 3 3 2 q v E ' ' -.X.A u 6 : 6 2 ; 2 q q 6 y k E ~ v 2 : ; 5 4 y z ~ ..W ^ :.4.0.3.3.3.",
"q.4.4.>.3.3.*.>.2.3.,.o.Q F V i r 7 < . . . . + ; r A X.^ A i 2 > = & % % & & > 2 $ 1 2 c C r ; < 7 5 7 s f K X.O.-.2.0.w.w.6.w.",
"3.>.*.*.>.6.;.3.0.6.4.>.-.O.D V u 9 7 < < 1 < % & 2 u A 3 1 $ $ = = * * = = = 8 r e 2 2 9 j 2 3 u s y y d v ! =.-.,.6.4.0.2.q.q.",
">.*.%.%.;.4.3.4.6.>.;.4.4.<.~ D S v y 8 2 r 9 1 2 2 1 1 2 2 1 1 5 7 5 4 : 5 8 e r 2 9 r e r r p V k f c C ^ +.2.6.4.;.2.0.4.3.4.",
";.%.%.%.>.4.0.4.;.;.3.>.>.3.4.@.W Y V a e 9 r q 8 9 e q i d y y d g g g s k p r e e c r u u v C C V G | X.] 2.4.3.>.3.0.q.3.;.>.",
"*.*.%.%.>.4.4.3.4.;.;.>.>.3.;.&.=.X.} D j j j q 9 y s k C C c h c R N M K U C l C v c c j c c c C U ..O.-.3.4.4.>.;.*.3.6.3.>.*.",
"*.4.6.*.3.6.6.0.;.%.>.*.;.3.>.:.;.:.=.] ! W v j k v c n } Q I P R -.-.! +.,.$.@.! N P c c v v W ! _ *.-.2.6.>.>.3.3.*.*.q.4.;.;.",
";.4.0.q.w.w.w.0.3.6.4.;.4.4.>.%.%.&.*.;.,.2.*.P K ^ +.] O.O.=.X.*.,.7.7.w.w.9.5.-.3.X.T U  .] %.%.&.*.-.3.6.*.&.*.4.3.>.0.4.3.3.",
"4.6.>.0.q.4.0.0.0.w.0.6.4.6.4.*.*.*.&.&.>.:.:.&.*.*.:.q.w.w.7.4.4.6.1.7.q.6.0.7.0.w.0.2.2.4.4.*.&.*.&.&.>.;.>.*.;.*.>.w.w.e.0.4."
};
