/* XPM */
static char *result[] = {
/* columns rows colors chars-per-pixel */
"64 64 132 2 ",
"   c #3B89A6",
".  c #3E93B3",
"X  c #468BA5",
"o  c #4B8CA5",
"O  c #4792AE",
"+  c #4A93AE",
"@  c #5493AB",
"#  c #4394B2",
"$  c #4C96B2",
"%  c #4798B6",
"&  c #4C99B6",
"*  c #479DBC",
"=  c #4C9CBA",
"-  c #5296B0",
";  c #539BB5",
":  c #539DB9",
">  c #5C9FB8",
",  c #609DB4",
"<  c #4FA0BE",
"1  c #56A1BE",
"2  c #5BA2BD",
"3  c #63A4BC",
"4  c #4EA2C1",
"5  c #53A5C3",
"6  c #5CA6C1",
"7  c #56A9C7",
"8  c #5CA9C5",
"9  c #56AAC9",
"0  c #5FACCA",
"q  c #63A7C0",
"w  c #64AAC5",
"e  c #6AACC5",
"r  c #63AEC9",
"t  c #69AFC9",
"y  c #72ADC4",
"u  c #64B1CE",
"i  c #6BB2CC",
"p  c #73B4CC",
"a  c #7AB6CD",
"s  c #7FB8CE",
"d  c #64B4D2",
"f  c #6CB5D1",
"g  c #6DB9D5",
"h  c #65BBDA",
"j  c #6FBDDA",
"k  c #72B7D1",
"l  c #73B9D3",
"z  c #7ABCD5",
"x  c #74BEDA",
"c  c #79BED9",
"v  c #75C1DD",
"b  c #7CC2DC",
"n  c #77C4E2",
"m  c #7BC6E2",
"M  c #7CC9E5",
"N  c #75C9E8",
"B  c #7ECEEB",
"V  c #82BDD4",
"C  c #8DC2D6",
"Z  c #83C3DC",
"A  c #8BC5DC",
"S  c #8CC8DE",
"D  c #93C8DD",
"F  c #9ACADE",
"G  c #A1CCDE",
"H  c #83C6E1",
"J  c #89C7E0",
"K  c #84CAE4",
"L  c #8BCBE4",
"P  c #85CEEA",
"I  c #8BCFE9",
"U  c #93CDE4",
"Y  c #9ACEE3",
"T  c #91CFE8",
"R  c #85D1EE",
"E  c #8CD1EC",
"W  c #97D0E7",
"Q  c #9CD1E6",
"!  c #94D3EC",
"~  c #9BD5EC",
"^  c #9ED8EE",
"/  c #86D3F0",
"(  c #8CD5F2",
")  c #8ED8F4",
"_  c #93D7F1",
"`  c #9AD7F0",
"'  c #95D9F4",
"]  c #9CDBF4",
"[  c #92DDFA",
"{  c #9DDEF9",
"}  c #A3D2E5",
"|  c #ABD5E6",
" . c #A3D6EB",
".. c #A8D6E8",
"X. c #A3D9EE",
"o. c #ACDAED",
"O. c #B2DDEE",
"+. c #A3DDF4",
"@. c #AADEF3",
"#. c #A3DFF8",
"$. c #B2DFF2",
"%. c #8DE0FF",
"&. c #94E2FF",
"*. c #9CE3FF",
"=. c #A6E0F7",
"-. c #ACE1F6",
";. c #A4E5FE",
":. c #ABE5FD",
">. c #ADE8FF",
",. c #B3E2F6",
"<. c #BAE4F5",
"1. c #B3E5FB",
"2. c #BAE6FA",
"3. c #B4E9FF",
"4. c #BCEBFE",
"5. c #C0E7F7",
"6. c #C5E8F6",
"7. c #CEE9F3",
"8. c #C0E5FB",
"9. c #C3EDFF",
"0. c #CBEEFF",
"q. c #D3EBF4",
"w. c #D2EEFE",
"e. c #D8EEFF",
"r. c #CDF0FF",
"t. c #D3F1FF",
"y. c #DBF3FF",
"u. c #E3F6FF",
"i. c #E7F8FF",
"p. c #EBF9FF",
"a. c #F3FBFF",
"s. c #FDFFFF",
/* pixels */
"4.4.4.4.;.9.y.t.9.3.3.3.>.4.t.9.3.4.r.y.y.t.4.4.>.;.;.>.&.%.%.r.>.3.4.3.>.3.;.*.3.>.&.;.3.3.*.;.*.;.*.&.>.9.t.i.i.i.i.9.;.4.r.9.",
";.;.4.9.r.t.t.9.3.3.4.>.*.9.r.4.;.;.>.3.r.t.4.>.>.>.;.;.*.*.;.3.3.>.3.4.4.4.4.>.3.>.;.;.3.4.>.&.*.>.>.4.r.y.y.t.t.t.y.>.;.r.r.3.",
";.;.9.t.t.r.>.3.>.>.3.;.;.3.9.4.3.;.;.>.>.>.>.;.;.;.*.*.*.*.;.>.3.>.3.4.3.4.9.4.3.3.>.:.>.>.:.3.9.9.9.t.r.r.r.4.4.9.r.3.;.9.4.;.",
";.*.9.t.r.>.*.3.>.>.3.3.;.;.4.r.3.;.3.3.;.;.;.;.>.>.&.&.%.&.;.4.3.>.4.3.*.3.4.4.3.3.9.4.4.4.4.9.t.r.r.9.r.4.;.3.r.9.4.3.;.;.*.;.",
";.>.r.r.4.*.&.3.4.3.3.3.>.;.3.9.4.3.3.4.3.;.>.;.>.;.%.%.*.*.>.r.4.4.r.9.3.9.4.>.3.9.e.t.0.9.4.w.r.r.4.3.3.3.3.4.r.4.>.;.*.;.*.;.",
"*.3.t.9.;.&.&.>.9.4.>.;.;.>.4.r.r.3.>.4.3.;.>.;.;.*.%.&.*.;.4.t.y.r.r.r.4.r.4.3.3.9.r.0.0.9.9.9.4.>.;.>.>.3.4.>.4.3.>.;.;.*.&.;.",
";.9.t.4.&.%.*.4.4.4.;.&.>.3.3.9.9.4.3.>.;.>.>.*.&.&.*.;.3.4.r.y.y.y.t.r.9.4.4.4.4.4.4.2.w.w.e.0.3.>.*.>.>.>.;.*.4.4.>.*.;.*.&.;.",
";.9.r.3.;.;.3.9.>.;.>.;.*.>.>.4.9.4.3.*.;.>.>.;.;.4.r.9.4.r.9.r.y.r.4.4.3.3.3.4.3.>.>.w.e.e.y.e.4.*.*.*.;.*.&.*.>.4.>.>.>.*.*.;.",
";.9.4.;.3.9.r.4.3.>.>.>.*.*.>.r.t.r.4.3.4.9.4.>.4.t.t.9.4.3.*.4.4.;.*.&.;.4.4.4.3.8.9.w.e.e.u.y.9.9.4.;.*.%.%.*.4.4.>.3.3.&.*.>.",
">.4.>.*.>.9.y.y.r.3.>.>.>.;.>.9.y.r.4.4.9.r.r.r.r.r.4.>.*.*.*.;.;.&.%.&.*.3.0.0.0.0.8.9.e.e.e.e.4.4.y.r.>.*.*.>.3.3.3.3.;.*.>.3.",
"4.3.>.>.>.4.t.y.t.r.4.>.>.3.3.>.4.9.9.9.4.r.r.9.4.>.*.*.&.&.>.>.*.*.;.*.@.8.9.0.e.9.w.w.e.u.u.8.@.1.r.t.y.r.r.r.3.>.4.3.&.;.4.4.",
"9.r.>.>.>.>.4.4.9.r.y.4.>.4.>.;.>.4.4.3.3.9.r.9.;.*.&.%.*.;.3.3.*.;.>.>.9.8.w.w.w.w.e.e.e.e.w.8.@.@.3.r.y.y.i.y.4.4.4.9.3.4.r.4.",
"y.y.3.;.*.&.&.;.;.3.r.r.r.9.>.*.;.3.3.*.;.9.y.r.>.&.&.*.;.:.3.3.;.;.4.2.2.r.0.w.e.y.y.y.y.w.8.$.@.#.4.3.4.r.t.t.4.3.9.r.r.r.t.t.",
"y.t.3.*.*.;.*.&.&.;.4.9.t.r.4.3.>.3.3.;.*.>.r.y.4.*.;.>.;.;.3.>.*.4.3.X.,.r.9.r.y.y.y.y.0.2.$.$.+.` 1.>.4.4.>.>.3.3.3.4.r.y.y.y.",
"y.r.;.;.;.*.&.&.&.>.>.3.9.y.t.r.3.>.>.>.3.>.4.t.r.3.>.>.:.3.3.:.4.:.~ ~ 6.9.9.t.y.y.y.y.0.2.$.#.+.+.1.3.4.4.>.>.9.r.4.4.r.y.y.i.",
"t.3.;.;.*.&.&.%.&.>.>.;.>.4.r.r.4.3.4.r.4.>.>.9.r.t.9.4.4.4.9.4.>.] Q $.r.r.t.t.t.e.y.t.0.$.#.+.~ @.$.1.3.4.4.r.r.9.r.y.y.t.y.y.",
"r.4.;.&.%.&.%.&.;.>.*.&.;.4.y.t.r.9.9.r.4.9.4.4.0.9.4.4.2.-.-.1.-.@.~ ,.0.t.t.e.0.9.0.e.0.,.] ^ ~ X.~ @.3.9.t.t.t.r.t.i.i.t.r.r.",
"y.4.>.*.*.&.&.*.;.*.&.&.>.r.y.t.r.r.r.4.4.t.y.r.r.9.4.4.2.,.@.-.-.] ' 1.0.0.r.0.0.9.w.w.0.,.-.^ ~ ~ ` @.4.r.r.r.9.9.r.t.t.t.r.t.",
"r.>.*.;.;.;.&.*.*.*.*.>.>.r.t.r.3.9.r.4.4.r.9.r.0.9.r.t.0.r.0.5.2.,.1.9.0.t.0.9.0.9.0.w.0.<.-.-.T I X.-.4.4.3.3.3.3.9.r.t.t.y.y.",
"r.>.*.*.*.*.&.*.*.>.4.r.4.4.4.9.9.4.4.r.4.4.r.r.9.9.t.r.r.0.0.2.2.5.9.0.0.0.9.3.2.9.9.4.$.+.<.-.P H ~ @.>.3.3.4.r.4.4.t.t.y.t.y.",
"r.4.>.*.&.&.&.*.3.4.r.r.4.>.3.4.r.9.9.r.r.r.r.r.9.9.0.r.0.9.9.1.1.2.9.t.0.9.4.:.+.-.2.,.~ L X.W c b U +.[ ;.4.r.r.4.4.r.9.4.4.9.",
"4.r.r.9.3.>.;.>.4.9.4.4.4.4.4.r.4.r.r.4.4.r.9.4.9.9.r.t.0.9.4.@.+.1.4.0.0.0.9.2.` ! X.+.L b L S l c U ( *.4.9.4.3.3.4.4.>.;.>.3.",
">.9.t.y.y.y.y.r.4.3.>.>.4.4.r.4.3.r.4.4.r.r.r.9.4.t.t.r.0.0.5.@.+.<.2.9.9.9.9.9.@.J U Q Z k Z D l c L _ 3.4.3.:.>.3.3.4.9.r.9.3.",
"3.3.9.t.i.p.i.y.r.4.>.;.4.r.9.4.>.>.4.9.9.4.9.3.4.0.t.9.4.w.u.s.s.u.9.5.2.8.9.9.$.L L D Z l b C k k L X.3.3.;.:.3.>.>.>.9.r.9.3.",
">.>.>.r.y.y.y.t.9.4.>.3.4.9.4.3.>.3.4.9.5.4.9.9.9.t.r.4.0.s.s.y.q.s.s.,.,.,.9.4.=.S b Z b v k l v p S ^ >.;.;.>.3.>.>.3.>.>.;.*.",
";.3.4.4.4.r.r.r.4.4.4.4.4.4.4.4.>.>.,.1.4.9.4.4.r.y.t.4.a.s.4.+.X.,.s.p.+.*.:.2.=.K b v b t t k v v T K &.;.3.>.>.>.3.3.>.&.%.&.",
"3.>.3.3.>.4.4.3.4.4.r.r.4.3.4.3.4.,.^ *.:.5.4.4.r.t.r.r.s.i.1.' W ~ y.s.,.] =.1.] K b b v f k k y Z ^ b *.3.>.*.*.3.3.>.;.;.;.3.",
";.*.;.;.;.3.3.3.>.4.r.r.>.:.:.;.:.X.E I ^ ,.=.,.r.r.4.t.s.t.-.' E P 5.s.0.#.~ ] =.P E ! S v b b v b =.B >.3.*.%.*.>.3.3.>.>.>.>.",
"%.&.*.&.&.>.3.3.4.4.y.r.;.;.*.%.=.=.P M I ^ ' *.3.>.:.y.s.,.! E E E 2.s.y.,.E ( +.X.&.' ` I b Z v K X.~ >.*.%.&.;.3.4.4.>.;.&.&.",
"%.&.&.%.&.*.*.*.>.r.t.r.>.;.&.&.o.-.E K W ! E ! +.*.' q.s.! K K ! { 5.s.u.,.] R *.-.] ' ] _ M S Z S @.O.r.9.4.9.9.r.9.4.3.>.&.%.",
"%.;.&.&.&.&.&.&.;.r.r.4.>.;.&.] O.-.E ! T I P ! +.] K q.s.J v E ~ =.4.s.p.1.=.' ] ] ' E ' ^ L L T E X.O.y.t.r.r.r.r.r.r.9.3.>.%.",
"%.;.;.*.&.;.*.&.4.r.9.3.3.;.3.1.X.X.^ W S P K E +.^ L q.s.Z v E -.,.r.s.u.3.;.,.+.&.) K E ] E T ~ ' 1.<.r.9.4.3.3.>.3.9.9.>.>.%.",
">.4.9.t.4.3.3.9.>.9.t.4.:.#.$.0.,.~ X.X.W L b J ^ +. .7.s.L m L <.0.t.s.y.4.;.-.1.{ ( K P +.( ` @.+.2.] 3.*.3.*.;.;.9.y.y.r.3.9.",
";.r.9.>.>.3.;.9.:.>.:.;.:.X.2.0.5.X.~ W W J L W ` -.-.6.s.@.M E 5.0.y.s.t.9.>.=.4.;.( H I #.' +.@.+.,.X.3.3.3.4.0.r.r.3.9.4.:.:.",
";.r.;.*.4.>.;.9.4.3.:.;.;.} @.1.5.2.+.~ W ` +.+.( ] +.5.s.y.~ =.4.9.p.s.0.2.=.' #.>.[ I _ { ' #.] +.,.+.4.t.4.9.9.3.3.3.9.;.;.*.",
"3.9.*.3.3.*.:.3.4.:.:.:.' X.X.X.-.4.2.-.+.] ` ! E _ 1.2.a.s.0.2.4.4.s.p.9.4.#.' ] 4.;.( ' { { ' -.-.1.X.3.;.3.9.:.*.;.*.4.;.;.*.",
"3.>.4.r.3.>.;.4.t.4.9.4. .} U T ~ =.-.-.#.-.1.` ! +.2.r.y.s.s.u.u.s.s.9.4.@.( ! ' 2.9.+.' +.{ ( { =.+.U 3.&.&.3.r.9.*.*.3.3.;.:.",
"4.>.>.r.r.9.3.>.4.4.9.9. . .` T ' >.>.-.#.1.2.,.{ +.3.0.0.0.a.s.s.p.0.3.3.` P P ` 1.9.2.@.#.-.' ' -.~ U >.&.:.3.9.r.y.t.3.4.>.4.",
"t.:.*.*.;.9.r.>.>.:.>.,.O.X.@._ ' 1.4.<.-.4.5.1.=.;.>.9.5.4.2.3.:.9.0.-.=.` I K ! -.8.1.3.3.4.1.=.:.,.H 1.>.*.:.3.>.9.4.3.4.r.y.",
"r.;.*.%.*.:.9.r.3.2.-.,.2.1.+.( ] 3.2.@.3.4.4.1.;.;.3.2.1.2.1.{ =.>.8.:.{ ( P m _ =.9.4.@.3.4.4.1.2.2.! o.3.&.;.4.4.4.4.9.r.t.y.",
"9.;.&.&.;.&.3.y.9.9.o.$.2.:.` P ~ -.@.` 1.9.4.3.=.;.3.3.3.2.*.=.:.=.-.] ( / n n P ' 3.1.@.-.>.-.:.2.1.X.Q 3.*.:.4.3.9.t.r.t.y.t.",
"4.*.*.*.*.3.4.r.9.$.@.X.@.+.! I +.` ! ` 1.8.9.4.3.>.#.=.3.:.#.#.{ _ ` ~ P m v n m ( -.{ ' _ ` ` ' 1.:.#.S 9.;.3.r.9.3.3.3.9.t.y.",
"9.3.;.;.4.9.3.4.2.o.@.~ X.@.` @.1.+.@.#.3.2.4.-.3.-.*.] -.2.-.{ ,.+.E P Z j l g n _ #.E I K H I E -.=.W S 1.4.4.9.>.;.4.4.4.3.4.",
"4.t.y.y.9.:.9.4.$.$.` T #.1.@.1.3.3.3.3.1.#.#.#.-.=.+.' ;.3.3.;.{ +.` P b z x b B { ] E P M c H E +.=.L L ..r.4.;.;.3.>.3.3.9.4.",
">.4.t.t.4.4.4.o.2.@.~ ` 1.<.@.#.=.3.:.4.+./ P ` =.' *.! ] :.>.;.{ ' +.! K Z c K ) ;.=.#.` / M m ! =.' L Z G :.3.3.>.*.>.>.3.;.*.",
":.:.:.3.3.r.X.,.1.T T +.2.2.` ` +.#.=.1.1.P m I _ ( E ~ *.3.4.=.=.] { #.K m K ` -.:.3.4.>.@./ K ! =.~ U Z D o.r.>.%.>.*.;.3.;.>.",
"%.&.*.:.2.| C ,.Q V c { 1.@.+.+.#.#.1.1.-.( P B E B K _ ;.1.4.:.{ #.=.#.P b ! @.>.;.3.3.3.3.] I ` ] J U Q D } r.3.4.3.>.4.4.>.&.",
"*.*.&.&.@.3 y Z p y A -.-.#.#.3.-.+.-.>.3.{ ( K K M B ) ' -.1.;.[ +.3.@.E E { 3.;.:.>.3.4.1.X.` +.! v S ,.W C ,.r.y.t.9.4.4.4.*.",
">.3.3.=.o.3 @ 3 , 3 ! ,.=.=.-.2.=.=.1.>.>.` E E I v m E _ =.:.] E ` ,.#.` { =.3.>.>.3.4.4.4.=.^ =.! c S ,.W V V :.5.t.9.9.;.*.>.",
">.4.3.,.W b 2 - , 3 Y ,.:.,.$.,.=.-.3.3.>.#._ _ _ B n K ^ 1.,.] P L +.#.{ =.;.>.=.:.1.4.4.4.:.-.*. .J J +.! 3 3 +.4.4.4.4.*.&.:.",
"9.r.r.:.@.F a 3 3 < 3 Q -.o.W W 1.3.3.,.#.-.{ ] *./ B R ~ -.4.=.P I +.1.=.;.3.1.=.1.1.4.4.0.3.=.#.X.K c Z ! 3 3 <.4.4.4.;.%.*.4.",
"t.9.4.3.-.E L b u < # 3 p y 3 b -.1.=.*.E ` { +.] ' R ( ! =.1.=.I K ' @.-.3.3.-.#.+.=.:.,.<.3.=.#.+.Z w w k e i X.:.:.;.*.;.;.3.",
";.&.>.9.:.R M b Z w < & o o o 2 Z ! W b Z X.=.=._ ] ' _ T ] 3.:.I x H T +.-.2.1.#.{ #.#.=.,.=.] #.U p ; $ 2 w f W ^ 3.3.>.;.%.;.",
"*.;.:.r.:.( ! S A l 3 2 < < + o ; 2 2 2 k =.,.X.^ ' ) ` ! ' 1.1.P f i c b K L W ] ^ +.] +.-._ Z J l w 6 y p i z W  .3.4.*.%.&.>.",
"*.4.:.3.3.=.( ! ~ S a u 0 2 2 2 < O X o 2 D S S J E ' _ _ +.,.-.b 6 q r i u i z Z b H E ] =.L f t q 5 7 u V A Z S R =.9.;.*.;.3.",
"r.9.:.3.9.3.&.&.-.+.Y Z a i e e 2 < .   + 3 3 2 w b E ' _ =.X.Z i 6 : 6 3 ; 2 w w w u g E ~ b 2 : ; < 4 u v W ..W ~ ;.9.9.4.3.3.",
"y.4.3.3.3.4.*.3.3.3.,.o.Q F C p t 1 < . . . . + ; e K X.~ S p 2 > = & % % = & : 1 $ < 2 v S 3 1 < 5 4 7 u v K ^ O.,.2.r.y.y.9.y.",
"4.>.*.*.>.4.;.3.r.9.4.3.,.o.D C k 0 9 < < < < % $ 2 p S e 1 $ $ = = * * = : = 8 t r 2 2 r i 3 3 i d d 0 d b ! =.-.:.6.4.r.4.t.t.",
";.*.%.%.*.4.4.4.9.;.:.4.4.1.~ U C b u 7 8 e 0 1 2 6 1 1 2 1 1 1 5 7 5 4 : 5 6 r t 2 0 t t t i p C v v v Z Q =.2.9.9.;.3.r.4.4.3.",
";.%.%.%.>.4.9.4.:.;.3.:.3.3.<.@.! G C s r r t w 6 0 0 e p i 0 u f h h h f l a t r r v r i f b b b C G | o.] 2.9.3.>.3.0.t.4.;.:.",
"*.*.%.%.>.4.3.3.4.>.*.>.:.>.;.&.=.X.} D l k k w 0 d d k Z Z x v n E B N K U Z c Z K b v v p v v Z U | O.,.1.4.3.:.;.*.3.9.4.:.*.",
"*.4.4.*.3.r.9.r.;.%.>.*.:.3.:.>.;.:.=.^ W W b l l b v M } Q I P R -.@.! +.,.$.o.E B K v v b K ! ! _ ] -.3.9.:.>.3.3.*.*.r.4.:.*.",
">.4.t.t.y.y.y.r.3.4.3.>.4.4.>.%.%.&.*.:.:.2.&.P K ~ ^ =.<.o.+.+.] 1.9.0.y.y.e.5.,.1.X.I D ^ ] %.%.%.*.:.4.9.*.&.*.4.4.>.t.4.3.3.",
"4.4.3.r.t.4.r.r.r.y.t.9.4.9.4.*.*.*.&.&.>.:.:.&.;.*.:.r.y.y.9.4.4.9.3.0.t.9.r.0.r.y.r.4.<.4.4.*.&.*.*.&.>.;.>.*.;.*.>.t.y.y.r.4."
};
