/* XPM */
static char *result[] = {
/* columns rows colors chars-per-pixel */
"64 64 127 2 ",
"   c #3B89A6",
".  c #3E93B3",
"X  c #468BA5",
"o  c #4B8CA5",
"O  c #4792AE",
"+  c #4A93AE",
"@  c #5493AB",
"#  c #4394B2",
"$  c #4C96B2",
"%  c #4798B6",
"&  c #4C99B6",
"*  c #479DBC",
"=  c #4C9CBA",
"-  c #539BB5",
";  c #5F9FB7",
":  c #539DB9",
">  c #609DB4",
",  c #4FA0BE",
"<  c #56A1BE",
"1  c #5BA2BD",
"2  c #63A4BC",
"3  c #4EA2C1",
"4  c #53A5C3",
"5  c #5CA6C1",
"6  c #56A9C7",
"7  c #5CA9C5",
"8  c #5FACCA",
"9  c #63A7C0",
"0  c #64AAC5",
"q  c #6AACC5",
"w  c #63AEC9",
"e  c #69AFC9",
"r  c #72ADC4",
"t  c #64B1CE",
"y  c #6BB2CC",
"u  c #73B4CC",
"i  c #7AB6CD",
"p  c #7FB8CE",
"a  c #64B4D2",
"s  c #6CB6D2",
"d  c #6DB9D5",
"f  c #65BBDA",
"g  c #6FBDDA",
"h  c #72B7D1",
"j  c #73B9D4",
"k  c #7ABCD5",
"l  c #74BEDA",
"z  c #79BED9",
"x  c #75C1DD",
"c  c #7CC2DC",
"v  c #77C4E2",
"b  c #7BC6E2",
"n  c #7CC9E5",
"m  c #75C9E8",
"M  c #7ECEEB",
"N  c #82BDD4",
"B  c #8DC2D6",
"V  c #83C3DC",
"C  c #8BC5DC",
"Z  c #8CC8DE",
"A  c #93C8DD",
"S  c #9ACADE",
"D  c #A1CCDE",
"F  c #83C6E1",
"G  c #89C7E0",
"H  c #84CAE4",
"J  c #8BCBE4",
"K  c #84CEEA",
"L  c #8BCEE9",
"P  c #93CDE4",
"I  c #9ACEE3",
"U  c #91CFE8",
"Y  c #85D1EE",
"T  c #8CD1EC",
"R  c #97D0E7",
"E  c #9CD1E6",
"W  c #94D3EC",
"Q  c #9BD5EC",
"!  c #9ED8EE",
"~  c #86D3F0",
"^  c #8CD5F2",
"/  c #8ED8F4",
"(  c #93D7F1",
")  c #9AD7F0",
"_  c #95D9F4",
"`  c #9CDBF4",
"'  c #92DDFA",
"]  c #9DDEF9",
"[  c #A3D2E5",
"{  c #ABD5E6",
"}  c #A3D6EB",
"|  c #A8D6E8",
" . c #A3D9EE",
".. c #ACDAED",
"X. c #B2DDEE",
"o. c #A3DDF4",
"O. c #AADEF4",
"+. c #A3DFF8",
"@. c #B2DFF2",
"#. c #8DE0FF",
"$. c #94E2FF",
"%. c #9CE3FF",
"&. c #A6E0F7",
"*. c #ACE1F6",
"=. c #A4E5FE",
"-. c #ABE5FD",
";. c #ADE8FF",
":. c #B3E2F6",
">. c #BAE4F5",
",. c #B3E5FB",
"<. c #BAE6FA",
"1. c #B4E9FF",
"2. c #BCEBFE",
"3. c #C2E7F7",
"4. c #C0E5FB",
"5. c #C3EDFF",
"6. c #CBEEFF",
"7. c #D2EEFE",
"8. c #D8EEFF",
"9. c #CDF0FF",
"0. c #D3F1FF",
"q. c #DBF3FF",
"w. c #E3F5FF",
"e. c #EAF7FD",
"r. c #EDF9FE",
"t. c #F3FBFE",
"y. c #FBFEFF",
/* pixels */
"2.2.2.2.=.5.q.0.5.1.1.1.;.2.0.5.1.1.9.0.q.q.5.1.1.%.;.=.$.$.#.9.;.1.2.1.;.1.;.%.1.;.$.=.1.1.=.%.%.=.%.$.;.9.0.q.r.r.r.2.=.5.9.5.",
"=.=.2.5.9.0.0.5.1.1.2.;.%.5.9.2.=.=.;.2.9.9.2.1.1.;.=.=.$.=.=.1.2.;.1.2.2.2.2.;.1.;.=.=.1.2.;.$.%.;.;.2.5.q.q.q.0.0.0.;.;.5.9.1.",
"=.=.5.0.0.9.;.1.;.;.1.=.=.1.5.5.1.=.;.;.1.1.;.%.=.;.%.%.$.%.%.;.1.;.;.2.1.2.2.2.1.1.;.-.;.;.;.;.5.5.5.0.0.9.9.2.2.5.9.1.=.5.2.%.",
"=.%.5.0.9.;.%.1.;.;.1.1.=.=.2.5.1.%.1.2.=.%.%.=.;.;.$.$.#.$.=.2.1.;.2.1.%.1.2.2.1.1.5.2.2.2.1.9.0.9.5.9.5.2.=.1.5.9.2.1.=.=.=.=.",
"=.;.9.9.2.%.$.1.2.1.1.1.;.=.1.5.2.1.1.2.1.%.=.;.;.=.#.$.$.%.1.9.5.1.9.5.1.2.2.1.1.5.0.0.6.5.2.9.0.5.2.1.1.1.1.2.9.5.1.=.%.=.%.=.",
"%.1.0.5.=.$.$.;.9.2.;.=.=.;.2.9.5.1.;.2.1.;.;.=.=.$.#.$.%.;.2.0.q.9.9.0.2.9.2.1.1.5.0.6.6.5.5.5.2.1.=.;.;.1.2.;.2.1.;.=.=.%.%.%.",
"=.5.0.2.$.#.%.2.2.2.=.$.=.1.1.9.5.2.1.;.=.;.;.%.$.$.%.=.;.2.9.q.q.q.9.9.5.2.2.2.1.2.<.2.7.8.8.7.1.;.%.;.;.;.=.%.1.2.=.%.=.%.$.%.",
"=.5.9.1.=.=.1.5.;.%.;.=.%.;.;.2.5.2.1.%.=.;.;.=.=.2.9.5.2.9.5.9.q.9.2.2.1.1.1.2.2.-.1.6.8.8.q.8.2.%.%.%.=.%.$.%.1.2.;.;.1.%.%.=.",
"=.9.2.=.1.5.5.5.1.;.1.;.%.%.1.9.0.9.2.1.2.2.2.1.2.0.0.5.2.1.%.2.2.=.%.$.=.1.2.2.1.2.5.7.8.w.8.8.5.5.2.=.%.#.#.%.1.2.;.1.1.$.%.;.",
";.1.1.%.1.5.q.q.9.1.=.;.;.%.;.5.q.9.2.2.5.9.5.9.5.9.2.;.%.%.%.=.=.#.#.$.%.1.6.6.6.7.4.6.8.8.8.8.2.2.q.5.;.%.%.1.1.1.1.1.;.$.;.1.",
"1.1.1.=.;.2.q.q.0.9.1.1.;.1.1.1.2.5.5.5.2.9.9.5.5.1.%.%.$.$.;.;.%.%.=.%.,.4.6.6.8.6.4.8.8.w.8.6.*.:.9.q.q.9.9.9.1.;.2.1.$.=.2.2.",
"5.9.;.;.;.;.1.5.5.9.q.5.;.1.1.%.;.2.2.2.1.9.9.5.%.%.$.#.%.=.1.1.=.%.;.1.4.4.6.7.7.8.8.8.8.8.8.4.O.&.1.9.q.q.w.q.2.2.5.5.1.2.9.2.",
"q.q.1.=.%.%.$.%.=.1.9.9.9.2.1.%.%.1.1.%.=.2.q.9.;.$.$.%.=.=.1.1.%.=.2.2.<.6.6.7.8.q.q.q.8.7.4.@.O.O.1.1.2.9.0.9.2.1.5.5.9.9.0.0.",
"w.9.1.%.%.=.%.$.$.=.1.5.0.0.2.1.1.1.1.%.=.;.9.q.2.%.=.;.=.=.1.1.%.2.*.O.:.9.5.9.q.q.w.q.6.2.@.@.o.) <.-.2.2.1.;.2.1.1.2.9.q.q.q.",
"w.5.=.=.=.%.$.$.$.;.1.1.9.0.0.9.1.1.1.1.;.=.2.0.5.1.1.;.-.1.1.-.2.*.! Q 3.5.5.0.q.q.q.0.6.2.@.+. .o.,.1.2.2.;.;.2.9.2.2.9.q.q.r.",
"q.1.=.=.%.#.$.#.$.;.;.%.;.2.9.9.2.1.1.5.5.1.1.5.0.0.5.2.2.2.5.2.1.` R :.0.9.0.0.0.0.q.0.6.@.+.) Q O.:.1.1.2.2.9.9.5.9.q.q.q.0.q.",
"9.2.=.$.#.$.#.$.=.;.%.$.%.5.q.0.9.5.5.9.2.5.2.5.6.5.2.2.<.*.:.,.*.O.Q ,.9.0.0.7.6.6.7.0.6.:.` ! Q o.Q O.1.5.0.q.9.9.0.w.w.0.9.9.",
"0.2.;.%.%.$.$.%.=.=.$.$.;.9.q.0.5.9.9.2.2.0.q.9.9.5.2.2.<.:.&.&.O.` _ 1.6.7.6.6.6.5.6.7.6.,.O. .Q Q ) O.5.5.9.9.5.5.9.0.q.0.0.0.",
"0.=.%.=.=.=.$.%.%.%.=.=.;.9.0.9.2.5.9.2.2.9.2.9.6.5.9.0.6.6.6.3.<.:.,.3.5.0.6.6.5.6.6.7.6.>.*...W L  .*.2.2.1.1.1.1.5.9.0.0.0.q.",
"9.;.%.%.%.%.$.%.%.;.1.9.2.2.2.5.5.2.2.9.2.2.9.9.5.5.0.9.9.6.7.<.2.3.5.6.6.9.5.1.2.2.5.4.@.o.,.*.H F R O.;.1.1.2.9.2.2.0.0.q.0.q.",
"9.5.;.%.$.$.$.=.1.2.9.9.2.1.;.5.9.5.5.5.9.9.9.9.5.5.6.9.9.5.5.,.,.2.5.6.6.5.2.-.o.&.<.>.Q J  .Q z b P o.$.=.5.9.5.2.2.9.5.2.5.5.",
"2.5.9.2.1.;.=.;.2.5.5.2.1.1.5.5.5.9.9.2.2.9.5.2.5.5.9.0.6.5.3.&.o.:.<.6.6.6.5.<.Q W } O.J c J G j z P ^ %.2.2.2.2.1.2.2.1.%.;.1.",
";.5.0.q.q.0.q.9.2.1.1.1.2.5.9.2.1.5.2.2.9.5.9.5.5.9.0.0.5.6.3.&.o.>.3.5.5.5.5.5.O.C P Q V j V A j k J W 1.2.1.;.1.1.1.2.5.5.5.1.",
"1.2.5.0.r.r.r.q.9.2.=.=.1.9.9.2.;.1.5.5.5.5.5.1.2.6.9.5.2.6.,. .7.y.,.2.<.4.5.5.O.P J C V k k B j h G o.1.;.=.;.1.1.;.1.5.9.5.1.",
"=.1.1.5.q.q.q.0.5.2.1.1.2.9.2.1.;.;.2.5.5.2.5.5.5.0.9.2.5.5.,.3.y.y.o.&.-.,.5.<.&.Z c V c k h h x h Z ! ;.=.=.;.1.=.;.1.1.1.=.%.",
"=.1.2.2.2.9.9.9.2.2.2.2.1.2.2.1.1.;.*.<.<.5.2.2.9.0.0.2.5.5.0.y.y.y.&.&.o.] -.<.&.K c x x y e j i x P H $.=.;.;.=.1.1.1.%.$.$.$.",
"1.;.1.1.;.2.2.2.2.2.9.9.2.1.2.1.1.:.` %.-.3.2.2.9.0.9.5.6.r.y.t.t.y. .,.&.` &.,. .n c c x s h j h c ! c %.1.1.%.%.1.1.;.;.%.=.1.",
"=.$.=.;.%.1.1.1.1.1.9.9.;.-.;.=.-. .W L ! :.&.<.5.9.2.2.0.y.q.( e.y.) >.:.] Q o.&.K T T J x c k x c &.M ;.1.%.#.%.1.1.1.;.;.;.;.",
"#.$.$.$.%.;.1.1.1.2.q.9.%.=.%.#.O.&.K H L ! ( $.<.;.-.-.<.*.( W e.y.+.<.,.*.T ^ &.! _ _ ` H c C x V O.Q ;.%.#.#.=.1.2.2.;.=.$.$.",
"#.$.$.$.$.%.%.%.1.9.0.9.1.=.$.#...*.K H W W T W &.%._ ( T M n J e.y.1.<.1.,.) T %.O.%.! %.( c H C H O.X.9.2.2.9.5.9.5.2.1.;.$.#.",
"#.=.$.$.$.$.%.#.=.9.9.2.1.=.$.` X.O.U W P L K ( &.! J c c x x T e.y.-.5.5.,.&._ %.! $.T ( ! J J T T  .X.q.0.9.9.9.9.9.9.5.1.;.#.",
"#.=.=.%.$.%.%.$.2.9.5.1.1.%.1.<.O.! ! W Z K H U ! ` J c x s x Y r.y.2.5.5.1.=.,. .$.T H T  .T P ! _ :.>.9.9.1.1.1.;.1.5.2.;.;.#.",
";.2.5.9.1.1.1.5.;.5.0.2.-.+.@.6.@.}  .} R J c F  .o.} J c x v T t.y.5.1.1.5.+.=.1.%.^ H L o.( Q O.o.,.o.1.%.1.%.=.=.5.q.q.6.1.5.",
"=.9.5.;.;.1.=.5.-.;.-.=.-. .,.6.2.o.E W P G J Q Q &.&.) Y K b T t.y.5.1.2.4.-.O.<.=.^ F T o.' o.O.o.:.Q 1.1.1.2.9.9.9.2.5.2.;.;.",
";.9.=.=.2.;.=.5.2.1.;.=.=.} O.,.3.<.o.Q R ! o.Q ( _ O.,.*.` ! &.t.y.5.2.2.2.+.] O.-.' T ^ ] _ ` o. .,.o.2.0.5.5.2.;.1.1.5.=.%.%.",
";.5.$.1.1.=.;.1.5.-.-.=.) }  . .*.2.<.:.o.` ` W T _ :.2.6.<.>.,.t.y.-.1.5.<.o._ ] <.=.^ _ ] ] ` O.-.,.} 1.=.1.5.;.%.=.%.1.-.=.%.",
"1.;.2.9.1.;.=.2.9.2.5.2.} [ U R W =.:.o.&.&.,.` W ] <.6.7.5.3.6.t.y.1.1.2.O.( ( o.<.2.o._ o.] ( ] &.o.P ;.%.$.1.0.5.%.%.1.1.=.;.",
"2.;.;.9.9.5.;.;.2.2.5.5.} Q Q U ) -.1.:.+.,.3.:.o.&.,.6.6.<.6.6.t.y.5.1.1.) K H ) ,.5.<.O.+.&._ _ -.Q P -.$.=.1.5.9.q.0.1.2.;.2.",
"0.-.%.%.=.5.6.;.;.=.;.:.@...O.( _ :.2.,.-.2.3.,.&.=.1.5.5.<.<.,.-.5.6.O.+.) K F W &.5.1.1.1.2.,.&.:.,.F ,.-.%.;.1.;.5.2.1.2.9.q.",
"9.=.%.#.=.-.5.0.1.2.*.@.<.,.o.( ` 1.>.O.*.2.2.1.=.=.1.<.,.<.,.%.+.1.2.-.+.( K n T -.4.<.O.1.5.<.,.<.,.R ..1.$.=.2.1.2.2.5.9.0.q.",
"5.=.$.$.=.$.1.q.5.5...@.<.-.( H ) *.O.` :.5.2.1.&.-.1.1.,.<.] &.*.-.O.` / Y v b K _ <.-.&.*.-.-.*.<.1. .E ,.%.;.2.1.5.9.9.0.q.9.",
"2.%.%.%.%.1.2.9.5.@.O. .O.o.U ^ o.o.W ) ,.4.5.<.1.-.=.=.1.*.+.+.] ( ) ) K v v v v ^ &.+._ ( ) ) ` ,.-.` Z 5.;.1.9.5.2.1.2.5.0.q.",
"5.1.=.=.2.5.1.2.>...O.Q  .O.` O.*.o.O.+.,.2.<.-.,.*.&.] -.1.*.+.O.o.L K V j d l v ( o.^ L H F J Y &.-.R Z ,.1.2.5.;.=.2.2.2.1.2.",
"2.0.q.q.5.;.5.<.@.@.) U +.:.O.,.1.1.1.1.:.o.+.=.-.&.] W +.1.1.=.] o.) L b k j c M ` ] T K n z H T o.o.J J } 9.2.=.=.1.;.1.1.5.2.",
";.2.0.0.2.2.2...<.O.) ) <.>.O.o.+.1.-.<.+.^ K ` &.%.` W ` ;.;.=.] ] o._ n V z H ( =.-.` ) ^ v n ) &.` H V S ,.1.2.=.=.;.;.1.=.$.",
"=.;.;.1.1.9. .:.,.U U o.<.,.) ` o.+.-.1.:.K m L T ^ T _ %.,.2.-.+.` &.o.H b H ) &.-.1.2.-.+.^ F W o.Q P V A ..9.=.#.;.%.=.1.;.;.",
"#.$.%.-.,.{ B :.R N N o.-.O.o.o.o.+.*.1.-.( K H Y K M _ &.,.2.=.] ] +.o.H b W O.1.=.1.1.1.,.o.L ! ` H P E A [ 9.1.5.1.;.2.2.;.#.",
"%.%.$.$...2 i N u r G O.-.+.+.1.O.O.*.-.1.] ~ H J b M ^ _ -.<.&._ +.,.&.^ L o.1.=.-.-.1.2.1. .) o.) z C :.R B :.9.q.9.5.2.5.2.%.",
"1.1.2.&...q @ 2 ; 2 E *.-.&.*.2.&.*.,.-.-.] T T J v v K ( &.*.` T Q :.+.` ] -.1.-.-.1.2.2.2.&.! o.W c Z @.R N N -.3.0.5.5.=.$.;.",
";.1.;.:.R x < @ > 2 A *.*.*.:.*.&.-.1.-.-.o.( ^ _ M v J ! ,.,._ H L o.+.` &.=.-.&.-.,.2.2.2.-.-.] ! F G o.W 2 2 o.2.2.2.2.%.$.;.",
"5.9.9.*.X.S i 0 2 & 2 R *...E R -.<.1.,.o.&.] o.] ~ M Y Q *.<.&.K U o.,.&.=.-.<.&.,.,.2.2.9.<.&.+. .J l V W 0 2 <.2.2.2.=.#.%.2.",
"0.5.2.1.*.T J k w , % r u r 2 c *.1.*.` T o.] o.` _ ~ ^ ( &.,.=.^ H ) O.-.-.1.*.o.o.&.-.:.<.,.&.o.o.F 0 9 j q q  .-.;.=.%.=.=.1.",
"=.$.=.5.-.Y n c k 9 , & o o o 1 V Q L c V  .o.&.( %._ ( T ` ,.-.K l F U o.*.<.:.&.&.] &.%.:.O.` o.P u - $ 2 0 s R ! 1.1.;.=.#.=.",
"%.=.;.9.-.^ T P Z u q 1 = : + + - 7 1 1 u &.*.O.Q ( ( ( T ` ,.,.H s u z c H L R ` ) ] ] &.:.W c F k 0 5 q u y j R ! ,.2.%.#.%.;.",
"%.2.;.1.,.&./ W ! Z h e 7 1 1 1 < O X o 1 A Z Z J T _ W W &.*.*.c 5 5 e u t e N F c F W ` O.L y e 9 4 4 a V B V J L &.5.%.=.=.1.",
"9.5.;.;.5.<.$.$.*.o.R B j e e r 1 = .   O 2 2 1 0 c W ( _ &...V t 5 : 5 1 - 1 0 0 5 t d T Q x 1 : - 4 3 w l Q | R Q &.2.9.1.1.1.",
"q.2.1.1.1.1.%.;.<.1.<...E S N i e 6 , . . . # + - e Z  .Q Z u 1 1 : & % % = % 1 1 $ < 7 x V e - < 6 4 6 y f H ! X.*.<.9.q.q.5.q.",
"1.;.%.%.;.5.=.1.9.5.1.;.*.X.S B u w 4 , , < , % & 1 y Z 2 < & & % = = * % : = 5 e 2 1 1 w y 1 2 e a t t s c W &.*.:.5.2.9.2.0.0.",
"=.%.#.#.=.2.1.2.5.;.=.2.2.>.E P C x t 7 7 e 7 1 1 1 < < 1 7 < < 4 4 6 3 , : 5 e e 7 8 e w e e h B x d x V Q  .2.5.2.=.1.9.2.2.2.",
";.#.#.#.;.2.9.2.=.=.1.;.;.;.<.O.E I B p w 8 w 0 7 8 w q u y 8 t s f f f s j h s w w x t y s c B c B D {  .` <.5.1.;.1.9.0.2.=.=.",
"$.%.#.#.;.5.1.1.1.;.%.;.;.1.=.$.&.O.E A h h h 0 8 t a j V V k g v T M m F P V z V c x x h x x x V P | X.*.1.2.2.;.=.%.1.5.2.-.%.",
"%.5.2.%.1.5.5.9.;.#.;.%.=.1.-.-.=.-.&.! R R c j j c x b [ E L K Y *.O.T o.:.@...W M H x x c c R W ( ` *.1.5.-.;.1.1.%.%.9.2.=.=.",
"=.2.9.0.q.q.q.9.1.2.1.;.2.2.;.$.#.$.%.&.*.2.%.K H Q ` o.>...o.&.` ,.6.6.q.q.q.3.-.<.! P I ! ` #.#.#.%.-.2.5.%.$.%.2.<.;.9.5.1.1.",
"2.5.1.9.0.2.9.9.9.q.9.5.2.5.2.%.$.%.$.$.;.;.=.%.%.%.-.0.q.q.5.2.2.5.1.6.0.5.6.6.9.q.9.2.>.2.2.%.$.%.%.$.;.=.;.%.=.%.;.0.q.q.9.2."
};
