/* XPM */
static char *result[] = {
/* columns rows colors chars-per-pixel */
"64 64 128 2 ",
"   c #3B89A6",
".  c #3E93B3",
"X  c #468BA5",
"o  c #4B8CA5",
"O  c #4792AE",
"+  c #4A93AE",
"@  c #5493AB",
"#  c #4394B2",
"$  c #4C96B2",
"%  c #4798B6",
"&  c #4C99B6",
"*  c #479DBC",
"=  c #4C9CBA",
"-  c #5296B0",
";  c #539BB5",
":  c #539DB9",
">  c #5C9FB8",
",  c #609DB4",
"<  c #4FA0BE",
"1  c #56A1BE",
"2  c #5BA2BD",
"3  c #63A4BC",
"4  c #4EA2C1",
"5  c #53A5C3",
"6  c #5CA6C1",
"7  c #56A9C7",
"8  c #5CA9C5",
"9  c #56AAC9",
"0  c #5FACCA",
"q  c #63A7C0",
"w  c #64AAC5",
"e  c #6AACC5",
"r  c #63AEC9",
"t  c #69AFC9",
"y  c #72ADC4",
"u  c #64B1CE",
"i  c #6BB2CC",
"p  c #73B4CC",
"a  c #7AB6CD",
"s  c #7FB8CE",
"d  c #64B4D2",
"f  c #6CB6D2",
"g  c #6DB9D5",
"h  c #65BBDA",
"j  c #6FBDDA",
"k  c #72B7D1",
"l  c #73B9D4",
"z  c #7ABCD5",
"x  c #74BEDA",
"c  c #79BED9",
"v  c #75C1DD",
"b  c #7CC2DC",
"n  c #77C4E2",
"m  c #7CC6E2",
"M  c #7CC9E5",
"N  c #75C9E8",
"B  c #7ECEEB",
"V  c #82BDD4",
"C  c #8DC2D6",
"Z  c #83C3DC",
"A  c #8BC5DC",
"S  c #8CC8DE",
"D  c #91C5DA",
"F  c #93C8DD",
"G  c #9ACADE",
"H  c #A1CCDE",
"J  c #83C6E1",
"K  c #89C7E0",
"L  c #84CAE4",
"P  c #8BCBE4",
"I  c #85CEEA",
"U  c #8BCFE9",
"Y  c #93CDE4",
"T  c #9ACEE3",
"R  c #91CFE8",
"E  c #85D1EE",
"W  c #8CD1EC",
"Q  c #97D0E7",
"!  c #9CD1E6",
"~  c #94D3EC",
"^  c #9BD5EC",
"/  c #9ED8EE",
"(  c #86D3F0",
")  c #8CD5F2",
"_  c #8ED8F4",
"`  c #93D7F1",
"'  c #9AD7F0",
"]  c #95D9F4",
"[  c #9CDBF4",
"{  c #92DDFA",
"}  c #9DDEF9",
"|  c #A3D2E5",
" . c #ABD5E6",
".. c #A2D6EB",
"X. c #A8D6E8",
"o. c #A3D9EE",
"O. c #ACDAED",
"+. c #B2DDEE",
"@. c #A3DDF4",
"#. c #AADEF3",
"$. c #A3DFF8",
"%. c #B2DFF2",
"&. c #8DE0FF",
"*. c #94E2FF",
"=. c #9CE3FF",
"-. c #A6E0F7",
";. c #ACE1F6",
":. c #A4E5FE",
">. c #ABE5FD",
",. c #ADE8FF",
"<. c #B3E2F6",
"1. c #BBE4F5",
"2. c #B3E5FB",
"3. c #BAE6FA",
"4. c #B4E9FF",
"5. c #BCEBFE",
"6. c #C0E5FB",
"7. c #C3EDFF",
"8. c #CBEEFF",
"9. c #D2EEFE",
"0. c #D8EEFE",
"q. c #CDF0FF",
"w. c #D3F1FF",
"e. c #DBF3FF",
"r. c #E3F5FF",
"t. c #ECF9FF",
"y. c #F4FBFF",
"u. c #FDFFFF",
/* pixels */
"5.5.5.5.:.7.e.w.7.4.4.4.,.5.w.7.4.5.q.e.e.w.5.5.,.:.:.,.*.&.&.q.,.4.5.4.,.4.:.=.4.,.*.=.5.4.=.:.=.:.=.*.,.7.w.r.r.t.t.5.:.7.q.7.",
":.:.5.7.q.w.w.7.4.4.5.,.=.7.q.5.:.:.,.4.q.w.5.,.,.,.:.:.=.:.:.4.4.,.4.5.5.5.5.,.4.4.:.:.4.5.,.*.=.,.,.5.q.e.e.w.w.e.w.,.,.7.q.4.",
":.:.7.w.w.q.,.4.,.,.4.:.:.4.7.5.4.:.:.,.,.,.,.:.:.:.=.=.*.=.:.,.4.,.4.5.4.5.7.5.4.4.,.>.,.,.,.,.5.7.7.e.q.q.q.5.5.7.q.4.:.7.5.=.",
":.=.7.w.q.,.=.4.,.,.4.4.:.:.5.q.4.:.4.4.:.:.:.:.,.,.*.*.&.*.:.5.4.,.5.4.=.4.5.5.4.4.5.5.5.5.4.q.e.w.7.7.q.5.:.4.7.q.5.4.:.:.:.:.",
":.,.q.q.5.=.*.4.5.4.4.4.,.:.4.7.5.4.4.5.4.:.,.:.,.:.&.&.=.=.,.q.5.5.q.7.4.7.5.,.4.7.w.w.8.5.5.8.q.7.4.4.4.4.4.5.q.5.,.:.=.:.=.:.",
"=.4.w.7.:.*.*.,.7.5.,.:.:.,.5.q.q.4.,.5.4.:.,.:.:.=.&.*.=.:.5.w.e.q.q.w.5.q.5.4.2.8.q.q.8.8.7.7.7.4.:.,.,.4.4.,.5.4.,.:.:.=.*.:.",
":.7.w.5.*.&.=.5.5.5.:.*.,.4.4.7.7.5.4.,.:.,.,.=.*.*.=.:.4.5.q.e.e.e.q.q.7.5.5.5.4.5.2.5.9.0.0.9.,.:.:.,.,.,.=.=.4.5.,.=.:.=.*.:.",
":.7.q.4.:.:.4.7.,.:.,.:.=.,.,.5.7.5.4.=.:.,.,.:.:.5.q.7.5.q.7.q.e.q.5.5.4.4.4.5.5.>.2.9.0.0.r.0.5.:.*.:.,.=.=.=.4.5.,.,.,.=.=.:.",
",.7.5.:.4.7.q.5.4.,.,.,.=.=.,.q.w.q.5.4.5.5.5.4.5.w.w.7.5.4.=.5.5.:.=.*.:.4.5.5.4.5.7.9.0.e.r.0.7.7.5.=.=.*.&.=.5.5.,.4.4.*.=.,.",
",.4.4.=.,.7.e.e.7.4.,.,.,.:.,.7.e.q.5.5.q.q.7.q.7.q.5.,.=.=.=.:.:.*.&.*.=.2.8.8.8.9.6.8.0.0.0.9.5.4.e.q.,.=.=.,.4.4.4.4.:.=.,.4.",
"4.4.,.,.,.5.w.e.e.q.5.,.,.5.4.4.5.7.7.7.5.q.q.7.7.4.=.=.*.*.,.,.=.=.:.=.>.6.6.8.9.8.6.0.0.e.0.8.#.2.q.e.e.q.w.q.4.,.5.4.*.:.5.5.",
"7.q.,.,.,.,.5.5.7.q.e.5.,.4.,.:.,.5.5.4.4.7.q.7.:.*.*.&.=.:.4.4.=.:.,.,.6.8.9.9.0.0.0.0.0.0.0.6.#.-.4.q.e.e.r.e.5.5.5.7.4.5.q.5.",
"e.e.4.:.=.*.*.:.:.4.q.q.7.7.,.=.:.4.4.=.,.5.e.q.,.*.*.=.,.:.4.4.:.=.5.5.3.q.8.w.w.e.e.r.0.9.6.%.#.$.3.2.5.q.w.q.5.4.7.q.q.q.w.w.",
"e.w.4.=.=.:.=.*.*.:.5.7.w.w.5.4.,.4.4.:.=.4.q.e.5.=.:.,.:.:.4.,.:.5.2.o.<.q.7.w.e.e.e.e.8.5.%.%.@.o.3.>.5.5.,.,.4.4.4.5.q.e.e.e.",
"e.q.:.:.:.=.=.*.*.,.,.4.7.e.w.q.4.,.,.4.,.:.5.w.7.4.4.,.,.,.4.>.5.>.^ ^ 6.7.5.w.e.e.e.w.6.3.%.$.o.@.3.4.5.5.,.,.5.q.5.5.q.e.e.r.",
"w.4.:.:.=.*.&.&.=.:.,.:.,.5.q.q.5.4.5.7.7.4.,.7.w.w.7.5.5.7.5.5.,.[ ! %.w.q.w.w.w.0.w.e.9.3.$.[ ^ ;.;.>.5.5.5.q.q.7.q.e.e.w.e.r.",
"q.5.:.*.&.*.&.*.:.,.=.*.:.5.e.w.q.7.7.q.5.7.5.5.q.7.5.5.3.;.;.<.;.#.^ 2.q.w.w.w.8.8.9.w.8.2.[ / ..#.^ $.4.7.w.e.q.q.w.e.r.w.q.q.",
"e.5.,.=.=.*.*.=.:.=.*.*.,.q.e.q.7.q.q.5.5.w.e.q.8.7.5.5.3.<.;.;.;.[ ] 2.8.9.q.8.8.7.8.9.7.1.#./ ^ ~ ^ #.7.7.q.q.7.7.q.w.e.e.w.w.",
"q.,.=.:.:.:.*.=.=.=.=.,.,.q.w.q.5.7.q.5.5.q.7.q.q.7.8.w.8.8.8.3.1.<.3.3.7.w.8.7.7.8.8.9.8.1.;.#.~ W @.#.5.5.4.4.4.4.7.q.q.w.e.e.",
"q.,.=.=.=.=.*.=.:.:.5.q.5.5.5.q.7.5.5.q.5.5.q.q.7.7.w.q.q.8.9.3.3.7.7.8.q.8.7.2.5.5.7.6.%.@.1.;.L J Q #.,.4.4.7.q.5.5.w.w.e.w.e.",
"q.5.,.=.*.*.*.=.,.5.q.q.5.4.,.7.q.5.7.q.q.q.q.q.7.7.8.q.q.7.7.3.2.3.7.8.q.7.5.>.@.#.3.<.^ R o.~ c b Y [ =.:.7.7.7.5.5.q.7.5.5.7.",
"5.q.q.5.4.,.:.4.5.7.7.5.4.4.7.7.7.q.q.5.5.q.7.5.7.7.q.w.8.8.3.-.@.2.3.8.8.8.7.3.^ ~ o.#.S b S S l c Y ) :.4.5.7.4.4.5.7.4.=.,.5.",
",.7.w.e.e.e.e.q.7.4.,.4.5.7.q.5.4.q.5.5.q.q.q.7.5.w.w.q.7.8.3.#.O.<.6.7.6.7.7.7.#.K Y ^ Z l Z S l c Y ~ ,.5.4.,.4.4.,.4.7.q.5.4.",
"4.4.7.e.r.t.r.e.q.4.,.:.4.q.q.5.,.,.5.7.7.5.7.4.5.q.w.7.5.e.t.u.u.t.w.7.3.7.7.7.%.K Y A Z k b A k k K @.4.4.:.:.4.,.,.,.q.q.7.4.",
",.,.,.q.e.e.e.w.7.5.,.4.5.q.5.4.,.4.5.7.7.5.7.7.7.w.q.5.r.u.u.e.0.y.u.0.<.<.7.5.#.S Z Z b l k a v k S / ,.:.:.,.4.,.,.4.4.,.:.=.",
":.4.5.5.5.q.q.q.5.5.5.5.4.5.5.4.,.,.<.2.3.7.5.5.q.w.w.7.u.y.3.@.o.o.y.u.<.=.>.1.=.L b v b i t k a v Y L *.:.,.,.,.4.4.4.:.=.&.*.",
"4.,.4.4.,.5.5.4.5.5.q.q.5.4.5.4.5.<./ =.>.7.5.5.q.w.q.e.u.e.2.] Q ~ 8.u.8.[ -.<.[ L b b v f f k k b / b =.4.,.=.=.,.4.,.:.:.:.4.",
":.*.:.,.:.4.4.4.,.5.q.q.4.:.>.:.>.o.W U / <.-.4.8.8.5.q.e.7.-.` W I 1.u.0.-.! =.@.U W W S v b b v b -.B ,.4.=.&.=.,.4.4.,.,.,.,.",
"&.*.*.*.=.,.4.4.5.5.w.w.:.:.=.&.-.-.I M U / ] [ 2.,.>.;.;.=.] ~ W W r.u.8.;.W ) -./ *.' ] I b Z v M o.^ ,.=.&.*.:.4.5.5.,.:.*.*.",
"&.*.*.&.*.=.=.=.4.7.w.q.,.:.=.&.O.;.W L Q ~ E ~ } -.] ) W I M P W 1.u.y.3.;.[ W =.;./ *.[ ] b S A S #.+.q.5.5.q.7.q.7.5.4.,.*.&.",
"&.:.*.*.*.*.*.*.:.q.q.5.,.:.*.[ +.;.W ~ R U I ` @.' P Z v v v P #.u.u.q.q.2.-.] [ [ ] W ] / P Y R W o.+.e.w.q.q.q.q.q.q.7.4.,.&.",
"&.:.:.=.*.:.=.*.5.w.7.4.4.:.4.2.o.o./ Q S I S W @.[ P b x g v @.u.u.w.7.5.>.>.;.@.*.) L W @.W R ^ ] 2.1.q.7.5.4.4.,.4.7.7.,.,.&.",
"4.5.7.q.5.4.4.7.,.7.w.5.>.$.%.8.<...o.o.! P b L / @...P b v ..u.u.w.7.4.2.7.:.>.2.=.) L I @.` ^ #.@.3.[ 4.=.5.=.:.:.7.e.e.q.4.7.",
":.q.7.,.,.4.:.7.>.,.>.:.>.o.3.8.3.o.^ Q Y S P ~ ^ ;.#.' W O.u.y.8.8.7.4.5.5.>.@.3.:._ L W @.{ @.#.@.<.o.4.4.4.4.q.q.q.5.7.5.,.:.",
":.q.:.=.5.,.,.5.5.4.,.:.:...$.<.7.1.@.^ Q ] @.o.` ] -.2.7.u.y.<.6.7.7.5.5.5.$.[ #.>.{ U ) $.{ @.@.o.<.@.5.q.7.7.7.,.4.4.7.:.:.=.",
"4.7.=.4.4.=.:.5.5.,.>.:.' ..o.o.;.5.2.<.@./ [ ~ W ] ;.7.u.u.8.4.5.,.>.4.7.3.$.' } 3.:._ ] } ] ' -.>.2.o.4.:.4.7.>.=.:.=.5.:.:.=.",
"4.,.5.q.4.,.:.5.w.5.7.5.....Y R ^ -.2.@.$.>.%.' ` ' 7.t.u.u.y.y.y.t.t.t.w.$.` ~ [ 3.5.@.` @.[ ] [ -.[ Y 4.*.*.4.q.7.=.=.4.4.:.,.",
"5.,.,.q.q.7.,.,.5.5.7.7...^ ..R ] >.2.;.$.3.6.;.@.$.4.y.u.u.u.u.u.u.u.u.r.[ I L ^ <.7.3.>.@.>.] { ;.o.F >.=.:.4.7.q.e.w.4.5.,.5.",
"w.>.=.*.:.7.8.,.,.>.>.<.%.O.#.` ] 2.5.1.>.5.7.2.-.>.4.5.5.3.5.2.>.7.8.>.>.] I L ~ >.5.2.2.3.7.>.-.;.3.L 2.>.=.,.4.,.5.7.4.5.q.e.",
"q.:.=.*.:.>.7.q.4.5.#.<.5.<.@.U } 2.1.@.;.5.3.2.:.=.5.3.5.3.;.} :.2.5.#.[ ` I m U >.7.3.>.2.5.5.3.3.2.W O.4.*.:.5.4.5.5.7.q.w.e.",
"7.:.*.*.:.*.4.e.7.7.O.%.3.>.` U ] <.@.' <.5.5.3.>.>.2.2.3.3.=.-.;.>.#.[ ` E n n I ] 2.2.>.#.;.;.-.3.2.@.! 4.=.,.5.4.7.w.q.w.e.q.",
"5.=.=.=.=.4.5.q.7.%.#.o.#.@.` U o.@.~ ' 3.7.7.2.2.>.:.:.2.>.-.@.} ` ` ^ I n n n m ) >.} ] ` ' ' ] 2.>.@.A 7.>.4.w.7.4.4.5.7.w.e.",
"7.4.:.:.5.7.4.5.1.O.#.' o.#.' #.2.$.-.>.3.6.5.>.2.>.} [ >.5.>.=.#.@.~ I Z j l x n ` @.W E L Z U W ;.;.~ S 2.4.5.7.,.:.5.5.7.4.4.",
"5.w.e.e.5.,.7.3.%.%.' R $.2.#.2.2.2.2.2.;.$.@.:.;.:.@.` } 4.2.-.$.@.' I b c l b B [ } W I m b L W @.$.P S o.q.5.:.:.4.,.4.4.7.5.",
",.5.q.w.5.5.5.O.3.#.` ^ 3.1.#.$.>.2.>.5.-.) I ] @.} } ^ [ ,.,.-.} ] @.` L Z z M ` :.>.[ ' ) M m ` -.] P A G 2.4.5.,.=.,.,.4.:.*.",
">.,.4.4.5.q.o.<.2.R Y $.3.<.' [ [ :.-.2.;.( m U ` ) W ` =.4.5.-.$.} } @.L m P ] -.>.4.5.>.-.) m ~ @.^ Y Z D O.q.:.&.,.=.:.4.,.,.",
"&.*.=.>.2. .C <.! V V @.>.#.@.@.@.$.2.2.;._ I M I I B ` -.4.5.:.} @.-.@.I m ~ ;.,.=.4.2.2.2.@.U ^ @.P Y ! S | q.4.5.4.,.5.5.,.&.",
"=.*.*.*.O.3 a V p y K #.>.$.$.<.>.#.;.>.4.} _ L L M B ) ] >.3.:.] $.2.>.W I @.2.>.>.4.4.5.2.@.' @.` c A <.! C <.q.e.q.7.5.7.5.=.",
",.4.4.>.O.3 @ 3 , 3 Q ;.-.-.;.5.-.;.2.,.,.[ W U P v n W ` :.;.[ W ^ 2.$.@.] :.4.>.>.4.5.5.5.-./ $.^ c A %.Q s V >.7.w.7.7.:.*.,.",
",.5.>.<.Q v 2 - , 3 Y ;.<.;.<.<.-.-.2.,.,.@.] _ ] B v I / <.<.[ L U o.@.] -.>.>.-.>.3.5.5.5.>.>.} / J L @.~ w , @.5.5.5.5.=.*.,.",
"7.q.q.;.#.H a 3 3 < 3 ! ;.O.Q Q >.5.4.4.@.-.=.@.=.( B E ^ ;.5.-.I U @.2.>.:.>.3.-.;.2.5.5.q.2.-.$.o.P c Z ~ w 3 1.5.5.5.:.&.=.5.",
"w.7.5.2.-.~ P b r < # y p y 3 b ;.2.;.[ W [ [ @.o.] E ) ] -.4.-.U I ] #.2.>.4.;.-.-.-.>.<.1.1.=.$.@.Z w w k e y o.>.,.:.=.:.:.4.",
":.*.:.7.>.E M b b w < & o o X 2 Z ! R b Z -.-.-.` =.] ` W } 2.>.U x J Y @.>.3.<.@.} @.-.@.<.#.[ @.Y p ; $ 6 w f Q / 4.4.,.:.&.:.",
"=.:.,.q.>._ W P A p e 2 < ; + + < 2 2 2 i o.;.O.^ ] ` ~ W [ 2.2.I f f c b L P Q [ [ @.=.=.<.^ b L l w 6 y p i l Q o.2.5.=.&.=.,.",
"=.5.,.4.2.-.) Q / A p t 8 2 2 2 < O X o 2 G S Z S W ] ~ ~ @.<.-.m 6 q r i i t z J b J W [ -.U i t q 6 5 u V A Z L W -.7.=.:.:.4.",
"q.7.,.4.7.4.*.=.-.o.Q A a i e e 2 < .   O 3 3 2 w b W ] ] -.O.Z t 6 : 2 3 ; 2 w w q u g W ^ b 2 : ; < 4 u c ~ X.Q ^ -.7.7.4.4.4.",
"e.5.4.5.,.4.=.,.5.4.<.+.! G C p t 1 < . . . . O ; t S o.^ S p 2 > : & % % & & : 2 $ 1 2 v Z 3 1 < 7 5 7 d h L / +.<.1.q.e.e.7.e.",
"4.,.=.*.,.7.,.4.q.7.4.4.;.+.F C p 0 9 < < < < < $ 1 p S e 1 $ $ = * * * = : = 0 t r 2 2 r i 3 3 i d u u f b Q -.-.<.5.5.q.5.w.w.",
":.=.&.&.>.4.4.5.7.:.:.5.5.<.! Y A b u 8 8 t w 1 2 8 1 1 2 1 1 1 5 7 5 4 : 5 6 r t 2 0 t r t i a C l g v Z ..-.3.7.7.>.5.q.5.5.4.",
",.&.&.&.,.5.q.5.>.:.4.,.4.4.3.#.Q H C s r 0 t w 8 0 0 e p i 0 u f h h h d l a t r r v r i f b b b D H  .o.[ 3.7.4.,.4.7.w.5.:.>.",
"*.=.&.&.,.5.4.4.5.,.=.,.>.4.:.*.=.X.| F k k f w 0 u d k Z Z x v n W B N L Y Z z S b v v i v v v Z Y X.+.;.2.5.5.>.:.=.4.7.5.:.=.",
"=.7.5.=.4.7.7.q.>.&.,.=.>.,.,.,.:.>.-.[ Q ! b k k b v M | ! U I E #.;.~ @.<.%.#.( B I v v b J ~ W ' [ ;.4.7.>.,.4.4.=.=.q.5.:.:.",
":.5.q.w.e.e.e.q.,.5.4.,.5.5.,.&.&.*.=.>.>.3.=.I L / o.=.1.O.o.-.[ 2.7.8.e.e.0.7.<.1.o.U T ..[ &.&.*.=.>.5.7.=.*.=.5.4.4.q.5.4.4.",
"5.7.4.q.w.7.q.q.q.e.q.7.5.7.5.=.=.=.*.*.,.>.>.*.:.=.-.9.e.e.7.5.5.7.2.8.0.7.8.8.q.e.q.5.1.5.5.=.*.=.*.*.,.:.,.=.:.=.,.w.r.e.q.7."
};
