/* XPM */
static char *result[] = {
/* columns rows colors chars-per-pixel */
"64 64 129 2 ",
"   c #3B89A6",
".  c #3E93B3",
"X  c #468BA5",
"o  c #4B8CA5",
"O  c #4792AE",
"+  c #5493AB",
"@  c #4394B2",
"#  c #4C96B2",
"$  c #4798B6",
"%  c #4C99B6",
"&  c #479DBC",
"*  c #4C9CBA",
"=  c #5296B0",
"-  c #539BB5",
";  c #539DB9",
":  c #5C9FB8",
">  c #609DB4",
",  c #4FA0BE",
"<  c #56A1BE",
"1  c #5BA2BD",
"2  c #63A4BC",
"3  c #4EA2C1",
"4  c #53A5C3",
"5  c #5CA6C1",
"6  c #56A9C7",
"7  c #5CA9C5",
"8  c #56AAC9",
"9  c #5FACCA",
"0  c #63A7C0",
"q  c #64AAC5",
"w  c #6AACC5",
"e  c #63AEC9",
"r  c #69AFC9",
"t  c #72ADC4",
"y  c #64B1CE",
"u  c #6BB2CC",
"i  c #73B4CC",
"p  c #7AB6CD",
"a  c #7FB8CE",
"s  c #64B4D2",
"d  c #6CB6D2",
"f  c #6DB9D5",
"g  c #65BBDA",
"h  c #72B7D1",
"j  c #73B9D4",
"k  c #7ABCD5",
"l  c #74BEDA",
"z  c #79BED9",
"x  c #75C1DD",
"c  c #7DC2DC",
"v  c #77C4E2",
"b  c #7BC6E2",
"n  c #7CC9E5",
"m  c #75C9E8",
"M  c #7ECEEB",
"N  c #82BDD4",
"B  c #8DC2D6",
"V  c #83C3DC",
"C  c #8BC5DC",
"Z  c #8CC8DE",
"A  c #91C5DA",
"S  c #93C8DD",
"D  c #9ACADE",
"F  c #A1CCDE",
"G  c #83C6E1",
"H  c #89C7E0",
"J  c #84CAE4",
"K  c #8BCBE4",
"L  c #85CEEA",
"P  c #8BCEE9",
"I  c #93CDE4",
"U  c #9ACEE3",
"Y  c #91CFE8",
"T  c #85D1EE",
"R  c #8CD1EC",
"E  c #97D0E7",
"W  c #9CD1E6",
"Q  c #94D3EC",
"!  c #9BD5EC",
"~  c #9ED8EE",
"^  c #86D3F0",
"/  c #8CD5F2",
"(  c #8ED8F4",
")  c #8BDCFA",
"_  c #93D7F1",
"`  c #9AD7F0",
"'  c #95D9F4",
"]  c #9CDBF4",
"[  c #92DDFA",
"{  c #9DDEF9",
"}  c #A3D2E5",
"|  c #ABD5E6",
" . c #A3D6EB",
".. c #A8D6E8",
"X. c #A3D9EE",
"o. c #ACDAED",
"O. c #B2DDEE",
"+. c #A3DDF4",
"@. c #AADEF3",
"#. c #A3DFF8",
"$. c #B2DFF2",
"%. c #8DE0FF",
"&. c #94E2FF",
"*. c #9CE3FF",
"=. c #A6E0F7",
"-. c #ACE1F6",
";. c #A4E5FE",
":. c #ABE5FD",
">. c #ADE8FF",
",. c #B3E2F5",
"<. c #BCE4F5",
"1. c #B3E5FB",
"2. c #BAE6FA",
"3. c #B4E9FF",
"4. c #BCEBFE",
"5. c #C2E8F6",
"6. c #C0E5FB",
"7. c #C3EDFF",
"8. c #CBEEFF",
"9. c #D2EEFF",
"0. c #D8EEFF",
"q. c #CDF0FF",
"w. c #D3F1FF",
"e. c #DBF3FF",
"r. c #E3F5FF",
"t. c #E9F7FE",
"y. c #ECF9FF",
"u. c #F4FBFF",
"i. c #FDFFFF",
/* pixels */
"4.4.4.4.;.7.e.w.7.3.3.3.>.4.w.7.>.4.q.e.e.e.4.3.3.;.>.;.&.%.%.q.>.3.3.3.>.>.>.*.3.:.&.;.3.3.;.*.*.;.*.&.>.7.w.r.y.y.y.7.;.4.q.q.",
";.;.4.7.q.w.w.7.3.3.4.>.*.7.q.4.;.;.>.3.q.w.4.>.>.>.;.;.*.*.;.3.3.>.3.7.4.7.4.>.3.>.;.;.3.4.>.%.*.>.>.4.q.w.e.w.w.w.w.>.;.q.q.3.",
";.;.7.w.w.q.>.3.>.>.3.;.;.3.7.4.>.;.>.>.>.>.;.;.;.>.*.*.*.*.;.>.3.>.3.3.3.4.7.4.3.3.>.:.>.3.>.>.4.7.q.w.q.q.q.4.4.4.q.3.>.4.3.*.",
";.*.7.w.q.>.*.3.>.>.3.3.;.;.4.q.3.;.3.3.>.;.;.;.>.;.*.&.%.&.;.4.3.>.4.3.;.3.4.3.3.4.4.4.4.4.3.q.e.q.7.q.q.4.;.4.q.q.4.3.;.;.;.;.",
";.>.q.q.4.*.&.3.4.3.3.3.>.;.3.7.4.3.3.4.3.;.;.>.>.;.&.%.&.*.>.q.7.3.q.7.>.4.4.3.3.7.9.w.8.7.4.8.q.7.4.3.>.4.3.4.q.4.>.;.*.;.*.;.",
"*.3.w.7.;.&.&.>.7.4.>.;.;.>.4.q.q.3.>.4.3.;.>.;.*.*.%.&.*.>.4.w.w.q.q.w.7.q.4.3.3.7.w.8.8.6.7.7.4.3.>.;.>.3.3.3.4.4.>.;.*.;.&.*.",
";.7.w.4.&.%.*.4.4.4.;.&.>.3.3.7.4.3.>.>.;.>.>.*.&.*.*.;.>.4.q.e.e.r.w.q.q.4.4.3.4.4.4.4.9.0.0.9.>.;.;.>.>.>.*.*.3.4.>.*.;.;.&.;.",
";.7.q.3.;.;.3.7.>.;.>.;.*.>.>.4.q.4.3.;.;.>.>.;.;.4.q.4.4.q.7.q.e.q.4.3.3.3.3.4.3.>.>.9.0.0.r.9.7.*.*.*.;.*.&.*.>.4.>.>.>.&.*.;.",
";.7.7.;.4.4.q.7.3.>.>.>.*.*.>.q.w.q.4.4.4.4.4.>.4.w.q.q.4.3.*.3.4.;.*.&.:.3.4.4.3.4.7.8.0.0.r.e.7.7.4.*.*.&.&.*.3.4.>.3.3.&.*.>.",
">.4.>.&.>.q.w.w.q.3.>.>.>.;.>.7.w.q.7.4.4.q.q.7.q.q.4.>.*.*.*.>.;.&.&.%.{ 3.8.8.8.9.6.8.0.0.0.9.4.3.e.q.>.&.&.>.3.3.3.3.;.*.>.3.",
"3.4.3.>.>.4.w.e.w.q.3.>.>.3.3.>.4.7.7.7.4.q.q.q.4.>.;.&.&.&.>.>.*.*.;.*.#.6.8.8.0.8.8.9.0.r.0.8.@.,.q.w.e.q.q.q.4.>.4.3.&.;.4.4.",
"7.q.>.>.;.>.4.4.7.q.e.7.>.4.>.;.>.4.4.4.3.q.q.4.;.&.&.%.*.;.3.3.*.;.>.>.8.6.8.9.9.0.0.0.0.0.0.6.@.-.4.q.e.r.r.e.4.3.q.4.3.4.q.4.",
"w.w.4.;.*.*.&.;.;.>.q.q.q.7.>.*.;.4.3.*.;.4.e.q.>.&.&.*.:.;.3.3.;.*.4.2.2.q.8.9.0.0.e.r.e.8.6.$.@.#.2.3.4.q.w.w.4.3.7.q.q.q.w.e.",
"r.w.>.*.*.;.*.&.&.;.4.q.w.q.4.3.>.3.>.*.;.>.q.e.4.*.;.>.;.;.3.>.*.4.,.@.,.q.7.q.e.e.e.e.8.2.$.$.+.] 2.>.4.4.>.>.3.4.3.4.q.w.e.r.",
"e.q.>.;.;.*.&.&.&.>.>.>.q.w.w.q.3.>.>.3.>.;.4.w.q.3.3.>.:.>.3.:.4.-.~ ! 5.7.7.w.e.e.r.w.8.6.$.#.+.+.,.3.4.4.>.>.4.7.4.4.w.e.e.r.",
"w.>.;.;.&.&.&.%.&.>.>.;.>.4.q.q.4.3.4.7.7.3.>.7.q.q.q.4.4.7.4.4.3.] E -.q.q.w.w.9.w.9.e.8.$.#.] ! @.@.3.3.4.4.q.q.q.q.e.e.w.w.e.",
"q.4.;.&.&.%.%.&.;.>.*.&.*.7.e.w.q.7.7.q.4.4.4.7.7.7.7.4.2.-.,.1.@.@.! 1.q.w.w.w.8.8.9.9.8.,.+.~  .+.! @.3.7.w.w.w.q.w.r.r.w.q.q.",
"w.7.>.;.*.&.&.*.;.;.&.&.>.q.e.w.q.q.q.4.4.w.e.q.8.8.4.4.2.,.=.@.@.+.' 3.8.8.w.8.8.7.8.9.8.,.@.~ E ` ` @.7.7.q.q.7.7.q.w.e.w.w.w.",
"q.>.;.;.;.;.&.*.*.*.;.;.>.q.w.q.4.7.q.4.4.q.7.q.8.7.q.q.8.q.8.5.2.,.1.5.7.w.8.7.7.8.8.9.8.,.-.@.Q P X.-.4.4.4.3.3.3.7.q.q.w.e.e.",
"q.>.&.&.*.*.&.*.*.>.3.q.4.4.4.7.4.4.4.q.4.4.q.q.7.7.w.q.q.8.8.2.2.7.7.8.8.8.7.3.4.4.7.7.$.+.<.-.J G E @.>.3.3.4.q.4.4.w.w.e.w.e.",
"q.4.>.*.&.&.&.;.>.4.q.q.4.3.>.7.q.4.7.q.q.q.q.q.7.8.7.w.q.7.7.1.1.2.7.9.8.7.4.-.+.@.2.1.! K X.Q x c I ] &.;.7.7.q.4.4.q.7.4.4.q.",
"4.q.q.7.3.>.;.>.4.7.7.4.4.3.7.7.7.q.q.4.4.q.7.4.7.7.8.w.8.8.2.#.#.,.2.8.8.8.7.2.! Q X.o.Z c K Z j z I / ;.4.4.7.3.3.4.4.3.*.>.3.",
">.7.w.w.e.e.w.q.4.3.>.>.4.4.q.4.4.4.4.4.q.q.q.7.7.q.w.w.7.8.5.@.@.,.2.7.7.7.7.7.@.C I ! V j V S j k I _ >.4.3.>.>.4.3.4.7.q.4.3.",
">.4.7.w.y.y.y.e.q.4.>.;.4.q.q.3.>.3.4.7.7.4.4.4.4.8.q.7.4.e.y.i.u.r.5.7.2.6.7.7.@.I K C V j c B j h H +.3.3.;.;.>.>.>.>.7.q.7.3.",
">.>.3.q.w.e.e.w.q.4.>.3.4.q.4.4.>.3.4.7.7.4.7.7.7.w.q.4.e.i.u.e.e.i.i.,.1.<.7.2.=.Z c V c j h j x i Z ~ >.;.;.>.3.>.>.3.>.>.;.;.",
";.>.4.4.7.q.w.q.4.4.4.4.3.4.4.3.>.>.,.1.1.7.4.4.w.w.w.7.i.u.2.=.X.$.i.t.] *.:.2.=.J c x c u r h p c K L &.;.>.>.>.>.3.3.;.&.%.&.",
"3.>.3.3.>.3.4.3.4.4.q.q.4.3.4.3.4.-.] *.-.7.4.4.q.w.q.w.u.e.3.' E Q u.i.=.{ =.1.+.n c c x d d j h c ~ c *.3.>.*.*.3.3.>.;.;.;.3.",
">.&.;.;.;.3.3.3.>.3.q.q.>.:.>.;.-.+.Q K ~ -.-.1.7.q.4.4.4.2.=._ P Q i.u.,.] ! ] =.P L Q K x V k x c =.L >.>.*.%.*.>.3.3.>.>.>.>.",
"%.%.&.&.*.>.3.3.3.4.w.w.;.;.*.%.=.=.L n P ~ _ *.3.3.:.:.:.] ` ~ O.y.i.9.1.,.R / =.~ ' ' ' L V V x V +.! >.*.%.&.;.3.4.4.>.;.&.&.",
"%.&.&.&.&.*.*.*.>.q.w.q.>.;.&.%.o.-.L J E Q ^ Q X.*.' Q R L K i.i.i.e.4.3.1.` T *.@.*.' ] ' c Z V K @.O.q.7.4.q.7.q.7.4.3.>.&.%.",
"%.;.*.&.&.&.*.%.>.q.q.4.>.;.&.] O.@.Y Q E P L _ =.] K c x x c ,.<.t.i.y.7.1.=.` *.~ &.R ' ~ J K Q R X.O.w.w.q.q.q.q.q.q.7.3.>.%.",
"%.;.*.*.&.*.*.&.4.q.7.3.3.;.3.2.@.~ ~ Q Z L J Y X.] K c l f x R ,.,.y.i.w.3.:.:.=.' R J R +.Q P ! ' ,.<.q.q.3.3.3.>.3.7.7.>.>.%.",
"3.4.7.q.4.3.3.7.>.7.w.4.:.#.$.8.$. .X. .W K c C ~ @.! K x x v K <.7.w.i.r.7.;.=.1.*._ J J #._ ! @.#.,.+.3.*.3.*.;.;.7.e.e.q.3.7.",
"*.q.7.>.>.3.;.7.:.>.:.;.:.X.1.8.2.] W ! I G K Q ! =.@.,.5.R v Q 2.w.w.i.t.4.>.=.3.;./ J R +.[ +.@.+.,.X.3.3.3.4.q.q.7.4.7.4.>.:.",
">.q.;.*.4.>.;.7.4.3.>.;.;. .@.1.7.2.+.! ! ! +.] _ ' @.e.i.5.! *.7.7.e.i.e.4.=.] @.:.[ P / =.[ ] +.X.1.+.4.w.7.4.4.>.3.3.7.;.;.*.",
"3.7.*.3.>.;.;.4.7.:.:.;.`  .X.X.@.4.1.,.+.] ] Q R ' -.8.i.u.5.4.4.3.i.i.8.2.+.' { 2.;.( ' ] ` { =.=.3. .3.;.3.7.:.;.;.*.4.;.;.*.",
"3.>.4.q.4.:.;.4.q.4.7.4. . .I Y ! =.-.@.@.@.,.` ' ] 2.8.t.i.i.t.t.i.i.w.4.@./ Q ] 2.6.#.' +.{ ( ] :.] I 3.&.&.3.q.4.*.*.3.3.;.>.",
"2.>.>.q.q.4.>.>.4.4.7.7. .W  .Y ` >.1.:.#.3.7.-.+.+.3.8.7.w.u.i.i.y.w.3.3.] L J ' 1.7.2.@.#.=.' ' -.~ S 3.&.:.3.7.q.e.e.3.4.>.4.",
"w.:.*.&.;.7.8.3.>.;.>.,.O.@.+.` ` ,.4.1.-.4.7.,.=.;.3.7.5.4.2.1.>.7.8.=.:.` P J Q @.7.3.3.2.4.1.=.:.,.G :.:.*.:.3.>.4.7.3.3.q.e.",
"q.;.*.&.;.:.7.q.3.4.-.$.2.1.+./ { 3.<.@.:.4.2.3.;.;.3.2.2.2.:.*.#.3.4.@.{ / L n Q #.7.2.=.3.7.2.1.2.2.Q o.4.&.;.4.3.4.4.7.q.e.e.",
"7.;.&.&.;.&.3.e.8.7.o.$.2.@.' J ' @.+.X.1.4.4.2.:.=.3.3.1.1.#.=.-.;.@.] ( L v b L ' 3.1.=.=.3.-.=.2.1.X.W 3.*.>.4.3.7.w.q.w.w.w.",
"4.*.*.*.*.3.4.q.4.$.@.X.#.+.Q P +.+.Q ` 1.6.4.4.1.>.;.:.3.,.#.#.{ ' ' ! L v v v v / =.{ ` ' ` ` { 1.:.+.Z 7.;.3.w.7.3.3.3.q.w.e.",
"7.3.;.;.4.7.3.4.2.o.@.` +.@.` @.,.#.@.#.1.6.2.>.1.=.] { :.2.>.{ @.+.Q J V l l l b ' #.R L J G P P @.:.Q Z 1.3.4.7.>.;.4.4.7.3.3.",
"4.w.e.e.4.>.7.4.$.$.` Y #.1.$.1.3.1.3.3.,.#.+.;.:.;.+._ { 3.1.;.#.#.! L c k j x M ] ] R J n z G R +.+.K K ..q.4.;.;.3.>.3.3.7.4.",
">.4.q.w.4.3.4.o.2.@.Q ` 2.<.#.#.=.3.>.4.=./ L ' =.{ ] ! ' :.>.;.{ ' +.! n V N n _ ;.:.] ` / n n ' =.` J C D >.2.4.>.*.>.>.3.;.&.",
";.>.>.2.4.q.@.$.1.Q E +.2.1.! X.+.#.=.1.-.^ v P / / R ' *.2.4.:.=.{ { +.J b J ` =.:.3.2.>.#.R n Q +.! I V S o.q.;.%.>.*.;.3.>.>.",
"&.&.*.=.2.| B ,.W N k +.-.=.+.+.#.#.-.3.,./ L J P L M _ ;.2.4.;.{ +.=.#.J b Q @.>.;.3.3.3.3.+.P ` +.J I W S } q.3.4.3.>.4.4.>.%.",
"&.*.&.&.@.2 t V i t H @.:.@.#.3.@.#.-.:.3.{ ) J J b M / ' :.<.;.' #.3.=./ R ] 3.;.:.3.3.2.3.X.` +.! x C -.W B ,.q.e.q.7.4.7.4.*.",
"3.3.3.:.o.2 + 2 > 2 E -.-.=.-.2.=.-.2.:.>.] R R K v v T _ ;.-.' R ` ,.#.] { =.3.:.:.3.4.4.4.=.] +.Q z C ,.E a N 1.7.w.7.7.;.&.>.",
">.4.>.,.E c 1 = + t I -.-.-.,.,.=.=.3.:.:.+._ ( _ M v K ~ ,.2.` J K +.#.` =.;.:.=.:.1.4.7.4.-.-.*.X.G J +.Q 0 1 @.2.4.4.4.*.&.>.",
"7.q.q.-.@.D p 2 2 , 2 E -.o.E ! >.2.2.-.=.=.*.] ] ^ M T ! -.3.=.L Y +.1.;.;.>.2.=.1.2.3.4.7.1.=.] +.K k V Q 0 2 ,.4.4.4.;.%.*.4.",
"w.7.4.3.=.Q Z c e , @ t i t 2 c -.3.=.*.R ] ] @.=.' T / Q =.3.=./ J ' @.-.3.3.-.@.#.=.>.,.4.,.;.#.@.V q q j w t X.:.:.;.*.;.;.3.",
";.&.:.7.:.T m c c q , $ o o o 1 V E Y c c +.=.+.( ] ' _ R ] 3.:.L z b Y @.=.2.,.+.*.+.=.*.,.@.] +.I i - # 5 q d E ~ 3.3.>.;.%.;.",
"*.;.:.q.:./ Q Z B i w 1 , , O o < 1 2 1 i @.-.@.! ' ( ` R ] 1.2.J d h k c J K ! ` ] +.] =.-.! c G k 0 5 t i u j E X.,.3.*.%.*.>.",
"*.4.>.3.3.=./ Q ~ V p r 9 1 1 1 < @ X o 1 S Z Z K R ' _ Q =.,.=.c 5 5 r u y u k G c J R ] @.P u r 0 4 4 y V B V J R =.7.;.;.;.3.",
"q.7.>.>.7.3.&.*.-.=.U V j r t w 1 % .   O 2 2 1 q c R ' _ =.o.V s 5 ; 5 2 ; 1 0 q 0 y f R ! c 1 ; - 4 3 y l Q | E ~ ;.4.q.3.3.3.",
"e.4.3.3.>.3.*.>.3.3.1.O.W D V i r 6 , . . . . # - w K X.! Z i 1 : ; % % % % % ; < # < 7 x V 2 < , 4 4 8 s g J ~ O.$.<.q.e.e.7.e.",
"4.>.*.&.>.7.:.3.w.7.3.>.O.O.A B u 9 6 , , < , $ % 1 u Z 2 < # # * * & & * * * 7 r 2 1 1 e u 2 2 u s y y d c E =.-.-.4.4.q.4.w.w.",
";.&.%.%.:.4.3.4.7.:.;.7.4.1.! D B c y 7 7 r 7 1 < 1 < < 1 7 < < 3 6 4 3 ; 4 5 e r 7 9 r r r u i B j f x V  .@.2.q.4.;.3.q.4.4.3.",
">.&.%.%.>.4.q.4.:.;.3.;.3.>.<.@.! D B a q 9 r q 7 e e w i u 9 y d g g g s j p u e r x e s u c V c A F | X.] 3.7.3.>.3.q.w.3.;.>.",
"&.*.%.%.>.4.3.3.4.;.*.>.>.3.:.&.*.X...S j h d q 9 y s j V c l x v R M m J I V z V c x x u x x x V I ..O.-.,.4.4.:.;.*.3.q.3.>.*.",
"&.7.4.*.>.q.7.q.;.&.>.*.:.>.;.>.;.-.=.~ E E V j j c x b } W P L T ,.=./ +.$.$.@.Q M P x x c V Q Q ' ] -.3.7.>.>.3.3.*.*.q.4.:.*.",
";.4.q.w.e.e.e.q.4.4.3.>.4.4.>.&.%.&.*.;.-.4.&.L J ! ~ =.<.o.] @.{ 1.5.9.e.e.0.5.-.3.X.P U  .] %.%.&.*.:.4.7.*.&.*.4.3.3.q.7.3.3.",
"4.7.3.q.w.4.q.q.q.e.w.7.4.4.4.*.*.*.&.&.>.:.:.*.*.*.:.q.e.e.8.4.2.7.3.8.w.7.9.8.q.e.q.2.2.4.4.*.&.*.&.&.>.;.>.*.;.*.>.w.e.e.q.4."
};
