/* XPM */
static char *result[] = {
/* columns rows colors chars-per-pixel */
"64 64 129 2 ",
"   c #3B89A6",
".  c #3E93B3",
"X  c #468BA5",
"o  c #4B8CA5",
"O  c #4792AE",
"+  c #4A93AE",
"@  c #5493AB",
"#  c #4C96B2",
"$  c #4798B6",
"%  c #4C99B6",
"&  c #479DBC",
"*  c #4C9CBA",
"=  c #5296B0",
"-  c #539BB5",
";  c #539DB9",
":  c #5C9FB8",
">  c #609DB4",
",  c #4FA0BE",
"<  c #56A1BE",
"1  c #5BA2BD",
"2  c #63A4BC",
"3  c #4EA2C1",
"4  c #53A5C3",
"5  c #5CA6C1",
"6  c #56A9C7",
"7  c #5CA9C5",
"8  c #5FACCA",
"9  c #63A7C0",
"0  c #64AAC5",
"q  c #6AACC5",
"w  c #63AEC9",
"e  c #69AFC9",
"r  c #72ADC4",
"t  c #64B1CE",
"y  c #6BB2CC",
"u  c #73B4CC",
"i  c #7AB6CD",
"p  c #7FB8CE",
"a  c #64B4D2",
"s  c #6CB5D1",
"d  c #6DB9D5",
"f  c #65BBDA",
"g  c #6FBDDA",
"h  c #72B7D1",
"j  c #73B9D3",
"k  c #7ABCD5",
"l  c #74BEDA",
"z  c #79BED9",
"x  c #75C1DD",
"c  c #7DC2DC",
"v  c #77C4E2",
"b  c #7CC6E2",
"n  c #7CC9E5",
"m  c #75C9E8",
"M  c #7ECEEB",
"N  c #82BDD4",
"B  c #8DC2D6",
"V  c #83C3DC",
"C  c #8BC5DC",
"Z  c #8CC8DE",
"A  c #93C8DD",
"S  c #9ACADE",
"D  c #A1CCDE",
"F  c #83C6E1",
"G  c #89C7E0",
"H  c #84CAE4",
"J  c #8BCBE4",
"K  c #85CEEA",
"L  c #8BCEE9",
"P  c #93CDE4",
"I  c #9ACEE3",
"U  c #91CFE8",
"Y  c #85D1EE",
"T  c #8CD1EC",
"R  c #97D0E7",
"E  c #9CD1E6",
"W  c #94D3EC",
"Q  c #9BD5EC",
"!  c #9ED8EE",
"~  c #86D3F0",
"^  c #8CD5F2",
"/  c #8ED8F4",
"(  c #93D7F1",
")  c #9AD7F0",
"_  c #95D9F4",
"`  c #9CDBF4",
"'  c #92DDFA",
"]  c #9DDEF9",
"[  c #A2D2E6",
"{  c #ABD5E6",
"}  c #A3D6EB",
"|  c #ABD7E8",
" . c #A3D9EE",
".. c #ACDAED",
"X. c #B2DDEE",
"o. c #A3DDF4",
"O. c #AADEF3",
"+. c #A3DFF8",
"@. c #B2DFF2",
"#. c #8DE0FF",
"$. c #94E2FF",
"%. c #9CE3FF",
"&. c #A6E0F7",
"*. c #ACE1F6",
"=. c #A4E5FE",
"-. c #ABE5FD",
";. c #ADE8FF",
":. c #B3E2F6",
">. c #BBE4F5",
",. c #B3E5FB",
"<. c #BAE6FA",
"1. c #B4E9FF",
"2. c #BCEBFE",
"3. c #C0E7F7",
"4. c #CDE9F4",
"5. c #C0E5FB",
"6. c #C3EDFF",
"7. c #CBEEFF",
"8. c #D2EEFE",
"9. c #D8EEFF",
"0. c #CDF0FF",
"q. c #D3F1FF",
"w. c #DBF3FF",
"e. c #E3F5FE",
"r. c #EAF7FF",
"t. c #E7F8FF",
"y. c #EAF9FF",
"u. c #F4FBFD",
"i. c #FEFFFF",
/* pixels */
"2.2.2.2.=.6.w.q.6.1.1.1.;.2.q.6.1.2.0.w.w.q.6.1.1.%.;.=.#.#.#.6.;.1.1.1.1.1.%.%.1.-.$.=.1.1.=.%.%.=.%.$.;.0.q.w.t.y.y.6.=.6.0.6.",
"=.=.2.6.0.q.q.6.1.1.2.;.%.6.0.2.=.=.;.2.0.q.2.;.1.;.=.=.%.=.=.2.2.;.1.2.2.2.2.1.1.1.=.=.1.2.;.$.%.;.;.2.6.w.w.w.q.q.q.;.=.0.0.1.",
"=.=.6.q.q.0.;.1.;.;.1.=.=.1.6.6.1.%.=.;.1.1.;.%.=.;.%.%.$.=.%.1.1.;.1.2.1.2.0.2.1.1.1.-.;.;.;.;.6.6.6.q.q.0.0.2.2.6.0.1.=.2.1.=.",
"=.%.6.q.0.;.%.1.;.;.1.1.=.=.2.6.2.%.1.2.%.=.%.=.;.;.%.#.#.$.=.2.1.;.2.1.%.1.2.1.1.1.2.2.2.2.1.0.q.0.6.0.6.2.=.1.0.6.6.1.=.;.%.=.",
"=.;.0.0.2.%.$.1.2.1.1.1.;.=.1.6.1.1.1.2.1.=.=.;.;.=.#.#.%.%.1.6.6.1.0.6.1.6.2.;.1.6.8.q.0.5.2.7.q.6.2.1.1.1.1.2.0.6.1.%.%.=.%.=.",
"%.1.q.6.=.$.$.;.0.2.;.=.=.;.2.0.0.1.;.2.1.=.;.=.%.%.#.#.%.;.2.q.w.0.0.q.2.0.2.1.1.6.q.7.7.6.6.6.2.1.=.;.;.1.2.;.2.1.;.=.=.%.$.=.",
"=.6.q.2.$.#.%.2.2.2.=.$.=.1.1.0.2.2.;.;.=.;.;.%.#.$.%.=.1.6.0.w.w.w.0.0.6.2.2.2.1.2.2.2.8.8.9.8.1.;.%.;.;.;.=.%.1.2.;.=.%.%.$.=.",
"=.6.0.1.=.=.1.6.;.%.;.=.%.;.;.2.0.2.1.=.=.;.1.%.;.2.0.6.2.6.6.0.w.0.2.2.1.1.1.2.2.;.;.8.9.9.e.8.2.%.%.%.=.%.$.%.1.2.=.;.1.%.%.=.",
"=.0.2.=.1.6.6.6.1.;.1.;.%.%.1.0.q.0.2.1.2.6.1.1.2.q.q.6.2.1.%.2.2.=.%.$.-.1.2.2.1.2.6.8.9.9.e.w.6.6.2.=.%.#.#.%.1.2.;.1.1.$.%.;.",
";.1.1.%.1.6.w.w.0.1.=.;.;.%.;.6.w.0.2.2.6.0.0.0.6.0.2.;.%.%.%.=.%.$.#.$.] 1.7.7.7.8.5.7.9.9.9.8.2.2.w.6.;.%.%.1.1.1.1.1.=.%.;.1.",
"1.1.1.=.;.2.w.w.q.0.1.1.;.1.1.1.2.6.2.0.2.0.0.6.6.1.%.%.$.$.;.;.$.%.=.%.+.5.7.7.8.7.5.9.9.e.9.7.*.:.0.w.w.0.0.6.1.;.2.1.$.=.2.2.",
"6.0.;.;.;.;.1.6.6.0.w.6.;.1.1.%.;.2.2.1.1.6.0.6.%.%.$.#.%.=.1.1.=.;.=.1.7.5.7.8.8.9.9.9.9.9.9.5.+.*.1.0.w.w.t.w.2.2.6.6.1.2.0.2.",
"w.q.1.=.%.%.$.%.=.1.0.0.0.2.1.%.%.1.1.%.=.6.w.0.;.%.$.%.=.=.1.1.%.=.2.2.<.7.7.8.w.w.w.e.w.7.5.@.O.O.2.1.2.0.w.0.2.1.6.6.0.0.q.q.",
"t.0.1.%.%.=.%.$.$.=.1.6.q.q.2.1.;.1.1.=.%.;.0.w.2.%.=.=.=.=.1.1.%.2.*.O.:.0.6.0.w.w.w.w.7.<.@.@.o.) 1.-.2.2.1.;.1.2.1.2.0.w.w.w.",
"w.0.=.=.=.%.$.$.$.;.1.1.0.q.q.0.1.1.1.1.1.=.2.q.0.1.1.;.-.1.1.-.2.*.! Q 3.6.6.q.w.w.w.8.7.5.@.+. .o.:.1.2.2.=.;.6.0.2.2.0.w.w.t.",
"w.1.=.=.%.#.$.#.$.;.;.%.;.2.0.0.2.1.1.6.6.1.;.6.0.q.6.2.2.6.2.2.1.` R :.q.0.q.q.8.q.w.w.7.@.+.` ) O.O.1.1.2.6.0.0.6.0.w.w.q.w.w.",
"0.2.=.$.$.#.#.$.=.;.%.$.%.6.w.q.0.6.6.0.2.6.2.6.7.6.2.2.<.*.*.:.*.O.Q ,.0.q.q.8.7.6.q.q.7.:.o.! }  .) +.1.6.q.w.0.0.q.t.t.q.0.0.",
"q.2.;.%.%.%.$.$.=.=.#.%.;.0.w.q.6.0.0.2.2.q.w.0.7.7.2.2.<.:.O.O.O.` _ ,.7.8.0.7.7.6.8.8.7.:.O.! Q Q Q O.6.6.0.0.6.6.0.q.q.q.q.q.",
"q.=.=.%.=.=.$.%.%.%.=.=.;.0.w.0.2.6.0.2.2.0.2.0.7.6.0.0.7.7.7.6.<.:.:.6.6.q.7.7.7.6.7.8.7.:.*.O.W L  .:.2.2.1.1.1.1.6.0.q.q.q.w.",
"0.;.%.%.%.%.$.%.%.;.1.0.2.1.2.6.6.2.2.0.2.2.0.0.6.6.q.0.0.0.7.<.:.6.6.7.0.7.2.1.2.6.6.5.:.o.>.*.H F R O.;.1.1.6.0.2.2.q.q.w.q.w.",
"6.6.;.%.$.$.$.=.1.2.0.0.2.1.;.6.0.6.6.6.0.0.0.0.6.7.7.0.7.6.6.:.<.<.6.8.8.6.2.*.o.O.2.:.Q L  .R z b P o.' =.6.6.6.2.2.0.6.2.2.6.",
"2.0.6.6.1.;.=.1.2.6.6.2.1.1.6.6.6.0.0.2.2.0.6.2.6.2.0.q.7.6.6.&.+.,.<.0.7.6.6.<.Q W  . .Z c J Z j z P ^ %.2.2.6.1.1.2.6.1.%.;.2.",
"1.6.q.w.w.q.w.0.2.1.1.1.2.6.0.2.1.6.2.2.0.6.0.6.2.q.q.0.7.7.3.*. .>.<.6.6.6.6.6.O.G P Q V j V A j k P ^ 1.2.1.;.1.1.1.2.0.6.2.1.",
"1.2.6.q.y.y.t.w.0.2.=.=.1.0.0.2.;.1.6.6.6.6.6.1.2.7.q.7.2.6.-.o.O.i.y.2.<.6.6.6.@.G P C V j c C h h J  .1.1.=.=.1.1.=.1.6.0.6.1.",
"=.1.1.6.w.w.w.w.6.2.1.1.2.0.2.1.;.;.2.6.6.2.6.6.6.q.0.2.6.7.,.O.e.i.e.&.-.<.6.2.&.Z V V c j u u x u Z ! ;.=.=.;.1.;.;.1.;.;.=.%.",
"=.1.2.2.2.0.0.6.2.2.2.2.1.2.2.1.1.;.*.<.>.6.2.2.0.q.q.2.2.6.,.3.i.i.e.&.o.` =.<.%.L c x c y e d i x J K $.%.1.;.=.1.1.1.=.$.#.$.",
"1.;.1.1.1.2.2.2.2.2.0.0.2.1.2.1.1.:.` %.-.2.2.2.0.q.0.6.6.6.<.u.w.i.e.:.&.] &.:.o.c x c x s h h x c ! c %.1.;.%.%.1.1.;.;.%.=.2.",
";.$.=.;.%.1.1.1.1.1.0.0.;.-.;.=.-. .W L ! :.*.,.0.0.2.2.2.<.e.u.E i.e.>.:.` Q +.&.K T U Z x c c u c &.K ;.1.%.#.%.1.1.1.;.;.=.;.",
"#.#.%.$.%.;.1.1.1.2.w.0.%.=.%.#.O.&.K n L ! ( %.,.;.-.-.-.>.i.>.L i.t.<.:.,.T T &.! $.) _ J c V c H O.E ;.%.#.#.=.1.2.2.;.=.%.$.",
"#.#.$.#.$.%.%.%.1.0.q.0.1.=.$.#...*.K H R W K W o.%._ ( W u.w.L R i.t.2.1.,.) ~ %.O.! $.%.W n Z V H O.@.0.6.2.0.6.0.6.6.2.=.$.#.",
"#.=.$.$.$.$.$.#.=.0.0.2.1.=.$.` X.O.U W R L K ( &.! H c 4.i.V T ) i.t.6.6.,.&._ %.! $.T ( ! J L U ~  .X.q.q.0.0.0.0.6.0.6.1.;.#.",
"#.=.=.%.$.=.%.$.2.0.6.1.1.%.1.<.O.! ! W Z K H W  .` J [ i.| x T :.i.r.6.6.1.=.,.&._ T H T  .U L ! _ :.>.0.0.1.1.1.;.1.0.2.;.;.#.",
";.2.6.0.2.1.1.6.;.6.q.2.-.+.@.7.@.} o.} E J V F Q o.} u.e.x b J >.i.y.1.2.6.=.+.,.] / H H o.( Q O.+.:.+.1.%.1.%.=.=.6.w.w.0.1.6.",
"=.0.6.;.-.1.=.6.-.;.-.=.-. .<.7.<.` E R P F J W ! *.3.i.i.i.i.i.i.i.i.i.t.2.:.+.<.=./ H K +.' o.O.o.:.} 1.1.1.2.7.0.0.2.6.2.;.=.",
"=.0.=.=.2.;.=.6.2.1.;.=.=.[ o.,.6.<.o.Q R Q o.! ^ ) :.t.e.e.w.t.y.i.i.t.w.2.=.` +.1.' K ( +.' o.` o.:.o.2.0.6.6.6.;.1.1.6.-.=.%.",
"1.6.%.1.;.=.-.1.2.-.-.=.)  . .o.*.<.<.:.+.` ` W T _ ,.<.7.>.>.<.6.i.e.1.6.2.o._ ` 2.=./ _ ] _ ` +.*.1.} 1.=.1.6.-.%.=.%.1.=.=.%.",
"1.;.2.0.1.;.=.2.q.2.6.2.} [ P U Q =.*.O.+.O.:.) ) ` <.0.7.3.3.7.6.i.r.2.2.+.( U ` 2.2.o.( o.` / o.&.` P 1.$.$.1.0.6.%.%.1.1.=.-.",
"2.;.;.0.0.2.1.;.2.2.6.6.} E } U ) -.1.*.+.1.6.:.` &.1.7.7.6.7.7.6.i.r.1.,.` Y H ) ,.5.2.O.+.-._ _ -.! P ;.%.-.1.6.0.w.w.1.2.;.2.",
"q.-.%.$.=.6.7.;.;.-.;.:.O.O.o.) _ :.2.:.*.2.6.:.&.=.;.6.2.<.<.,.-.6.6.-.+._ K H W *.5.1.1.1.2.,.+.,.:.F *.;.%.-.1.;.2.2.2.2.q.q.",
"0.=.%.$.=.;.6.0.1.2.O.:.2.:.O.^ ] <.<.&.*.2.2.1.=.=.1.<.<.<.,.] +.,.6.O.+.( K b L -.6.2.O.,.6.1.:.<.1.R ..1.$.=.2.1.2.2.6.0.q.w.",
"6.=.$.$.=.$.1.w.7.6.| @.<.*.( H ) *.O.` :.6.2.1.&.-.1.1.1.<.%.&.-.-.O.` / ~ v b K _ 2.;.*.*.;.*.*.<.,.} E 1.%.;.2.1.6.0.0.q.w.0.",
"2.%.%.%.%.1.2.0.6.@.O.o.O.o.W T o.o.W ) 1.5.2.2.,.-.=.&.,.-.&.+.] _ ( Q K v x v v ^ *.` _ ) ) ) _ ,.;.` C 6.-.1.0.6.2.1.2.6.q.w.",
"6.1.=.=.2.6.1.2.>.O.O.W o.+.) O.*.+.&.+.:.5.2.-.1.-.` ] ;.<.-.%.O.o.U K V j d l b ^ +.T K H F L T &.*.R C ,.1.2.6.=.=.2.2.2.1.2.",
"2.q.w.w.6.-.6.2.@.@.) U +.:.@.,.,.1.2.:.,.+.+.+.*.&.+._ ] 1.,.&.] o.) L b k j c M ] ] T K b z H T &.%.P Z  .0.2.;.=.1.;.1.1.6.2.",
";.2.q.q.2.2.2...>.+.Q ) <.<.O.o.*.1.;.2.&.~ K _ +.] ` W ] ;.;.&.] ` +.Q n V z H ^ &.-.` ) ~ n b W &.) J V D ;.1.2.=.=.;.;.1.=.$.",
"=.-.;.1.1.0...:.,.U R o.<.,.) o.` +.+.,.*.T b T ^ ^ T ) %.1.2.-.+.` ` O.H b H ) -.-.1.2.-.+.~ F ( &.! J V A ..0.=.#.;.%.=.1.;.;.",
"#.$.%.-.<.{ B *.Q N N o.*.+.o.o.+.+.*.1.*.^ K H H Y M ( &.,.2.=.] o.+.+.H b W *.;.=.1.,.1.1.o.L ! ` H A E A [ 0.1.6.1.;.2.2.;.#.",
"%.%.$.$.O.2 r V u r C +.:.+.=.:.O.+.*.;.1.%.^ H H n K ^ ' *.<.=.' +.1.+.T T ` 1.=.-.1.1.2.,. .) o.) x Z :.R B :.0.w.0.6.2.6.2.%.",
"1.2.1.&...q @ 1 > 2 E *.*.&.*.<.&.*.,.-.;.` T T L x b Y _ &.-.! T Q :.+.` o.=.1.;.;.1.2.6.<.&.` +._ z Z :.E p N ;.6.q.6.6.=.$.;.",
";.1.;.:.Q j < @ > 2 P *.-.*.:.:.*.*.;.;.-.+.( ^ ( M b H ! :.,.( H U o.+._ +.=.-.=.;.:.2.2.2.-.*.` } V H  .W 0 > O.2.2.2.2.%.$.;.",
"6.0.0.*.X.I p 2 2 % 2 R X...R W ;.1.1.;.o.&.+.o.%.Y M Y Q *.<.&.K L o.,.*.=.;.<.O.*.<.1.2.6.1.&.` o.L k F W 9 2 :.2.2.2.=.#.%.2.",
"q.6.2.1.*.T J c w , % r u r 2 c *.,.*.! T ` ` +.o._ Y ^ ( &.,.=.~ H _ O.*.;.1.*.+.+.&.;.:.<.,.&.+.O.V 0 9 h q y  .*.-.=.%.=.=.1.",
"=.$.=.6.;.Y m c V 7 , % o o o 1 V W R c V o.&.o.( ` _ ( W ` ,.-.K z b U o.*.1.:.+.` +.+.%.@.O.` +.P u - # 1 8 y R ! 1.1.;.=.#.=.",
"%.=.-.0.*.^ W Z C u q 2 , % + + < 1 1 1 y O.*.O.! _ ( ( W _ ,.<.J s h z c H J E ) o.` +.&.*.Q c H h 0 5 u u y k R } ,.2.%.#.%.;.",
"%.2.;.1.1.&./ W Q V p w 7 1 1 1 < O X o 1 S Z Z H T _ W W &.*.&.z 5 9 w u t y N F c F T %...L y e 2 5 6 w N C V J K =.6.%.=.=.1.",
"0.6.;.1.6.1.$.$.*.O.P V j y q r 1 * .   + 1 2 1 0 c T _ ( &...V s 5 ; 5 1 - 1 0 0 5 t j L ! x 1 ; - 3 3 t l R | R ! &.2.0.1.1.1.",
"w.2.1.1.;.1.%.;.1.1.>...E S B u y < , . . . . + - e Z  .Q C u 1 : * * % % * % : 1 = < 1 x Z q - < 4 3 6 t d H ! X.@.>.0.w.w.6.w.",
"1.;.%.%.;.6.;.1.0.6.1.;.*.X.A B y 8 6 , , , , $ % < u Z q < % % * * & & & * & 7 w w 1 < w y 1 2 y a a t d c W &.-.*.3.2.0.2.q.q.",
"=.%.#.#.=.2.1.2.6.=.=.6.1.>.Q A C c t 7 7 q 8 < 1 1 < < 1 < < < 4 6 4 3 ; 4 5 w w 1 8 e w e y i B j d x V E &.2.6.6.=.1.0.2.1.2.",
";.#.#.$.=.2.0.2.-.=.1.;.1.,.2.O.E I B p w w e 0 7 8 8 q u y 8 t s f f a s j i e t w x t y y c c c B D { | %.>.2.1.;.1.0.q.1.=.;.",
"%.%.#.#.;.2.1.;.2.=.%.;.;.1.=.%.&.} [ A j h y w 8 t a j V V l g x Y M m F P N c V c x x s x x c Z R [ X.:.,.2.2.-.=.%.1.0.1.;.%.",
"$.6.2.%.1.6.0.0.;.#.;.%.=.1.;.=.=.-.&.` R R V j j c x n E E L L Y :.O.T o.,.@.O.T M J x x c c W T ( %.:.1.6.;.;.1.1.%.%.0.2.=.%.",
"=.2.0.q.w.w.w.0.1.2.1.;.2.2.;.#.#.$.%.=.*.2.$.K H ! ! ` >...o. .%.:.7.7.w.w.9.3.:.<.o.L R } %./ #.#.%.&.1.6.%.$.%.2.1.1.0.2.1.1.",
"2.6.1.0.q.2.0.0.0.w.q.6.2.6.2.%.%.%.$.$.;.-.-.%.%.%.-.q.w.w.7.6.2.6.1.7.q.6.7.7.0.w.0.2.>.2.>.%.$.%.%.$.;.=.;.%.=.%.;.q.e.w.0.6."
};
