/* XPM */
static char *result[] = {
/* columns rows colors chars-per-pixel */
"64 64 131 2 ",
"   c #3B89A6",
".  c #3E93B3",
"X  c #468BA5",
"o  c #4B8CA5",
"O  c #4792AE",
"+  c #4A93AE",
"@  c #5493AB",
"#  c #4394B2",
"$  c #4C96B2",
"%  c #4798B6",
"&  c #4C99B6",
"*  c #479DBC",
"=  c #4C9CBA",
"-  c #5296B0",
";  c #539BB5",
":  c #539DB9",
">  c #5C9FB8",
",  c #609DB4",
"<  c #4FA0BE",
"1  c #56A1BE",
"2  c #5BA2BD",
"3  c #63A4BC",
"4  c #4EA2C1",
"5  c #53A5C3",
"6  c #5CA6C1",
"7  c #56A9C7",
"8  c #5CA9C5",
"9  c #56AAC9",
"0  c #5FACCA",
"q  c #63A7C0",
"w  c #64AAC5",
"e  c #6AACC5",
"r  c #63AEC9",
"t  c #69AFC9",
"y  c #72ADC4",
"u  c #64B1CE",
"i  c #6BB2CC",
"p  c #73B4CC",
"a  c #7AB6CD",
"s  c #7FB8CE",
"d  c #64B4D2",
"f  c #6CB6D2",
"g  c #6DB9D5",
"h  c #65BBDA",
"j  c #6FBDDA",
"k  c #72B7D1",
"l  c #73B9D4",
"z  c #7ABCD5",
"x  c #74BEDA",
"c  c #79BED9",
"v  c #75C1DD",
"b  c #7CC2DC",
"n  c #77C4E2",
"m  c #7BC6E2",
"M  c #7CC9E5",
"N  c #75C9E8",
"B  c #7ECEEB",
"V  c #82BDD4",
"C  c #8DC2D6",
"Z  c #83C3DC",
"A  c #8BC5DC",
"S  c #8CC8DE",
"D  c #91C5DA",
"F  c #93C8DD",
"G  c #9ACADE",
"H  c #A1CCDE",
"J  c #83C6E1",
"K  c #84CAE4",
"L  c #8BCBE4",
"P  c #85CEEA",
"I  c #8BCEE9",
"U  c #93CDE4",
"Y  c #9ACEE3",
"T  c #91CFE8",
"R  c #85D1EE",
"E  c #8CD1EC",
"W  c #97D0E7",
"Q  c #9CD1E6",
"!  c #94D3EC",
"~  c #9BD5EC",
"^  c #9ED8EE",
"/  c #86D3F0",
"(  c #8CD5F2",
")  c #8ED8F4",
"_  c #93D7F1",
"`  c #9AD7F0",
"'  c #95D9F4",
"]  c #9CDBF4",
"[  c #92DDFA",
"{  c #9DDEF9",
"}  c #A3D2E5",
"|  c #ABD5E6",
" . c #A3D6EB",
".. c #A8D6E8",
"X. c #A3D9EE",
"o. c #ACDAED",
"O. c #B2DDEE",
"+. c #A3DDF4",
"@. c #AADEF4",
"#. c #A3DFF8",
"$. c #B2DFF2",
"%. c #8DE0FF",
"&. c #94E2FF",
"*. c #9CE3FF",
"=. c #A6E0F7",
"-. c #ACE1F6",
";. c #A4E5FE",
":. c #ABE5FD",
">. c #ADE8FF",
",. c #B3E2F6",
"<. c #BAE4F5",
"1. c #B3E5FB",
"2. c #BAE6FA",
"3. c #B4E9FF",
"4. c #BCEBFE",
"5. c #C1E7F6",
"6. c #CBEBF7",
"7. c #C0E5FB",
"8. c #C3EDFF",
"9. c #CBEEFF",
"0. c #D8EEF6",
"q. c #D2EEFF",
"w. c #D8EEFF",
"e. c #CDF0FF",
"r. c #D3F1FF",
"t. c #DBF3FF",
"y. c #E3F6FF",
"u. c #E9F7FE",
"i. c #ECF9FE",
"p. c #F4FBFE",
"a. c #FEFFFF",
/* pixels */
"4.4.4.4.;.8.t.r.8.3.3.3.>.4.r.8.3.4.e.t.t.t.8.4.>.;.>.;.&.&.%.8.>.3.3.3.3.3.;.*.3.:.&.;.3.3.;.;.*.;.*.&.;.e.r.y.y.i.i.4.;.8.e.8.",
";.;.4.8.e.r.r.8.3.3.4.>.*.8.e.4.;.;.>.3.e.e.4.3.3.;.>.*.*.*.;.4.4.>.3.4.4.4.4.>.3.3.;.;.3.4.;.&.*.>.>.4.e.t.t.r.r.r.r.>.>.8.e.3.",
";.;.8.r.r.e.>.3.>.>.3.;.;.3.8.8.3.;.;.3.3.3.;.*.;.;.*.*.&.*.*.>.3.>.3.4.3.4.8.4.3.3.3.:.>.>.>.3.8.4.8.t.e.e.e.4.4.8.e.3.;.8.4.*.",
";.*.8.r.e.>.*.3.>.>.3.3.;.;.4.8.3.*.3.4.;.*.;.;.3.;.*.&.%.&.;.4.3.>.4.3.*.3.4.4.3.3.4.4.4.4.4.8.t.e.8.e.e.4.;.3.e.8.8.3.;.;.;.;.",
";.>.e.e.4.*.&.3.4.3.3.3.>.;.3.8.4.3.3.4.3.*.>.>.>.;.&.%.&.*.3.e.4.4.e.8.3.8.4.>.3.8.r.r.9.8.4.q.e.8.3.3.3.3.3.4.e.4.3.;.*.;.*.;.",
"*.3.r.8.;.&.&.>.e.4.>.;.;.>.4.e.8.3.>.4.4.;.>.*.*.*.%.%.*.>.4.r.t.e.e.r.4.e.4.3.3.9.9.9.9.8.8.8.4.3.>.;.>.3.3.3.4.4.>.;.;.*.&.*.",
";.8.r.4.&.%.*.4.4.4.;.&.;.3.3.e.4.4.3.>.*.>.3.*.&.*.*.;.>.4.e.t.t.t.e.e.8.4.4.4.4.3.2.4.q.q.w.q.>.;.;.3.>.>.;.*.3.4.;.*.;.*.&.;.",
";.8.e.3.;.;.3.8.>.*.>.;.*.>.>.4.e.4.3.*.;.3.>.*.;.4.e.8.4.e.8.e.t.e.4.4.3.3.3.4.2.>.>.q.w.w.t.w.4.;.&.;.;.*.&.*.3.4.>.>.3.*.*.;.",
">.4.8.;.3.8.e.4.3.>.3.>.*.*.3.e.r.e.4.3.4.8.4.>.3.r.r.8.4.3.*.3.4.;.*.&.;.3.4.4.3.4.8.q.w.w.y.t.8.8.4.;.&.&.%.*.4.4.>.3.3.%.;.>.",
">.4.3.&.3.8.t.t.e.3.;.>.>.*.>.8.r.e.4.4.8.e.e.e.e.e.8.>.*.*.*.>.;.&.%.&.{ 3.9.9.9.q.7.9.w.w.w.q.4.3.t.e.3.&.*.3.3.3.4.3.;.*.>.3.",
"3.4.3.;.>.4.t.t.r.e.4.3.>.4.3.3.8.e.4.e.4.e.e.8.4.3.;.&.&.&.>.>.&.*.*.*.1.7.9.9.q.9.7.w.w.y.y.7.@.1.e.r.t.e.e.e.3.>.4.3.&.*.4.4.",
"8.8.3.>.;.>.4.4.8.e.t.4.>.3.3.*.;.4.4.3.3.8.e.8.;.&.&.%.*.;.3.3.;.>.;.3.7.7.9.q.q.w.w.w.w.w.q.7.+.-.4.e.t.t.y.t.4.4.4.4.3.4.e.4.",
"t.t.3.;.*.&.&.;.;.3.e.e.8.4.3.*.;.3.3.*.;.8.t.e.>.&.&.*.:.;.3.3.*.;.4.2.2.e.9.r.t.t.t.t.t.q.7.$.@.@.2.3.4.e.e.e.4.3.8.8.e.e.t.r.",
"y.e.3.*.*.;.*.&.&.;.3.e.r.r.4.3.>.3.3.;.*.>.e.t.4.*.;.>.;.;.3.>.*.4.,.=.,.e.8.e.t.t.t.t.9.4.$.$.+.` 2.>.4.4.3.>.3.4.3.4.e.t.t.t.",
"t.e.;.;.;.*.&.&.&.>.3.3.8.t.r.e.3.>.3.>.>.;.4.r.e.3.3.>.:.>.3.:.4.-.~ ~ 5.8.8.r.t.t.t.r.9.2.$.+.X.+.1.3.4.4.>.>.4.e.4.4.e.t.t.i.",
"r.3.;.;.&.&.&.%.&.>.>.*.>.4.e.e.4.3.3.e.8.3.>.8.e.r.8.4.4.8.4.4.3.+.W ,.e.e.r.r.r.q.t.t.9.$.#.+.` @.@.3.4.4.4.e.e.8.e.t.t.r.t.t.",
"e.4.;.&.&.&.&.&.;.>.*.&.*.8.t.r.e.8.8.e.4.8.4.4.9.8.8.4.2.-.-.,.-.-.^ 1.9.r.r.r.9.8.q.q.9.,.+.^  .@.` #.3.8.r.r.r.e.r.y.y.r.r.e.",
"t.4.>.*.*.&.&.&.>.*.&.&.>.e.t.r.e.e.e.4.4.r.t.e.e.8.4.4.2.,.-.-.@.] _ 1.9.r.e.9.9.8.9.q.9.,.-.^ W W ! -.8.8.e.e.8.8.e.r.r.r.r.r.",
"e.;.;.;.;.;.&.*.*.*.*.>.>.e.r.e.3.8.e.4.4.e.8.e.9.8.e.r.8.9.9.7.2.,.1.7.8.r.9.8.9.9.9.q.6.,.-.-.! I +.,.4.4.4.3.3.3.8.e.r.r.t.t.",
"e.>.*.&.*.*.&.*.*.;.4.e.4.4.4.8.8.4.4.e.4.4.e.e.8.8.r.e.r.9.9.2.2.7.8.9.e.9.8.1.4.4.8.8.,.+.<.-.K J Y @.>.3.3.4.e.4.4.r.r.t.r.r.",
"e.8.>.*.&.&.&.*.3.4.e.e.4.3.>.8.e.8.8.e.e.e.e.e.8.8.9.e.e.8.8.1.1.2.8.r.e.8.4.:.+.@.2.1.~ I X.~ v b U +.&.;.8.8.e.4.4.e.8.4.8.8.",
"4.e.8.8.3.>.;.3.4.8.4.4.4.3.8.e.4.e.e.4.4.e.8.4.8.8.9.r.e.8.2.-.=.,.2.e.9.e.8.2.~ ! X.o.L b S Z l c U ( *.4.4.8.3.3.4.8.3.*.>.3.",
">.8.r.t.t.r.t.e.4.3.>.3.4.4.8.4.3.e.4.4.e.e.e.8.8.e.r.e.8.9.7.-.+.<.2.8.7.8.8.8.@.A U ~ Z l b F l z L _ 3.4.3.>.3.3.3.4.8.e.8.3.",
"3.3.8.r.i.i.i.t.e.4.>.;.3.e.e.4.>.>.4.8.8.4.8.3.4.9.r.8.8.a.a.a.a.a.a.a.8.7.8.8.@.U L A Z a b C l k U ` 3.3.;.;.3.>.;.>.8.e.8.3.",
";.3.>.e.t.t.t.r.8.4.3.3.4.e.4.3.>.3.4.8.8.4.8.8.8.r.e.4.r.a.p.u.u.u.y.u.<.1.8.2.=.L Z Z b l k k v p S ^ >.;.;.>.3.;.>.3.>.>.*.*.",
";.4.4.4.4.e.e.e.4.4.4.4.3.4.4.3.>.>.,.1.2.8.4.4.e.r.r.4.t.a.9.+.X.X.=.=.+.*.:.2.=.P v b b i t k a v U P &.;.3.>.;.3.3.3.;.&.&.&.",
"3.>.3.3.>.4.4.3.4.4.e.e.4.3.4.3.4.,.^ *.-.8.4.4.e.r.e.8.y.a.2.' W ~ +.,.-.] =.1.+.b b b v k k k v b ^ b *.3.3.&.*.3.3.>.>.;.;.4.",
";.&.;.;.;.3.3.3.3.3.e.e.3.;.:.;.:.X.E I ^ -.-.,.8.e.4.4.p.a.=.! R P ` 2.-.#.~ ] =.P E E K v b b p b =.B >.3.*.%.;.3.3.3.>.>.;.>.",
"%.&.*.&.&.>.3.3.4.4.r.e.*.;.*.%.=.=.P K I ^ ' *.3.3.:.:.a.i.6.i.a.i.6.2.1.-.E ( =.^ &.] ' P M Z v J X.~ >.*.%.&.;.3.4.4.>.;.&.%.",
"%.&.&.&.&.*.*.;.3.8.t.e.>.>.*.%.o.-.R K W ! R ! +.*.' ^ a.a.p.0.y.a.a.y.3.1.` R *.@.] ' *.~ b S S K @.O.e.8.4.8.8.e.4.4.3.>.&.%.",
"%.*.*.&.&.*.*.%.;.e.e.4.3.;.&.^ O.-.E ! T I P ` +.] L Q p.0.b E ~ -.p.a.r.3.-._ ] ] ' E ! ^ L L T E X.O.t.r.e.e.e.e.e.e.8.3.>.%.",
"%.;.*.*.&.*.*.%.4.e.8.3.3.*.3.1.X.X.^ W Z I K E +.^ L b l g v E @.1.r.a.u.3.;.1.+.&.( P E X.I T ^ ' 1.<.e.8.4.3.3.>.3.e.4.3.>.%.",
">.4.8.e.4.3.3.8.:.8.r.4.:.#.$.9.,. .^  .Q L b Z ~ +. .L b x m P 2.6.9.a.i.8.;.=.2.*.( K P +._ ` @.+.1.+.3.*.3.;.;.;.8.t.t.e.3.8.",
";.e.8.>.:.3.;.8.:.>.:.;.:.X.1.9.2.+.Q W W J I ~ ~ -.@.+.+.P M ! 2.q.9.a.i.8.>.=.2.;.) J P #.) +.@.+.,. .3.3.3.3.e.e.e.3.8.4.>.:.",
";.e.;.;.4.>.;.8.4.3.>.;.;.} @.1.8.<.+.^ W ` +.^ _ { -.t.a.5._ =.8.8.t.a.y.4.#.] #.>.[ I _ #.[ #.] X.1.+.4.r.8.8.4.>.3.3.8.;.*.*.",
"3.8.*.3.>.;.:.3.8.:.:.;.]  .X.+.-.4.1.-.=.^ ] ! R _ -.9.a.p.5.4.4.3.p.a.8.2.#.' ] 2.;.) ' { ] ` -.:.1. .3.;.3.8.:.;.;.*.3.:.;.*.",
"3.>.4.e.3.>.;.4.e.4.8.4. . .U T ! =.:.@.=.:.-.^ ! #.2.9.u.a.a.y.y.a.a.r.4.#._ ! +.2.4.#._ +.] ) ] =.] U 3.&.&.3.r.4.*.;.4.3.;.>.",
"4.>.:.e.e.8.3.>.4.4.8.8. .Q  .T ` >.1.-.=.1.7.,.#.+.1.9.9.r.p.a.a.p.q.3.1.+.P K W 1.8.2.#.+.:.] ' :.~ U >.*.;.3.8.e.t.r.3.4.>.4.",
"t.;.*.*.;.8.e.>.>.:.>.,.o.@.@._ _ 1.2.1.:.2.7.1.=.:.3.4.8.2.2.3.:.8.9.=.#.' P J ! ;.4.2.2.2.8.:.=.1.,.J :.:.*.:.3.>.4.4.4.4.e.r.",
"e.;.*.&.*.:.8.e.3.4.@.,.2.1.@.E ] 3.<.-.1.4.2.3.;.*.2.4.2.2.-.*.=.>.8.=.#._ P M ! =.8.1.:.3.4.2.1.2.1.W o.4.&.;.4.3.4.4.8.e.r.t.",
"8.*.&.&.;.&.3.r.9.8.o.$.2.:._ I ` ,.+.] 1.5.4.2.=.:.3.2.2.1.#.=.>.;.@.] ) R n m P ' 2.>.#.=.3.1.-.2.3.X.Q 3.*.3.4.3.8.e.e.r.t.r.",
"4.*.*.*.;.3.4.e.8.$.@.X.+.+.E ! +.] ! ` 1.8.8.3.1.>.;.;.3.>.{ ;.] ' ` W P m n x m ) =.{ ] _ W ' ' 1.:.+.S 8.;.3.e.8.3.3.4.8.r.r.",
"8.3.;.;.4.8.3.8.<.o.@.W X.@.` @.1.#.-.+.1.4.4.:.1.=.] { =.3.:.=.-.+._ P Z g j l m _ #.R I K J I R -.=.! S 1.3.4.8.;.;.8.4.8.3.4.",
"4.r.t.t.4.>.4.4.$.1.` T #.1.$.:.1.3.3.1.1.#.#.=.>.=.#._ #.3.1.=.{ +.~ P m z l b B ] #.E P M c J R +.=.L L ..e.4.>.;.3.>.>.3.8.4.",
">.4.e.r.4.4.4.o.<.#.W ` 2.<.@.#.=.3.:.2.+./ P ] =.*.] ~ { >.>.;.{ ] ] ` B Z c K ( ;.;.{ ` / M M ~ -.` K A Y -.3.3.>.*.>.>.3.;.*.",
":.>.>.2.4.e.o.$.1.T W #.2.1.` ] +.#.;.2.-.I M R E ( E _ *.1.4.:.=.] =.+.K b K ` =.:.2.2.>.=./ K _ +.~ U Z D o.e.>.%.>.*.;.3.;.>.",
"%.&.*.:.1.| C -.~ V V +.-.=.+.+.#.#.-.3.-.) P K R P B _ =.1.4.=.{ +.#.#.P m ! -.3.;.3.3.3.1.+.I ~ +.K U Q F } e.3.4.3.>.4.4.>.&.",
"&.*.&.&.o.3 a b p y A #.1.#.#.2.=.+.-.:.3.{ ( K K m P ( ' :.1.;.[ #.1.=.E I ] 3.;.:.3.3.4.1.+.W #.` v A ,.W C ,.e.t.e.8.4.8.4.*.",
"3.4.3.=.o.3 @ 3 , 3 W -.-.=.-.4.=.=.1.:.>.] E E I n n P ) =.>.] E ~ 1.#.] { =.3.>.>.3.4.4.4.=.^ #.~ c S ,.W V V :.5.r.8.8.;.&.>.",
">.3.>.,.W v 2 - , 3 U -.-.-.,.-.=.-.3.>.:.#._ ) ! B b R ^ ,.,.` K I X.+.] =.;.>.=.:.1.2.4.4.-.:.] ^ J K X.! w , =.4.4.4.4.*.&.>.",
"8.e.e.-.O.G s 3 3 < 3 Q -.o.Q W >.4.1.,.+.=.] ] ] / B R ~ -.2.#.P E +.1.=.*.>.2.=.1.1.3.4.e.3.=.#.X.L z Z ! w 3 <.4.4.4.;.%.*.4.",
"e.8.4.2.-.E L b r < # y p y 3 b -.1.-.*.E ] { -.=.' R ( ` =.1.;.I K ] #.-.3.3.-.#.+.-.:.1.2.,.;.#.+.J w q l e e X.:.:.;.*.;.;.3.",
";.&.;.8.>.R N b b w < % o o X 2 Z ` T b Z +.=.+.) ] _ _ ! ] 3.:.I x J T +.-.2.,.#.#.#.#.=.,.=.] +.U p ; $ 2 w f W ^ 3.3.>.;.&.;.",
"*.;.>.e.:.( I U D p e 2 < ; + + ; 2 2 2 t @.-.@.~ ' ) ` ! ' 1.1.P f f c b K L ~ ` ] +.] +.-.~ b K l w 6 p p i l W ^ 1.4.*.%.&.>.",
"*.4.>.3.2.*.) ! ~ Z a t w 2 2 2 < O X o 3 F S S I E ' _ ! +.-.-.m 6 q r i u i z J b J E +.=.I i e q 5 7 r V A Z K I =.8.;.*.;.3.",
"e.8.>.3.4.2.&.*.-.=.U A l t e e 2 < .   O 3 3 2 q b E ' ) -.o.Z t 6 : 2 3 ; 2 w w q u g E ~ v 2 : ; 1 4 u c ! ..W ^ :.4.8.4.3.3.",
"r.4.3.3.>.3.*.>.4.1.,.O.Q G C i t 7 < . . . . + ; e K X.^ S p 2 2 : & % % = = > 1 $ 1 2 v Z 3 2 < 5 5 9 d h K ^ O.$.2.e.t.t.8.t.",
"3.>.;.*.>.8.>.3.e.8.4.>.-.O.D C i 0 7 < < 1 < * & 2 p D w : $ $ & = * * * = = 6 t r 2 2 r i 2 3 i d u u f b W =.-.-.4.4.e.4.r.r.",
";.*.%.%.;.3.3.4.8.>.;.4.4.<.~ U A b u 7 2 t w 1 1 2 5 1 2 2 1 5 5 7 5 5 : 5 8 r t 2 0 i t t i a C v f v A Q =.2.8.8.;.2.e.4.4.3.",
">.%.%.&.:.4.e.4.;.;.3.>.3.3.<.@.W H C s r 0 t w 6 u r w p i 0 u f h h d d l a t u r v i d i b Z Z C H |  .*.2.8.3.>.3.e.r.4.;.:.",
"&.*.%.%.3.4.3.3.3.:.*.>.:.3.;.&.*.X.} F k k k w 0 i d l Z Z l v m R B N J U Z c S b v k p v v v Z U ..O.-.,.4.4.>.;.*.3.8.4.;.*.",
"*.8.4.*.3.8.8.e.>.%.>.*.;.3.>.>.:.:.=.X.W W b l l v v m } Q E K P -.-.( +.1.$.o.E B P v v b b ! E ~ *.-.3.8.>.>.>.3.*.*.e.4.;.;.",
";.4.e.r.t.t.t.e.3.4.3.>.3.4.>.%.%.&.*.:.-.4.&.P K ~ ] +.O.,.+.+.{ 1.9.6.t.t.w.8.1.1.X.E U X.+.%.%.&.*.=.3.8.*.&.*.4.3.3.e.4.3.3.",
"4.8.3.e.r.4.e.e.e.t.e.e.4.8.4.*.*.&.&.&.>.:.:.*.*.*.:.r.t.t.9.4.4.8.3.6.r.8.6.9.e.t.e.2.<.4.2.*.&.*.&.&.>.>.>.*.;.*.>.r.y.t.e.8."
};
