/* XPM */
static char *_a2a3259f7384c5da733d968126126893NFKSIEl04irnsqJ[] = {
/* columns rows colors chars-per-pixel */
"64 64 156 2 ",
"   c #3B89A6",
".  c #3E93B3",
"X  c #468BA5",
"o  c #4B8CA5",
"O  c #4792AE",
"+  c #4A93AE",
"@  c #5493AB",
"#  c #4394B2",
"$  c #4C96B2",
"%  c #4798B6",
"&  c #4C99B6",
"*  c #479DBC",
"=  c #4C9CBA",
"-  c #5296B0",
";  c #539BB5",
":  c #5F9FB7",
">  c #539DB9",
",  c #5C9FB8",
"<  c #609DB4",
"1  c #4FA0BE",
"2  c #56A1BE",
"3  c #5BA2BD",
"4  c #63A4BC",
"5  c #4EA2C1",
"6  c #53A5C3",
"7  c #5CA6C1",
"8  c #56A9C7",
"9  c #5CA9C5",
"0  c #56AAC9",
"q  c #5FACCA",
"w  c #63A7C0",
"e  c #64AAC5",
"r  c #6AACC5",
"t  c #63AEC9",
"y  c #69AFC9",
"u  c #72ADC4",
"i  c #64B1CE",
"p  c #6BB2CC",
"a  c #73B4CC",
"s  c #7AB6CD",
"d  c #7FB8CE",
"f  c #64B4D2",
"g  c #6CB5D1",
"h  c #6DB9D5",
"j  c #65BBDA",
"k  c #6FBDDA",
"l  c #72B7D1",
"z  c #73B9D3",
"x  c #7ABCD5",
"c  c #74BEDA",
"v  c #79BED9",
"b  c #75C1DD",
"n  c #7CC2DC",
"m  c #77C4E2",
"M  c #7BC6E2",
"N  c #7CC9E5",
"B  c #75C9E8",
"V  c #7ECEEB",
"C  c #82BDD4",
"Z  c #8BBFD3",
"A  c #8DC2D6",
"S  c #83C3DC",
"D  c #8BC5DC",
"F  c #8CC8DE",
"G  c #91C5DA",
"H  c #93C8DD",
"J  c #9ACADE",
"K  c #A1CCDE",
"L  c #83C6E1",
"P  c #89C7E0",
"I  c #84CAE4",
"U  c #8BCBE4",
"Y  c #85CEEA",
"T  c #8BCEE9",
"R  c #93CDE4",
"E  c #9ACEE3",
"W  c #91CFE8",
"Q  c #85D1EE",
"!  c #8CD1EC",
"~  c #97D0E7",
"^  c #9CD1E6",
"/  c #94D3EC",
"(  c #9BD5EC",
")  c #9ED8EE",
"_  c #86D3F0",
"`  c #8CD5F2",
"'  c #8ED8F4",
"]  c #8BDCFA",
"[  c #93D7F1",
"{  c #9AD7F0",
"}  c #95D9F4",
"|  c #9CDBF4",
" . c #92DDFA",
".. c #9DDEF9",
"X. c #A3D2E5",
"o. c #ABD5E6",
"O. c #A3D6EB",
"+. c #A8D6E8",
"@. c #A3D9EE",
"#. c #ACDAED",
"$. c #B2DDEE",
"%. c #BCDEEC",
"&. c #A3DDF4",
"*. c #AADEF4",
"=. c #A3DFF8",
"-. c #B2DFF2",
";. c #8DE0FF",
":. c #94E2FF",
">. c #9CE3FF",
",. c #A6E0F7",
"<. c #ACE1F6",
"1. c #A4E5FE",
"2. c #ABE5FD",
"3. c #ADE8FF",
"4. c #B2E2F6",
"5. c #BAE4F5",
"6. c #B3E5FB",
"7. c #BAE6FA",
"8. c #B4E9FF",
"9. c #B8EBFF",
"0. c #BBEAFF",
"q. c #BBEBFF",
"w. c #BDEBFF",
"e. c #BEEBFF",
"r. c #B9ECFF",
"t. c #BEECFE",
"y. c #C3E8F6",
"u. c #C0E5FB",
"i. c #C5EAFF",
"p. c #C0ECFF",
"a. c #C3EDFF",
"s. c #C4EDFF",
"d. c #CAEBFF",
"f. c #CDEAFF",
"g. c #CAEFFF",
"h. c #CDEFFF",
"j. c #DAEFF6",
"k. c #D3EEFC",
"l. c #D2EDFE",
"z. c #D0EFFF",
"x. c #D8EEFF",
"c. c #CBF0FF",
"v. c #CEF0FF",
"b. c #D1F1FF",
"n. c #D5F1FF",
"m. c #D8F1FF",
"M. c #D9F3FF",
"N. c #DDF2FF",
"B. c #DAF4FF",
"V. c #DDF4FF",
"C. c #E2F5FE",
"Z. c #E3F6FF",
"A. c #EAF7FF",
"S. c #ECF9FE",
"D. c #F4FBFE",
"F. c #FEFFFF",
/* pixels */
"t.9.t.t.2.s.M.n.a.9.9.9.2.a.b.a.8.9.c.M.V.M.a.9.3.1.1.2.:.;.;.g.2.9.9.8.3.3.1.>.8.3.:.1.9.8.1.1.>.1.>.:.2.g.n.Z.Z.A.Z.a.1.a.c.s.",
"1.1.9.s.g.b.b.a.9.8.9.3.>.t.v.9.1.1.3.9.v.b.a.3.8.2.1.1.:.1.1.r.r.3.8.a.w.a.w.2.9.8.1.1.9.9.2.:.>.2.8.9.s.M.M.n.n.n.M.8.2.g.c.9.",
"1.1.a.z.n.g.8.8.2.3.8.1.1.8.a.a.8.1.1.3.3.8.2.1.1.2.>.:.:.>.>.3.9.3.8.9.3.w.s.t.9.8.8.2.2.8.2.8.a.a.s.n.b.v.c.t.9.s.c.8.2.t.9.1.",
"1.1.s.n.h.3.>.9.8.3.9.8.1.1.t.s.9.>.9.9.1.1.1.1.3.2.:.:.;.:.1.a.9.2.t.9.>.9.t.9.8.9.a.w.w.w.9.g.n.v.s.g.c.9.1.9.g.g.a.8.1.1.1.1.",
"1.2.h.z.w.>.:.8.9.8.9.8.2.1.9.s.w.8.8.a.9.1.1.2.3.1.;.;.:.>.8.c.a.9.s.a.9.a.t.3.8.s.b.b.c.w.w.v.v.s.9.9.8.9.8.t.v.a.3.1.>.1.:.1.",
">.9.b.a.1.:.:.3.s.a.2.1.1.3.t.g.s.9.3.t.9.2.2.1.1.:.;.;.:.1.9.b.n.b.b.b.a.c.t.3.9.s.v.g.s.i.i.a.a.8.2.2.2.9.9.8.t.9.3.1.>.1.:.1.",
"1.a.b.r.:.;.>.9.a.9.1.:.1.9.9.s.a.9.8.3.1.2.3.>.:.:.:.1.8.a.v.M.V.V.b.v.s.t.t.9.9.9.9.9.z.z.x.z.3.1.1.3.3.2.1.>.8.9.3.1.1.>.:.1.",
"1.s.v.9.1.1.9.a.3.>.2.1.1.2.3.t.s.t.9.>.1.3.3.1.1.a.g.g.a.s.s.b.B.v.t.9.9.8.9.9.9.3.3.h.x.M.N.n.w.>.:.>.1.>.:.:.8.t.2.3.3.:.>.1.",
"1.a.a.1.9.s.s.a.9.3.8.3.>.:.3.g.n.h.w.8.9.t.w.3.9.b.n.s.9.8.>.9.9.1.>.:.1.9.9.9.9.w.s.f.x.x.N.M.i.a.t.1.:.:.;.>.9.9.3.9.8.:.>.2.",
"3.9.8.:.8.s.M.B.g.8.1.2.3.1.3.s.n.b.a.t.a.c.g.s.g.v.a.2.1.>.>.2.1.:.:.;.:.3.h.d.f.h.a.f.x.M.x.z.7.6.B.g.3.:.:.3.9.9.9.8.1.>.3.9.",
"9.9.8.1.2.w.n.V.M.g.9.3.3.9.9.8.a.s.a.a.t.v.h.a.t.8.>.:.:.:.3.8.:.>.1.>.2.a.i.f.z.d.d.z.M.N.M.y.*.4.g.n.M.v.v.c.8.2.a.8.:.1.t.t.",
"s.g.8.3.1.2.9.t.s.v.M.s.3.9.8.>.2.9.t.9.8.s.b.a.1.:.:.;.:.1.8.8.1.1.2.8.i.d.f.z.z.n.M.M.N.x.z.7.*.,.9.g.V.Z.Z.V.t.9.s.a.9.w.g.9.",
"M.n.9.1.>.:.:.>.1.9.h.v.g.a.3.>.1.9.8.>.1.a.n.b.2.:.:.>.1.1.9.9.1.1.w.9.7.d.d.b.n.M.N.N.M.h.u.7.*.*.9.8.t.v.b.b.9.9.s.a.h.v.n.n.",
"Z.b.8.>.>.1.>.:.:.1.9.s.n.n.w.9.3.8.8.1.1.8.v.M.t.:.1.2.1.1.8.3.>.w.6.*.4.g.s.v.M.N.N.M.g.7.7.-.&.{ 9.3.w.9.8.3.9.9.9.w.h.M.N.Z.",
"Z.g.1.1.1.>.:.:.:.2.9.8.s.n.b.g.9.3.3.8.3.1.t.b.g.9.8.3.2.8.9.2.9.<.( ( i.a.a.n.M.N.N.n.i.9.4.&.&.&.6.9.w.9.2.2.t.s.t.t.b.M.M.Z.",
"n.8.1.1.:.:.:.;.:.2.2.1.3.t.v.v.t.9.r.s.a.8.3.s.v.b.s.w.t.t.a.w.4.| ~ 4.h.v.b.n.n.b.n.n.h.7.&.{ ( *.<.8.9.t.s.g.g.s.v.B.M.n.n.V.",
"g.w.1.:.:.;.;.:.1.2.>.:.>.s.M.b.g.s.s.g.a.a.w.a.g.a.a.w.7.<.<.6.<.&.( 6.h.n.b.b.h.s.h.n.h.4.&.( ( &.( ,.9.s.v.M.b.g.b.Z.Z.n.b.c.",
"b.a.2.>.>.:.:.:.1.>.:.:.2.c.V.b.g.h.g.t.w.b.M.v.g.s.w.w.7.4.*.*.*.| } 6.g.z.v.g.g.s.h.z.g.4.*.&.( ( / <.a.s.v.h.a.c.b.n.M.b.b.n.",
"b.2.1.1.1.1.:.>.>.:.1.2.8.g.n.v.t.s.g.t.t.h.a.v.h.a.v.b.s.h.g.w.7.4.6.a.s.b.h.s.s.g.h.b.g.7.<.*.~ ! @.4.a.t.9.8.9.9.s.g.b.n.M.V.",
"g.3.>.:.>.>.:.>.>.2.9.s.a.9.w.s.s.9.t.g.t.t.v.g.s.s.b.v.v.h.h.7.7.u.a.g.g.g.a.9.w.w.a.a.4.&.5.*.I L ( *.3.8.8.t.g.9.w.v.b.M.n.n.",
"g.s.3.:.:.:.:.>.8.t.v.g.a.8.8.s.h.s.s.g.a.g.h.g.s.g.g.v.v.a.a.6.6.7.a.b.b.a.9.2.&.<.7.4.( T @.( n n R | :.1.a.g.s.9.t.h.s.r.a.s.",
"t.c.g.a.8.2.1.3.9.a.a.t.9.8.a.s.s.g.g.9.t.v.s.s.a.a.h.b.h.s.w.*.&.4.w.g.g.s.a.7.( ~ @.@.U n P P z v R ' >.9.t.t.9.9.9.a.8.1.3.9.",
"3.s.b.B.M.M.M.v.a.9.3.8.9.a.s.a.9.a.t.9.g.g.g.s.t.v.b.v.s.g.u.*.&.4.w.s.a.a.a.a.*.U R ( S z S R z x R [ 8.r.8.3.8.9.8.9.s.s.a.8.",
"8.9.s.n.A.A.Z.V.v.9.2.1.9.g.s.9.3.8.a.a.s.a.a.9.9.h.b.s.w.h.Z.D.F.D.n.w.w.a.a.s.*.U U F S x x A l h U &.9.3.1.2.8.3.2.8.s.v.a.9.",
"2.8.8.g.n.N.N.n.s.9.8.8.w.s.t.9.2.8.a.a.a.w.s.a.s.b.h.t.g.F.F.Z.j.D.F.M.4.6.a.w.,.P S S n v l z z z D | 3.1.1.3.9.2.3.8.3.3.1.>.",
"1.9.t.t.a.v.b.g.a.t.t.t.9.t.t.9.8.8.<.6.9.s.9.w.v.n.b.w.S.F.g.&.@.&.S.F.*...2.6.&.I n v v g p z z z R Y :.1.8.2.2.8.9.9.1.:.;.:.",
"9.3.9.9.3.9.t.9.9.t.s.v.r.9.9.9.9.<.| | <.a.w.w.v.n.h.g.F.A.6.} / / 7.Z.5.| =.6.&.I n n v h l z z S ( n >.9.3.>.>.8.9.2.1.1.1.9.",
"1.:.1.1.1.8.8.8.8.9.b.v.8.2.2.1.2.&./ ! ) 4.,.9.s.h.w.M.F.h.,.[ T Y | 7.4.| ( | &.T ! ! Y b n x z n &.I 2.8.>.;.>.3.9.8.3.3.1.3.",
";.:.:.:.:.3.8.8.9.t.n.b.>.1.>.;.&.&.Y N T | } | 8.8.2.N.F.&.y.S.F.S.d.w.6.<.! ` ,.&.} } } Y M S b L &.( 2.>.;.:.1.9.9.9.3.1.:.:.",
";.:.:.:.:.>.>.>.8.s.n.g.3.1.:. .*.<.T I ~ / ! / &...} N.F.z.F.Z.N.F.F.V.6.6.| ! ..<.| } | / M P I Y *.-.g.a.a.s.s.s.s.a.9.2.:.;.",
";.1.:.:.:.:.:.:.1.g.v.w.8.1. .| *.*.! / W T Y / &.| U j.F.F.R T ( 4.D.F.b.8.<.} | &.} ! [ | T U ~ ! &.$.n.n.v.b.b.h.g.v.s.9.2.;.",
":.1.1.:.:.1.>.:.t.b.s.8.9.1.6.5.*.O.) / P T I ! &.| U j.F.%.b ! <.6.n.F.Z.8.1.2.&.} ` I ! &.! R ( } 4.5.z.s.9.9.8.2.8.s.a.8.3.;.",
"3.t.a.b.9.9.8.s.3.a.n.9.2.,.4.g.4.O.@.O.~ U n I ( &.O.j.F.O.M T 5.s.h.F.Z.a.1.,.6.>.' I Y &.[ ( *.&.6.| 8.>.9.>.1.1.s.M.V.h.9.s.",
"1.g.s.3.3.8.1.a.2.3.2.1.2.&.6.g.w.&.( / R I U / { <.*.z.F.#.M / w.h.h.F.Z.w.2.,.7.1.' I ! &.} &.*.&.4.O.9.9.9.9.g.g.g.9.s.9.3.1.",
"2.h.1.1.t.3.1.a.9.9.3.1.1.O.&.6.a.7.&.( ~ ( &.| [ | &.i.F.z.( ,.w.s.B.F.B.w.,.| ,.2. .! ' =. .&.&.&.6.&.w.v.a.a.a.3.8.9.a.1.1.>.",
"8.s.:.8.8.1.2.9.t.2.1.1.| O.@.&.<.9.7.4.&.| | / ! } 2.w.F.F.d.9.w.8.D.F.s.9.&.} | 9.1.' } &.| | *.,.6.@.9.1.9.s.2.1.1.:.9.2.1.>.",
"8.3.w.h.9.3.1.9.b.w.a.t.O.( R R ( ,.<.*.,.,.4.| / | w.g.M.F.F.A.Z.D.F.n.w.,.' / | 7.w.&.} &.| ' | ,.| R 8.:.:.8.v.a.>.>.9.8.1.2.",
"w.3.3.g.v.a.8.3.9.w.a.i.O.( ( ~ | 3.6.<.=.6.u.4.&.&.9.g.g.d.S.F.F.D.n.8.6.| Y I ( 6.a.7.<.&.,.} } <.( R 3.:.2.9.a.h.M.n.9.t.2.a.",
"M.2.>.:.1.s.h.3.3.2.3.4.*.*.*.[ } 8.w.6.,.9.a.6.,.1.3.a.a.7.w.6.3.s.s.2.,.| Y L / ,.a.6.6.9.w.2.=.<.4.L 6.2.>.2.9.3.a.t.9.w.b.M.",
"h.1.:.:.1.3.a.v.9.9.<.4.7.6.&.! | 6.7.*.6.9.9.8.1.>.9.w.7.7.2.>.,.8.w.,.| [ Y M / ,.a.6.,.8.w.9.6.7.6.W #.9.:.1.w.9.9.9.s.g.n.V.",
"s.1.:.:.1.:.9.n.g.s.#.4.7.<./ Y | <.&.| 6.w.w.9.1.2.8.8.6.7.,.,.2.2.<.| ' Y M M Y } 7.2.,.,.2.<.<.7.6.&.( 9.:.3.9.9.a.b.g.n.M.b.",
"w.>.>.:.>.8.w.g.t.-.*.&.&.&.~ ! &.| / | 6.a.a.9.6.2.1.2.8.2.,.=.| } / ( Y M b b N ' ,...| / ( { | 6.3.&.F a.2.9.v.s.9.9.9.s.n.M.",
"s.9.1.1.9.s.9.w.5.#.*./ &.*.| *.4.=.,.,.6.w.9.3.6.<...| 3.9.2.,.<.&.! T S z z z M [ &.` ! I L T ! *.,.~ F 6.9.9.s.1.1.a.9.a.8.9.",
"9.b.Z.M.t.2.t.w.-.4.( W &.6.<.<.8.6.9.8.<.,.&.,.2.,.&.[ >.8.8.1...&.{ Y n x z n V | | ! Y N n L ! &.&.U U @.g.w.1.1.9.2.8.8.s.9.",
"3.w.b.b.t.9.w.#.7.,./ ( 6.7.*.&.,.8.3.9.,._ Y | &...&./ | 3.3.1...| &.{ N S x N [ 1.2.| { _ N M ( &.| U S E 2.8.9.2.1.2.3.8.1.:.",
"1.3.3.9.9.h.&.-.6./ / &.7.4.( | &.,.,.6.<.Q N ! [ ' ! [ ..6.9.2.,.| ..&.I M I } ,.2.9.9.3.,.! M / &.( R S G #.g.1.;.2.>.1.8.2.2.",
";.:.>.1.9.o.A -.( C C &.2.,.&.&.&.&.<.6.<.' Y I Y Y I [ ,.6.w.1.| &.,.&.I M / <.8.1.9.8.8.8.&.! | &.I R ( H X.h.9.t.9.2.9.t.3.:.",
":.:.:.:.*.4 s C a u D <.<.=.=.6.,.&.<.2.9.=.` I I N Y ` } <.6.,.| &.6.,.! ! &.8.1.2.8.9.w.6.&.( &.[ v F 4.R A -.h.M.b.a.t.a.t.>.",
"8.9.9.,.#.r @ < < u / <.,.&.<.7.&.<.6.3.3.| ! ! T m m Y [ ,.2.| ! / 4.,.| | 1.8.3.2.8.w.w.9.*.| &./ v D 4.( d C 3.a.n.s.a.1.:.3.",
"3.9.3.4.( x > - @ u R <.<.<.4.4.,.<.8.3.3.&.[ ' [ V m Y | 6.6.| I T &.&.| ,.1.3.1.2.6.w.w.w.3.<...) L P @./ e : &.t.9.t.w.:.:.3.",
"s.h.h.4.#.J z e 7 = r E *.@.E ( 8.9.9.8.&.,...| | _ V Q ( <.9.=.Y ! &.6.,.1.3.7.,.4.6.9.9.s.6.,.=.&.U x S / w 4 7.9.t.9.1.;.>.9.",
"b.s.9.9.<.! P z q = # r a u r x <.6.,.| ! | | &.| } _ ` / &.9.,.! I } ,.2.8.9.<.&.&.,.2.6.w.6.,.=.&.L e e l r r @.,.2.1.:.1.1.9.",
"1.:.2.s.2.Q N n C e = % o o X 3 S / U n S &.&.&.} | } [ ~ | 9.2.T v M / &.,.7.4.&.&.&.,.,.4.*.| &.R a ; $ 3 e h E | 8.9.3.1.:.1.",
">.1.2.h.,.` / U F s r 3 = > O + ; 7 w , a *.4.*.( } [ / / | 6.6.I p p v n I U ( | | &.&.&.<.( n I x e 7 p a p z R O.6.9.:.;.:.3.",
">.9.3.9.9.,.' / ( L s y 9 7 3 3 > # X o : R F D P ! } / / &.<.<.n w 7 y p i y x L n I ! | *.T p y w 6 8 i C D S U ! ,.s.1.1.1.8.",
"g.s.2.8.a.9.:...<.&.R S z p r r 7 = .   O 4 w 3 e n ! } } *.#.S p 3 2 3 3 ; 3 e e 7 i h ! ( v 7 > ; 5 5 i v / +.R ( ,.w.s.9.9.8.",
"M.9.9.8.3.9.:.3.9.8.4.#.^ J C s y 8 * . . . # $ ; y I &.( U a 3 3 > & % & = & 3 3 $ > 9 h D r - ; 9 6 0 f h I @.-.4.7.g.M.B.a.V.",
"9.3.1.:.2.a.2.9.v.s.9.2.<.$.J A a q 8 5 = 2 = % & 3 a G e > $ $ & = = * = = = 9 r e 7 3 y a 3 r p f i f h n / &.,.6.a.w.h.w.n.b.",
"1.>.;.:.1.9.9.9.s.1.1.a.9.6.( R D x i 9 9 r e 7 2 7 6 2 3 2 2 6 6 8 8 6 1 2 7 e y 9 q p y y p z C x h c S O.&.7.s.t.1.9.v.t.9.9.",
"2.;.;.;.2.t.g.w.1.1.9.2.8.8.w.*.( E Z d e t y e 9 q e e a p t i g j j f p z s p i i z g p h x S n G K o.@.| 7.a.9.3.9.g.n.9.1.2.",
":.>.;.;.3.t.8.8.9.2.1.2.3.8.1.:.&.&.X.H z l a e t f f z S S c k m ! V B I R S n S M b h h z c M L R O.$.<.6.w.9.3.1.>.8.s.9.2.>.",
":.a.w.>.9.a.s.g.2.;.2.>.1.8.2.2.1.2.,.&.R R M z z n c M X.~ ! Y Y *.*.' &.4.-.#.! V I c v n L / ! } | <.6.s.3.8.8.8.>.>.v.w.1.1.",
"1.9.h.b.V.N.V.h.9.t.9.2.9.t.3.:.;.:.>.1.6.w...Q Y ( &.&.5.*.&.&.| 6.s.h.N.M.M.i.2.7.&.T / @.&.] ] :.>.1.9.a.1.:.>.9.9.8.h.w.8.9.",
"t.s.8.h.b.a.h.g.h.M.b.a.t.a.t.>.:.:.:.:.3.2.2.:.1.>.2.b.N.N.g.w.w.a.8.h.b.a.h.g.h.M.h.7.6.a.9.:.:.:.:.:.3.2.2.:.1.>.3.b.N.Z.h.w."
};
