/* XPM */
static char *_2ca7adb8b94498daf94f2db4f0ae909uNPQJHIHV3W46gHb[] = {
/* columns rows colors chars-per-pixel */
"64 64 153 2 ",
"   c #3B89A6",
".  c #3E93B3",
"X  c #468BA5",
"o  c #4B8CA5",
"O  c #4792AE",
"+  c #4A93AE",
"@  c #5493AB",
"#  c #4394B2",
"$  c #4C96B2",
"%  c #4798B6",
"&  c #4C99B6",
"*  c #479DBC",
"=  c #4C9CBA",
"-  c #5296B0",
";  c #539BB5",
":  c #5F9FB7",
">  c #539DB9",
",  c #5C9FB8",
"<  c #609DB4",
"1  c #4FA0BE",
"2  c #56A1BE",
"3  c #5BA2BD",
"4  c #63A4BC",
"5  c #4EA2C1",
"6  c #53A5C3",
"7  c #5CA6C1",
"8  c #56A9C7",
"9  c #5CA9C5",
"0  c #56AAC9",
"q  c #5FACCA",
"w  c #63A7C0",
"e  c #64AAC5",
"r  c #6AACC5",
"t  c #63AEC9",
"y  c #69AFC9",
"u  c #72ADC4",
"i  c #64B1CE",
"p  c #6BB2CC",
"a  c #73B4CC",
"s  c #7AB6CD",
"d  c #7FB8CE",
"f  c #64B4D2",
"g  c #6CB6D2",
"h  c #6DB9D5",
"j  c #65BBDA",
"k  c #6FBDDA",
"l  c #72B7D1",
"z  c #73B9D4",
"x  c #7ABCD5",
"c  c #74BEDA",
"v  c #79BED9",
"b  c #75C1DD",
"n  c #7CC2DC",
"m  c #77C4E2",
"M  c #7CC6E2",
"N  c #7CC9E5",
"B  c #75C9E8",
"V  c #7ECEEB",
"C  c #82BDD4",
"Z  c #8BBFD3",
"A  c #8DC2D6",
"S  c #83C3DC",
"D  c #8BC5DC",
"F  c #8CC8DE",
"G  c #91C5DA",
"H  c #93C8DD",
"J  c #9ACADE",
"K  c #A1CCDE",
"L  c #83C6E1",
"P  c #89C7E0",
"I  c #84CAE4",
"U  c #8BCBE4",
"Y  c #84CEEA",
"T  c #8BCEE9",
"R  c #93CDE4",
"E  c #9ACEE3",
"W  c #91CFE8",
"Q  c #85D1EE",
"!  c #8CD1EC",
"~  c #97D0E7",
"^  c #9CD1E6",
"/  c #94D3EC",
"(  c #9BD5EC",
")  c #9ED8EE",
"_  c #86D3F0",
"`  c #8CD5F2",
"'  c #8ED8F4",
"]  c #8BDCFA",
"[  c #93D7F1",
"{  c #9AD7F0",
"}  c #95D9F4",
"|  c #9CDBF4",
" . c #92DDFA",
".. c #9DDEF9",
"X. c #A3D2E5",
"o. c #ABD5E6",
"O. c #A3D6EB",
"+. c #A8D6E8",
"@. c #A3D9EE",
"#. c #ACDAED",
"$. c #B2DDEE",
"%. c #A3DDF4",
"&. c #AADEF4",
"*. c #A3DFF8",
"=. c #B2DFF2",
"-. c #8DE0FF",
";. c #94E2FF",
":. c #9CE3FF",
">. c #A6E0F7",
",. c #ADE1F6",
"<. c #A4E5FE",
"1. c #ABE5FD",
"2. c #ADE8FF",
"3. c #B3E2F6",
"4. c #BAE3F4",
"5. c #B3E5FB",
"6. c #BAE6FA",
"7. c #B4E9FF",
"8. c #B8EBFF",
"9. c #BBEBFF",
"0. c #BDEBFF",
"q. c #BEEBFF",
"w. c #B9ECFF",
"e. c #BEECFE",
"r. c #C2E5F2",
"t. c #C0E5FB",
"y. c #C5EAFF",
"u. c #C0ECFF",
"i. c #C3EDFF",
"p. c #C4EDFF",
"a. c #C5EDFF",
"s. c #CAEBFF",
"d. c #CDEAFF",
"f. c #CAEFFF",
"g. c #CDEFFF",
"h. c #D2EEFD",
"j. c #D2EDFE",
"k. c #D0EFFF",
"l. c #D8EEFF",
"z. c #CBF0FF",
"x. c #CEF0FF",
"c. c #D1F1FF",
"v. c #D5F1FF",
"b. c #D9F3FF",
"n. c #DBF3FF",
"m. c #DAF4FF",
"M. c #DDF4FF",
"N. c #E3F5FE",
"B. c #E3F6FF",
"V. c #EAF7FD",
"C. c #EBF8FE",
"Z. c #F3FBFF",
"A. c #FEFFFF",
/* pixels */
"e.8.e.e.1.p.b.v.i.8.8.8.1.i.c.i.7.8.z.b.M.b.i.8.2.<.<.1.;.-.-.f.2.8.8.7.2.2.<.:.7.2.;.<.8.7.<.<.:.<.:.;.1.f.v.B.B.V.B.i.<.i.z.p.",
"<.<.8.p.f.c.c.i.8.7.8.2.:.e.x.8.<.<.2.8.x.c.i.2.7.1.<.<.;.<.<.w.w.2.7.i.0.i.0.1.8.7.<.<.8.8.1.;.:.1.7.8.p.b.b.v.v.v.b.7.1.f.z.8.",
"<.<.i.k.v.f.7.7.1.2.7.<.<.7.i.i.7.<.<.2.2.7.1.<.<.1.:.;.;.:.:.2.8.2.7.8.2.0.p.e.8.7.7.1.1.7.1.7.i.i.p.v.c.x.z.e.8.p.z.7.1.e.8.<.",
"<.<.p.v.g.2.:.8.7.2.8.7.<.<.e.p.8.:.8.8.<.<.<.<.2.1.;.;.-.;.<.i.8.1.e.8.:.8.e.8.7.8.i.0.0.0.8.f.v.x.p.f.z.8.<.8.f.f.i.7.<.<.<.<.",
"<.1.g.k.0.:.;.7.8.7.8.7.1.<.8.p.0.7.7.i.8.<.<.1.2.<.-.-.;.:.7.z.i.8.p.i.8.i.e.2.7.p.c.c.z.0.0.x.x.p.8.8.7.8.7.e.x.i.2.<.:.<.;.<.",
":.8.c.i.<.;.;.2.p.i.1.<.<.2.e.f.p.8.2.e.8.1.1.<.<.;.-.-.;.<.8.c.v.c.c.c.i.z.e.2.8.p.x.f.p.y.y.i.i.7.1.1.1.8.8.7.e.8.2.<.:.<.;.<.",
"<.i.c.w.;.-.:.8.i.8.<.;.<.8.8.p.i.8.7.2.<.1.2.:.;.;.;.<.7.i.x.b.M.M.c.x.p.e.e.8.8.8.8.8.k.k.l.k.2.<.<.2.2.1.<.:.7.8.2.<.<.:.;.<.",
"<.p.x.8.<.<.8.i.2.:.2.<.<.1.2.e.p.e.8.:.<.2.2.<.<.i.f.f.i.p.p.c.m.x.e.8.8.7.8.8.8.2.2.g.l.b.b.v.0.:.;.:.<.:.;.;.7.e.1.2.2.;.:.<.",
"<.i.i.<.8.p.p.i.8.2.7.2.:.;.2.f.v.g.0.7.8.e.0.2.8.c.v.p.8.7.:.8.8.<.:.;.<.8.8.8.8.0.p.d.l.l.b.b.y.i.e.<.;.;.-.:.8.8.2.8.7.;.:.1.",
"2.8.7.;.7.p.b.m.f.7.<.2.2.<.2.p.v.c.i.e.i.z.f.p.f.x.i.1.<.:.:.1.<.;.;.-.;.2.g.s.d.g.i.d.l.b.l.k.6.5.m.f.2.;.;.2.8.8.8.7.<.:.2.8.",
"8.8.7.<.2.0.v.M.b.f.8.2.2.8.8.7.i.p.i.i.e.x.g.i.e.7.:.;.;.;.2.7.;.:.<.:.1.i.y.d.k.s.s.k.b.b.b.y.&.3.f.v.b.x.x.z.7.1.e.7.;.<.e.e.",
"p.f.7.2.<.1.8.e.p.x.b.p.2.8.7.:.1.8.e.8.7.p.c.i.<.;.;.-.;.<.7.7.<.<.1.7.y.s.d.k.k.v.b.b.b.l.k.6.&.>.8.f.M.B.B.M.e.8.p.i.8.0.f.8.",
"b.v.8.<.:.;.;.:.<.8.g.x.f.i.2.:.<.8.7.:.<.i.v.c.1.;.;.:.<.<.8.8.<.<.0.6.6.s.s.c.v.b.b.b.b.g.t.6.&.&.8.7.e.x.c.c.8.8.p.i.g.x.v.v.",
"B.c.7.:.:.<.:.;.;.<.8.p.v.v.0.8.2.7.7.<.<.7.x.b.e.;.<.1.<.<.7.2.:.0.5.&.3.g.p.c.b.b.b.b.f.6.5.=.%.{ 6.2.0.8.7.2.8.8.8.0.g.b.b.B.",
"B.f.<.<.<.:.;.;.;.2.8.7.p.v.c.f.8.2.2.7.2.<.e.c.f.8.7.2.1.7.8.1.8.,.( ( p.i.i.v.b.b.b.v.y.6.3.%.%.%.5.8.0.8.2.2.e.p.e.e.c.b.b.B.",
"v.7.<.<.;.;.;.-.;.1.1.<.2.e.x.x.e.8.w.p.i.7.2.p.x.c.p.0.e.e.i.0.3.| ~ 3.g.x.c.v.v.v.v.v.g.5.%.{ ( &.,.7.8.e.p.g.f.p.x.m.b.v.v.M.",
"f.0.<.;.;.-.-.;.<.1.:.;.:.p.b.c.f.p.p.f.i.i.0.i.f.i.i.0.6.,.,.5.,.%.( 5.g.v.c.c.g.p.g.v.g.3.%.( ( %.( >.8.p.x.b.c.f.c.B.B.v.c.z.",
"c.i.1.:.:.;.;.;.<.:.;.;.1.z.M.c.f.g.f.e.0.c.b.x.f.p.0.0.6.3.&.&.&.| } 5.f.k.x.f.f.p.g.k.f.3.&.%.( ( / ,.i.p.x.g.i.z.c.v.b.c.c.v.",
"c.1.<.<.<.<.;.:.:.;.<.1.7.f.v.x.e.p.f.e.e.g.i.x.g.i.x.c.p.g.f.0.6.3.5.i.p.c.g.p.p.f.g.c.f.6.,.&.~ ! @.3.i.e.8.7.8.8.p.f.c.v.b.M.",
"f.2.:.;.:.:.;.:.:.1.8.p.i.8.0.p.p.8.e.f.e.e.x.f.p.p.c.x.x.g.g.6.6.t.i.f.f.f.i.8.0.0.i.i.3.%.4.&.I L ( &.2.7.7.e.f.8.0.x.c.b.v.v.",
"f.p.2.;.;.;.;.:.7.e.x.f.i.7.7.p.g.p.p.f.i.f.g.f.p.f.f.x.x.i.i.5.5.6.i.c.c.i.8.1.%.,.6.3.( T @.( n n R | ;.<.i.f.p.8.e.g.p.w.i.p.",
"e.z.f.i.7.1.<.2.8.i.i.e.8.7.i.p.p.f.f.8.e.x.p.p.i.i.g.c.g.p.0.&.%.3.0.f.f.p.i.6.( ~ @.@.U n P P z v R ' :.8.e.e.8.8.8.i.7.<.2.8.",
"2.p.c.m.b.b.b.x.i.8.2.7.8.i.p.i.8.i.e.8.f.f.f.p.e.x.c.x.p.f.t.&.%.3.0.p.i.i.i.i.&.U R ( S z S R z x R [ 7.w.7.2.7.8.7.8.p.p.i.7.",
"7.8.p.v.V.V.B.M.x.8.1.<.8.f.p.8.2.7.i.i.p.i.i.8.8.g.c.B.A.A.A.A.A.A.A.A.V.i.i.p.&.U U F S x x A l h U %.8.2.<.1.7.2.1.7.p.x.i.8.",
"1.7.7.f.v.b.b.v.p.8.7.7.0.p.e.8.1.7.i.i.i.8.p.i.p.c.g.m.Z.Z.C.V.V.B.Z.A.b.5.i.0.>.P S S n v l z z z D | 2.<.<.2.8.1.2.7.2.2.<.:.",
"<.8.e.e.i.x.c.f.i.e.e.e.8.e.e.8.7.7.,.5.8.p.8.0.x.v.c.0.i.i.5.%.@.,.A.C.%.| 1.5.%.I n v v g p z z z R Y ;.<.7.1.1.7.8.8.<.;.-.;.",
"8.2.8.8.2.8.e.8.8.e.p.x.w.8.8.8.8.,.| | ,.i.0.0.x.v.g.i.0.i.5.} / V.A.0.&.| *.5.%.I n n v h l z z S ( n :.8.2.:.:.7.8.1.<.<.<.8.",
"<.;.<.<.<.7.8.7.7.8.c.x.7.1.1.<.1.%./ ! ) 3.>.8.p.g.0.0.0.6.>.[ 4.A.k.6.3.| ( | %.T ! ! Y b n x z n %.I 1.7.:.-.:.2.8.7.2.2.<.2.",
"-.;.;.;.;.2.7.7.8.e.v.c.:.<.:.-.%.%.Y N T | } | 7.7.1.,.>.| / / Z.A.,.0.5.,.! ` >.%.} } } Y L S b L %.( 1.:.-.;.<.8.8.8.2.<.;.;.",
"-.;.;.;.;.:.:.:.7.p.v.f.2.<.;. .&.,.T I ~ / ! / %...} / ! Y I 4.A.k.5.8.5.5.| ! ..,.| } | / M P I Y &.=.f.i.i.p.p.p.p.i.8.1.;.-.",
"-.<.;.;.;.;.;.;.<.f.x.0.7.<. .| &.&.! / W T Y / %.| U n M b b C.A.,.2.i.f.7.,.} | %.} ! [ | T U ~ ! %.$.v.v.x.c.c.g.f.x.p.8.2.-.",
";.<.<.;.;.<.:.;.e.c.p.7.8.<.5.4.&.O.) / P T I ! %.| U n c h R A.B.5.0.i.i.7.<.1.%.} ` I ! %.! R ( } 3.4.k.p.8.8.7.1.7.i.i.7.2.-.",
"2.e.i.c.8.8.7.p.2.i.v.8.1.>.3.f.3.O.@.O.~ U n I ( %.O.U n b r.A.k.p.i.8.8.i.<.>.5.:.' I Y %.[ ( &.%.5.| 7.:.8.:.<.<.p.b.M.g.8.p.",
"<.f.p.2.2.7.<.i.1.2.1.<.1.%.5.f.0.%.( / R I U / { ,.&.| ! I V.A.t.g.i.8.0.0.1.>.6.<.' I ! %.} %.&.%.3.O.8.8.8.8.f.f.f.8.p.8.2.<.",
"1.g.<.<.e.2.<.i.8.8.2.<.<.O.%.5.i.6.%.( ~ ( %.| [ | %.5.,.%.A.V.0.p.p.8.e.0.>.| >.1. .! ' *. .%.%.%.5.%.0.x.i.i.i.2.7.8.i.<.<.:.",
"7.p.;.7.7.<.1.8.e.1.<.<.| O.@.%.,.8.6.3.%.| | / ! } 5.0.f.k.A.M.0.1.<.8.i.8.%.} | 8.<.' } %.| | &.>.5.@.8.<.8.p.1.<.<.;.8.1.<.:.",
"7.2.0.g.8.2.<.8.c.8.i.e.O.( R R ( >.,.&.>.>.3.| / | 0.f.k.b.A.M.0.2.8.8.0.>.' / | 6.0.%.} %.| ' | >.| R 7.;.;.7.x.i.:.:.8.7.<.1.",
"0.2.2.f.x.i.7.2.8.0.i.p.O.( ( ~ | 2.5.,.*.5.t.3.%.%.8.f.f.B.A.b.i.i.i.7.5.| Y I ( 5.i.6.,.%.>.} } ,.( R 2.;.1.8.i.g.b.v.8.e.1.i.",
"b.1.:.;.<.p.g.2.2.1.2.4.&.&.&./ } 7.0.5.>.8.i.5.>.<.2.i.i.6.0.5.2.p.p.1.>.| Y L / >.i.5.5.8.0.1.*.,.3.L 5.1.:.1.8.2.i.e.8.0.c.b.",
"g.<.;.;.<.2.i.x.8.8.,.3.6.5.%.! | 5.6.&.5.8.8.7.<.:.8.0.6.6.1.:.>.7.0.>.| [ Y M / >.i.5.>.7.0.8.5.6.5.W #.8.;.<.0.8.8.8.p.f.v.M.",
"p.<.;.;.<.;.8.v.f.p.#.3.6.,./ Y | ,.%.| 5.0.0.8.<.1.7.7.5.6.>.>.1.1.,.| ' Y M M Y } 6.1.>.>.1.,.,.6.5.%.( 8.;.2.8.8.i.c.f.v.b.c.",
"0.:.:.;.:.7.0.f.e.=.&.%.%.%.~ ! %.| / | 5.i.i.8.5.1.<.1.7.1.>.*.| } / ( Y M b b N ' >...| / ( { | 5.2.%.F i.1.8.x.p.8.8.8.p.v.b.",
"p.8.<.<.8.p.8.0.4.#.&./ %.&.| &.3.*.>.>.5.0.8.2.5.,...| 2.8.1.>.,.%.! T S z z z M [ %.` ! I L T ! &.>.~ F 5.8.8.p.<.<.i.8.i.7.8.",
"8.c.B.b.e.1.e.0.=.3.( W %.5.,.,.7.5.8.7.,.>.%.>.1.>.%.[ :.7.7.<...%.{ Y n x z n V | | ! Y N n L ! %.%.U U @.f.0.<.<.8.1.7.7.p.8.",
"2.0.c.c.e.8.0.#.6.>./ ( 5.6.&.%.>.7.2.8.>._ Y | %...%./ | 2.2.<...| %.{ N S x N [ <.1.| { _ N M ( %.| U S E 1.7.8.1.<.1.2.7.<.;.",
"<.2.2.8.8.g.%.=.5./ / %.6.3.( | %.>.>.5.,.Q N ! [ ' ! [ ..5.8.1.>.| ..%.I M I } >.1.8.8.2.>.! M / %.( R S G #.f.<.-.1.:.<.7.1.2.",
"-.;.:.<.8.o.A =.( C C %.1.>.%.%.%.%.,.5.,.' Y I Y Y I [ >.5.0.<.| %.>.%.I M / ,.7.<.8.7.7.7.%.! | %.I R ( H X.g.8.e.8.1.8.e.2.;.",
";.;.;.;.&.4 s C a u D ,.,.*.*.5.>.%.,.1.8.*.` I I N Y ` } ,.5.>.| %.5.>.! ! %.7.<.1.7.8.0.5.%.( %.[ v F 3.R A =.g.b.c.i.e.i.e.:.",
"7.8.8.>.#.r @ < < u / ,.>.%.,.6.%.,.5.2.2.| ! ! T m m Y [ >.1.| ! / 3.>.| | <.7.2.1.7.0.0.8.&.| %./ v D 4.( d C 2.i.v.p.i.<.;.2.",
"2.8.2.3.( x > - @ u R ,.,.,.3.3.>.,.7.2.2.%.[ ' [ V m Y | 5.5.| I T %.%.| >.<.2.<.1.5.0.0.0.2.,...) L P @./ e : %.e.8.e.0.;.;.2.",
"p.g.g.3.#.J z e 7 = r E &.@.E ( 7.8.8.7.%.>...| | _ V Q ( ,.8.*.Y ! %.5.>.<.2.6.>.3.5.8.8.p.5.>.*.%.U x S / w 4 6.8.e.8.<.-.:.8.",
"c.p.8.8.,.! P z q = # r a u r x ,.5.>.| ! | | %.| } _ ` / %.8.>.! I } >.1.7.8.,.%.%.>.1.5.0.5.>.*.%.L e e l r r @.>.1.<.;.<.<.8.",
"<.;.1.p.1.Q N n C e = % o o X 3 S / U n S %.%.%.} | } [ ~ | 8.1.T v M / %.>.6.3.%.%.%.>.>.3.&.| %.R a ; $ 3 e h E | 7.8.2.<.;.<.",
":.<.1.g.>.` / U F s r 3 = > O + ; 7 w , a &.3.&./ } [ / / | 5.5.I p p v n I U ( | | %.%.%.,.( n I x e 7 p a p z R O.5.8.;.-.;.2.",
":.8.2.8.8.>.' / ( L s y 9 7 3 3 > # X o : R F D P ! } / / %.,.,.n w 7 y p i y x L n I ! | &.T p y w 6 8 i C D S U ! >.p.<.<.<.7.",
"f.p.1.7.i.8.;...,.%.R S z p r r 7 = .   O 4 w 3 e n ! } } &.#.S p 3 2 3 3 ; 3 e e 7 i h ! ( v 7 > ; 5 5 i v / +.R ( >.0.p.8.8.7.",
"b.8.8.7.2.8.;.2.8.7.3.#.^ J C s y 8 * . . . # $ ; y I %.( U a 3 3 > & % & = & 3 3 $ > 9 h D r - ; 9 8 0 f h Y @.=.3.6.f.b.m.i.M.",
"8.2.<.;.1.i.1.8.x.p.8.1.,.#.J A a q 8 5 = 2 = % & 3 a G e > $ $ & = = * = = = 9 r e 7 3 y a 3 r p f i f g n / %.>.5.i.0.g.0.v.c.",
"<.:.-.;.<.8.8.8.p.<.<.i.8.5.( R D x i 9 9 r e 7 2 7 6 2 3 7 2 6 6 8 8 8 1 2 7 e y 9 q p y y p z C x h c S O.%.6.p.e.<.8.x.e.8.8.",
"1.-.-.-.1.e.f.0.<.<.8.1.7.7.0.&.( E Z d e t y e 9 q e e a p t i g j j f p z s p i i z g p p x S n G K o.@.| 6.i.8.2.8.f.v.8.<.1.",
";.:.-.-.2.e.7.7.8.1.<.1.2.7.<.;.%.%.X.H z l a e t f f z S S c k m ! V B I R S n S M b h h z c M L R O.$.,.5.0.8.2.<.:.7.p.8.1.:.",
";.i.0.:.8.i.p.f.1.-.1.:.<.7.1.2.<.1.>.%.R R M z z n c M X.~ ! Y Y &.&.' %.3.=.#.! V I c v n L / ! } | ,.5.p.2.7.7.7.:.:.x.0.<.<.",
"<.8.g.c.M.b.M.g.8.e.8.1.8.e.2.;.-.;.:.<.5.0...Q Y ( %.%.4.&.%.%.| 5.p.g.b.b.b.p.1.6.%.T / @.%.] ] ;.:.<.8.i.<.;.:.8.8.7.g.0.7.8.",
"e.p.7.g.c.i.g.f.g.b.c.i.e.i.e.:.;.;.;.;.2.1.1.;.<.:.1.c.b.b.f.0.0.i.2.g.c.i.g.f.g.b.g.6.5.i.8.;.;.;.;.;.2.1.1.;.<.:.2.c.b.B.g.0."
};
