/* XPM */
static char *e374ab1b5d9c4230cdd8e4f0a706dc26boxCjfLKSrWEj8Zl[] = {
/* columns rows colors chars-per-pixel */
"64 64 155 2 ",
"   c #3B89A6",
".  c #3E93B3",
"X  c #468BA5",
"o  c #4B8CA5",
"O  c #4792AE",
"+  c #4A93AE",
"@  c #5493AB",
"#  c #4394B2",
"$  c #4C96B2",
"%  c #4798B6",
"&  c #4C99B6",
"*  c #479DBC",
"=  c #4C9CBA",
"-  c #5296B0",
";  c #539BB5",
":  c #5F9FB7",
">  c #539DB9",
",  c #5C9FB8",
"<  c #609DB4",
"1  c #4FA0BE",
"2  c #56A1BE",
"3  c #5BA2BD",
"4  c #63A4BC",
"5  c #4EA2C1",
"6  c #53A5C3",
"7  c #5CA6C1",
"8  c #56A9C7",
"9  c #5CA9C5",
"0  c #56AAC9",
"q  c #5FACCA",
"w  c #63A7C0",
"e  c #64AAC5",
"r  c #6AACC5",
"t  c #63AEC9",
"y  c #69AFC9",
"u  c #72ADC4",
"i  c #64B1CE",
"p  c #6BB2CC",
"a  c #73B4CC",
"s  c #7AB6CD",
"d  c #7FB8CE",
"f  c #64B4D2",
"g  c #6CB5D1",
"h  c #6DB9D5",
"j  c #65BBDA",
"k  c #6FBDDA",
"l  c #72B7D1",
"z  c #73B9D3",
"x  c #7ABCD5",
"c  c #74BEDA",
"v  c #79BED9",
"b  c #75C1DD",
"n  c #7DC2DC",
"m  c #77C4E2",
"M  c #7BC6E2",
"N  c #7CC9E5",
"B  c #75C9E8",
"V  c #7ECEEB",
"C  c #82BDD4",
"Z  c #8BBFD3",
"A  c #8DC2D6",
"S  c #83C3DC",
"D  c #8BC5DC",
"F  c #8CC8DE",
"G  c #91C5DA",
"H  c #93C8DD",
"J  c #9ACADE",
"K  c #A1CCDE",
"L  c #83C6E1",
"P  c #89C7E0",
"I  c #84CAE4",
"U  c #8BCBE4",
"Y  c #85CEEA",
"T  c #8BCEE9",
"R  c #93CDE4",
"E  c #9ACEE3",
"W  c #91CFE8",
"Q  c #85D1EE",
"!  c #8CD1EC",
"~  c #97D0E7",
"^  c #9BD1E6",
"/  c #94D3EC",
"(  c #9BD5EC",
")  c #9ED8EE",
"_  c #86D3F0",
"`  c #8CD5F2",
"'  c #8ED8F4",
"]  c #8BDCFA",
"[  c #93D7F1",
"{  c #9AD7F0",
"}  c #95D9F4",
"|  c #9CDBF4",
" . c #92DDFA",
".. c #9DDEF9",
"X. c #A3D2E5",
"o. c #ABD5E6",
"O. c #A3D6EB",
"+. c #A8D6E8",
"@. c #A3D9EE",
"#. c #ACDAED",
"$. c #B2DDEE",
"%. c #A3DDF4",
"&. c #AADEF3",
"*. c #A3DFF8",
"=. c #B2DFF2",
"-. c #8DE0FF",
";. c #94E2FF",
":. c #9CE3FF",
">. c #A6E0F7",
",. c #ADE1F6",
"<. c #A4E5FE",
"1. c #ABE5FD",
"2. c #ADE8FF",
"3. c #B3E2F6",
"4. c #BAE4F5",
"5. c #B3E5FB",
"6. c #BAE6FA",
"7. c #B4E9FF",
"8. c #B8EBFF",
"9. c #BBEAFF",
"0. c #BBEBFF",
"q. c #BDEBFF",
"w. c #BEEBFF",
"e. c #B9ECFF",
"r. c #BEECFE",
"t. c #CAE7F3",
"y. c #C6E9F6",
"u. c #C0E5FB",
"i. c #C5EAFF",
"p. c #C0ECFF",
"a. c #C3EDFF",
"s. c #C4EDFF",
"d. c #CAEBFF",
"f. c #CDEAFF",
"g. c #CBEEFF",
"h. c #CAEFFF",
"j. c #CDEFFF",
"k. c #D8ECF4",
"l. c #D0EFFF",
"z. c #D2EEFF",
"x. c #D8EEFF",
"c. c #CBF0FF",
"v. c #CEF0FF",
"b. c #D1F1FF",
"n. c #D5F1FF",
"m. c #D9F3FF",
"M. c #DBF3FE",
"N. c #DAF4FF",
"B. c #DDF4FF",
"V. c #E0F1F7",
"C. c #E3F6FF",
"Z. c #E9F7FE",
"A. c #ECF9FF",
"S. c #F5FBFE",
"D. c #FEFFFF",
/* pixels */
"r.8.r.r.1.s.m.n.a.8.8.8.1.a.b.a.7.8.c.m.B.m.a.8.2.<.<.1.;.-.-.h.2.8.8.7.2.2.<.:.7.2.;.<.8.7.<.<.:.<.:.;.1.h.n.C.C.Z.C.a.<.a.c.s.",
"<.<.8.s.h.b.b.a.8.7.8.2.:.r.v.8.<.<.2.8.v.b.a.2.7.1.<.<.;.<.<.e.e.2.7.a.q.a.q.1.8.7.<.<.8.8.1.;.:.1.7.8.s.m.m.n.n.n.m.7.1.h.c.8.",
"<.<.a.l.n.h.7.7.1.2.7.<.<.7.a.a.7.<.<.2.2.7.1.<.<.1.:.;.;.:.:.2.8.2.7.8.2.q.s.r.8.7.7.1.1.7.1.7.a.a.s.n.b.v.c.r.8.s.c.7.1.r.8.<.",
"<.<.s.n.j.2.:.8.7.2.8.7.<.<.r.s.8.:.8.8.<.<.<.<.2.1.;.;.-.;.<.a.8.1.r.8.:.8.r.8.7.8.a.q.q.q.8.h.n.v.s.h.c.8.<.8.h.h.a.7.<.<.<.<.",
"<.1.j.l.q.:.;.7.8.7.8.7.1.<.8.s.q.7.7.a.8.<.<.1.2.<.-.-.;.:.7.c.a.8.s.a.8.a.r.2.7.s.b.b.c.q.q.v.v.s.8.8.7.8.7.r.v.a.2.<.:.<.;.<.",
":.8.b.a.<.;.;.2.s.a.1.<.<.2.r.h.s.8.2.r.8.1.1.<.<.;.-.-.;.<.8.b.n.b.b.b.a.c.r.2.8.s.v.h.s.i.i.a.a.7.1.1.1.8.8.7.r.8.2.<.:.<.;.<.",
"<.a.b.e.;.-.:.8.a.8.<.;.<.8.8.s.a.8.7.2.<.1.2.:.;.;.;.<.7.a.v.m.B.B.b.v.s.r.r.8.8.8.8.8.l.l.x.l.2.<.<.2.2.1.<.:.7.8.2.<.<.:.;.<.",
"<.s.v.8.<.<.8.a.2.:.2.<.<.1.2.r.s.r.8.:.<.2.2.<.<.a.h.h.a.s.s.b.N.v.r.8.8.7.8.8.8.2.2.j.x.m.m.n.q.:.;.:.<.:.;.;.7.r.1.2.2.;.:.<.",
"<.a.a.<.8.s.s.a.8.2.7.2.:.;.2.h.n.j.q.7.8.r.q.2.8.b.n.s.8.7.:.8.8.<.:.;.<.8.8.8.8.q.s.f.x.x.m.m.i.a.r.<.;.;.-.:.8.8.2.8.7.;.:.1.",
"2.8.7.;.7.s.m.N.h.7.<.2.2.<.2.s.n.b.a.r.a.c.h.s.h.v.a.1.<.:.:.1.<.;.;.-.;.2.j.d.f.j.a.f.x.m.x.l.6.5.N.h.2.;.;.2.8.8.8.7.<.:.2.8.",
"8.8.7.<.2.q.n.B.m.h.8.2.2.8.8.7.a.s.a.a.r.v.j.a.r.7.:.;.;.;.2.7.;.:.<.:.1.a.i.f.l.d.d.l.m.m.m.y.&.3.h.n.m.v.v.c.7.1.r.7.;.<.r.r.",
"s.h.7.2.<.1.8.r.s.v.m.s.2.8.7.:.1.8.r.8.7.s.b.a.<.;.;.-.;.<.7.7.<.<.1.7.i.d.f.l.l.n.m.m.m.x.l.6.&.>.8.h.B.C.C.B.r.8.s.a.8.q.h.8.",
"m.n.8.<.:.;.;.:.<.8.j.v.h.a.2.:.<.8.7.:.<.a.n.b.1.;.;.:.<.<.8.8.<.<.q.8.6.d.d.b.n.m.m.m.m.j.u.3.&.&.8.7.r.v.b.b.8.8.s.a.j.v.n.n.",
"C.b.7.:.:.<.:.;.;.<.8.s.n.n.q.8.2.7.7.<.<.7.v.m.r.;.<.1.<.<.7.2.:.q.5.&.3.j.s.b.m.m.m.m.h.6.3.=.%.{ 8.2.q.8.7.2.8.8.8.q.j.m.m.C.",
"C.h.<.<.<.:.;.;.;.2.8.7.s.n.b.h.8.2.2.7.2.<.r.b.h.8.7.2.1.7.8.1.8.,.( ( i.a.a.n.m.m.m.n.i.8.3.%.%.%.5.8.q.8.2.1.r.s.r.r.b.m.m.C.",
"n.7.<.<.;.;.;.-.;.1.1.<.2.r.v.v.r.8.e.s.a.7.2.s.v.b.s.q.r.r.a.q.3.| ~ 3.j.v.b.n.n.n.n.n.j.5.%.{ ( &.,.7.8.r.s.h.h.s.v.N.m.n.n.B.",
"h.q.<.;.;.-.-.;.<.1.:.;.:.s.m.b.h.s.s.h.a.a.q.a.h.a.a.q.6.,.,.5.,.%.( 5.j.n.b.b.j.s.j.n.j.3.%.( ( %.( >.8.s.v.m.b.h.b.C.C.n.b.c.",
"b.a.1.:.:.;.;.;.<.:.;.;.1.c.B.b.h.j.h.r.q.b.m.v.h.s.q.q.6.3.&.&.&.| } 5.h.l.v.h.h.s.j.l.h.3.&.%.( ( / ,.a.s.v.j.a.c.b.n.m.b.b.n.",
"b.1.<.<.<.<.;.:.:.;.<.1.7.h.n.v.r.s.h.r.r.j.a.v.j.a.v.b.s.j.h.q.6.3.5.a.s.b.j.s.s.h.j.b.h.6.,.&.~ ! @.3.a.r.8.7.8.8.s.h.b.n.m.B.",
"h.2.:.;.:.:.;.:.:.1.8.s.a.8.q.s.s.8.r.h.r.r.v.h.s.s.b.v.v.j.j.6.6.u.a.h.h.h.a.8.q.q.a.a.3.%.4.&.I L ( &.2.7.7.r.h.8.q.v.b.m.n.n.",
"h.s.2.;.;.;.;.:.7.r.v.h.a.7.7.s.j.s.s.h.a.h.j.h.s.h.h.v.v.a.a.5.5.6.a.b.b.a.8.1.%.,.6.3.( T @.( n n R | ;.<.a.h.s.8.r.j.s.e.a.s.",
"r.c.h.a.7.1.<.2.8.a.a.r.8.7.a.s.s.h.h.8.r.v.s.s.a.a.j.b.j.s.q.&.%.3.q.h.h.s.a.6.( ~ @.@.U n P P z v R ' :.8.r.r.8.8.8.a.7.<.2.8.",
"2.s.b.N.m.m.m.v.a.8.2.7.8.a.s.a.8.a.r.8.h.h.h.s.r.v.b.v.s.h.u.&.%.3.q.s.a.a.a.a.&.U R ( S z S R z x R [ 7.e.7.2.7.8.7.8.s.s.a.7.",
"7.8.s.n.Z.Z.C.B.v.8.1.<.8.h.s.8.2.7.a.a.s.a.a.8.8.j.b.s.q.n.A.D.D.Z.h.q.q.a.a.s.&.U U F S x x A l h U %.8.2.<.1.7.2.1.7.s.v.a.8.",
"1.7.7.h.n.m.m.n.s.8.7.7.q.s.r.8.1.7.a.a.a.q.s.a.s.b.j.r.n.D.D.m.m.D.D.i.3.5.a.q.>.P S S n v l z z z D | 1.<.<.2.8.1.2.7.2.2.<.:.",
"<.8.r.r.a.v.b.h.a.r.r.r.8.r.r.8.7.7.,.5.8.s.8.q.v.n.b.q.D.D.q.%.@.,.D.S.%...1.5.%.I n v v g p z z z R Y ;.<.7.1.1.7.8.8.<.;.-.;.",
"8.2.8.8.2.8.r.8.8.r.s.v.e.8.8.8.8.,.| | ,.a.q.q.v.n.j.s.D.A.5.} / / C.D.3.| *.5.%.I n n v h l z z S ( n :.8.2.:.:.7.8.1.<.<.<.8.",
"<.;.<.<.<.7.8.7.7.8.b.v.7.1.1.<.1.%./ ! ) 3.>.8.s.j.q.q.D.S.>.[ T T S.D.3.| ( | %.T ! ! Y b n x z n %.I 1.7.:.-.:.2.8.7.2.2.<.2.",
"-.;.;.;.;.2.7.7.8.r.n.b.:.<.:.-.%.%.Y N T | } | 7.7.1.,.B.D.m.&.@.m.D.m.5.,.! ` >.%.} } } Y L S b L %.( 1.:.-.;.<.8.8.8.2.<.;.;.",
"-.;.;.;.;.:.:.:.7.s.n.h.2.<.;. .&.,.T I ~ / ! / %...} / ! y.D.D.D.D.m.8.5.5.| ! ..,.| } | / M P I Y &.=.h.a.a.s.s.s.s.a.8.1.;.-.",
"-.<.;.;.;.;.;.;.<.h.v.q.7.<. .| &.&.! / W T Y / %.| U n #.S.V.4.y.A.D.C.h.7.,.} | %.} ! [ | T U ~ ! %.$.n.n.v.b.b.j.h.v.s.8.2.-.",
";.<.<.;.;.<.:.;.r.b.s.7.8.<.5.4.&.O.) / P T I ! %.| U R D.k.b ! ,.5.A.D.b.7.<.1.%.} ` I ! %.! R ( } 3.4.l.s.8.8.7.1.7.a.a.7.2.-.",
"2.r.a.b.8.8.7.s.2.a.n.8.1.>.3.h.3.O.@.O.~ U n I ( %.O.t.D.~ m T 4.s.b.D.C.a.<.>.5.:.' I Y %.[ ( &.%.5.| 7.:.8.:.<.<.s.m.B.j.8.s.",
"<.h.s.2.2.7.<.a.1.2.1.<.1.%.5.h.q.%.( / R I U / { ,.&.m.D.~ M ! q.j.h.D.Z.q.1.>.6.<.' I ! %.} %.&.%.3.O.8.8.8.8.h.h.h.8.s.8.2.<.",
"1.j.<.<.r.2.<.a.8.8.2.<.<.O.%.5.a.6.%.( ~ ( %.| [ | %.m.D.4.( >.q.s.n.D.C.q.>.| >.1. .! ' *. .%.%.%.5.%.q.v.a.a.a.2.7.8.a.<.<.:.",
"7.s.;.7.7.<.1.8.r.1.<.<.| O.@.%.,.8.6.3.%.| | / ! } 5.h.D.S.u.8.q.2.A.D.j.8.%.} | 8.<.' } %.| | &.>.5.@.8.<.8.s.1.<.<.;.8.1.<.:.",
"7.2.q.j.8.2.<.8.b.8.a.r.O.( R R ( >.,.&.>.>.3.| / | q.h.Z.D.D.Z.C.S.D.B.q.>.' / | 6.q.%.} %.| ' | >.| R 7.;.;.7.v.a.:.:.8.7.<.1.",
"q.2.2.h.v.a.7.2.8.q.a.i.O.( ( ~ | 2.5.,.*.5.u.3.%.%.8.h.h.n.S.D.D.S.n.7.5.| Y I ( 5.a.6.,.%.>.} } ,.( R 2.;.1.8.a.j.m.n.8.r.1.a.",
"m.1.:.;.<.s.j.2.2.1.2.3.&.&.&./ } 7.q.5.>.8.a.5.>.<.2.a.a.6.q.5.2.s.s.1.>.| T L / >.a.5.5.8.q.1.*.,.3.L 5.1.:.1.8.2.a.r.8.q.b.m.",
"j.<.;.;.<.2.a.v.8.8.,.3.6.5.%.! | 5.6.&.5.8.8.7.<.:.8.q.6.6.1.:.>.7.q.>.| [ Y M / >.a.5.>.7.q.8.5.6.5.W #.8.;.<.q.8.8.8.s.h.n.B.",
"s.<.;.;.<.;.8.n.h.s.#.3.6.,./ Y | ,.%.| 5.q.q.8.<.1.7.7.5.6.>.>.1.1.,.| ' Y M M Y } 6.1.>.>.1.,.,.6.7.%.( 8.;.2.8.8.a.b.h.n.m.b.",
"q.:.:.;.:.7.q.h.r.=.&.%.%.%.~ ! %.| / | 5.a.a.8.5.1.<.1.7.1.>.*.| } / ( Y M b b N ' >...| / ( { | 5.2.%.F a.1.8.v.s.8.8.8.s.n.m.",
"s.8.<.<.8.s.8.q.4.#.&./ %.&.| &.3.*.>.>.5.q.8.2.5.,...| 2.8.1.>.,.%.! T S z z z M [ %.` ! I L T ! &.>.~ F 5.8.8.s.<.<.a.8.a.7.8.",
"8.b.C.m.r.1.r.q.=.3.( W %.5.,.,.7.5.8.7.,.>.%.>.1.>.%.[ :.7.7.<...%.{ Y n x z n V | | ! Y N n L ! %.%.U U @.h.q.<.<.8.1.7.7.s.8.",
"2.q.b.b.r.8.q.#.6.>./ ( 5.6.&.%.>.7.2.8.>._ Y | %...%./ | 2.2.<...| %.{ N S x N [ <.1.| { _ N M ( %.| U S E 1.7.8.1.<.1.2.7.<.;.",
"<.2.2.8.8.j.%.=.5./ / %.6.3.( | %.>.>.5.,.Q N ! [ ' ! [ ..5.8.1.>.| ..%.I M I } >.1.8.8.2.>.! M / %.( R S G #.h.<.-.1.:.<.7.1.2.",
"-.;.:.<.8.o.A =.( C C %.1.>.%.%.%.%.,.5.,.' Y I Y Y I [ >.5.q.<.| %.>.%.I M / ,.7.<.8.7.7.7.%.! | %.I R ( H X.j.8.r.8.1.8.r.2.;.",
";.;.;.;.&.4 s C a u D ,.,.*.*.5.>.%.,.1.8.*.` I I N Y ` } ,.5.>.| %.5.>.! ! %.7.<.1.7.8.q.5.%.( %.[ v F 3.R A =.j.m.b.a.r.a.r.:.",
"7.8.8.>.#.r @ < < u / ,.>.%.,.6.%.,.5.2.2.| ! ! T m m Y [ >.1.| ! / 3.>.| | <.7.2.1.7.q.q.8.&.| %./ v D 3.( d C 2.a.n.s.a.<.;.2.",
"2.8.2.3.( x > - @ u R ,.,.,.3.3.>.,.7.2.2.%.[ ' [ V m Y | 5.5.| I T %.%.| >.<.2.<.1.5.q.q.q.2.,...) L P @./ e : %.r.8.r.q.;.;.2.",
"s.j.j.3.#.J z e 7 = r E &.@.E ( 7.8.8.7.%.>...| | _ V Q ( ,.8.*.Y ! %.5.>.<.2.6.>.3.5.8.8.s.5.>.*.%.U x S / w 4 6.8.r.8.<.-.:.8.",
"b.s.8.8.,.! P z q = # r a u r x ,.5.>.| ! | | %.| } _ ` / %.8.>.! I } >.1.7.8.,.%.%.>.1.5.q.5.>.*.%.L e e l r r @.>.1.<.;.<.<.8.",
"<.;.1.s.1.Q N n C e = % o o X 3 S / U n S %.%.%.} | } [ ~ | 8.1.T v M / %.>.6.3.%.%.%.>.>.3.&.| %.R a ; $ 3 e h E | 7.8.2.<.;.<.",
":.<.1.j.>.` / U F s r 3 = > O + ; 7 w , a &.3.&./ } [ / / | 5.5.I p p v n I U ( | | %.%.%.,.( n I x e 7 p a p z R O.5.8.;.-.;.2.",
":.8.2.8.8.>.' / ( L s y 9 7 3 3 > # X o : R F D P ! } / / %.,.,.n w 7 y p i y x L n I ! | &.T p y w 6 8 i C D S U ! >.s.<.<.<.7.",
"h.s.1.7.a.8.;...,.%.R S z p r r 7 = .   O 4 w 3 e n ! } } &.#.S p 3 2 3 3 ; 3 e e 7 i h ! ( v 7 > ; 5 5 i v / +.R ( >.q.s.8.8.7.",
"m.8.8.7.2.8.;.2.8.7.3.#.^ J C s y 8 * . . . # $ ; y I %.( U a 3 3 > & % & = & 3 3 $ > 9 h D r - ; 9 8 0 f h I @.=.3.6.h.m.N.a.B.",
"8.2.<.;.1.a.1.8.v.s.8.1.,.#.J A a q 8 5 = 2 = % & 3 a G e > $ $ & = = * = = = 9 r e 7 3 y a 3 r p f i f h n / %.>.5.a.q.j.q.n.b.",
"<.:.-.;.<.8.8.8.s.<.<.a.8.5.( R D x i 9 9 r e 7 2 7 6 2 3 7 2 6 6 8 8 8 1 2 7 e y 9 q p y y p z C x h c S O.%.6.s.r.<.8.v.r.8.8.",
"1.-.-.-.1.r.h.q.<.<.8.1.7.7.q.&.( E Z d e t y e 9 q e e a p t i g j j f p z s p i i z g p h x S n G K o.@.| 6.a.8.2.8.h.n.8.<.1.",
";.:.-.-.2.r.7.7.8.1.<.1.2.7.<.;.%.%.X.H z l a e t f f z S S c k m ! V B I R S n S M b h h z c M L R O.$.,.5.q.8.2.<.:.7.s.8.1.:.",
";.a.q.:.8.a.s.h.1.-.1.:.<.7.1.2.<.1.>.%.R R M z z n c M X.~ ! Y Y &.&.' %.3.=.#.! V I c v n L / ! } | ,.5.s.2.7.7.7.:.:.v.q.<.<.",
"<.8.j.b.B.m.B.j.8.r.8.1.8.r.2.;.-.;.:.<.5.q...Q Y ( %.%.4.&.%.%.| 5.s.j.m.m.m.i.1.6.%.T / @.%.] ] ;.:.<.8.a.<.;.:.8.8.7.j.q.7.8.",
"r.s.7.j.b.a.j.h.j.m.b.a.r.a.r.:.;.;.;.;.2.1.1.;.<.:.1.b.m.m.h.q.q.a.2.j.b.a.j.h.j.m.j.6.5.a.8.;.;.;.;.;.2.1.1.;.<.:.2.b.m.C.j.q."
};
