/* XPM */
static char *edd436a5a8bf424486f38d54adba73f4rPyUrEcNxROLfjiE[] = {
/* columns rows colors chars-per-pixel */
"64 64 157 2 ",
"   c #3B89A6",
".  c #3E93B3",
"X  c #468BA5",
"o  c #4B8CA5",
"O  c #4792AE",
"+  c #4A93AE",
"@  c #5493AB",
"#  c #4394B2",
"$  c #4C96B2",
"%  c #4798B6",
"&  c #4C99B6",
"*  c #479DBC",
"=  c #4C9CBA",
"-  c #5296B0",
";  c #539BB5",
":  c #5F9FB7",
">  c #539DB9",
",  c #5C9FB8",
"<  c #609DB4",
"1  c #4FA0BE",
"2  c #56A1BE",
"3  c #5BA2BD",
"4  c #63A4BC",
"5  c #4EA2C1",
"6  c #53A5C3",
"7  c #5CA6C1",
"8  c #56A9C7",
"9  c #5CA9C5",
"0  c #56AAC9",
"q  c #5FACCA",
"w  c #63A7C0",
"e  c #64AAC5",
"r  c #6AACC5",
"t  c #63AEC9",
"y  c #69AFC9",
"u  c #72ADC4",
"i  c #64B1CE",
"p  c #6BB2CC",
"a  c #73B4CC",
"s  c #7AB6CD",
"d  c #7FB8CE",
"f  c #64B4D2",
"g  c #6CB5D1",
"h  c #6DB9D5",
"j  c #65BBDA",
"k  c #6FBDDA",
"l  c #72B7D1",
"z  c #73B9D3",
"x  c #7ABCD5",
"c  c #74BEDA",
"v  c #79BED9",
"b  c #75C1DD",
"n  c #7CC2DC",
"m  c #77C4E2",
"M  c #7CC6E2",
"N  c #7CC9E5",
"B  c #75C9E8",
"V  c #7ECEEB",
"C  c #82BDD4",
"Z  c #8BBFD3",
"A  c #8DC2D6",
"S  c #83C3DC",
"D  c #8BC5DC",
"F  c #8CC8DE",
"G  c #91C5DA",
"H  c #93C8DD",
"J  c #9ACADE",
"K  c #A1CCDE",
"L  c #82C6E1",
"P  c #89C7E0",
"I  c #84CAE4",
"U  c #8BCBE4",
"Y  c #85CEEA",
"T  c #8BCFE9",
"R  c #93CDE4",
"E  c #9ACEE3",
"W  c #91CFE8",
"Q  c #85D1EE",
"!  c #8CD1EC",
"~  c #97D0E7",
"^  c #9CD1E6",
"/  c #94D3EC",
"(  c #9BD5EC",
")  c #9ED8EE",
"_  c #86D3F0",
"`  c #8CD5F2",
"'  c #8ED8F4",
"]  c #8BDCFA",
"[  c #93D7F1",
"{  c #9AD7F0",
"}  c #95D9F4",
"|  c #9CDBF4",
" . c #92DDFA",
".. c #9DDEF9",
"X. c #A3D2E5",
"o. c #ABD5E6",
"O. c #A3D6EB",
"+. c #A8D6E8",
"@. c #A3D9EE",
"#. c #ACDAED",
"$. c #B3DDEE",
"%. c #A3DDF4",
"&. c #AADEF3",
"*. c #A3DFF8",
"=. c #B3DFF2",
"-. c #8DE0FF",
";. c #94E2FF",
":. c #9CE3FF",
">. c #A6E0F7",
",. c #ACE1F6",
"<. c #A4E5FE",
"1. c #ABE5FD",
"2. c #ADE8FF",
"3. c #B3E2F6",
"4. c #BBE4F5",
"5. c #B3E5FB",
"6. c #BAE6FA",
"7. c #B4E9FF",
"8. c #B8EBFF",
"9. c #BBEAFF",
"0. c #BBEBFF",
"q. c #BDEBFF",
"w. c #BEEBFF",
"e. c #B9ECFF",
"r. c #BEECFE",
"t. c #C1E7F5",
"y. c #C6E9F6",
"u. c #CFEBF5",
"i. c #C0E5FB",
"p. c #C5EAFF",
"a. c #C0ECFF",
"s. c #C3EDFF",
"d. c #C4EDFF",
"f. c #CAEBFF",
"g. c #CDEAFF",
"h. c #CAEFFF",
"j. c #CEEDFF",
"k. c #CDEFFF",
"l. c #D0EFFF",
"z. c #D2EEFE",
"x. c #D8EEFF",
"c. c #CBF0FF",
"v. c #CEF0FF",
"b. c #D1F1FF",
"n. c #D5F1FF",
"m. c #DBF0FF",
"M. c #D9F3FF",
"N. c #DBF3FE",
"B. c #DDF2FF",
"V. c #DAF4FF",
"C. c #DDF4FF",
"Z. c #E3F6FF",
"A. c #E9F7FF",
"S. c #E7F8FF",
"D. c #ECF9FF",
"F. c #F5FCFE",
"G. c #FEFFFF",
/* pixels */
"r.8.r.r.1.d.M.n.s.8.8.8.1.s.b.s.7.8.c.M.C.M.s.8.2.<.<.1.;.-.-.h.1.8.8.7.2.2.<.:.7.2.;.<.8.7.<.<.:.<.:.;.1.h.n.Z.Z.A.Z.s.<.s.c.d.",
"<.<.8.d.h.b.b.s.8.7.8.2.:.r.v.8.<.<.2.8.v.b.s.2.7.1.<.<.;.<.<.e.e.2.7.s.q.s.q.1.8.7.<.<.8.8.1.;.:.1.7.8.d.M.M.n.n.n.M.7.1.h.c.8.",
"<.<.s.l.n.h.7.7.1.2.7.<.<.7.s.s.7.<.<.2.2.7.1.<.<.1.:.;.;.:.:.2.8.2.7.8.2.q.d.r.8.7.7.1.1.7.1.7.s.s.d.n.b.v.c.r.8.d.c.7.1.r.8.<.",
"<.<.d.n.k.2.:.8.7.2.8.7.<.<.r.d.8.:.8.8.<.<.<.<.2.1.;.;.-.;.<.s.8.1.r.8.:.8.r.8.7.8.s.q.q.q.8.h.n.v.d.h.c.8.<.8.h.h.s.7.<.<.<.<.",
"<.1.k.l.q.:.;.7.8.7.8.7.1.<.8.d.q.7.7.s.8.<.<.1.2.<.-.-.;.:.7.c.s.8.d.s.8.s.r.2.7.d.b.b.c.q.q.v.v.d.8.8.7.8.7.r.v.s.2.<.:.<.;.<.",
":.8.b.s.<.;.;.2.d.s.1.<.<.2.r.h.d.8.2.r.8.1.1.<.<.;.-.-.;.<.8.b.n.b.b.b.s.c.r.2.8.d.v.h.d.p.p.s.s.7.1.1.1.8.8.7.r.8.2.<.:.<.;.<.",
"<.s.b.e.;.-.:.8.s.8.<.;.<.8.8.d.s.8.7.2.<.1.2.:.;.;.;.<.7.s.v.M.C.C.b.v.d.r.r.8.8.8.8.8.l.l.x.l.2.<.<.2.2.1.<.:.7.8.2.<.<.:.;.<.",
"<.d.v.8.<.<.8.s.2.:.1.<.<.1.2.r.d.r.8.:.<.2.2.<.<.s.h.h.s.d.d.b.V.v.r.8.8.7.8.8.8.2.2.k.x.M.M.n.q.:.;.:.<.:.;.;.7.r.1.2.2.;.:.<.",
"<.s.s.<.8.d.d.s.8.2.7.2.:.;.2.h.n.k.q.7.8.r.q.2.8.b.n.d.8.7.:.8.8.<.:.;.<.8.8.8.8.q.d.g.x.x.M.M.p.s.r.<.;.;.-.:.8.8.2.8.7.;.:.1.",
"2.8.7.;.7.d.M.V.h.7.<.1.2.<.2.d.n.b.s.r.s.c.h.d.h.v.s.1.<.:.:.1.<.;.;.-.;.2.k.f.g.k.s.g.x.M.x.l.6.5.V.h.2.;.;.2.8.8.8.7.<.:.2.8.",
"8.8.7.<.1.q.n.C.M.h.8.2.2.8.8.7.s.d.s.s.r.v.k.s.r.7.:.;.;.;.2.7.;.:.<.:.1.s.p.g.l.f.f.l.M.M.M.y.&.3.h.n.M.v.v.c.7.1.s.7.;.<.r.r.",
"d.h.7.2.<.1.8.r.d.v.M.d.2.8.7.:.1.8.r.8.7.d.b.s.<.;.;.-.;.<.7.7.<.<.1.7.p.f.g.l.l.n.M.M.M.x.l.6.&.>.8.h.C.Z.Z.C.r.8.d.s.8.q.h.8.",
"M.n.8.<.:.;.;.:.<.8.k.v.h.s.2.:.<.8.7.:.<.s.n.b.1.;.;.:.<.<.8.8.<.<.q.8.6.f.f.b.n.M.M.M.M.k.i.3.&.&.8.7.r.v.b.b.8.8.d.s.k.v.n.n.",
"Z.b.7.:.:.<.:.;.;.<.8.d.n.n.q.8.2.7.7.<.<.7.v.M.r.;.<.1.<.<.7.2.:.q.5.&.3.k.d.b.M.M.M.M.h.6.3.=.%.{ 8.2.q.8.7.2.8.8.8.q.k.M.M.Z.",
"Z.h.<.<.<.:.;.;.;.1.8.7.d.n.b.h.8.2.2.7.2.<.r.b.h.8.7.2.1.7.8.1.8.,.( ( p.s.s.n.M.M.M.n.p.8.3.%.%.%.5.8.q.8.1.1.r.d.r.r.b.M.M.Z.",
"n.7.<.<.;.;.;.-.;.1.1.<.2.r.v.v.r.8.e.d.s.7.2.d.v.b.d.q.r.r.s.q.3.| ~ 3.k.v.b.n.n.n.n.n.k.5.%.{ ( &.,.7.8.r.d.h.h.d.v.V.M.n.n.C.",
"h.q.<.;.;.-.-.;.<.1.:.;.:.d.M.b.h.d.d.h.s.s.q.s.h.s.s.q.6.,.,.5.,.%.( 5.k.n.b.b.k.d.k.n.k.3.%.( ( %.( >.8.d.v.M.b.h.b.Z.Z.n.b.c.",
"b.s.1.:.:.;.;.;.<.:.;.;.1.c.C.b.h.k.h.r.q.b.M.v.h.d.q.q.6.3.&.&.&.| } 5.h.b.v.h.h.d.k.l.h.3.&.%.( ( / ,.s.d.v.k.s.c.b.n.M.b.b.n.",
"b.1.<.<.<.<.;.:.:.;.<.1.7.h.n.v.r.d.h.r.r.k.s.v.k.s.v.b.d.k.h.q.6.3.5.s.d.b.k.d.d.h.k.b.h.6.,.&.~ ! @.3.s.r.8.7.8.8.d.h.b.n.M.C.",
"h.2.:.;.:.:.;.:.:.1.8.d.s.8.q.d.d.8.r.h.r.r.v.h.d.d.b.v.v.k.k.6.6.i.i.h.h.h.s.8.q.q.s.s.3.%.4.&.I L ( &.2.7.7.r.h.8.q.v.b.M.n.n.",
"h.d.2.;.;.;.;.:.7.r.v.h.s.7.7.d.k.d.d.h.s.h.k.h.d.h.h.v.v.s.s.5.5.6.s.b.b.s.8.1.%.,.6.3.( T @.( b b R | ;.<.s.h.d.8.r.k.d.e.s.d.",
"r.c.h.s.7.1.<.2.8.s.s.r.8.7.s.d.d.h.h.8.r.v.d.d.s.s.k.b.k.d.q.&.%.3.q.h.h.d.s.6.( ~ @.@.U n P P z v R ' :.8.r.r.8.8.8.s.7.<.2.8.",
"2.d.b.V.M.M.M.v.s.8.2.7.8.s.d.s.8.s.r.8.h.h.h.d.r.v.b.v.d.h.i.&.%.3.q.d.s.s.s.s.&.U R ( S z S R z x R [ 7.e.7.2.7.8.7.8.d.d.s.7.",
"7.8.d.n.A.A.Z.C.v.8.1.<.8.h.d.8.2.7.s.s.d.s.s.8.8.k.b.d.q.M.D.G.F.B.q.q.q.s.s.d.&.U U F S x x A l l U %.8.2.<.1.7.2.1.7.d.v.s.8.",
"1.7.7.h.n.M.M.n.d.8.7.7.q.d.r.8.1.7.s.s.s.q.d.s.d.b.k.r.C.G.G.B.M.G.G.5.3.5.s.q.>.P S S n v l z z z D | 2.<.<.2.8.1.2.7.2.2.<.:.",
"<.8.r.r.s.v.b.h.s.r.r.r.8.r.r.8.7.7.,.5.8.d.8.q.v.n.b.h.G.G.q.%.@.&.G.D.%.| 1.5.%.I n v v g p z z z R Y ;.<.7.1.1.7.8.8.<.;.-.;.",
"8.2.8.8.2.8.r.8.8.r.d.v.e.8.8.8.8.,.| | ,.s.q.q.v.n.k.Z.G.V.5.} / / k.G.i.| *.5.%.I b n v h l z z S ( b :.8.2.:.:.7.8.1.<.<.<.8.",
"<.;.<.<.<.7.8.7.7.8.b.v.7.1.1.<.1.%./ ! ) 3.>.8.d.k.q.S.G.p.>.[ T Y 3.G.M.| ( | %.T ! ! Y b n x z n %.I 1.7.:.-.:.2.8.7.2.2.<.2.",
"-.;.;.;.;.2.7.7.8.r.n.b.:.<.:.-.%.%.Y N T | } | 7.7.1.Z.G.3./ / T ! p.G.Z.,.! ` >.%.} } } Y M S b L %.( 1.:.-.;.<.8.8.8.2.<.;.;.",
"-.;.;.;.;.:.:.:.7.d.n.h.2.<.;. .&.,.T I ~ / ! / %...} t.G.y.I T ~ | Z.G.A.5.| ! ..,.| } | / M P I Y &.=.h.s.s.d.d.d.d.s.8.1.;.-.",
"-.<.;.;.;.;.;.;.<.h.v.q.7.<. .| &.&.! / W T Y / %.| U P F.G.$./ %.l.G.G.D.7.,.} | %.} ! [ | T U ~ ! %.$.n.n.v.b.b.k.h.v.d.8.1.-.",
";.<.<.;.;.<.:.;.r.b.d.7.8.<.5.4.&.O.) / P T I ! %.| U n E F.G.G.G.G.n.G.A.7.<.1.%.} ` I ! %.! R ( } 3.4.l.d.8.8.7.1.7.d.s.7.2.-.",
"2.r.s.b.8.8.7.d.2.s.n.8.1.>.3.h.3.O.@.O.~ U n I ( %.O.U b L =.u.M.k.h.G.Z.s.<.>.5.:.' I Y %.[ ( &.%.5.| 7.:.8.:.<.<.d.M.C.k.8.d.",
"<.h.d.2.2.7.<.s.1.2.1.<.1.%.5.h.q.%.( / R I U / { ,.&.| ! I M / q.k.n.G.n.q.1.>.6.<.' I ! %.} %.&.%.3.O.8.8.8.8.h.h.h.8.d.8.2.<.",
"1.k.<.<.r.2.<.s.8.8.2.<.<.O.%.5.s.6.%.( ~ ( %.| [ | %.i.F.4.( >.q.d.D.G.d.q.>.| >.1. .! ' *. .%.%.%.5.%.q.v.s.s.s.2.7.8.s.<.<.:.",
"7.d.;.7.7.<.1.8.r.1.<.<.| O.@.%.,.8.6.3.%.| | / ! } 5.s.G.F.6.8.q.h.G.S.s.8.%.} | 8.<.' } %.| | &.>.5.@.8.<.8.d.1.<.<.;.8.1.<.:.",
"7.2.q.k.8.2.<.8.b.8.s.r.O.( R R ( >.,.&.>.>.3.| / | q.h.A.G.F.Z.A.G.F.q.q.>.' / | 6.q.%.} %.| ' | >.| R 7.;.;.7.v.s.:.:.8.7.<.1.",
"q.2.2.h.v.s.7.2.8.q.s.p.O.( ( ~ | 2.5.,.*.5.i.3.%.%.8.h.h.M.F.G.F.Z.d.7.5.| Y I ( 5.s.6.,.%.>.} } ,.( R 2.;.1.8.s.k.M.n.8.r.1.s.",
"M.1.:.;.<.d.k.2.2.1.2.3.&.&.&./ } 7.q.5.>.8.s.5.>.<.2.s.s.6.q.5.2.d.d.1.>.| Y L / >.s.5.5.8.q.1.*.,.3.L 5.1.:.1.8.2.s.r.8.q.b.M.",
"k.<.;.;.<.2.s.v.8.8.,.3.6.5.%.! | 5.6.&.5.8.8.7.<.:.8.q.6.6.1.:.>.7.q.>.| [ Y M / >.s.5.>.7.q.8.5.6.5.W #.8.;.<.q.8.8.8.d.h.n.C.",
"d.<.;.;.<.;.8.n.h.d.#.3.6.,./ Y | ,.%.| 5.q.q.8.<.1.7.7.5.6.>.>.1.1.,.| ' Y M M Y } 6.1.>.>.1.,.,.6.5.%.( 8.;.2.8.8.s.b.h.n.M.b.",
"q.:.:.;.:.7.q.h.r.=.&.%.%.%.~ ! %.| / | 5.s.s.8.5.1.<.1.7.1.>.*.| } / ( Y M b b N ' >...| / ( { | 5.2.%.F s.1.8.v.d.8.8.8.d.n.M.",
"d.8.<.<.8.d.8.q.4.#.&./ %.&.| &.3.*.>.>.5.q.8.2.5.,...| 2.8.1.>.,.%.! T S z z z M [ %.` ! I L T ! &.>.~ F 5.8.8.d.<.<.s.8.s.7.8.",
"8.b.Z.M.r.1.r.q.=.3.( W %.5.,.,.7.5.8.7.,.>.%.>.1.>.%.[ :.7.7.<...%.{ Y n x z b V | | ! Y N b L ! %.%.U U @.h.q.<.<.8.1.7.7.d.8.",
"2.q.b.b.r.8.q.#.6.>./ ( 5.6.&.%.>.7.2.8.>._ Y | %...%./ | 2.2.<...| %.{ N S x N [ <.1.| { _ N M ( %.| U S E 1.7.8.1.<.1.2.7.<.;.",
"<.2.2.8.8.k.%.=.5./ / %.6.3.( | %.>.>.5.,.Q N ! [ ' ! [ ..5.8.1.>.| ..%.I M I } >.1.8.8.2.>.! M / %.( R S G #.h.<.-.1.:.<.7.1.1.",
"-.;.:.<.8.o.A =.( C C %.1.>.%.%.%.%.,.5.,.' Y I Y Y I [ >.5.q.<.| %.>.%.I M / ,.7.<.8.7.7.7.%.! | %.I R ( H X.k.8.r.8.1.8.r.2.;.",
";.;.;.;.&.4 s C a u D ,.,.*.*.5.>.%.,.1.8.*.` I I N Y ` } ,.5.>.| %.5.>.! ! %.7.<.1.7.8.q.5.%.( %.[ v F 3.R A =.k.M.b.s.r.s.r.:.",
"7.8.8.>.#.r @ < < u / ,.>.%.,.6.%.,.5.2.2.| ! ! T m m Y [ >.1.| ! / 3.>.| | <.7.2.1.7.q.q.8.&.| %./ v D 3.( d C 2.s.n.d.s.<.;.2.",
"2.8.2.3.( x > - @ u R ,.,.,.3.3.>.,.7.2.2.%.[ ' [ V m Y | 5.5.| I T %.%.| >.<.2.<.1.5.q.q.q.2.,...) L P @./ e : %.r.8.r.q.;.;.2.",
"d.k.k.3.#.J z e 7 = r E &.@.E ( 7.8.8.7.%.>...| | _ V Q ( ,.8.*.Y ! %.5.>.<.2.6.>.3.5.8.8.d.5.>.*.%.U x S / w 4 6.8.r.8.<.-.:.8.",
"b.d.8.8.,.! P z q = # r a u r x ,.5.>.| ! | | %.| } _ ` / %.8.>.! I } >.1.7.8.,.%.%.>.1.5.q.5.>.*.%.L e e l r r @.>.1.<.;.<.<.8.",
"<.;.1.d.1.Q N n C e = % o o X 3 S / U n S %.%.%.} | } [ ~ | 8.1.T v M / %.>.6.3.%.%.%.>.>.3.&.| %.R a ; $ 3 e h E | 7.8.2.<.;.<.",
":.<.1.k.>.` / U F s r 3 = > O + ; 7 w , a &.3.&./ } [ / / | 5.5.I p p v n I U ( | | %.%.%.,.( n I x e 7 p a p z R O.5.8.;.-.;.2.",
":.8.2.8.8.>.' / ( L s y 9 7 3 3 > # X o : R F D P ! } / / %.,.,.n w 7 y p i y x L n I ! | &.T p y w 6 8 i C D S U ! >.d.<.<.<.7.",
"h.d.1.7.s.8.;...,.%.R S z p r r 7 = .   O 4 w 3 e n ! } } &.#.S p 3 2 3 3 ; 3 e e 7 i h ! ( v 7 > ; 5 5 i v / +.R ( >.q.d.8.8.7.",
"M.8.8.7.2.8.;.2.8.7.3.#.^ J C s y 8 * . . . # $ ; y I %.( U a 3 3 > & % & = & 3 3 $ > 9 h D r - ; 9 8 0 f h I @.=.3.6.h.M.V.s.C.",
"8.2.<.;.1.s.1.8.v.d.8.1.,.$.J A a q 8 5 = 2 = % & 3 a G e > $ $ & = = * = = = 9 r e 7 3 y a 3 r p f i f h n / %.>.5.s.q.k.q.n.b.",
"<.:.-.;.<.8.8.8.d.<.<.s.8.5.( R D x i 9 9 r e 7 2 7 6 2 3 7 2 6 6 8 8 8 1 2 7 e y 9 q p y y p z C x h c S O.%.6.d.r.<.8.v.r.8.8.",
"1.-.-.-.1.r.h.q.<.<.8.1.7.7.q.&.( E Z d e t y e 9 q e e a p t i g j j f p z s p i i z g p h x S n G K o.@.| 6.s.8.2.8.h.n.8.<.1.",
";.:.-.-.2.r.7.7.8.1.<.1.2.7.<.;.%.%.X.H z l a e t f f z S S c k m ! V B I R S n S M b h h z c M L R O.$.,.5.q.8.2.<.:.7.d.8.1.:.",
";.s.q.:.8.s.d.h.1.-.1.:.<.7.1.1.<.1.>.%.R R M z z n c M X.~ ! Y Y &.&.' %.3.=.#.! V I c v n L / ! } | ,.5.d.2.2.7.7.:.:.v.q.<.<.",
"<.8.k.b.C.M.C.k.8.r.8.1.8.r.2.;.-.;.:.<.5.q...Q Y ( %.%.4.&.%.%.| 5.d.k.M.M.M.p.1.6.%.T / @.%.] ] ;.:.<.8.s.<.;.:.8.8.7.k.q.7.8.",
"r.d.7.k.b.s.k.h.k.M.b.s.r.s.r.:.;.;.;.;.2.1.1.;.<.:.1.b.M.M.h.q.q.s.2.k.b.s.k.h.k.M.k.6.5.s.8.;.;.;.;.;.2.1.1.;.<.:.2.b.M.Z.k.q."
};
